<?xml version="1.0" encoding="UTF-8" standalone="no"?>
<!-- Created with Inkscape (http://www.inkscape.org/) -->

<svg
   width="189.67831mm"
   height="135.4012mm"
   viewBox="0 0 189.67831 135.4012"
   version="1.1"
   id="svg5"
   xml:space="preserve"
   inkscape:version="1.2 (dc2aedaf03, 2022-05-15)"
   sodipodi:docname="acetaldehyde-axes.svg"
   xmlns:inkscape="http://www.inkscape.org/namespaces/inkscape"
   xmlns:sodipodi="http://sodipodi.sourceforge.net/DTD/sodipodi-0.dtd"
   xmlns="http://www.w3.org/2000/svg"
   xmlns:svg="http://www.w3.org/2000/svg"><sodipodi:namedview
     id="namedview7"
     pagecolor="#ffffff"
     bordercolor="#666666"
     borderopacity="1.0"
     inkscape:showpageshadow="2"
     inkscape:pageopacity="0.0"
     inkscape:pagecheckerboard="0"
     inkscape:deskcolor="#d1d1d1"
     inkscape:document-units="mm"
     showgrid="false"
     inkscape:zoom="1.0910356"
     inkscape:cx="238.76398"
     inkscape:cy="331.79485"
     inkscape:window-width="1920"
     inkscape:window-height="1011"
     inkscape:window-x="1920"
     inkscape:window-y="32"
     inkscape:window-maximized="1"
     inkscape:current-layer="layer1" /><defs
     id="defs2"><marker
       style="overflow:visible"
       id="marker2805"
       refX="0"
       refY="0"
       orient="auto-start-reverse"
       inkscape:stockid="Arrow1"
       markerWidth="4.0606599"
       markerHeight="6.7071061"
       viewBox="0 0 4.0606602 6.7071068"
       inkscape:isstock="true"
       inkscape:collect="always"
       preserveAspectRatio="xMidYMid"><path
         style="fill:none;stroke:context-stroke;stroke-width:1;stroke-linecap:butt"
         d="M 3,-3 0,0 3,3"
         id="path2803"
         transform="rotate(180,0.125,0)"
         sodipodi:nodetypes="ccc" /></marker><marker
       style="overflow:visible"
       id="marker2751"
       refX="0"
       refY="0"
       orient="auto-start-reverse"
       inkscape:stockid="Arrow1"
       markerWidth="4.0606604"
       markerHeight="6.7071066"
       viewBox="0 0 4.0606602 6.7071068"
       inkscape:isstock="true"
       inkscape:collect="always"
       preserveAspectRatio="xMidYMid"><path
         style="fill:none;stroke:context-stroke;stroke-width:1;stroke-linecap:butt"
         d="M 3,-3 0,0 3,3"
         id="path2749"
         transform="rotate(180,0.125,0)"
         sodipodi:nodetypes="ccc" /></marker><marker
       style="overflow:visible"
       id="Arrow1"
       refX="0"
       refY="0"
       orient="auto-start-reverse"
       inkscape:stockid="Arrow1"
       markerWidth="4.0606604"
       markerHeight="6.7071066"
       viewBox="0 0 4.0606602 6.7071068"
       inkscape:isstock="true"
       inkscape:collect="always"
       preserveAspectRatio="xMidYMid"><path
         style="fill:none;stroke:context-stroke;stroke-width:1;stroke-linecap:butt"
         d="M 3,-3 0,0 3,3"
         id="path5057"
         transform="rotate(180,0.125,0)"
         sodipodi:nodetypes="ccc" /></marker></defs><g
     inkscape:label="Layer 1"
     inkscape:groupmode="layer"
     id="layer1"
     transform="translate(-3.8683489,-2.3038439)"><g
       id="g2309" /><g
       id="g2395"
       transform="matrix(0.797215,0,0,0.797215,-54.62759,-115.73681)"
       style="opacity:0.622008"><path
         style="fill:#cfcfcf;stroke-width:0.264583"
         d="m 134.05086,317.74782 c 0.191,-0.0764 0.4192,-0.067 0.50712,0.0209 0.0879,0.0879 -0.0683,0.15045 -0.34727,0.13896 -0.30822,-0.0127 -0.37092,-0.0754 -0.15985,-0.15985 z m -10.03831,-3.72186 c -0.3291,-0.41965 -0.31975,-0.429 0.0999,-0.0999 0.44073,0.34565 0.58089,0.56292 0.36313,0.56292 -0.0549,0 -0.2633,-0.20836 -0.46302,-0.46302 z m 7.83896,-0.24495 c -2.74723,-0.4583 -6.39364,-3.11605 -7.97325,-5.81146 -0.91122,-1.55487 -1.68404,-4.33049 -1.68404,-6.04828 0,-3.36529 1.76256,-7.03917 4.44701,-9.26935 2.45497,-2.03955 4.23584,-2.6371 7.85611,-2.63605 2.81519,8e-4 2.97565,0.0327 4.90405,0.97477 3.64488,1.78058 6.23386,5.27179 6.85941,9.24984 0.48227,3.06693 -0.70235,7.20188 -2.72209,9.50158 -1.13397,1.29115 -3.35932,2.85929 -4.87363,3.43431 -1.52532,0.5792 -5.07684,0.89437 -6.81357,0.60464 z m 6.36372,-4.91428 c 1.08735,-0.56899 2.90401,-2.57675 3.45528,-3.81874 0.67242,-1.51496 0.63121,-4.91251 -0.0775,-6.39211 -0.7695,-1.60644 -2.3497,-3.18707 -3.91482,-3.9159 -1.98634,-0.92498 -5.03819,-0.88513 -6.96743,0.091 -2.6606,1.34614 -4.28533,4.0909 -4.28059,7.23145 0.004,2.85637 1.95039,5.95633 4.40599,7.01843 2.19787,0.95062 5.32678,0.85983 7.37911,-0.21411 z m 7.26232,4.16704 c 0.34178,-0.3638 0.68094,-0.66146 0.7537,-0.66146 0.0728,0 -0.14734,0.29766 -0.48912,0.66146 -0.34177,0.3638 -0.68094,0.66146 -0.7537,0.66146 -0.0728,0 0.14734,-0.29766 0.48912,-0.66146 z m -23.31708,-0.85989 c -0.32911,-0.41965 -0.31975,-0.42901 0.0999,-0.0999 0.25466,0.19972 0.46302,0.40808 0.46302,0.46302 0,0.21776 -0.21727,0.0776 -0.56292,-0.36312 z m -3.64953,-8.15799 c 0.0127,-0.30823 0.0754,-0.37092 0.15985,-0.15985 0.0764,0.19099 0.067,0.4192 -0.0209,0.50712 -0.0879,0.0879 -0.15045,-0.0684 -0.13896,-0.34727 z m 31.51611,-0.7717 c 0.005,-0.43656 0.0647,-0.58313 0.13177,-0.3257 0.0671,0.25744 0.0627,0.61462 -0.01,0.79375 -0.0725,0.17914 -0.12736,-0.0315 -0.12197,-0.46805 z m 0,-2.64583 c 0.005,-0.43657 0.0647,-0.58313 0.13177,-0.3257 0.0671,0.25743 0.0627,0.61462 -0.01,0.79375 -0.0725,0.17913 -0.12736,-0.0315 -0.12197,-0.46805 z m -62.772072,-1.12448 -0.911799,-0.99219 0.992188,0.9118 c 0.923506,0.84868 1.113839,1.07257 0.911798,1.07257 -0.04421,0 -0.490698,-0.44648 -0.992187,-0.99218 z m 8.084034,0.49301 c -2.225057,-0.6468 -3.05629,-1.13622 -4.96965,-2.92607 -2.77249,-2.59353 -3.987327,-5.64252 -3.760558,-9.43823 0.406169,-6.79854 6.281673,-11.81938 13.17774,-11.26088 1.172856,0.095 1.241006,0.1379 0.869986,0.54787 -0.674411,0.74522 -1.214592,2.32439 -1.251306,3.65809 -0.02961,1.07553 -0.05936,1.14254 -0.198437,0.44685 l -0.163608,-0.81841 -1.812528,0.36886 c -3.013584,0.61328 -5.228141,2.48238 -6.085127,5.13589 -1.705066,5.27943 2.001175,10.55187 7.417394,10.55187 2.282022,0 4.372532,-0.88067 5.763822,-2.42813 1.4217,-1.58126 2.27744,-3.56817 1.70645,-3.96211 -0.28755,-0.19838 -0.25156,-0.22728 0.15374,-0.12349 1.60359,0.41067 2.48891,0.4342 3.48072,0.0925 l 1.08275,-0.37304 -0.37052,1.58828 c -1.55842,6.68038 -8.5397,10.82999 -15.040868,8.94016 z m 23.171928,-0.18433 c 0.0127,-0.30823 0.0754,-0.37092 0.15985,-0.15986 0.0764,0.191 0.067,0.41921 -0.0209,0.50712 -0.0879,0.0879 -0.15045,-0.0683 -0.13896,-0.34726 z m 26.94658,-9.03993 -0.64143,-0.72761 0.72761,0.64143 c 0.68005,0.59952 0.84894,0.81378 0.64143,0.81378 -0.0474,0 -0.37482,-0.32742 -0.72761,-0.7276 z M 82.813081,290.4119 c 0,-0.3638 0.06005,-0.51263 0.133452,-0.33073 0.0734,0.1819 0.0734,0.47956 0,0.66146 -0.0734,0.1819 -0.133452,0.0331 -0.133452,-0.33073 z m 31.495219,-0.66146 c 0.005,-0.43656 0.0647,-0.58313 0.13177,-0.3257 0.0671,0.25744 0.0627,0.61462 -0.01,0.79375 -0.0725,0.17914 -0.12736,-0.0315 -0.12197,-0.46805 z m -9.44241,-0.39385 c -0.0927,-0.14998 0.0135,-0.19433 0.24896,-0.10398 0.45837,0.17589 0.54224,0.36554 0.16165,0.36554 -0.13693,0 -0.32171,-0.1177 -0.41061,-0.26156 z m -1.32059,-0.8713 c -1.73847,-1.29235 -3.46377,-3.7265 -3.17127,-4.47423 0.0744,-0.19032 0.96632,-0.93675 1.98194,-1.65874 1.01562,-0.72198 1.84802,-1.49589 1.84977,-1.71979 0.002,-0.2239 0.30787,0.12869 0.68026,0.78353 0.37239,0.65485 1.15195,1.75618 1.73235,2.4474 0.58041,0.69122 0.92009,1.25677 0.75486,1.25677 -0.16524,0 -1.02762,0.56555 -1.91639,1.25677 -0.88878,0.69123 -1.73658,1.3378 -1.884,1.43683 -0.15845,0.10643 -0.003,0.40033 0.37928,0.7188 0.86688,0.72147 0.58297,0.68843 -0.4068,-0.0473 z m 20.54484,-1.71141 c -0.43361,-1.12779 -0.82922,-2.27892 -0.87913,-2.55808 -0.13316,-0.74475 1.8389,-2.15068 3.91702,-2.79255 1.77839,-0.54929 4.48095,-0.73555 4.20549,-0.28984 -0.0838,0.13557 0.21166,1.16287 0.65658,2.28288 0.44491,1.12001 0.76941,2.15495 0.7211,2.29989 -0.0483,0.14493 -0.93053,0.47752 -1.96047,0.73907 -1.02995,0.26156 -2.73472,0.90162 -3.78839,1.42236 -1.05366,0.52073 -1.95357,0.94679 -1.99979,0.94679 -0.0462,0 -0.4388,-0.92274 -0.87241,-2.05052 z m -9.80273,0.29698 c -0.0169,-0.30961 0.17767,-0.72633 0.43233,-0.92605 0.40269,-0.31581 0.42364,-0.31141 0.16077,0.0337 -0.16625,0.21829 -0.3608,0.635 -0.43233,0.92605 -0.12355,0.50261 -0.13162,0.50091 -0.16077,-0.0337 z m -14.392873,-3.1898 c -0.07022,-0.11882 -0.200869,-0.63276 -0.290333,-1.14208 l -0.16266,-0.92604 0.397182,1.03523 c 0.353654,0.92179 0.390244,1.5988 0.05581,1.03289 z m 109.612183,-1.24198 c 0,-0.0549 0.20835,-0.2633 0.46302,-0.46302 0.41964,-0.3291 0.429,-0.31975 0.0999,0.0999 -0.34564,0.44073 -0.56291,0.58089 -0.56291,0.36312 z m -12.69816,-0.85459 c -5.33964,-1.43467 -8.96927,-6.13789 -8.99121,-11.65068 -0.006,-1.51501 0.0383,-1.6362 0.65499,-1.79098 0.3638,-0.0913 0.66146,-0.25898 0.66146,-0.37261 0,-0.11363 -1.13815,-1.25732 -2.52922,-2.54154 l -2.52921,-2.33494 0.87557,-0.52248 c 0.48156,-0.28736 1.2871,-0.89757 1.79009,-1.35603 0.50299,-0.45844 0.74111,-0.60233 0.52917,-0.31973 -0.27024,0.36031 -0.28252,0.45196 -0.0411,0.30677 0.21892,-0.13167 0.65235,0.0862 1.19063,0.59854 2.06347,1.96396 4.03392,3.72522 4.17573,3.73242 0.0849,0.004 0.5839,-0.42172 1.10891,-0.94673 1.16656,-1.16657 1.17711,-1.14579 -1.9286,-3.80136 -1.27218,-1.08779 -2.29177,-2.09982 -2.26576,-2.24896 0.026,-0.14913 0.42714,-0.926 0.8914,-1.72637 0.46427,-0.80036 0.84524,-1.53015 0.8466,-1.62175 0.001,-0.0916 0.74663,0.53842 1.65613,1.40006 0.90951,0.86163 2.09429,1.92423 2.63286,2.36132 l 0.97921,0.7947 0.41664,-0.80571 c 0.41622,-0.80487 0.41904,-0.8057 2.72496,-0.80284 3.75503,0.005 6.54053,1.15745 8.81799,3.64935 2.65396,2.90386 3.58727,5.51994 3.3217,9.3108 -0.13022,1.85877 -0.32295,2.58227 -1.11457,4.18401 -2.59995,5.26064 -8.3942,7.97717 -13.87434,6.50474 z m 5.79811,-4.24814 c 1.94134,-0.62699 4.01463,-2.67192 4.65315,-4.58952 2.79335,-8.38894 -7.56365,-14.63249 -13.34676,-8.04589 -1.29957,1.48012 -1.88636,3.00329 -1.90069,4.93369 -0.0213,2.8644 0.56532,4.26508 2.60545,6.22141 1.90586,1.82758 5.08791,2.4172 7.98885,1.48031 z m 9.01671,2.98607 c 0,-0.0549 0.20836,-0.2633 0.46302,-0.46302 0.41965,-0.32911 0.42901,-0.31975 0.0999,0.0999 -0.34564,0.44073 -0.56292,0.58089 -0.56292,0.36313 z m -24.37541,-0.62771 c -0.32911,-0.41965 -0.31975,-0.429 0.0999,-0.0999 0.25466,0.19972 0.46302,0.40808 0.46302,0.46302 0,0.21777 -0.21727,0.0776 -0.56291,-0.36312 z m -89.990728,-7.38512 c 0.181901,-0.0734 0.479557,-0.0734 0.661458,0 0.181901,0.0734 0.03307,0.13345 -0.330729,0.13345 -0.363802,0 -0.51263,-0.0601 -0.330729,-0.13345 z m 2.116666,0 c 0.181901,-0.0734 0.479557,-0.0734 0.661462,0 0.1819,0.0734 0.0331,0.13345 -0.330733,0.13345 -0.363802,0 -0.51263,-0.0601 -0.330729,-0.13345 z m 7.251672,-1.14769 c 0,-0.3638 0.0601,-0.51263 0.13345,-0.33073 0.0734,0.1819 0.0734,0.47956 0,0.66146 -0.0734,0.1819 -0.13345,0.0331 -0.13345,-0.33073 z m 77.28328,-1.19063 c 0.003,-0.58208 0.0571,-0.78905 0.1204,-0.45993 0.0633,0.32911 0.0609,0.80536 -0.005,1.05833 -0.0662,0.25297 -0.11801,-0.0163 -0.11507,-0.5984 z m -77.28328,-0.66146 c 0,-0.3638 0.0601,-0.51263 0.13345,-0.33073 0.0734,0.18191 0.0734,0.47956 0,0.66146 -0.0734,0.1819 -0.13345,0.0331 -0.13345,-0.33073 z m 74.95095,-5.09323 -0.77711,-0.85989 0.8599,0.7771 c 0.80154,0.72438 0.98151,0.94269 0.77711,0.94269 -0.0455,0 -0.43249,-0.38695 -0.8599,-0.8599 z m -74.76189,0.1323 c -0.32911,-0.41965 -0.31975,-0.42901 0.0999,-0.0999 0.25466,0.19972 0.46302,0.40808 0.46302,0.46302 0,0.21776 -0.21727,0.0776 -0.56292,-0.36312 z m 72.50955,-2.11667 -0.64143,-0.7276 0.7276,0.64143 c 0.68006,0.59951 0.84894,0.81377 0.64143,0.81377 -0.0474,0 -0.37481,-0.32742 -0.7276,-0.7276 z m -73.7854,-3.48347 c -1.08408,-1.27797 -2.00902,-2.43747 -2.05541,-2.57666 -0.0464,-0.13919 0.42386,-0.53389 1.04501,-0.87711 0.62116,-0.34322 1.60562,-0.98636 2.18771,-1.4292 0.58208,-0.44284 0.85613,-0.56958 0.60901,-0.28164 -0.42988,0.50088 -0.40631,0.56906 0.54486,1.57617 0.5468,0.57895 1.54168,1.72839 2.21084,2.55431 0.66916,0.82592 1.30627,1.42123 1.41579,1.32292 0.10952,-0.0983 0.11228,-0.028 0.006,0.15629 -0.10615,0.18427 -0.30383,0.26654 -0.4393,0.18282 -0.13546,-0.0837 -0.2463,-0.0207 -0.2463,0.14015 0,0.29038 -2.53624,1.59959 -3.04271,1.57065 -0.14552,-0.008 -1.15156,-1.06073 -2.23564,-2.3387 z m 70.86126,0.83764 c -0.32911,-0.41965 -0.31975,-0.42901 0.0999,-0.0999 0.25466,0.19972 0.46302,0.40808 0.46302,0.46302 0,0.21776 -0.21728,0.0776 -0.56292,-0.36312 z m 12.07229,-0.33073 c 0.26339,-0.29104 0.53842,-0.52917 0.61118,-0.52917 0.0728,0 -0.0832,0.23813 -0.3466,0.52917 -0.26339,0.29104 -0.53842,0.52916 -0.61118,0.52916 -0.0728,0 0.0832,-0.23812 0.3466,-0.52916 z m -86.15562,-0.19844 c -0.32911,-0.41965 -0.31975,-0.429 0.0999,-0.0999 0.25466,0.19972 0.46302,0.40808 0.46302,0.46302 0,0.21777 -0.21727,0.0776 -0.56292,-0.36312 z m 10.28208,-0.85284 0.59104,-0.68855 -1.0238,-1.23895 c -2.51492,-3.0434 -3.29978,-3.87056 -3.5348,-3.72531 -0.13843,0.0855 0.43477,-0.68472 1.27378,-1.71172 l 1.52547,-1.86728 0.53726,0.70977 c 0.29549,0.39038 1.27521,1.54607 2.17714,2.56821 l 1.63988,1.85845 -0.49942,0.97347 c -0.27469,0.53541 -1.12451,1.6118 -1.88851,2.39197 -0.76399,0.78017 -1.12311,1.10865 -0.79804,0.72994 z m -12.365,-1.21972 c -0.444853,-0.24685 -0.520442,-0.36831 -0.23083,-0.37094 0.23684,-0.002 0.57884,0.1747 0.76,0.39298 0.38637,0.46554 0.34656,0.46388 -0.52917,-0.022 z m 21.76562,-2.68136 c 0.40218,-0.0608 0.9975,-0.0592 1.32292,0.004 0.32542,0.0628 -0.004,0.11255 -0.73125,0.11057 -0.7276,-0.002 -0.99385,-0.0534 -0.59167,-0.11419 z m 77.39007,-0.26186 c 0.32912,-0.0633 0.80537,-0.0609 1.05833,0.005 0.25297,0.0662 -0.0163,0.118 -0.5984,0.11507 -0.58208,-0.003 -0.78905,-0.0571 -0.45993,-0.12041 z M 87.500055,253.70096 c -0.329107,-0.41965 -0.319749,-0.429 0.09989,-0.0999 0.254662,0.19972 0.463021,0.40808 0.463021,0.46302 0,0.21777 -0.217272,0.0776 -0.562916,-0.36312 z m 7.706666,-0.51169 c -0.363802,-0.0599 -1.316302,-0.36233 -2.116667,-0.67207 -5.767717,-2.23209 -8.841883,-8.30616 -7.265986,-14.35644 0.871308,-3.34517 3.405092,-6.34246 6.668418,-7.88827 1.704149,-0.80724 1.938062,-0.84705 4.976914,-0.84705 3.14657,0 3.21503,0.013 5.17912,0.98371 4.2315,2.09132 6.85797,6.28185 6.83923,10.91198 -0.0304,7.51786 -6.75594,13.10704 -14.281029,11.86814 z m 5.592519,-4.76734 c 2.71943,-1.19135 4.2118,-3.37251 4.39861,-6.42878 0.15737,-2.57468 -0.23074,-3.92476 -1.61721,-5.62557 -1.62774,-1.9968 -3.5593,-2.92964 -6.063141,-2.92817 -5.680779,0.003 -9.292913,5.18259 -7.460996,10.69797 0.613078,1.84581 2.723995,3.97757 4.506262,4.55076 2.54508,0.81851 3.891631,0.76103 6.236475,-0.26621 z m 91.22495,3.95611 -0.64143,-0.7276 0.7276,0.64143 c 0.68006,0.59952 0.84894,0.81378 0.64143,0.81378 -0.0474,0 -0.37481,-0.32742 -0.7276,-0.72761 z M 84.854222,251.05513 c -0.329107,-0.41965 -0.319749,-0.42901 0.0999,-0.0999 0.254661,0.19972 0.463021,0.40808 0.463021,0.46302 0,0.21776 -0.217272,0.0776 -0.562916,-0.36312 z m 31.097148,-0.39688 -0.50403,-0.59531 0.59532,0.50403 c 0.55944,0.47366 0.71576,0.68659 0.50403,0.68659 -0.0502,0 -0.3181,-0.26789 -0.59532,-0.59531 z m 73.1624,-0.92604 -0.64143,-0.7276 0.7276,0.64143 c 0.68006,0.59951 0.84894,0.81377 0.64144,0.81377 -0.0474,0 -0.37482,-0.32742 -0.72761,-0.7276 z m -74.8908,-1.05833 c -0.32911,-0.41965 -0.31975,-0.42901 0.0999,-0.0999 0.25466,0.19972 0.46302,0.40808 0.46302,0.46302 0,0.21776 -0.21727,0.0776 -0.56292,-0.36312 z m -1.5875,-1.85209 c -0.32911,-0.41964 -0.31975,-0.429 0.0999,-0.0999 0.25466,0.19972 0.46302,0.40808 0.46302,0.46302 0,0.21776 -0.21727,0.0776 -0.56292,-0.36313 z m 74.15885,-0.85989 c 0,-0.3638 0.0601,-0.51263 0.13346,-0.33073 0.0734,0.1819 0.0734,0.47956 0,0.66146 -0.0734,0.1819 -0.13346,0.0331 -0.13346,-0.33073 z m -0.0209,-3.59393 c 0.0127,-0.30822 0.0754,-0.37091 0.15985,-0.15985 0.0764,0.191 0.067,0.4192 -0.0209,0.50712 -0.0879,0.0879 -0.15045,-0.0684 -0.13896,-0.34727 z M 81.499968,241.33169 c 0.0054,-0.43656 0.06469,-0.58313 0.131774,-0.3257 0.06708,0.25744 0.06267,0.61462 -0.0098,0.79375 -0.07248,0.17914 -0.127363,-0.0315 -0.121971,-0.46805 z m 31.750002,0 c 0.005,-0.43656 0.0647,-0.58313 0.13177,-0.3257 0.0671,0.25744 0.0627,0.61462 -0.01,0.79375 -0.0725,0.17914 -0.12736,-0.0315 -0.12197,-0.46805 z m 70.02925,-7.2099 c -0.32911,-0.41964 -0.31975,-0.429 0.0999,-0.0999 0.25466,0.19972 0.46302,0.40808 0.46302,0.46302 0,0.21777 -0.21727,0.0776 -0.56291,-0.36312 z m -9.22667,-6.96093 c 0,-0.1541 0.11906,-0.20661 0.26458,-0.11667 0.14552,0.0899 0.26459,0.21603 0.26459,0.2802 0,0.0642 -0.11907,0.11667 -0.26459,0.11667 -0.14552,0 -0.26458,-0.12609 -0.26458,-0.2802 z m -77.716315,-1.75523 c 0.257431,-0.0671 0.614619,-0.0627 0.79375,0.01 0.179131,0.0725 -0.03149,0.12736 -0.468056,0.12197 -0.436562,-0.005 -0.583125,-0.0647 -0.325694,-0.13178 z m 1.5875,0 c 0.257432,-0.0671 0.614619,-0.0627 0.79375,0.01 0.179131,0.0725 -0.03149,0.12736 -0.468056,0.12197 -0.436562,-0.005 -0.583126,-0.0647 -0.325694,-0.13178 z m 76.834375,-0.78679 c -0.097,-0.097 -0.17639,-0.29942 -0.17639,-0.44979 0,-0.16579 0.12323,-0.15017 0.31309,0.0397 0.1722,0.1722 0.25157,0.37461 0.17639,0.44979 -0.0752,0.0752 -0.21608,0.0573 -0.31309,-0.0397 z m 0.0882,-1.69131 c 0,-0.15411 0.11906,-0.20661 0.26458,-0.11667 0.14552,0.0899 0.26459,0.21602 0.26459,0.28019 0,0.0642 -0.11907,0.11668 -0.26459,0.11668 -0.14552,0 -0.26458,-0.12609 -0.26458,-0.2802 z m 0.26458,-1.32292 c 0,-0.1541 0.11907,-0.20661 0.26459,-0.11667 0.14552,0.0899 0.26458,0.21603 0.26458,0.2802 0,0.0642 -0.11906,0.11667 -0.26458,0.11667 -0.14552,0 -0.26459,-0.12609 -0.26459,-0.2802 z m 0.386,-1.3249 c -0.0959,-0.1552 -0.11766,-0.33893 -0.0483,-0.40829 0.0694,-0.0694 0.1966,0.0576 0.28277,0.28219 0.17891,0.46623 0.0264,0.54823 -0.23447,0.1261 z m 0.31956,-1.21712 c -0.097,-0.097 -0.17639,-0.29942 -0.17639,-0.44979 0,-0.16579 0.12323,-0.15017 0.31309,0.0397 0.1722,0.1722 0.25158,0.37461 0.17639,0.44979 -0.0752,0.0752 -0.21608,0.0573 -0.31309,-0.0397 z m 0.22048,-1.67569 c -0.0899,-0.14552 -0.0374,-0.26459 0.11668,-0.26459 0.15411,0 0.2802,0.11907 0.2802,0.26459 0,0.14552 -0.0525,0.26458 -0.11668,0.26458 -0.0642,0 -0.19026,-0.11906 -0.2802,-0.26458 z m 0.30869,-1.23473 c -0.097,-0.097 -0.17639,-0.29941 -0.17639,-0.44979 0,-0.16579 0.12323,-0.15016 0.31309,0.0397 0.1722,0.1722 0.25157,0.37461 0.17639,0.44979 -0.0752,0.0752 -0.21608,0.0573 -0.31309,-0.0397 z m 0.26458,-1.32291 c -0.097,-0.097 -0.17639,-0.29942 -0.17639,-0.44979 0,-0.16579 0.12323,-0.15017 0.31309,0.0397 0.1722,0.1722 0.25158,0.3746 0.17639,0.44979 -0.0752,0.0752 -0.21608,0.0573 -0.31309,-0.0397 z m 0.22048,-1.6757 c -0.0899,-0.14552 -0.0374,-0.26458 0.11668,-0.26458 0.15411,0 0.2802,0.11906 0.2802,0.26458 0,0.14552 -0.0525,0.26459 -0.11668,0.26459 -0.0642,0 -0.19026,-0.11907 -0.2802,-0.26459 z m -8.3544,-4.69635 -0.64143,-0.7276 0.72761,0.64143 c 0.40018,0.35279 0.7276,0.68021 0.7276,0.7276 0,0.20751 -0.21426,0.0386 -0.81378,-0.64143 z m -4.43611,-10.12031 c 0,-0.36381 0.0601,-0.51263 0.13345,-0.33073 0.0734,0.1819 0.0734,0.47955 0,0.66146 -0.0734,0.1819 -0.13345,0.0331 -0.13345,-0.33073 z m 0,-1.85209 c 0,-0.3638 0.0601,-0.51263 0.13345,-0.33073 0.0734,0.18191 0.0734,0.47956 0,0.66146 -0.0734,0.1819 -0.13345,0.0331 -0.13345,-0.33073 z m 15.50558,-15.00379 c 0.32912,-0.0633 0.80537,-0.0609 1.05833,0.005 0.25297,0.0662 -0.0163,0.118 -0.5984,0.11506 -0.58208,-0.003 -0.78905,-0.0571 -0.45993,-0.1204 z"
         id="path2323" /><path
         style="fill:#b0b0b0;stroke-width:0.264583"
         d="m 130.95429,315.39348 c -4.19037,-1.1269 -7.29987,-3.70245 -9.17413,-7.59881 -3.76643,-7.8299 0.77059,-17.37626 9.20313,-19.36436 4.8794,-1.1504 9.53919,0.16239 13.06347,3.68034 2.89208,2.88688 4.06369,5.7154 4.06369,9.81062 0,4.03174 -1.18417,6.94203 -3.93235,9.66436 -3.63974,3.6055 -8.63139,5.04287 -13.22381,3.80785 z m 7.71079,-2.21711 c 1.51431,-0.57502 3.73966,-2.14316 4.87363,-3.43431 2.01974,-2.2997 3.20436,-6.43465 2.72209,-9.50158 -0.62555,-3.97805 -3.21453,-7.46926 -6.85941,-9.24984 -1.9284,-0.94205 -2.08886,-0.97395 -4.90405,-0.97477 -3.62027,-0.001 -5.40114,0.5965 -7.85611,2.63605 -2.68445,2.23018 -4.44701,5.90406 -4.44701,9.26935 0,4.46689 2.90534,8.97693 7.00073,10.86742 2.26062,1.04354 2.8242,1.14689 5.69927,1.04516 1.50809,-0.0534 2.75031,-0.26995 3.77086,-0.65748 z m -15.56996,-0.0764 -0.50403,-0.59531 0.59532,0.50402 c 0.55944,0.47367 0.71576,0.6866 0.50403,0.6866 -0.0502,0 -0.3181,-0.26789 -0.59532,-0.59531 z m 23.17618,-1.09209 c 0,-0.0549 0.20836,-0.2633 0.46302,-0.46302 0.41965,-0.3291 0.429,-0.31975 0.0999,0.0999 -0.34565,0.44073 -0.56292,0.58089 -0.56292,0.36312 z m -49.543225,-8.01283 c 0.181901,-0.0734 0.479557,-0.0734 0.661458,0 0.181901,0.0734 0.03307,0.13346 -0.330729,0.13346 -0.363802,0 -0.51263,-0.0601 -0.330729,-0.13346 z m 3.047743,-0.008 c 0.257432,-0.0671 0.614622,-0.0627 0.793752,0.01 0.17913,0.0725 -0.0315,0.12736 -0.46806,0.12197 -0.43656,-0.005 -0.583123,-0.0647 -0.325692,-0.13178 z m 50.251232,-2.06561 c 0.005,-0.43656 0.0647,-0.58312 0.13177,-0.32569 0.0671,0.25743 0.0627,0.61462 -0.01,0.79375 -0.0725,0.17913 -0.12736,-0.0315 -0.12197,-0.46806 z m -54.820329,-0.1046 c -7.22884,-1.9121 -11.715569,-9.01603 -10.210994,-16.16727 1.574005,-7.48125 8.712863,-12.31629 16.189743,-10.96505 1.46145,0.26411 1.54177,0.36048 0.88402,1.06062 -0.53386,0.56827 -0.79747,0.62194 -2.996458,0.61007 -2.753347,-0.0149 -3.383419,0.10886 -5.586103,1.09698 -6.149366,2.75861 -8.766634,10.71859 -5.498595,16.72305 0.807154,1.48301 3.57563,4.18952 5.060092,4.94684 6.062539,3.09288 13.403084,0.55343 16.482704,-5.70217 0.50631,-1.02848 0.83545,-2.12193 0.8559,-2.84349 0.0183,-0.64481 0.0672,-1.13984 0.10866,-1.10006 0.0415,0.0398 0.44104,-0.26919 0.88788,-0.6866 0.44684,-0.41742 0.90429,-0.75894 1.01655,-0.75894 0.28511,0 0.0387,2.23113 -0.43683,3.95491 -0.66005,2.39278 -1.90127,4.52353 -3.62621,6.22497 -1.94766,1.92112 -3.66896,2.88419 -6.40609,3.58423 -2.453984,0.62763 -4.410208,0.634 -6.724269,0.0219 z M 107.9779,289.96413 c 0.25743,-0.0671 0.61462,-0.0627 0.79375,0.01 0.17913,0.0725 -0.0315,0.12736 -0.46805,0.12197 -0.43657,-0.005 -0.58313,-0.0647 -0.3257,-0.13178 z m 15.04126,-0.41196 c -0.12116,-0.32742 -0.4754,-1.28439 -0.7872,-2.12659 -0.3118,-0.8422 -0.56691,-1.69009 -0.56691,-1.8842 0,-0.19411 0.44649,-0.82052 0.99219,-1.39202 0.5457,-0.5715 0.852,-0.8676 0.68067,-0.658 -0.24425,0.29881 -0.16592,0.78721 0.36277,2.26184 0.37086,1.03441 0.83764,2.20065 1.03728,2.59164 0.34093,0.6677 0.3164,0.74408 -0.40361,1.25677 -0.96055,0.68397 -1.04496,0.6808 -1.31519,-0.0494 z m -17.62598,-0.1899 c -1.4589,-0.70143 -2.18067,-1.30796 -1.83321,-1.54051 0.15449,-0.10339 1.00807,-0.75353 1.89685,-1.44476 0.88877,-0.69122 1.76634,-1.25677 1.95014,-1.25677 0.1838,0 -0.0155,-0.38262 -0.44293,-0.85027 -0.70923,-0.77601 -0.67994,-0.76546 0.33546,0.12083 0.6119,0.53411 1.60485,1.22225 2.20654,1.52922 l 1.09398,0.5581 -1.54279,1.19801 c -0.84854,0.65891 -1.75552,1.31186 -2.01552,1.451 -0.25999,0.13915 -0.40283,0.36608 -0.3174,0.5043 0.23189,0.37521 -0.15263,0.29746 -1.33112,-0.26915 z m 8.92492,-1.06704 c 0,-0.50932 0.0545,-0.71768 0.12101,-0.46302 0.0666,0.25466 0.0666,0.67138 0,0.92604 -0.0666,0.25466 -0.12101,0.0463 -0.12101,-0.46302 z m 18.33524,-2.43918 c 0.0827,-0.21546 -0.21863,-1.32052 -0.66957,-2.45569 -0.8949,-2.25278 -0.81134,-2.6756 0.47298,-2.39352 0.71032,0.15601 0.87323,0.40241 1.61824,2.44752 0.45563,1.25073 0.79211,2.31035 0.74774,2.35472 -0.0444,0.0444 -0.58445,0.16123 -1.20019,0.25969 -0.92572,0.14803 -1.0935,0.1112 -0.9692,-0.21272 z m 65.1621,-0.12281 c 0.19099,-0.0764 0.4192,-0.067 0.50712,0.0209 0.0879,0.0879 -0.0684,0.15045 -0.34727,0.13896 -0.30822,-0.0127 -0.37092,-0.0754 -0.15985,-0.15985 z M 99.87092,282.8509 c -0.450064,-1.32086 -0.576188,-2.8053 -0.228693,-2.69161 0.111197,0.0364 1.013433,-0.52916 2.004963,-1.25677 0.99153,-0.7276 1.87382,-1.32291 1.96064,-1.32291 0.25473,0 0.77835,2.65291 0.61329,3.10719 -0.083,0.22835 -0.92476,0.98068 -1.87065,1.67186 -0.94589,0.69118 -1.79379,1.36921 -1.88424,1.50673 -0.0904,0.13752 -0.35833,-0.319 -0.59531,-1.01449 z m 96.70003,0.80935 c -6.4468,-1.80949 -10.61215,-7.07391 -10.61215,-13.41227 v -1.7965 h 0.79375 c 0.43656,0 0.79375,-0.10326 0.79375,-0.22947 0,-0.12621 -1.06265,-1.16801 -2.36144,-2.3151 -1.29879,-1.1471 -2.37035,-2.15674 -2.38125,-2.24364 -0.0109,-0.0869 0.24689,-0.27701 0.57286,-0.42246 0.52649,-0.23493 0.88102,0.003 3.175,2.13391 1.42028,1.3191 2.58233,2.48921 2.58233,2.60023 0,0.11103 -0.29766,0.27657 -0.66146,0.36788 -0.6167,0.15478 -0.66102,0.27597 -0.65499,1.79098 0.0129,3.24423 1.07968,5.93668 3.25034,8.20365 5.9279,6.19093 15.80525,4.6512 19.61521,-3.05771 0.79162,-1.60174 0.98435,-2.32524 1.11457,-4.18401 0.26557,-3.79086 -0.66774,-6.40694 -3.3217,-9.3108 -2.27746,-2.4919 -5.06296,-3.64469 -8.81799,-3.64935 -2.30592,-0.003 -2.30874,-0.002 -2.72496,0.80284 l -0.41664,0.80571 -0.97921,-0.7947 c -2.40783,-1.95414 -4.34299,-3.99205 -4.18406,-4.40621 0.0892,-0.23239 0.16214,-0.54495 0.16214,-0.69457 0,-0.14963 1.19062,0.8257 2.64583,2.1674 l 2.64584,2.43946 v -0.92429 c 0,-1.10893 0.32503,-1.24168 3.05326,-1.24697 3.78368,-0.007 7.07795,1.33954 9.64674,3.94411 4.47564,4.53799 5.44897,10.55103 2.64197,16.32159 -0.84232,1.73161 -2.87183,3.99656 -4.68297,5.22621 -2.84265,1.93 -7.72378,2.77411 -10.89477,1.88408 z m -66.22426,-2.95409 c 0.191,-0.0764 0.4192,-0.067 0.50712,0.0209 0.0879,0.0879 -0.0684,0.15046 -0.34726,0.13897 -0.30823,-0.0127 -0.37092,-0.0754 -0.15986,-0.15985 z m -30.885747,-1.29652 c 0.0127,-0.30823 0.07539,-0.37092 0.159851,-0.15985 0.07643,0.19099 0.06703,0.4192 -0.02088,0.50712 -0.08792,0.0879 -0.150453,-0.0684 -0.138965,-0.34727 z m -1.145368,-6.90005 c 0.181901,-0.0734 0.479557,-0.0734 0.661458,0 0.181901,0.0734 0.03307,0.13345 -0.330729,0.13345 -0.363802,0 -0.51263,-0.0601 -0.330729,-0.13345 z m 8.289115,-2.09578 c 0.0127,-0.30823 0.0754,-0.37092 0.15985,-0.15986 0.0764,0.191 0.067,0.41921 -0.0209,0.50712 -0.0879,0.0879 -0.15045,-0.0683 -0.13896,-0.34726 z m 76.93911,-4.27743 c -0.32911,-0.41965 -0.31975,-0.42901 0.0999,-0.0999 0.44072,0.34564 0.58088,0.56292 0.36312,0.56292 -0.0549,0 -0.2633,-0.20836 -0.46302,-0.46302 z m -79.52329,-7.04574 -2.15265,-2.48168 0.68504,-0.31213 c 0.56475,-0.25732 0.72483,-0.24101 0.91168,0.0929 0.12465,0.22274 1.1156,1.42455 2.2021,2.67068 1.0865,1.24614 1.97546,2.3211 1.97546,2.38881 0,0.0677 -0.33052,0.12311 -0.73449,0.12311 -0.59773,0 -1.13533,-0.4621 -2.88714,-2.48167 z m -9.872123,-4.28707 c -6.275405,-1.65561 -10.569479,-7.12759 -10.580192,-13.48244 -0.01508,-8.94632 8.66979,-15.72701 17.273305,-13.48608 7.36228,1.91763 12.01652,9.64457 10.11445,16.79193 -1.98748,7.4683 -9.60072,12.07794 -16.807563,10.17659 z m 6.114953,-1.7911 c 2.07808,-0.48917 4.73275,-2.0481 6.12546,-3.59713 5.38992,-5.99488 3.5372,-15.40947 -3.74028,-19.00619 -1.96409,-0.97071 -2.03255,-0.98371 -5.17912,-0.98371 -3.038852,0 -3.272765,0.0398 -4.976914,0.84705 -9.687134,4.5887 -9.315895,18.40822 0.597568,22.24471 2.361234,0.9138 4.707181,1.07577 7.173286,0.49527 z m 13.80764,-0.63522 c -0.85897,-0.98183 -1.80761,-2.10853 -2.10809,-2.50378 -0.30049,-0.39524 -0.6378,-0.63337 -0.74959,-0.52916 -0.11179,0.1042 -0.0674,-0.0718 0.0986,-0.39112 0.16601,-0.31931 0.40653,-0.64527 0.53447,-0.72434 0.34434,-0.21281 4.26245,4.47858 4.26245,5.10369 0,1.04131 -0.49346,0.80999 -2.03783,-0.95529 z m 78.99782,1.05913 c -0.32911,-0.41965 -0.31975,-0.42901 0.0999,-0.0999 0.44073,0.34564 0.58089,0.56292 0.36313,0.56292 -0.0549,0 -0.2633,-0.20836 -0.46302,-0.46302 z m -84.10375,-1.48896 c 0,-0.0549 0.20836,-0.2633 0.46302,-0.46302 0.41965,-0.32911 0.42901,-0.31975 0.0999,0.0999 -0.34564,0.44073 -0.56291,0.58089 -0.56291,0.36313 z m 77.91832,-4.13506 c -0.26419,-0.29193 -0.43147,-0.57793 -0.37173,-0.63555 0.0597,-0.0576 0.32254,0.18124 0.58399,0.53079 0.57742,0.77198 0.44895,0.83539 -0.21226,0.10476 z m -31.57446,-5.29005 c 0,-0.3638 0.0601,-0.51263 0.13345,-0.33073 0.0734,0.18191 0.0734,0.47956 0,0.66146 -0.0734,0.1819 -0.13345,0.0331 -0.13345,-0.33073 z M 84.887971,231.5745 c 0,-0.0549 0.208359,-0.2633 0.463021,-0.46302 0.419644,-0.32911 0.429002,-0.31975 0.0999,0.0999 -0.345644,0.44073 -0.562916,0.58089 -0.562916,0.36312 z m 24.572499,-0.36312 c -0.32911,-0.41965 -0.31975,-0.42901 0.0999,-0.0999 0.25466,0.19972 0.46302,0.40808 0.46302,0.46302 0,0.21776 -0.21727,0.0776 -0.56292,-0.36313 z"
         id="path2321" /><path
         style="fill:#909090;stroke-width:0.264583"
         d="m 133.17443,317.38115 c 0.88674,-0.17407 0.77974,-0.19666 -0.66,-0.13933 -0.94508,0.0376 -1.55039,0.0124 -1.34513,-0.056 0.20526,-0.0684 -0.33118,-0.34478 -1.19209,-0.61413 -0.8609,-0.26935 -1.72029,-0.43279 -1.90975,-0.36321 -0.20988,0.0771 -0.27046,0.007 -0.15504,-0.18 0.12767,-0.20657 0.0414,-0.24971 -0.26458,-0.13229 -0.30597,0.11741 -0.39225,0.0743 -0.26458,-0.1323 0.12766,-0.20656 0.0414,-0.2497 -0.26459,-0.13229 -0.30597,0.11741 -0.39224,0.0743 -0.26458,-0.13229 0.12624,-0.20426 0.0436,-0.25056 -0.24767,-0.13878 -0.2695,0.10342 -0.41296,0.0446 -0.37413,-0.15348 0.0346,-0.17666 -0.14072,-0.30545 -0.38967,-0.28619 -0.24896,0.0193 -0.42755,-0.0998 -0.39688,-0.26458 0.0307,-0.16478 -0.12282,-0.30275 -0.3411,-0.30659 -0.54262,-0.01 -1.09496,-0.38117 -0.93977,-0.63226 0.07,-0.1132 -0.22575,-0.54397 -0.65714,-0.95727 -0.43139,-0.41329 -0.78434,-0.65118 -0.78434,-0.52864 0,0.12254 -0.2301,0.0146 -0.51133,-0.23994 -0.28123,-0.25451 -0.4517,-0.61811 -0.37884,-0.808 0.0729,-0.18989 -0.0131,-0.43522 -0.19101,-0.54519 -0.2205,-0.13627 -0.25535,-0.0896 -0.10945,0.14641 0.13864,0.22432 0.1105,0.28235 -0.0799,0.1647 -0.16165,-0.0999 -0.23146,-0.34438 -0.15513,-0.54328 0.0763,-0.1989 -0.007,-0.45161 -0.18473,-0.56158 -0.2205,-0.13627 -0.25534,-0.0897 -0.10945,0.14641 0.13864,0.22432 0.1105,0.28235 -0.0799,0.1647 -0.16165,-0.0999 -0.21934,-0.37596 -0.12821,-0.61345 0.11001,-0.28667 0.0627,-0.36813 -0.14081,-0.24237 -0.20657,0.12767 -0.24971,0.0414 -0.1323,-0.26458 0.12756,-0.33242 0.0804,-0.39601 -0.1762,-0.23745 -0.23412,0.1447 -0.28728,0.11441 -0.16017,-0.0913 0.2386,-0.38607 -0.0688,-1.4172 -0.36745,-1.23261 -0.12148,0.0751 -0.15368,-0.12041 -0.0716,-0.43441 0.0821,-0.314 0.0412,-0.50413 -0.0908,-0.42251 -0.13206,0.0816 -0.26083,-0.16765 -0.28615,-0.55394 -0.0253,-0.38628 -0.12951,-1.8378 -0.23153,-3.2256 -0.15546,-2.1145 -0.0952,-2.88057 0.37225,-4.72891 0.30677,-1.2131 0.48186,-2.32845 0.38909,-2.47855 -0.10504,-0.16997 -0.0365,-0.19122 0.18176,-0.0563 0.25657,0.15856 0.30377,0.095 0.17621,-0.23745 -0.11742,-0.30597 -0.0743,-0.39225 0.13229,-0.26458 0.20656,0.12766 0.2497,0.0414 0.13229,-0.26459 -0.11741,-0.30596 -0.0743,-0.39224 0.13229,-0.26458 0.20426,0.12624 0.25056,0.0436 0.13879,-0.24767 -0.10343,-0.2695 -0.0446,-0.41296 0.15347,-0.37413 0.17666,0.0346 0.30545,-0.14072 0.28619,-0.38967 -0.0193,-0.24896 0.0998,-0.42755 0.26458,-0.39688 0.16478,0.0307 0.30188,-0.12282 0.30467,-0.3411 0.003,-0.21828 0.0749,-0.39688 0.16016,-0.39688 0.0853,0 0.93666,-0.73112 1.89191,-1.62471 1.64028,-1.5344 5.01297,-3.52953 5.98206,-3.53871 0.30767,-0.003 0.33609,-0.0621 0.10141,-0.21117 -0.19275,-0.12244 0.0777,-0.21591 0.66146,-0.22864 0.54313,-0.0118 2.1402,-0.0467 3.54904,-0.0775 2.77668,-0.0606 4.64279,0.33843 6.87723,1.47071 1.43158,0.72543 1.65101,0.77422 1.38236,0.30739 -0.11058,-0.19215 -0.0894,-0.23835 0.0505,-0.11025 0.13247,0.12127 0.24086,0.34948 0.24086,0.50712 0,0.15765 0.1654,0.34177 0.36755,0.40915 0.24502,0.0817 0.29755,0.009 0.15756,-0.21727 -0.14176,-0.22938 -0.10502,-0.27491 0.11307,-0.14012 0.17768,0.10982 0.25664,0.26609 0.17546,0.34727 -0.18509,0.1851 0.35567,0.85774 0.68958,0.85774 0.13629,0 0.16404,-0.14882 0.0617,-0.33073 -0.10237,-0.1819 0.35723,0.19063 1.02132,0.82785 0.6641,0.63722 1.15213,1.30275 1.08451,1.47897 -0.0676,0.17621 0.0839,0.48829 0.33676,0.6935 0.39249,0.31857 0.42696,0.31878 0.23575,0.002 -0.14881,-0.2469 -0.12534,-0.31065 0.0699,-0.18996 0.16165,0.0999 0.23147,0.34438 0.15514,0.54328 -0.0763,0.1989 0.007,0.45161 0.18472,0.56158 0.2205,0.13627 0.25535,0.0896 0.10946,-0.14641 -0.13864,-0.22432 -0.1105,-0.28235 0.0799,-0.1647 0.16165,0.0999 0.21934,0.37596 0.12821,0.61345 -0.11001,0.28667 -0.0627,0.36813 0.14082,0.24237 0.20656,-0.12767 0.2497,-0.0414 0.13229,0.26458 -0.11741,0.30597 -0.0743,0.39225 0.13229,0.26458 0.20656,-0.12766 0.2497,-0.0414 0.13229,0.26459 -0.11741,0.30596 -0.0743,0.39224 0.13229,0.26458 0.20657,-0.12766 0.24971,-0.0414 0.1323,0.26458 -0.12757,0.33242 -0.0804,0.39602 0.1762,0.23745 0.22797,-0.1409 0.28708,-0.11409 0.16916,0.0767 -0.0997,0.16131 -0.10235,0.60774 -0.006,0.99206 0.12995,0.51777 0.23475,0.60659 0.4046,0.3429 0.13988,-0.21718 0.16912,0.005 0.075,0.57017 -0.0896,0.53826 -0.0598,0.79495 0.0712,0.61298 0.12709,-0.17652 0.18739,1.15066 0.13825,3.0427 -0.12112,4.66308 -0.15456,5.04498 -0.42693,4.87664 -0.13206,-0.0816 -0.17293,0.10851 -0.0908,0.42251 0.0957,0.36583 0.0481,0.50839 -0.13229,0.39687 -0.18044,-0.11152 -0.22796,0.031 -0.13229,0.39688 0.0966,0.36946 0.0488,0.50878 -0.13558,0.39484 -0.18192,-0.11243 -0.2219,-0.012 -0.11065,0.27796 0.11741,0.30597 0.0743,0.39225 -0.13229,0.26458 -0.20656,-0.12766 -0.2497,-0.0414 -0.13229,0.26459 0.11741,0.30597 0.0743,0.39224 -0.13229,0.26458 -0.20426,-0.12624 -0.25056,-0.0436 -0.13879,0.24767 0.0968,0.25235 0.046,0.41049 -0.1204,0.37413 -0.15847,-0.0346 -0.34823,0.10243 -0.42168,0.30459 -0.0919,0.25289 -0.0196,0.30156 0.23151,0.15601 0.21553,-0.12489 0.27475,-0.11288 0.14457,0.0293 -0.12127,0.13247 -0.34947,0.24086 -0.50712,0.24086 -0.15764,0 -0.34176,0.1654 -0.40915,0.36756 -0.0817,0.24501 -0.009,0.29754 0.21727,0.15755 0.22447,-0.13872 0.27481,-0.10486 0.14834,0.0998 -0.1053,0.17038 -0.2888,0.24962 -0.40778,0.17609 -0.29278,-0.18095 -0.88973,0.56838 -0.69885,0.87724 0.0837,0.13541 -0.0549,0.40851 -0.30795,0.6069 -0.41636,0.32642 -0.42558,0.31669 -0.097,-0.10231 0.60527,-0.77177 0.18369,-0.51872 -0.64435,0.38677 -0.4274,0.46739 -0.53898,0.67574 -0.24793,0.46302 0.48846,-0.35702 0.50141,-0.35138 0.16845,0.0733 -0.19839,0.25306 -0.47149,0.39164 -0.6069,0.30795 -0.30886,-0.19089 -1.05819,0.40606 -0.87724,0.69885 0.0735,0.11898 -0.006,0.30247 -0.17609,0.40777 -0.20464,0.12648 -0.2385,0.0761 -0.0998,-0.14833 0.13999,-0.2265 0.0874,-0.29894 -0.15756,-0.21727 -0.20215,0.0674 -0.36755,0.2515 -0.36755,0.40915 0,0.15765 -0.10839,0.38585 -0.24086,0.50712 -0.13994,0.1281 -0.16111,0.0819 -0.0505,-0.11024 0.27018,-0.4695 0.0496,-0.41825 -1.43276,0.33293 -1.62904,0.82542 -3.98683,1.45292 -5.45956,1.45292 -0.61569,0 -1.19301,0.11907 -1.28295,0.26459 -0.0899,0.14552 -0.60298,0.24768 -1.14009,0.22703 l -0.97657,-0.0375 z m 4.48692,-1.97438 c 4.86885,-1.26817 9.09672,-5.49984 10.17644,-10.18556 0.35059,-1.52147 0.35059,-5.0784 0,-6.59987 -0.53715,-2.33111 -1.83242,-4.5556 -3.79103,-6.51069 -8.1689,-8.15423 -21.8387,-3.47922 -23.49098,8.0338 -1.36065,9.48095 7.82745,17.67896 17.10557,15.26232 z m -14.93796,-3.39894 c 0,-0.0549 -0.20836,-0.2633 -0.46302,-0.46302 -0.41965,-0.3291 -0.42901,-0.31975 -0.0999,0.0999 0.34564,0.44073 0.56291,0.58089 0.56291,0.36312 z m 23.54791,-20.08882 c 0,-0.0442 -0.44648,-0.4907 -0.99219,-0.99219 l -0.99218,-0.9118 0.91179,0.99219 c 0.84868,0.92351 1.07258,1.11384 1.07258,0.9118 z m -11.17556,25.55784 c 0.32912,-0.0633 0.80537,-0.0609 1.05834,0.005 0.25296,0.0662 -0.0163,0.118 -0.5984,0.11506 -0.58208,-0.003 -0.78906,-0.0571 -0.45994,-0.1204 z m 14.63603,-13.46096 c 0.0127,-0.30823 0.0754,-0.37092 0.15985,-0.15985 0.0764,0.19099 0.067,0.4192 -0.0209,0.50712 -0.0879,0.0879 -0.15046,-0.0684 -0.13897,-0.34727 z m -51.677693,-0.0328 c 0.329117,-0.0633 0.805367,-0.0609 1.058333,0.005 0.252965,0.0662 -0.01633,0.118 -0.598398,0.11506 -0.582083,-0.003 -0.789053,-0.0571 -0.459935,-0.1204 z m 0.06306,-0.40099 c -1.673489,-0.13323 -3.35876,-0.26377 -3.745046,-0.29008 -0.386287,-0.0263 -0.635559,-0.15589 -0.55394,-0.28796 0.08162,-0.13206 -0.108507,-0.17293 -0.422505,-0.0908 -0.369464,0.0966 -0.508783,0.0488 -0.394845,-0.13557 0.11243,-0.18192 0.01197,-0.22191 -0.27796,-0.11065 -0.249711,0.0958 -0.393405,0.0761 -0.319319,-0.0437 0.174224,-0.2819 -1.651063,-1.15711 -1.984028,-0.95133 -0.139132,0.086 -0.220252,-10e-4 -0.180266,-0.19405 0.04126,-0.19887 -0.135161,-0.33323 -0.407959,-0.31071 -0.264362,0.0218 -0.414224,-0.0268 -0.333024,-0.10795 0.185126,-0.18512 -0.355594,-0.85778 -0.689536,-0.85778 -0.13629,0 -0.160777,0.14883 -0.05441,0.33073 0.106362,0.1819 -0.06593,0.10326 -0.382883,-0.17477 -0.316947,-0.27802 -0.51704,-0.56472 -0.44465,-0.63711 0.192241,-0.19224 -0.417002,-0.85814 -0.652159,-0.7128 -0.109584,0.0677 -0.423515,-0.13264 -0.697625,-0.44527 -0.27411,-0.31262 -0.349554,-0.48138 -0.167653,-0.37502 0.181901,0.10636 0.330729,0.0819 0.330729,-0.0544 0,-0.33395 -0.672655,-0.87467 -0.857781,-0.68954 -0.0812,0.0812 -0.129776,-0.0687 -0.107948,-0.33302 0.02252,-0.2728 -0.111842,-0.44922 -0.310708,-0.40796 -0.192717,0.04 -0.283272,-0.0359 -0.201233,-0.16865 0.17999,-0.29123 -1.263177,-3.5573 -1.477257,-3.34322 -0.08261,0.0826 -0.09706,-0.18135 -0.03213,-0.58657 0.06893,-0.43012 0.02685,-0.61003 -0.101086,-0.43226 -0.122222,0.16982 -0.253924,-1.05893 -0.297769,-2.77813 -0.04324,-1.69544 -0.140336,-3.32075 -0.21577,-3.61179 -0.114856,-0.44315 -0.08776,-0.46465 0.166676,-0.13229 0.238508,0.31155 0.272288,0.16934 0.157123,-0.66146 -0.08069,-0.58208 -0.05114,-0.90526 0.06567,-0.71818 0.142461,0.22817 0.318237,-0.0131 0.53392,-0.73304 0.176846,-0.59027 0.238099,-1.20822 0.136116,-1.37323 -0.122173,-0.19768 -0.06589,-0.22614 0.165003,-0.0834 0.25657,0.15856 0.303763,0.095 0.176203,-0.23745 -0.117412,-0.30597 -0.07427,-0.39225 0.132291,-0.26458 0.206564,0.12766 0.249703,0.0414 0.132292,-0.26459 -0.117411,-0.30596 -0.07427,-0.39224 0.132292,-0.26458 0.204256,0.12624 0.250557,0.0436 0.138783,-0.24767 -0.09684,-0.25235 -0.04594,-0.41048 0.120401,-0.37413 0.158474,0.0346 0.348229,-0.10243 0.421678,-0.30459 0.09188,-0.25289 0.01966,-0.30156 -0.23151,-0.15601 -0.215528,0.12489 -0.274743,0.11288 -0.144568,-0.0293 0.121267,-0.13247 0.34947,-0.24086 0.507118,-0.24086 0.157647,0 0.341766,-0.1654 0.409151,-0.36756 0.08167,-0.24501 0.0092,-0.29754 -0.217269,-0.15755 -0.22938,0.14176 -0.274911,0.10502 -0.140123,-0.11307 0.109817,-0.17768 0.267379,-0.25535 0.350139,-0.17259 0.181523,0.18152 1.119456,-0.62754 1.119456,-0.96564 0,-0.13156 -0.148828,-0.15343 -0.330729,-0.0486 -0.181901,0.10481 -0.04209,-0.12629 0.310704,-0.51355 0.647537,-0.71083 0.982779,-0.92705 0.681483,-0.43954 -0.08994,0.14552 -0.05589,0.26458 0.07567,0.26458 0.29801,0 1.069885,-0.83475 1.098361,-1.18784 0.01161,-0.14398 0.228456,-0.26304 0.481875,-0.26458 0.253419,-0.002 0.428045,-0.16047 0.38806,-0.35318 -0.03999,-0.19272 0.03708,-0.28255 0.171258,-0.19962 0.134178,0.0829 1.015911,-0.21047 1.959407,-0.65198 0.943496,-0.44152 2.473773,-0.96106 3.400616,-1.15453 1.274069,-0.26596 1.523806,-0.38495 1.023711,-0.48775 -1.074186,-0.22082 2.365246,0.072 4.187706,0.35657 0.92079,0.14376 1.93282,0.18895 2.24896,0.10044 0.40122,-0.11234 0.46733,-0.0864 0.21892,0.086 -0.26879,0.1865 -0.17708,0.29179 0.37477,0.4303 l 0.73064,0.18338 -0.69034,0.69034 c -0.50813,0.50813 -0.78163,0.61774 -1.03623,0.41528 -1.00492,-0.79915 -5.446667,-0.85477 -7.89321,-0.0988 -10.222947,3.15868 -13.354259,15.91531 -5.708763,23.2569 2.568176,2.46609 6.293504,4.01455 9.658309,4.01455 1.707734,0 5.051714,-0.8838 6.726354,-1.77775 3.80427,-2.03077 6.68244,-6.56957 7.13581,-11.25298 0.1247,-1.28825 0.002,-1.49574 -0.55418,-0.93927 -0.17462,0.17462 -0.3175,0.23845 -0.3175,0.14183 0,-0.21016 1.88387,-1.51767 2.18667,-1.51767 0.11647,0 0.17813,1.1853 0.13702,2.63399 -0.0411,1.44869 -0.12116,2.50001 -0.17791,2.33626 -0.12538,-0.36171 -1.39909,2.86706 -1.44889,3.67281 -0.0195,0.31529 -0.15449,0.55342 -0.30001,0.52917 -0.14552,-0.0243 -0.24883,0.15959 -0.22957,0.40854 0.0193,0.24896 -0.0998,0.42755 -0.26458,0.39688 -0.16478,-0.0307 -0.28174,0.16053 -0.25991,0.42489 0.0218,0.26436 -0.0289,0.4121 -0.11267,0.32831 -0.17976,-0.17977 -1.38223,0.89647 -1.38223,1.23714 0,0.12874 0.14883,0.14832 0.33073,0.0435 0.1819,-0.10482 0.0421,0.12628 -0.3107,0.51355 -0.64754,0.71082 -0.98278,0.92704 -0.68149,0.43954 0.0899,-0.14552 0.0559,-0.26459 -0.0757,-0.26459 -0.28819,0 -1.26546,1.04339 -1.20314,1.28455 0.0243,0.0939 -0.0246,0.23019 -0.10857,0.30295 -0.084,0.0728 -0.0575,-0.032 0.0589,-0.23276 0.14469,-0.24969 0.0954,-0.32633 -0.15602,-0.24253 -0.20216,0.0674 -0.36756,0.2515 -0.36756,0.40915 0,0.15764 -0.10838,0.38585 -0.24086,0.50712 -0.1422,0.13017 -0.15421,0.071 -0.0293,-0.14457 0.14555,-0.25117 0.0969,-0.32339 -0.15601,-0.23151 -0.20216,0.0734 -0.33922,0.2632 -0.30459,0.42168 0.0364,0.16634 -0.12178,0.21723 -0.37413,0.1204 -0.29128,-0.11178 -0.37391,-0.0655 -0.24767,0.13878 0.12766,0.20656 0.0414,0.2497 -0.26458,0.13229 -0.30597,-0.11741 -0.39225,-0.0743 -0.26459,0.13229 0.12767,0.20657 0.0414,0.24971 -0.26458,0.1323 -0.33242,-0.12756 -0.39601,-0.0804 -0.23745,0.1762 0.14271,0.23089 0.11424,0.28717 -0.0834,0.165 -0.16501,-0.10198 -0.78296,-0.0407 -1.37322,0.13612 -0.71989,0.21568 -0.96122,0.39146 -0.73305,0.53392 0.18709,0.1168 -0.13609,0.14636 -0.71817,0.0657 -0.79283,-0.1099 -0.95877,-0.0759 -0.66146,0.13574 0.21828,0.15535 0.27781,0.26598 0.13229,0.24586 -0.14552,-0.0201 -1.633803,-0.1456 -3.307293,-0.27885 z m 20.454903,-1.66084 c 0.002,-0.87312 0.0509,-1.19841 0.10977,-0.72286 0.0589,0.47555 0.0577,1.18992 -0.003,1.5875 -0.0604,0.39757 -0.10855,0.008 -0.10707,-0.86464 z m 3.54196,-10.8882 c 0.10786,-0.28108 0.0659,-0.37895 -0.11472,-0.26734 -0.18436,0.11394 -0.2322,-0.0254 -0.13558,-0.39484 0.11122,-0.42532 0.0608,-0.51619 -0.19785,-0.35636 -0.2309,0.14271 -0.28344,0.11147 -0.15689,-0.0933 0.22126,-0.358 -0.0585,-1.42352 -0.32981,-1.25587 -0.23713,0.14655 -0.1677,-1.94249 0.0917,-2.75987 0.16905,-0.53262 0.32486,-0.28102 1.02438,1.65417 0.45376,1.25528 0.91144,2.36799 1.01706,2.47269 0.10562,0.1047 0.40328,0.0266 0.66146,-0.17351 0.36054,-0.27949 0.34683,-0.22058 -0.0591,0.25396 -0.2907,0.33982 -0.85305,0.78565 -1.24967,0.99075 -0.65306,0.33772 -0.70506,0.33106 -0.55097,-0.0705 z m -15.36357,-1.35937 c -0.071,-0.11497 0.74693,-0.85434 1.81775,-1.64305 1.07082,-0.78872 1.90203,-1.50669 1.84714,-1.5955 -0.0549,-0.0888 0.54111,-0.0453 1.32444,0.0967 l 1.42423,0.25815 -1.83488,1.32602 c -1.00919,0.72932 -1.83489,1.42519 -1.83489,1.54638 0,0.2806 -2.57081,0.29121 -2.74379,0.0113 z m -23.899839,-1.37847 c 0,-0.80036 0.0496,-1.12779 0.110222,-0.7276 0.06062,0.40018 0.06062,1.05502 0,1.4552 -0.06062,0.40019 -0.110222,0.0728 -0.110222,-0.7276 z m 26.930259,1.24284 c 0.0606,-0.044 0.46743,-0.28924 0.904,-0.54487 l 0.79375,-0.46479 -0.62463,0.54487 c -0.34354,0.29968 -0.75034,0.54487 -0.90399,0.54487 -0.15366,0 -0.22976,-0.036 -0.16913,-0.0801 z m 22.2691,-3.27731 c 0.25466,-0.0666 0.67138,-0.0666 0.92604,0 0.25466,0.0666 0.0463,0.121 -0.46302,0.121 -0.50932,0 -0.71768,-0.0545 -0.46302,-0.121 z m 2.24896,-0.26892 c 0.32742,-0.0631 0.59531,-0.15779 0.59531,-0.2105 0,-0.0527 -0.36034,-1.07315 -0.80077,-2.26764 -0.44042,-1.19449 -0.74204,-2.23052 -0.67027,-2.30229 0.0718,-0.0718 0.5472,0.28623 1.05653,0.79556 0.50932,0.50932 0.98147,0.8706 1.04922,0.80285 0.0677,-0.0677 0.053,0.14534 -0.0329,0.47353 -0.1172,0.44818 -0.0696,0.54331 0.1911,0.38216 0.23091,-0.1427 0.28344,-0.11147 0.15689,0.0933 -0.2386,0.38607 0.0688,1.4172 0.36745,1.23262 0.12147,-0.0751 0.15368,0.1204 0.0716,0.4344 -0.11122,0.42532 -0.0608,0.5162 0.19785,0.35636 0.22995,-0.14212 0.28341,-0.11143 0.15835,0.0909 -0.10865,0.1758 -0.77178,0.29017 -1.56223,0.26943 -0.7554,-0.0198 -1.10556,-0.0876 -0.77814,-0.15069 z m 64.29374,-0.25309 c 0.1819,-0.0734 0.47956,-0.0734 0.66146,0 0.1819,0.0734 0.0331,0.13346 -0.33073,0.13346 -0.3638,0 -0.51263,-0.0601 -0.33073,-0.13346 z m 1.71979,-0.007 c 0.25467,-0.0665 0.67138,-0.0665 0.92605,0 0.25466,0.0666 0.0463,0.121 -0.46302,0.121 -0.50933,0 -0.71769,-0.0545 -0.46303,-0.121 z m -0.85989,-0.35827 c -1.67561,-0.10654 -3.57237,-0.38853 -4.22156,-0.62761 -0.64836,-0.23878 -1.33915,-0.37262 -1.53509,-0.29743 -0.22106,0.0848 -0.28437,0.0204 -0.16681,-0.16981 0.12766,-0.20657 0.0414,-0.24971 -0.26459,-0.13229 -0.30597,0.11741 -0.39224,0.0743 -0.26458,-0.1323 0.12766,-0.20656 0.0414,-0.2497 -0.26458,-0.13229 -0.30597,0.11741 -0.39225,0.0743 -0.26459,-0.13229 0.12624,-0.20426 0.0436,-0.25056 -0.24767,-0.13878 -0.2695,0.10342 -0.41295,0.0446 -0.37413,-0.15348 0.0346,-0.17666 -0.14072,-0.30545 -0.38967,-0.28619 -0.24896,0.0193 -0.42755,-0.0998 -0.39687,-0.26458 0.0307,-0.16478 -0.15158,-0.30086 -0.405,-0.30239 -0.25342,-0.002 -0.44915,-0.10322 -0.43496,-0.22598 0.0376,-0.32556 -2.20014,-2.54773 -2.42542,-2.40851 -0.10492,0.0648 -0.35309,-0.0822 -0.55148,-0.32684 -0.30533,-0.37647 -0.30467,-0.41099 0.004,-0.22484 0.25245,0.15207 0.32726,0.10653 0.24253,-0.14765 -0.0674,-0.20216 -0.2515,-0.36756 -0.40915,-0.36756 -0.15764,0 -0.38585,-0.10838 -0.50712,-0.24086 -0.13017,-0.1422 -0.071,-0.15421 0.14457,-0.0293 0.25117,0.14555 0.32339,0.0969 0.23151,-0.15602 -0.0735,-0.20216 -0.2632,-0.33922 -0.42167,-0.30459 -0.16635,0.0364 -0.21724,-0.12178 -0.12041,-0.37413 0.11178,-0.29128 0.0655,-0.3739 -0.13878,-0.24767 -0.20656,0.12767 -0.2497,0.0414 -0.13229,-0.26458 0.12756,-0.33242 0.0804,-0.39601 -0.1762,-0.23745 -0.22256,0.13755 -0.28693,0.11383 -0.1764,-0.065 0.24674,-0.39924 -0.0921,-1.15445 -0.42546,-0.94839 -0.15807,0.0977 -0.19964,0.0453 -0.0965,-0.12165 0.0997,-0.16131 0.10235,-0.60774 0.006,-0.99206 -0.0971,-0.38678 -0.25404,-0.57149 -0.35155,-0.41371 -0.0969,0.15678 -0.18586,-0.15933 -0.1977,-0.70247 -0.0118,-0.54313 -0.0467,-2.15739 -0.0775,-3.58725 -0.0308,-1.42985 0.004,-2.65975 0.0774,-2.73312 0.0734,-0.0734 0.47114,0.0785 0.88395,0.33736 l 0.75056,0.47073 -0.64876,-0.72197 c -0.35681,-0.39709 -0.8033,-0.66268 -0.99218,-0.5902 -0.18889,0.0725 -0.34343,-0.0246 -0.34343,-0.21578 0,-0.39933 -0.90194,-1.29153 -1.10269,-1.09078 -0.0735,0.0735 -0.57208,-0.34011 -1.10787,-0.9192 l -0.97418,-1.0529 0.66013,-0.16569 c 0.5403,-0.1356 0.91342,0.0723 2.05539,1.14511 0.76739,0.72093 1.90127,1.75903 2.51974,2.30687 0.61846,0.54785 1.12448,1.1013 1.12448,1.22988 0,0.12859 -0.35719,0.2338 -0.79375,0.2338 h -0.79375 v 1.7965 c 0,5.83971 3.81985,11.11713 9.45562,13.06366 2.51314,0.86802 6.34522,0.87219 8.84106,0.01 8.13818,-2.81253 11.84165,-12.15533 7.82431,-19.7385 -1.14473,-2.16081 -3.88945,-4.90916 -5.79358,-5.80126 -2.14106,-1.00311 -4.27984,-1.50143 -6.42623,-1.49726 -2.72823,0.005 -3.05327,0.13804 -3.05327,1.24697 v 0.92429 l -2.65932,-2.4519 c -2.06776,-1.90647 -2.64184,-2.5853 -2.58074,-3.05161 0.0432,-0.32984 -0.15906,-0.88499 -0.44953,-1.23366 -0.29046,-0.34867 0.12064,0.0292 0.91356,0.83969 0.79292,0.81051 1.52126,1.44915 1.61852,1.41921 0.0973,-0.0299 0.46055,0.26771 0.80729,0.66146 l 0.63042,0.7159 -0.7276,-0.64144 c -0.40018,-0.35279 -0.7276,-0.57561 -0.7276,-0.49516 0,0.0804 0.68461,0.72146 1.52135,1.42447 0.83674,0.70301 1.31299,1.03552 1.05833,0.73891 -0.25466,-0.29661 -0.46302,-0.66386 -0.46302,-0.81611 0,-0.30725 1.2091,-0.60537 2.48047,-0.6116 0.45475,-0.002 0.68936,-0.0915 0.52136,-0.19844 -0.16801,-0.10691 0.32664,-0.19438 1.09921,-0.19438 0.77258,0 1.26722,0.0875 1.09922,0.19438 -0.16801,0.10692 0.17078,0.19928 0.75287,0.20527 0.58208,0.006 1.89177,0.31609 2.91041,0.68912 1.01865,0.37303 2.11006,0.69738 2.42535,0.72077 0.3153,0.0234 0.55342,0.1616 0.52917,0.30712 -0.0243,0.14552 0.15959,0.24883 0.40854,0.22957 0.24896,-0.0193 0.42756,0.0998 0.39688,0.26458 -0.0307,0.16478 0.16053,0.28174 0.42489,0.25991 0.26436,-0.0218 0.41293,0.0281 0.33015,0.11083 -0.18155,0.18154 0.62746,1.11949 0.9656,1.11949 0.13156,0 0.15476,-0.14883 0.0515,-0.33073 -0.1032,-0.1819 0.24696,0.0796 0.77814,0.58107 0.94959,0.89651 1.22248,1.26245 0.70119,0.94028 -0.45606,-0.28186 -0.28807,0.2936 0.21991,0.75332 0.26647,0.24116 0.57042,0.35253 0.67544,0.24751 0.10503,-0.10502 0.11701,0.002 0.0266,0.23725 -0.0904,0.2355 -0.0187,0.51816 0.15919,0.62812 0.2205,0.13628 0.25534,0.0897 0.10945,-0.14641 -0.1427,-0.23089 -0.11079,-0.28252 0.0957,-0.15489 0.17038,0.1053 0.24608,0.29453 0.16823,0.4205 -0.1844,0.29836 0.95972,2.65562 1.21296,2.4991 0.10644,-0.0658 0.12635,0.1373 0.0442,0.4513 -0.0957,0.36583 -0.0481,0.50839 0.1323,0.39688 0.18043,-0.11152 0.22795,0.031 0.13229,0.39687 -0.0821,0.314 -0.0408,0.50382 0.0919,0.42183 0.13266,-0.082 0.24642,0.16729 0.25281,0.55394 0.006,0.38666 0.0535,1.35786 0.10479,2.15822 l 0.0932,1.45521 0.17937,-1.19062 c 0.14201,-0.9427 0.1793,-0.72232 0.17906,1.05833 -2.3e-4,1.66431 -0.0474,1.97383 -0.18156,1.19063 l -0.18125,-1.05834 -0.0375,1.06889 c -0.0207,0.58789 -0.23453,1.77852 -0.47528,2.64584 -0.24076,0.86732 -0.44912,1.83346 -0.46303,2.14699 -0.0139,0.31352 -0.13481,0.50235 -0.26868,0.41961 -0.13469,-0.0832 -0.16558,0.0524 -0.0692,0.30359 0.11741,0.30597 0.0743,0.39225 -0.13229,0.26459 -0.20657,-0.12766 -0.24971,-0.0414 -0.1323,0.26458 0.11742,0.30597 0.0743,0.39225 -0.13229,0.26458 -0.20426,-0.12623 -0.25056,-0.0436 -0.13878,0.24767 0.10342,0.26951 0.0446,0.41296 -0.15348,0.37413 -0.17666,-0.0346 -0.30544,0.14072 -0.28619,0.38968 0.0193,0.24895 -0.0998,0.42755 -0.26458,0.39687 -0.16478,-0.0307 -0.30516,0.18236 -0.31196,0.4734 -0.007,0.29104 -0.13694,0.50563 -0.28922,0.47685 -0.28564,-0.054 -2.50297,2.07396 -2.57075,2.4671 -0.021,0.1215 -0.21668,0.22319 -0.43496,0.22598 -0.21828,0.003 -0.37178,0.13989 -0.34111,0.30467 0.0307,0.16478 -0.14792,0.28384 -0.39687,0.26458 -0.24896,-0.0193 -0.42431,0.10953 -0.38968,0.28619 0.0388,0.19805 -0.10462,0.2569 -0.37413,0.15348 -0.29128,-0.11178 -0.3739,-0.0655 -0.24767,0.13878 0.12767,0.20656 0.0414,0.2497 -0.26458,0.13229 -0.30597,-0.11741 -0.39224,-0.0743 -0.26458,0.13229 0.12766,0.20657 0.0414,0.24971 -0.26459,0.1323 -0.25123,-0.0964 -0.38683,-0.0655 -0.30359,0.0692 0.0827,0.13387 -0.10609,0.25531 -0.41961,0.26986 -0.31353,0.0146 -1.22489,0.20759 -2.02526,0.42899 -1.02444,0.28338 -1.29856,0.44269 -0.92604,0.53817 0.64867,0.16625 0.49152,0.1625 -3.30729,-0.079 z m -16.13958,-19.92356 c 0,-0.0502 -0.26789,-0.3181 -0.59532,-0.59531 l -0.59531,-0.50403 0.50403,0.59531 c 0.47366,0.55945 0.6866,0.71576 0.6866,0.50403 z m 28.04583,-5.82083 c 0,-0.0502 -0.26789,-0.3181 -0.59531,-0.59532 l -0.59532,-0.50402 0.50403,0.59531 c 0.47366,0.55944 0.6866,0.71576 0.6866,0.50403 z m -22.78792,21.58868 c -0.32911,-0.41965 -0.31975,-0.42901 0.0999,-0.0999 0.44073,0.34564 0.58089,0.56292 0.36312,0.56292 -0.0549,0 -0.2633,-0.20836 -0.46302,-0.46302 z m -59.42631,-0.51409 c 0.25743,-0.0671 0.61462,-0.0627 0.79375,0.01 0.17913,0.0725 -0.0315,0.12736 -0.46806,0.12197 -0.43656,-0.005 -0.58312,-0.0647 -0.32569,-0.13177 z m 1.97934,0.008 c 0.1819,-0.0734 0.47955,-0.0734 0.66146,0 0.1819,0.0734 0.0331,0.13345 -0.33073,0.13345 -0.36381,0 -0.51263,-0.0601 -0.33073,-0.13345 z m -31.495465,-0.55778 c -0.232161,-0.44484 0.405025,-2.48244 0.822425,-2.62996 0.63505,-0.22443 1.37926,-0.90662 1.23814,-1.13495 -0.0659,-0.10663 0.14527,-0.41814 0.46926,-0.69224 l 0.58908,-0.49838 -0.50403,0.59531 c -0.72078,0.85131 -0.27729,0.73471 0.97355,-0.25598 l 1.07485,-0.85129 -0.17688,0.88436 c -0.0973,0.4864 -0.17687,1.16714 -0.17687,1.51275 0,0.34561 -0.10935,0.59862 -0.24301,0.56224 -0.13366,-0.0364 -1.08063,0.5565 -2.10439,1.31752 -1.02376,0.76101 -1.906716,1.29679 -1.962125,1.19062 z m 0.869945,-3.07106 c 0,-0.0549 0.20836,-0.2633 0.46302,-0.46302 0.41964,-0.3291 0.429,-0.31975 0.0999,0.0999 -0.34565,0.44073 -0.56292,0.58089 -0.56292,0.36312 z m 3.96875,-3.17908 c 0,-0.0572 0.18477,-0.17489 0.41061,-0.26156 0.23546,-0.0904 0.34167,-0.046 0.24897,0.10399 -0.15538,0.25141 -0.65958,0.37186 -0.65958,0.15757 z m -4.01836,-1.13509 c 0.19099,-0.0764 0.4192,-0.067 0.50712,0.0209 0.0879,0.0879 -0.0683,0.15046 -0.34727,0.13897 -0.30822,-0.0127 -0.37092,-0.0754 -0.15985,-0.15985 z m 37.66221,-0.8776 c 0,-0.3638 0.0601,-0.51263 0.13346,-0.33073 0.0734,0.18191 0.0734,0.47956 0,0.66146 -0.0734,0.1819 -0.13346,0.0331 -0.13346,-0.33073 z m 46.04731,-0.13229 c 0.005,-0.43656 0.0647,-0.58312 0.13177,-0.32569 0.0671,0.25743 0.0627,0.61462 -0.01,0.79375 -0.0725,0.17913 -0.12736,-0.0315 -0.12197,-0.46806 z m 0,-3.175 c 0.005,-0.43656 0.0647,-0.58312 0.13177,-0.32569 0.0671,0.25743 0.0627,0.61462 -0.01,0.79375 -0.0725,0.17913 -0.12736,-0.0315 -0.12197,-0.46806 z m 30.92555,-1.60955 c 0.0127,-0.30822 0.0754,-0.37091 0.15985,-0.15985 0.0764,0.191 0.067,0.4192 -0.0209,0.50712 -0.0879,0.0879 -0.15045,-0.0683 -0.13897,-0.34727 z m -109.70129,-5.38961 c -0.6065,-0.24578 -2.50292,-2.06378 -2.50292,-2.39942 0,-0.11964 -0.56555,-0.71625 -1.25677,-1.3258 -0.69123,-0.60954 -1.11811,-1.03478 -0.94864,-0.94498 0.16947,0.0898 0.34806,0.0592 0.39687,-0.068 0.0488,-0.1272 0.3864,-0.30543 0.7502,-0.39608 0.36381,-0.0907 0.51598,-0.0976 0.33816,-0.0154 -0.36771,0.16994 3.28056,4.53527 4.23495,5.06731 0.5497,0.30644 0.55326,0.32603 0.0571,0.31396 -0.29104,-0.007 -0.77208,-0.11131 -1.06896,-0.23162 z m 72.35413,-0.7399 -0.64143,-0.7276 0.7276,0.64143 c 0.68006,0.59951 0.84894,0.81377 0.64143,0.81377 -0.0474,0 -0.37481,-0.32742 -0.7276,-0.7276 z m -74.09705,-0.26458 c -0.32911,-0.41965 -0.31975,-0.42901 0.0999,-0.0999 0.25466,0.19972 0.46302,0.40808 0.46302,0.46302 0,0.21776 -0.21728,0.0776 -0.56292,-0.36312 z m 65.72159,-0.77867 c 0.25743,-0.0671 0.61462,-0.0627 0.79375,0.01 0.17913,0.0725 -0.0315,0.12736 -0.46806,0.12197 -0.43656,-0.005 -0.58312,-0.0647 -0.32569,-0.13178 z m 2.77309,0.008 c 0.1819,-0.0734 0.47956,-0.0734 0.66146,0 0.1819,0.0734 0.0331,0.13346 -0.33073,0.13346 -0.3638,0 -0.51263,-0.0601 -0.33073,-0.13346 z m 16.33802,-0.61852 c 0.26339,-0.29104 0.53842,-0.52916 0.61118,-0.52916 0.0728,0 -0.0832,0.23812 -0.3466,0.52916 -0.26339,0.29105 -0.53842,0.52917 -0.61118,0.52917 -0.0728,0 0.0832,-0.23812 0.3466,-0.52917 z m -86.54388,-0.59531 -0.50403,-0.59531 0.59531,0.50403 c 0.55945,0.47366 0.71576,0.68659 0.50403,0.68659 -0.0502,0 -0.3181,-0.26789 -0.59531,-0.59531 z m 11.26993,-0.59531 c 0.49365,-0.50932 0.95708,-0.92604 1.02984,-0.92604 0.0728,0 -0.2716,0.41672 -0.76526,0.92604 -0.49365,0.50932 -0.95708,0.92604 -1.02984,0.92604 -0.0728,0 0.2716,-0.41672 0.76526,-0.92604 z m -16.727905,-1.12011 c 0.62231,-0.0559 1.57481,-0.0551 2.116666,0.002 0.541856,0.0568 0.0327,0.10258 -1.131472,0.10162 -1.164167,-0.001 -1.607504,-0.0475 -0.985194,-0.10337 z m -2.851264,-0.78908 c -0.800365,-0.23053 -1.71173,-0.43106 -2.025255,-0.44561 -0.313526,-0.0145 -0.502354,-0.13598 -0.419618,-0.26985 0.08324,-0.13469 -0.05235,-0.16559 -0.30359,-0.0692 -0.305969,0.11741 -0.392247,0.0743 -0.264584,-0.13229 0.127664,-0.20656 0.04139,-0.2497 -0.264583,-0.13229 -0.305969,0.11741 -0.392247,0.0743 -0.264583,-0.13229 0.126237,-0.20426 0.04361,-0.25056 -0.247668,-0.13879 -0.25235,0.0968 -0.410488,0.046 -0.374133,-0.1204 0.03464,-0.15847 -0.102429,-0.34823 -0.304586,-0.42167 -0.252892,-0.0919 -0.301565,-0.0197 -0.156018,0.23151 0.124893,0.21552 0.112885,0.27474 -0.02932,0.14456 -0.132471,-0.12127 -0.240857,-0.34947 -0.240857,-0.50712 0,-0.15764 -0.165401,-0.34176 -0.367558,-0.40915 -0.254177,-0.0847 -0.299722,-0.01 -0.147648,0.24254 0.184477,0.30624 0.146751,0.30569 -0.234149,-0.003 -0.249731,-0.20264 -0.391389,-0.4311 -0.314795,-0.50769 0.173387,-0.17338 -0.650631,-1.10824 -0.976847,-1.10824 -0.131555,0 -0.149778,0.14883 -0.04049,0.33073 0.13501,0.22472 0.05521,0.21434 -0.248969,-0.0324 -0.484644,-0.39312 -0.61375,-0.69679 -0.18308,-0.43062 0.14552,0.0899 0.264583,0.0559 0.264583,-0.0757 0,-0.32621 -0.93486,-1.15023 -1.108247,-0.97684 -0.07659,0.0766 -0.305058,-0.0651 -0.507695,-0.3148 -0.309071,-0.38089 -0.309615,-0.41862 -0.0034,-0.23414 0.252446,0.15207 0.32726,0.10653 0.242535,-0.14765 -0.06739,-0.20216 -0.251504,-0.36756 -0.409151,-0.36756 -0.157648,0 -0.385851,-0.10839 -0.507119,-0.24086 -0.130175,-0.1422 -0.07096,-0.15421 0.144568,-0.0293 0.249687,0.14468 0.326335,0.0954 0.242535,-0.15602 -0.06739,-0.20216 -0.251504,-0.36756 -0.409151,-0.36756 -0.157648,0 -0.385851,-0.10839 -0.507118,-0.24086 -0.128102,-0.13993 -0.08191,-0.16111 0.110243,-0.0505 0.408957,0.23534 0.413868,0.10188 0.02746,-0.7462 -0.1668,-0.36608 -0.403561,-0.60363 -0.526136,-0.52787 -0.122574,0.0757 -0.144462,-0.0666 -0.04864,-0.31629 0.111257,-0.28993 0.07127,-0.39039 -0.110647,-0.27796 -0.184356,0.11394 -0.232194,-0.0254 -0.135577,-0.39484 0.09567,-0.36583 0.04815,-0.50839 -0.132292,-0.39688 -0.180438,0.11152 -0.227958,-0.031 -0.132292,-0.39687 0.08211,-0.314 0.04124,-0.50413 -0.09082,-0.42251 -0.269105,0.16632 -0.318965,-0.50827 -0.31285,-4.23284 0.0068,-4.15163 0.03247,-4.57803 0.254392,-4.22866 0.152819,0.24058 0.208231,0.22202 0.211375,-0.0708 0.0024,-0.21828 0.361535,-1.15209 0.798205,-2.07513 0.43667,-0.92304 0.725383,-1.7892 0.641584,-1.92479 -0.0838,-0.13559 0.0053,-0.21381 0.198033,-0.17382 0.193795,0.0402 0.334184,-0.13296 0.314122,-0.38748 -0.01995,-0.25309 0.05343,-0.40473 0.163077,-0.33696 0.281288,0.17384 1.14721,-0.83826 0.966857,-1.13008 -0.08184,-0.13242 0.222565,-0.5864 0.67646,-1.00886 0.453895,-0.42245 0.74029,-0.61926 0.636435,-0.43736 -0.103855,0.1819 -0.08119,0.33073 0.05036,0.33073 0.338143,0 1.147152,-0.93794 0.965602,-1.11949 -0.08278,-0.0828 0.06579,-0.13265 0.330152,-0.11082 0.272797,0.0225 0.44922,-0.11184 0.407958,-0.31071 -0.03999,-0.19272 0.03824,-0.28183 0.173826,-0.19803 0.135591,0.0838 1.001744,-0.20502 1.924785,-0.64181 0.923041,-0.43679 2.076988,-0.86915 2.564325,-0.9608 0.487337,-0.0916 0.766536,-0.24047 0.620441,-0.33072 -0.146094,-0.0902 1.009837,-0.14707 2.568736,-0.12628 3.126713,0.0417 5.390566,0.51415 7.439986,1.55267 0.7353,0.3726 1.45445,0.60481 1.59812,0.51602 0.14367,-0.0888 0.2285,-0.004 0.18852,0.18895 -0.0413,0.19887 0.13516,0.33323 0.40796,0.31071 0.26436,-0.0218 0.41293,0.028 0.33015,0.11082 -0.18155,0.18155 0.62746,1.11949 0.9656,1.11949 0.13155,0 0.15422,-0.14883 0.0504,-0.33073 -0.10386,-0.1819 0.18254,0.0149 0.63643,0.43736 0.4539,0.42246 0.7583,0.87644 0.67646,1.00886 -0.18035,0.29182 0.68557,1.30392 0.96686,1.13008 0.10964,-0.0678 0.18303,0.0839 0.16308,0.33696 -0.02,0.25452 0.12032,0.42769 0.31412,0.38748 0.19272,-0.04 0.2805,0.0404 0.19508,0.17861 -0.22676,0.36689 0.41057,1.62656 0.72472,1.43241 0.14672,-0.0907 0.18846,-0.0382 0.0927,0.11671 -0.24674,0.39924 0.0921,1.15446 0.42546,0.9484 0.15807,-0.0977 0.19964,-0.0453 0.0965,0.12164 -0.0997,0.16132 -0.10235,0.60775 -0.006,0.99207 0.12858,0.51233 0.23463,0.60382 0.39747,0.3429 0.13128,-0.21036 0.16908,0.0769 0.0924,0.70246 -0.0736,0.60084 -0.0418,0.86245 0.0736,0.60518 0.11181,-0.24923 0.20328,1.14531 0.20328,3.09899 0,1.95367 -0.0915,3.34822 -0.20328,3.09898 -0.11541,-0.25726 -0.14724,0.004 -0.0736,0.60519 0.0899,0.73387 0.0521,0.93666 -0.1234,0.66145 -0.22491,-0.35277 -0.2535,-0.35277 -0.25729,0 -0.002,0.21829 -0.36135,1.15171 -0.7978,2.07428 -0.88597,1.87279 -0.92339,2.00596 -0.48808,1.73692 0.1952,-0.12064 0.23339,-0.0722 0.1058,0.13428 -0.10982,0.17768 -0.26609,0.25664 -0.34727,0.17546 -0.18509,-0.18509 -0.85774,0.35567 -0.85774,0.68958 0,0.13629 0.14883,0.15839 0.33073,0.0491 0.22746,-0.13666 0.2181,-0.0598 -0.03,0.24606 -0.19839,0.24461 -0.44693,0.39146 -0.55232,0.32633 -0.23761,-0.14686 -2.19356,1.82425 -2.00115,2.01667 0.0766,0.0766 -0.12003,0.36676 -0.43697,0.64479 -0.31695,0.27802 -0.4797,0.34122 -0.36167,0.14044 0.14737,-0.25069 0.0995,-0.32667 -0.15296,-0.24254 -0.20215,0.0674 -0.36756,0.25151 -0.36756,0.40915 0,0.15765 -0.10838,0.38585 -0.24085,0.50712 -0.1422,0.13018 -0.15421,0.071 -0.0293,-0.14456 0.11634,-0.20078 0.10566,-0.31414 -0.0237,-0.2519 -0.1294,0.0622 -0.89012,0.42926 -1.69048,0.8156 -3.14882,1.51998 -7.491129,1.95783 -10.583334,1.06716 z m 7.022019,-1.27153 c 5.15932,-1.31718 8.94944,-5.06248 10.31471,-10.19274 1.90207,-7.14736 -2.75217,-14.8743 -10.11445,-16.79193 -8.603515,-2.24093 -17.288388,4.53976 -17.273305,13.48608 0.01499,8.89033 8.584516,15.66572 17.073045,13.49859 z M 86.607763,230.35148 c 0.263389,-0.29104 0.419358,-0.52917 0.346597,-0.52917 -0.07276,0 -0.347792,0.23813 -0.611181,0.52917 -0.263389,0.29104 -0.419358,0.52917 -0.346597,0.52917 0.07276,0 0.347792,-0.23813 0.611181,-0.52917 z m 22.357287,0.43788 c 0,-0.0502 -0.26789,-0.31809 -0.59531,-0.59531 l -0.59531,-0.50403 0.50403,0.59531 c 0.47366,0.55945 0.68659,0.71577 0.68659,0.50403 z m -4.49791,24.58386 c 0,-0.0728 0.23812,-0.25973 0.52916,-0.41549 0.29105,-0.15576 0.52917,-0.22367 0.52917,-0.15091 0,0.0728 -0.23812,0.25973 -0.52917,0.41549 -0.29104,0.15576 -0.52916,0.22367 -0.52916,0.15091 z m 91.7608,-0.59623 c 0.19099,-0.0764 0.4192,-0.067 0.50712,0.0209 0.0879,0.0879 -0.0684,0.15045 -0.34727,0.13896 -0.30822,-0.0127 -0.37092,-0.0754 -0.15985,-0.15985 z m 6.87917,0 c 0.19099,-0.0764 0.4192,-0.067 0.50712,0.0209 0.0879,0.0879 -0.0684,0.15045 -0.34727,0.13896 -0.30823,-0.0127 -0.37092,-0.0754 -0.15985,-0.15985 z m -5.55625,-0.26458 c 0.19099,-0.0764 0.4192,-0.067 0.50712,0.0209 0.0879,0.0879 -0.0684,0.15046 -0.34727,0.13897 -0.30823,-0.0127 -0.37092,-0.0754 -0.15985,-0.15985 z m 4.23333,0 c 0.19099,-0.0764 0.4192,-0.067 0.50712,0.0209 0.0879,0.0879 -0.0684,0.15046 -0.34727,0.13897 -0.30822,-0.0127 -0.37092,-0.0754 -0.15985,-0.15985 z m -85.62916,-1.2304 c -0.0254,-0.2668 -0.95526,-1.54797 -2.06629,-2.84705 -1.71656,-2.00707 -2.08048,-2.31184 -2.42214,-2.02844 -0.33705,0.27957 -0.33158,0.19716 0.0338,-0.50962 0.5908,-1.14276 0.81345,-1.22881 1.39647,-0.5397 0.49379,0.58364 0.4934,0.58542 -0.0429,0.1922 -0.29771,-0.21828 0.0667,0.19843 0.80991,0.92604 0.74315,0.7276 1.09931,1.14432 0.79146,0.92604 -0.30785,-0.21828 0.16112,0.30264 1.04217,1.15759 0.88105,0.85496 1.40081,1.41196 1.15503,1.23777 -0.39625,-0.28081 -0.45846,-0.18713 -0.54909,0.82679 -0.0562,0.62891 -0.12301,0.92518 -0.14843,0.65838 z m 0.21836,-1.86376 c 0,-0.0549 -0.20836,-0.2633 -0.46302,-0.46302 -0.41965,-0.32911 -0.42901,-0.31975 -0.0999,0.0999 0.34564,0.44073 0.56291,0.58088 0.56291,0.36312 z m -8.20209,1.32292 c 0,-0.0549 0.20836,-0.2633 0.46302,-0.46302 0.41965,-0.32911 0.42901,-0.31975 0.0999,0.0999 -0.34564,0.44073 -0.56291,0.58089 -0.56291,0.36313 z m 79.60583,-4.06729 c -0.32911,-0.41965 -0.31975,-0.42901 0.0999,-0.0999 0.44073,0.34564 0.58089,0.56292 0.36312,0.56292 -0.0549,0 -0.2633,-0.20836 -0.46302,-0.46302 z m -0.95252,-4.56407 c 0,-0.65484 0.0516,-0.92273 0.11466,-0.59531 0.0631,0.32742 0.0631,0.8632 0,1.19063 -0.0631,0.32742 -0.11466,0.0595 -0.11466,-0.59532 z m -104.826168,0.37483 c 0.01269,-0.30823 0.07539,-0.37092 0.159853,-0.15985 0.07643,0.19099 0.06703,0.4192 -0.02089,0.50712 -0.08792,0.0879 -0.150453,-0.0684 -0.138963,-0.34727 z m -0.224087,-1.69774 c 0,-0.50933 0.05445,-0.71768 0.121,-0.46302 0.06655,0.25466 0.06655,0.67138 0,0.92604 -0.06655,0.25466 -0.121,0.0463 -0.121,-0.46302 z m 31.211025,-0.13229 c 0.005,-0.43657 0.0647,-0.58313 0.13178,-0.3257 0.0671,0.25743 0.0627,0.61462 -0.01,0.79375 -0.0725,0.17913 -0.12737,-0.0315 -0.12197,-0.46805 z m -31.211025,-2.77813 c 0,-0.50932 0.05445,-0.71768 0.121,-0.46302 0.06655,0.25466 0.06655,0.67138 0,0.92604 -0.06655,0.25466 -0.121,0.0463 -0.121,-0.46302 z m 31.211025,0.13229 c 0.005,-0.43656 0.0647,-0.58312 0.13178,-0.32569 0.0671,0.25743 0.0627,0.61462 -0.01,0.79375 -0.0725,0.17913 -0.12736,-0.0315 -0.12197,-0.46806 z m 46.91196,-7.01146 c 0.26339,-0.29104 0.53842,-0.52916 0.61118,-0.52916 0.0728,0 -0.0832,0.23812 -0.3466,0.52916 -0.26339,0.29105 -0.53842,0.52917 -0.61118,0.52917 -0.0728,0 0.0832,-0.23812 0.3466,-0.52917 z m 22.19986,-0.0661 -0.50403,-0.59531 0.59532,0.50403 c 0.32742,0.27721 0.59531,0.5451 0.59531,0.59531 0,0.21174 -0.21293,0.0554 -0.6866,-0.50403 z m -1.86793,-1.66505 c -0.0862,-0.22456 -0.0976,-0.46741 -0.0253,-0.53966 0.0723,-0.0723 0.19489,0.11147 0.2725,0.40828 0.16488,0.63049 -0.0183,0.72784 -0.2472,0.13138 z m -84.807575,-5.59329 c 0.190996,-0.0764 0.419199,-0.067 0.507118,0.0209 0.08792,0.0879 -0.06835,0.15046 -0.347266,0.13897 -0.308224,-0.0127 -0.370919,-0.0754 -0.159852,-0.15985 z m 3.704166,0 c 0.190995,-0.0764 0.419198,-0.067 0.507119,0.0209 0.08792,0.0879 -0.06835,0.15046 -0.347265,0.13897 -0.308227,-0.0127 -0.37092,-0.0754 -0.159854,-0.15985 z M 190.7213,208.82033 c 0,-0.0549 0.20836,-0.2633 0.46302,-0.46302 0.41964,-0.3291 0.429,-0.31975 0.0999,0.0999 -0.34565,0.44073 -0.56292,0.58089 -0.56292,0.36313 z m 4.80427,-9.95427 c 0,-0.3638 0.0601,-0.51263 0.13346,-0.33073 0.0734,0.18191 0.0734,0.47956 0,0.66146 -0.0734,0.1819 -0.13346,0.0331 -0.13346,-0.33073 z m 0,-2.91041 c 0,-0.36381 0.0601,-0.51263 0.13346,-0.33073 0.0734,0.1819 0.0734,0.47955 0,0.66146 -0.0734,0.1819 -0.13346,0.0331 -0.13346,-0.33073 z m -4.55971,-9.72344 -0.64144,-0.7276 0.72761,0.64143 c 0.40018,0.35279 0.7276,0.68021 0.7276,0.7276 0,0.20751 -0.21426,0.0386 -0.81377,-0.64143 z"
         id="path2319" /><path
         style="fill:#505050;stroke-width:0.264583"
         d="m 132.45258,317.38035 c -2.22225,-0.25053 -3.30312,-0.59352 -5.55888,-1.76399 -3.25115,-1.68695 -6.13279,-5.09649 -7.39513,-8.74991 -0.87433,-2.53043 -0.88115,-7.34473 -0.0139,-9.83997 0.52563,-1.5124 1.53635,-3.45826 2.49323,-4.79996 0.24787,-0.34756 0.14801,-0.83721 -0.49984,-2.45085 -0.44528,-1.10908 -0.70442,-2.08151 -0.57587,-2.16097 0.12855,-0.0795 0.23373,-7.9e-4 0.23373,0.17473 0,0.58392 1.12556,3.41622 1.35761,3.41622 0.1256,0 0.67519,-0.40187 1.22132,-0.89304 2.65806,-2.39059 6.08454,-3.74243 10.22332,-4.03335 l 2.49184,-0.17516 -0.65572,-1.74871 c -0.36064,-0.96179 -0.91454,-2.0368 -1.2309,-2.38891 l -0.57518,-0.64022 0.6774,0.49362 c 0.44637,0.32527 0.92681,1.19776 1.40873,2.55833 0.62481,1.76393 0.83449,2.08744 1.43928,2.22061 6.01294,1.32395 10.74601,6.09069 12.1027,12.18875 1.31001,5.88825 -1.37565,12.53137 -6.48818,16.04889 -1.67517,1.15255 -4.57547,2.27516 -6.32622,2.44865 -0.81993,0.0813 -1.72891,0.18108 -2.01996,0.22184 -0.29104,0.0408 -1.33024,-0.0162 -2.30934,-0.1266 z m 6.36397,-0.79705 c 3.21212,-1.04031 6.07941,-3.13788 7.97068,-5.83095 1.58895,-2.26258 2.24962,-3.9373 2.65974,-6.74215 0.93635,-6.40368 -2.20133,-12.5576 -7.93247,-15.55794 -2.53942,-1.32942 -4.42593,-1.79424 -7.23375,-1.78233 -4.48078,0.019 -7.5621,1.31425 -10.769,4.52681 -2.29318,2.29724 -3.23397,3.90389 -3.96914,6.77839 -2.0098,7.85821 2.24702,15.89338 9.74497,18.39463 2.93554,0.97926 6.89098,1.0679 9.52897,0.21354 z M 94.707137,303.48743 c -6.935813,-1.86527 -11.671249,-7.96658 -11.671249,-15.03769 0,-7.01535 4.554519,-13.14399 11.244791,-15.13119 2.080252,-0.61789 6.298461,-0.63847 8.438141,-0.0412 1.89174,0.52808 2.10537,0.71427 1.77315,1.5454 -0.14073,0.3521 -0.26342,0.48047 -0.27264,0.28529 -0.01,-0.20246 -0.76497,0.2331 -1.75876,1.01409 -0.95809,0.75293 -1.79509,1.31587 -1.85999,1.25097 -0.0649,-0.0649 0.74206,-0.81291 1.79326,-1.66224 l 1.91126,-1.54422 -0.81338,-0.3319 c -0.44736,-0.18254 -1.8248,-0.47813 -3.061,-0.65686 -1.929651,-0.279 -2.561071,-0.26334 -4.46341,0.1107 -7.151693,1.40617 -12.144466,6.95914 -12.592561,14.00548 -0.289564,4.55341 1.245246,8.69392 4.380707,11.81797 9.41809,9.38381 25.119064,3.41561 26.145534,-9.93834 0.10631,-1.38302 0.0724,-2.2014 -0.0913,-2.2014 -0.1433,0 -0.905,0.4586 -1.69268,1.0191 -1.46273,1.04087 -2.96717,1.90318 -2.49047,1.42749 0.14553,-0.14522 1.01081,-0.80652 1.92286,-1.46958 1.59593,-1.16022 1.63074,-1.20971 0.92604,-1.31622 -0.45784,-0.0692 -0.26127,-0.12552 0.52454,-0.15031 l 1.25677,-0.0396 v 1.80976 c 0,2.28002 -0.79181,5.41356 -1.90369,7.53372 -1.84182,3.51205 -6.09927,6.78572 -10.02984,7.71224 -2.11483,0.49851 -5.740103,0.49306 -7.616051,-0.0114 z M 197.91086,285.62299 c -6.04069,-0.75981 -11.13318,-5.0648 -13.02587,-11.01157 -0.42471,-1.33444 -0.57503,-2.49164 -0.58648,-4.51511 -0.0183,-3.23627 0.23938,-3.73535 1.33317,-2.58187 l 0.72399,0.76352 -0.75056,-0.46355 c -0.4128,-0.25495 -0.81058,-0.40352 -0.88394,-0.33016 -0.0734,0.0734 -0.12876,1.24374 -0.12309,2.60083 0.0188,4.5119 1.29991,7.57523 4.52682,10.82459 3.04568,3.06689 6.42052,4.47514 10.72452,4.47514 4.29618,0 7.66876,-1.40549 10.7384,-4.47514 3.09628,-3.09627 4.49441,-6.48067 4.49081,-10.87069 -0.005,-6.33942 -3.69794,-11.77766 -9.58479,-14.1154 -2.39709,-0.95191 -5.17982,-1.31423 -7.50865,-0.97766 -1.01196,0.14625 -1.92923,0.26827 -2.03837,0.27115 -0.34881,0.009 -0.21321,0.60772 0.26458,1.16782 0.25466,0.29853 -0.26403,-0.076 -1.15265,-0.83235 -0.88863,-0.75632 -1.77595,-1.58651 -1.97184,-1.84487 -0.19589,-0.25835 0.12229,-0.0205 0.70707,0.5286 l 1.06325,0.99832 1.77278,-0.3716 c 4.9168,-1.03065 10.0859,0.39184 13.75113,3.78419 3.35329,3.10364 4.96149,6.83902 4.96149,11.52409 0,6.55146 -3.62591,11.92306 -9.72314,14.40434 -1.03274,0.42028 -2.57489,0.84007 -3.42701,0.93288 -0.85212,0.0928 -1.78743,0.20391 -2.07847,0.24689 -0.29104,0.043 -1.28246,-0.0166 -2.20315,-0.13239 z m -91.0825,-1.75953 -0.64143,-0.7276 0.7276,0.64143 c 0.68006,0.59951 0.84894,0.81377 0.64144,0.81377 -0.0474,0 -0.37482,-0.32742 -0.72761,-0.7276 z m 15.89503,-0.19844 c 0.49365,-0.50932 0.95708,-0.92604 1.02984,-0.92604 0.0728,0 -0.27161,0.41672 -0.76526,0.92604 -0.49365,0.50933 -0.95708,0.92604 -1.02984,0.92604 -0.0728,0 0.2716,-0.41671 0.76526,-0.92604 z m -18.76453,-5.5783 c 0.0127,-0.30822 0.0754,-0.37091 0.15985,-0.15985 0.0764,0.191 0.067,0.4192 -0.0209,0.50712 -0.0879,0.0879 -0.15045,-0.0683 -0.13896,-0.34727 z m 15.40339,-1.24758 c -1.62795,-0.898 -2.29422,-1.52729 -3.13789,-2.9637 -0.6863,-1.16848 -0.77648,-1.57002 -0.77243,-3.43958 0.005,-2.31518 0.55879,-3.77908 1.95944,-5.17973 2.46447,-2.46447 6.86436,-2.74373 9.47854,-0.60161 2.33585,1.91405 3.21239,4.25354 2.68442,7.1647 -0.38278,2.11058 -0.82088,2.71768 -1.9612,2.71768 -1.03736,0 -3.82496,0.90092 -5.02203,1.62306 -2.22549,1.34254 -2.08126,1.31221 -3.22885,0.67918 z m -15.3825,-0.45016 c 0,-0.3638 0.0601,-0.51263 0.13345,-0.33073 0.0734,0.1819 0.0734,0.47956 0,0.66146 -0.0734,0.1819 -0.13345,0.0331 -0.13345,-0.33073 z m 34.08947,-5.27605 c 0,-0.13693 0.1177,-0.32171 0.26155,-0.41062 0.14999,-0.0927 0.19434,0.0135 0.10399,0.24897 -0.17589,0.45837 -0.36554,0.54223 -0.36554,0.16165 z m -31.19994,-2.55121 c 0.0127,-0.30822 0.0754,-0.37091 0.15985,-0.15985 0.0764,0.191 0.067,0.4192 -0.0209,0.50712 -0.0879,0.0879 -0.15046,-0.0683 -0.13897,-0.34727 z m 76.29895,-3.0868 -1.04589,-1.12448 1.12448,1.04588 c 1.04576,0.97266 1.24606,1.20308 1.04588,1.20308 -0.0432,0 -0.54924,-0.50602 -1.12447,-1.12448 z m -45.89276,-0.65857 c 0,-0.14318 -0.48035,-1.1342 -1.06743,-2.20226 -0.58709,-1.06806 -0.99366,-1.86814 -0.90348,-1.77797 0.0902,0.0902 0.85845,-0.24307 1.70727,-0.74055 0.84882,-0.49748 1.60191,-0.90451 1.67353,-0.90451 0.0716,0 0.94456,-0.46101 1.93986,-1.02447 0.99529,-0.56345 2.73236,-1.51595 3.86015,-2.11666 3.56487,-1.89882 5.79768,-3.09838 8.92968,-4.79744 6.42797,-3.48707 7.95389,-4.25336 8.18514,-4.11044 0.33689,0.20821 1.49947,2.33411 1.688,3.08667 0.11944,0.4768 0.0169,0.69621 -0.42614,0.91142 -0.3209,0.1559 -2.1908,1.15728 -4.15533,2.22529 -1.96453,1.06801 -4.46485,2.42277 -5.55625,3.01058 -1.09141,0.58782 -2.57969,1.39813 -3.3073,1.8007 -0.7276,0.40257 -1.6801,0.90945 -2.11666,1.1264 -0.43656,0.21694 -1.74625,0.91428 -2.91041,1.54963 -1.16417,0.63536 -3.18823,1.72703 -4.49792,2.42595 -1.30969,0.69891 -2.53008,1.38938 -2.71198,1.53438 -0.21466,0.17111 -0.33073,0.17226 -0.33073,0.003 z m 43.87122,-1.30811 c 0.19099,-0.0764 0.4192,-0.067 0.50712,0.0209 0.0879,0.0879 -0.0683,0.15045 -0.34727,0.13896 -0.30822,-0.0127 -0.37092,-0.0754 -0.15985,-0.15985 z m 2.16628,-0.45241 c 0,-0.0572 0.18477,-0.17489 0.41061,-0.26155 0.23546,-0.0904 0.34167,-0.046 0.24897,0.10398 -0.15538,0.25141 -0.65958,0.37186 -0.65958,0.15757 z m -78.08583,-0.62362 c -0.32911,-0.41965 -0.31975,-0.429 0.0999,-0.0999 0.25466,0.19972 0.46302,0.40808 0.46302,0.46302 0,0.21777 -0.21727,0.0776 -0.56292,-0.36312 z m 74.34791,0 c -0.32911,-0.41965 -0.31975,-0.429 0.0999,-0.0999 0.25466,0.19972 0.46302,0.40808 0.46302,0.46302 0,0.21777 -0.21728,0.0776 -0.56292,-0.36312 z m 5.85458,-0.43063 c 0,-0.0549 0.20836,-0.2633 0.46302,-0.46302 0.41965,-0.3291 0.42901,-0.31975 0.0999,0.0999 -0.34564,0.44073 -0.56292,0.58089 -0.56292,0.36312 z m -81.56908,-1.35532 c -0.95119,-1.19211 -0.77889,-1.1921 0.30591,1e-5 0.46347,0.50933 0.75049,0.92604 0.63782,0.92604 -0.11267,-1e-5 -0.53735,-0.41673 -0.94373,-0.92605 z m 83.42117,-0.26457 c 0.34177,-0.3638 0.68094,-0.66146 0.7537,-0.66146 0.0728,0 -0.14735,0.29766 -0.48912,0.66146 -0.34178,0.3638 -0.68094,0.66146 -0.7537,0.66146 -0.0728,0 0.14734,-0.29766 0.48912,-0.66146 z m -10.61709,-0.59531 c -0.3291,-0.41965 -0.31975,-0.42901 0.0999,-0.0999 0.25466,0.19972 0.46302,0.40808 0.46302,0.46302 0,0.21776 -0.21727,0.0776 -0.56292,-0.36312 z m -5.98552,0.0161 c 0.25466,-0.0666 0.67138,-0.0666 0.92604,0 0.25467,0.0665 0.0463,0.121 -0.46302,0.121 -0.50932,0 -0.71768,-0.0545 -0.46302,-0.121 z m -59.06822,-0.18211 c 0,-0.0549 0.20836,-0.2633 0.46302,-0.46302 0.41964,-0.3291 0.429,-0.31975 0.0999,0.0999 -0.34565,0.44073 -0.56292,0.58089 -0.56292,0.36312 z m -9.63809,-1.19803 -0.77455,-0.95103 0.89327,0.85142 c 0.4913,0.46828 0.83985,0.89624 0.77455,0.95102 -0.0653,0.0548 -0.46727,-0.32835 -0.89327,-0.85141 z m 11.35788,-0.28957 c 0.26339,-0.29104 0.53842,-0.52917 0.61118,-0.52917 0.0728,0 -0.0832,0.23813 -0.3466,0.52917 -0.26339,0.29104 -0.53842,0.52917 -0.61118,0.52917 -0.0728,0 0.0832,-0.23813 0.3466,-0.52917 z m -16.007293,-1.3498 c -3.830204,-0.17063 -5.146214,-0.51867 -7.805208,-2.06417 -7.309068,-4.24828 -9.866416,-14.11795 -5.532878,-21.35324 1.793428,-2.99432 4.538734,-5.31499 7.798984,-6.59268 5.847114,-2.29146 12.198685,-0.93846 16.671205,3.55128 2.19215,2.2006 3.33945,4.20318 4.10838,7.17107 0.54166,2.09072 0.55231,5.67529 0.0227,7.63374 l -0.38296,1.41603 0.81623,0.96522 0.81623,0.96522 -0.82026,-0.75053 -0.82025,-0.75054 -0.88668,1.66359 c -1.6368,3.07096 -5.3834,6.26641 -8.82608,7.52772 -0.72761,0.26657 -1.38245,0.55032 -1.45521,0.63055 -0.0728,0.0802 -1.739636,0.0743 -3.704167,-0.0133 z m 3.847013,-0.64033 c 5.30482,-1.35433 9.75752,-5.72328 11.10483,-10.89596 0.50967,-1.95675 0.50447,-5.89321 -0.0104,-7.8699 -1.3574,-5.21143 -5.71203,-9.5229 -11.0056,-10.89653 -8.022153,-2.08168 -16.47616,2.86873 -18.626458,10.90708 -0.5393,2.01604 -0.538938,5.87401 7.41e-4,7.89156 1.393149,5.20819 5.689218,9.45025 10.985706,10.8476 1.928043,0.50866 5.591334,0.5165 7.551181,0.0161 z m 19.37017,-1.36014 c 0.18191,-0.0734 0.47956,-0.0734 0.66146,0 0.1819,0.0734 0.0331,0.13346 -0.33073,0.13346 -0.3638,0 -0.51263,-0.0601 -0.33073,-0.13346 z m 3.45612,-0.005 c 0.191,-0.0764 0.4192,-0.067 0.50712,0.0209 0.0879,0.0879 -0.0683,0.15046 -0.34726,0.13897 -0.30823,-0.0127 -0.37092,-0.0754 -0.15986,-0.15985 z m 67.27466,-1.29652 c 0.0127,-0.30822 0.0754,-0.37092 0.15986,-0.15985 0.0764,0.19099 0.067,0.4192 -0.0209,0.50712 -0.0879,0.0879 -0.15045,-0.0683 -0.13896,-0.34727 z m -73.6088,-0.57327 c -0.3291,-0.41965 -0.31975,-0.429 0.0999,-0.0999 0.25467,0.19972 0.46302,0.40808 0.46302,0.46302 0,0.21777 -0.21727,0.0776 -0.56291,-0.36312 z m 74.24671,-0.0705 c -0.0914,-0.1479 -0.27703,-0.2004 -0.41249,-0.11668 -0.13547,0.0837 -0.2463,-0.0519 -0.2463,-0.30127 0,-0.41981 0.0393,-0.41793 0.52916,0.0254 0.29104,0.26339 0.52917,0.51996 0.52917,0.57017 0,0.18805 -0.2393,0.0817 -0.39954,-0.17761 z m -75.4941,-0.52485 c 0,-0.3638 0.0601,-0.51263 0.13345,-0.33073 0.0734,0.1819 0.0734,0.47956 0,0.66146 -0.0734,0.1819 -0.13345,0.0331 -0.13345,-0.33073 z m -0.60469,-1.25677 c -0.32911,-0.41965 -0.31975,-0.42901 0.0999,-0.0999 0.25466,0.19972 0.46302,0.40808 0.46302,0.46302 0,0.21776 -0.21727,0.0776 -0.56292,-0.36312 z m 52.80022,-0.0804 c -2.09536,-0.80618 -3.70607,-2.59447 -4.38443,-4.86782 -0.49465,-1.65765 -0.51962,-2.01171 -0.22486,-3.18769 0.59097,-2.35774 1.67394,-3.91439 3.545,-5.09553 0.82222,-0.51905 1.535,-0.71003 3.00107,-0.80412 2.4082,-0.15455 3.93137,0.37539 5.52181,1.92115 4.02907,3.9159 2.39993,10.61603 -2.96018,12.17426 -1.80377,0.52437 -2.85627,0.49156 -4.49841,-0.14025 z m -53.97374,-1.37478 -0.77711,-0.8599 0.8599,0.77711 c 0.80155,0.72437 0.98151,0.94268 0.77711,0.94268 -0.0455,0 -0.43249,-0.38695 -0.8599,-0.85989 z m 74.21224,0.13229 -0.64143,-0.7276 0.7276,0.64143 c 0.68006,0.59951 0.84894,0.81377 0.64143,0.81377 -0.0474,0 -0.37481,-0.32742 -0.7276,-0.7276 z m -11.16113,-19.77146 c -1.77387,-0.61146 -1.77506,-0.61513 -1.18415,-3.64745 0.29037,-1.49005 0.54221,-3.27562 0.55965,-3.96794 0.0204,-0.81073 0.13737,-1.21854 0.3286,-1.14576 0.1633,0.0622 0.85703,0.19699 1.54163,0.29965 l 1.24473,0.18665 -0.17841,1.35599 c -0.0981,0.74579 -0.35154,2.18941 -0.56314,3.20806 -0.2116,1.01864 -0.45121,2.32833 -0.53248,2.91042 -0.0813,0.58208 -0.16439,1.07744 -0.18474,1.10079 -0.0203,0.0234 -0.4846,-0.11183 -1.03169,-0.30041 z m -8.33579,-0.32382 c -0.32958,-0.0646 -0.53798,-0.21663 -0.46311,-0.33777 0.13106,-0.21208 1.20161,-5.53233 1.59072,-7.90535 0.18245,-1.11269 0.21613,-1.14652 0.98781,-0.99219 0.43941,0.0879 0.93287,0.16161 1.09658,0.16384 0.94382,0.0129 0.95747,0.38079 0.16651,4.48789 -0.43102,2.23814 -0.8755,4.15457 -0.98773,4.25874 -0.2937,0.27262 -1.68979,0.46231 -2.39078,0.32484 z m 7.6107,-16.74844 c -0.23847,-0.15411 -0.2711,-0.2581 -0.0818,-0.26053 0.17332,-0.002 0.3887,0.11501 0.47864,0.26053 0.20302,0.32849 0.11142,0.32849 -0.39687,0 z m 12.43541,-3.01031 c 0,-0.0549 0.20836,-0.2633 0.46302,-0.46302 0.41965,-0.32911 0.42901,-0.31975 0.0999,0.0999 -0.34564,0.44073 -0.56292,0.58089 -0.56292,0.36312 z m -20.65752,-1.42146 -0.64144,-0.7276 0.72761,0.64143 c 0.68005,0.59951 0.84894,0.81377 0.64143,0.81377 -0.0474,0 -0.37481,-0.32742 -0.7276,-0.7276 z m 23.03877,-0.95979 c 0,-0.0549 0.20836,-0.2633 0.46302,-0.46302 0.41965,-0.32911 0.42901,-0.31975 0.0999,0.0999 -0.34564,0.44073 -0.56292,0.58089 -0.56292,0.36312 z m -27.49577,-8.25653 c 0.0127,-0.30822 0.0754,-0.37092 0.15985,-0.15985 0.0764,0.19099 0.067,0.4192 -0.0209,0.50712 -0.0879,0.0879 -0.15045,-0.0683 -0.13896,-0.34727 z m 31.26666,-1.83003 c 0.003,-0.58209 0.0571,-0.78906 0.12041,-0.45994 0.0633,0.32912 0.0609,0.80537 -0.005,1.05833 -0.0662,0.25297 -0.118,-0.0163 -0.11506,-0.59839 z m -31.26666,-1.87414 c 0.0127,-0.30822 0.0754,-0.37092 0.15985,-0.15985 0.0764,0.191 0.067,0.4192 -0.0209,0.50712 -0.0879,0.0879 -0.15045,-0.0684 -0.13896,-0.34727 z m 3.68327,-8.41222 c 0,-0.0549 0.20836,-0.2633 0.46302,-0.46302 0.41965,-0.32911 0.42901,-0.31975 0.0999,0.0999 -0.34564,0.44073 -0.56292,0.58089 -0.56292,0.36313 z m 1.05834,-1.05833 c 0,-0.0549 0.20836,-0.2633 0.46302,-0.46302 0.41964,-0.32911 0.429,-0.31975 0.0999,0.0999 -0.34564,0.44073 -0.56291,0.58088 -0.56291,0.36312 z m 9.19427,-4.30867 c 0.1819,-0.0734 0.47955,-0.0734 0.66146,0 0.1819,0.0734 0.0331,0.13345 -0.33073,0.13345 -0.36381,0 -0.51263,-0.06 -0.33073,-0.13345 z m 2.78316,-0.008 c 0.25743,-0.0671 0.61462,-0.0627 0.79375,0.01 0.17913,0.0725 -0.0315,0.12736 -0.46806,0.12197 -0.43656,-0.005 -0.58312,-0.0647 -0.32569,-0.13177 z"
         id="path2317" /><path
         style="fill:#dc0303;stroke-width:0.264583"
         d="m 178.0213,221.26821 c -0.74442,-0.19347 -1.19063,-0.45817 -1.19063,-0.70631 0,-0.21828 0.28703,-1.97446 0.63784,-3.90261 l 0.63784,-3.50573 h 2.35655 c 2.12098,0 2.34264,0.0463 2.21736,0.46302 -0.0766,0.25467 -0.45683,2.15967 -0.84505,4.23334 l -0.70585,3.77031 -0.95872,-0.0213 c -0.52729,-0.0117 -1.4945,-0.16054 -2.14934,-0.33073 z m -6.94531,-1.0185 c -0.63781,-0.17327 -0.99181,-0.42554 -0.99114,-0.70628 5.3e-4,-0.24021 0.35776,-2.32708 0.79375,-4.63749 0.43598,-2.31041 0.7927,-4.24035 0.7927,-4.28875 0,-0.19255 3.14976,1.05985 3.68961,1.46706 l 0.57672,0.43502 -0.74938,3.95517 -0.74938,3.95517 -1.18535,0.0448 c -0.65194,0.0247 -1.63183,-0.0765 -2.17753,-0.22473 z m 5.88698,-11.95129 c -3.06337,-0.82723 -5.76449,-3.15953 -7.24685,-6.25736 -0.77347,-1.61639 -0.82295,-1.90272 -0.82295,-4.7625 0,-3.02854 0.005,-3.05166 1.02841,-4.96748 1.60225,-2.99882 4.04812,-4.99394 7.17368,-5.85164 1.5131,-0.41522 4.57105,-0.361 6.15413,0.10913 3.36289,0.99867 6.51117,4.26208 7.5777,7.8548 1.25906,4.24126 -0.47137,9.17225 -4.22447,12.03796 -2.52511,1.92806 -6.49855,2.6853 -9.63965,1.83709 z"
         id="path2315" /><path
         style="fill:#a30000;stroke-width:0.264583"
         d="m 180.57023,221.70212 c 0.50245,-0.0985 0.64193,-0.52387 1.2677,-3.86657 0.38672,-2.06577 0.76577,-3.9643 0.84233,-4.21897 0.12527,-0.4167 -0.0962,-0.46302 -2.21433,-0.46302 h -2.35352 l -0.62639,3.37344 c -0.34451,1.85539 -0.6329,3.64133 -0.64086,3.96875 -0.0156,0.64311 -0.10378,0.69856 -0.60459,0.38043 -0.25142,-0.15971 -0.15513,-1.09444 0.42297,-4.10613 0.66001,-3.43842 0.69081,-4.62524 0.10483,-4.03925 -0.0877,0.0877 -0.43256,1.67717 -0.76642,3.53223 -0.89078,4.94952 -0.7209,4.56849 -2.02059,4.53215 -1.00055,-0.028 -1.0358,-0.0492 -0.33192,-0.19996 0.7868,-0.1685 0.7882,-0.17225 1.53785,-4.1223 l 0.75034,-3.95365 -0.57672,-0.43502 c -0.31719,-0.23926 -1.26639,-0.68316 -2.10933,-0.98646 l -1.53261,-0.55144 -0.1319,0.576 c -0.0725,0.3168 -0.46244,2.42147 -0.86642,4.67705 -0.40399,2.25557 -0.77406,4.15263 -0.82239,4.21569 -0.0483,0.0631 -0.21806,-0.0155 -0.37719,-0.17467 -0.20937,-0.20937 -0.0496,-1.56053 0.57809,-4.88967 l 0.8674,-4.60035 -1.83315,-1.83956 c -3.17324,-3.18435 -4.63124,-6.72159 -4.64056,-11.25846 -0.004,-2.04956 0.12952,-2.94321 0.69289,-4.63021 1.72094,-5.15337 5.75839,-8.93883 10.98348,-10.29796 2.33485,-0.60733 6.61002,-0.41763 8.92248,0.39592 7.37807,2.59567 11.8252,10.7419 9.96054,18.2457 -1.11266,4.47757 -3.97203,8.08379 -8.07073,10.17873 -1.30769,0.66839 -2.58941,1.21525 -2.84826,1.21525 -0.39469,0 -0.58256,0.58709 -1.16415,3.63802 -0.38142,2.00092 -0.77296,4.14404 -0.87009,4.7625 -0.17157,1.09249 -0.20386,1.12346 -1.13496,1.08845 -0.55483,-0.0208 -0.72065,-0.0826 -0.39382,-0.14666 z m 3.04101,-13.67661 c 4.27737,-1.50991 7.25977,-5.43056 7.56961,-9.95099 0.17757,-2.59064 -0.43102,-4.69359 -2.05035,-7.08495 -2.10929,-3.11492 -5.3389,-4.825 -9.1067,-4.82203 -4.46898,0.004 -7.95401,2.1229 -10.10222,6.14354 -1.02362,1.91582 -1.02841,1.93894 -1.02841,4.96748 0,2.85978 0.0495,3.14611 0.82295,4.7625 1.48236,3.09783 4.18348,5.43014 7.24685,6.25736 1.9821,0.53524 4.67164,0.42484 6.64827,-0.27291 z"
         id="path2313" /><path
         style="fill:#343434;stroke-width:0.264583"
         d="m 120.29102,286.67677 c -0.28953,-0.67796 -0.60938,-1.02737 -0.94044,-1.02737 -0.27592,0 -1.06716,-0.19268 -1.7583,-0.42818 l -1.25663,-0.42818 -1.14887,0.82506 c -0.94853,0.68119 -1.39922,0.82505 -2.5847,0.82505 -4.11989,0 -8.47708,-4.67678 -8.45892,-9.07936 0.009,-2.12158 0.36713,-3.01591 1.66295,-4.14981 l 1.05828,-0.92604 0.0958,-2.24896 c 0.0527,-1.23693 0.24193,-2.81493 0.42052,-3.50667 0.36386,-1.40937 0.38871,-1.35029 -1.49323,-3.54995 l -1.09319,-1.27775 1.62235,-0.0107 c 2.69306,-0.0178 6.07345,-2.06814 8.26889,-5.0155 1.17517,-1.57766 2.13186,-4.04647 1.85132,-4.77752 -0.25303,-0.6594 -0.0106,-0.4343 1.45547,1.35151 l 1.42376,1.73425 1.85209,-0.15782 c 2.40653,-0.20506 5.56869,0.35806 7.86899,1.40132 l 1.78357,0.80892 5.88935,-3.18116 c 3.23913,-1.74964 8.7766,-4.73753 12.30548,-6.63976 6.27388,-3.38191 6.41615,-3.47695 6.41615,-4.28622 0,-1.35491 0.73853,-3.85213 1.75458,-5.93283 1.64936,-3.37762 5.52836,-6.69953 9.01646,-7.72155 1.25348,-0.36727 1.07319,0.11903 2.20127,-5.93754 0.71227,-3.82406 0.62699,-3.63299 1.45349,-3.25641 0.62415,0.28439 0.66961,0.4082 0.50939,1.38746 -0.36455,2.22809 -1.44671,7.61654 -1.56954,7.81528 -0.17923,0.29 1.17139,0.52066 2.05024,0.35013 0.40233,-0.0781 0.79572,-0.24583 0.87421,-0.37282 0.10641,-0.17219 1.69502,-7.99196 1.70059,-8.37103 5.3e-4,-0.0364 0.36356,-0.0661 0.80671,-0.0661 0.91922,0 0.92243,-0.33505 -0.0427,4.46089 -0.58567,2.91013 -0.61819,3.56063 -0.17057,3.41142 0.19123,-0.0637 0.62736,-1.68505 1.04666,-3.89092 0.39535,-2.07991 0.77341,-3.83624 0.84013,-3.90296 0.0667,-0.0667 0.38476,0.0197 0.70675,0.19202 0.66561,0.35622 0.65149,0.66691 -0.24402,5.36755 l -0.49443,2.5953 0.59587,0.39042 c 0.32772,0.21474 0.96766,0.49706 1.42208,0.62738 0.74246,0.21294 0.82826,0.17849 0.84645,-0.33989 0.0111,-0.31726 0.0563,-0.75543 0.10027,-0.97371 0.45558,-2.25952 0.93896,-4.83992 1.078,-5.75469 0.15601,-1.02636 0.23815,-1.12448 0.94141,-1.12448 0.53704,0 0.7705,0.13119 0.7705,0.43296 0,0.23813 -0.36698,2.33741 -0.81551,4.66506 l -0.81552,4.2321 1.38836,1.2145 c 1.7511,1.53182 3.7736,4.60957 4.52456,6.88526 0.45575,1.38109 0.58716,2.45192 0.62019,5.05365 l 0.0419,3.30124 2.31696,2.15122 c 2.07949,1.93074 2.31695,2.24814 2.31695,3.09691 0,4.03524 -5.40522,10.00174 -9.44562,10.42646 -1.01099,0.10627 -1.1634,0.0148 -3.40679,-2.0454 -2.03259,-1.86659 -2.44182,-2.13379 -3.0427,-1.98674 -0.38185,0.0934 -1.94591,0.23766 -3.47569,0.32045 -3.08007,0.16671 -4.96974,-0.17712 -7.69492,-1.40011 l -1.51557,-0.68015 -7.49779,4.04759 c -4.12379,2.22617 -9.64092,5.20077 -12.26029,6.61022 l -4.7625,2.56264 -0.18463,1.63786 c -0.28605,2.5376 -1.301,5.13164 -2.77737,7.09848 -0.5699,0.75923 -0.61706,0.97661 -0.36728,1.69313 0.38336,1.09969 0.36596,1.16154 -0.18613,0.6619 -0.87162,-0.7888 -2.52982,-1.30063 -4.18286,-1.29109 -4.47572,0.0258 -8.64015,2.6677 -9.49171,6.02148 l -0.28176,1.10971 z m 2.30007,-10.51681 c 1.19708,-0.72214 3.98468,-1.62306 5.02204,-1.62306 1.14031,0 1.57842,-0.6071 1.9612,-2.71768 0.52797,-2.91116 -0.34857,-5.25065 -2.68442,-7.1647 -2.61418,-2.14212 -7.01408,-1.86286 -9.47854,0.60161 -1.40066,1.40065 -1.95444,2.86455 -1.95945,5.17973 -0.004,1.86956 0.0861,2.2711 0.77243,3.43958 0.84368,1.43641 1.50995,2.0657 3.1379,2.9637 1.14758,0.63303 1.00336,0.66336 3.22884,-0.67918 z m 17.72709,-12.88127 c 1.30969,-0.69892 3.33375,-1.79059 4.49791,-2.42595 1.16417,-0.63535 2.47386,-1.33269 2.91042,-1.54963 0.43656,-0.21695 1.38906,-0.72383 2.11666,-1.1264 0.72761,-0.40257 2.21589,-1.21288 3.3073,-1.8007 1.0914,-0.58781 3.59172,-1.94257 5.55625,-3.01058 1.96453,-1.06801 3.83443,-2.06939 4.15533,-2.22529 0.44299,-0.21521 0.54558,-0.43462 0.42614,-0.91142 -0.18853,-0.75256 -1.35111,-2.87846 -1.688,-3.08667 -0.23125,-0.14292 -1.75717,0.62337 -8.18514,4.11044 -3.132,1.69906 -5.36481,2.89862 -8.92968,4.79744 -1.12779,0.60071 -2.86486,1.55321 -3.86015,2.11666 -0.9953,0.56346 -1.86823,1.02447 -1.93986,1.02447 -0.0716,0 -0.82471,0.40703 -1.67353,0.90451 -0.84883,0.49748 -1.6171,0.83073 -1.70727,0.74055 -0.0902,-0.0902 0.31639,0.70991 0.90347,1.77797 0.58709,1.06806 1.06744,2.05908 1.06744,2.20226 0,0.16898 0.11606,0.16783 0.33073,-0.003 0.1819,-0.14499 1.40229,-0.83546 2.71198,-1.53438 z m 32.79092,-12.16374 c 5.36011,-1.55823 6.98925,-8.25836 2.96018,-12.17426 -1.59044,-1.54576 -3.11361,-2.0757 -5.52181,-1.92115 -3.38813,0.21743 -5.62774,2.23589 -6.54607,5.89965 -0.29476,1.17598 -0.26979,1.53004 0.22486,3.18769 0.67836,2.27335 2.28907,4.06164 4.38443,4.86782 1.64214,0.63181 2.69464,0.66462 4.49841,0.14025 z m 17.08303,-42.01293 c 0,-0.0455 0.38696,-0.43249 0.8599,-0.85989 l 0.85989,-0.77711 -0.7771,0.8599 c -0.72437,0.80154 -0.94269,0.98151 -0.94269,0.7771 z M 164.30474,198.3369 c 0,-0.36381 0.0601,-0.51263 0.13345,-0.33073 0.0734,0.1819 0.0734,0.47955 0,0.66146 -0.0734,0.1819 -0.13345,0.0331 -0.13345,-0.33073 z m 0,-1.85209 c 0,-0.3638 0.0601,-0.51263 0.13345,-0.33073 0.0734,0.18191 0.0734,0.47956 0,0.66146 -0.0734,0.1819 -0.13345,0.0331 -0.13345,-0.33073 z m 27.05288,-9.59114 -0.50403,-0.59531 0.59531,0.50402 c 0.55945,0.47367 0.71576,0.6866 0.50403,0.6866 -0.0502,0 -0.3181,-0.26789 -0.59531,-0.59531 z m -1.46382,-1.45521 c -0.32911,-0.41964 -0.31975,-0.429 0.0999,-0.0999 0.25467,0.19972 0.46303,0.40808 0.46303,0.46302 0,0.21776 -0.21728,0.0776 -0.56292,-0.36313 z m -10.48344,-3.68811 c 0.25466,-0.0666 0.67138,-0.0666 0.92604,0 0.25466,0.0666 0.0463,0.121 -0.46302,0.121 -0.50932,0 -0.71768,-0.0545 -0.46302,-0.121 z"
         id="path2311" /></g><g
       id="g2993"
       transform="translate(4.7935923,40.821932)"><path
         style="fill:none;stroke:#000000;stroke-width:0.265;stroke-linecap:butt;stroke-linejoin:miter;stroke-dasharray:none;stroke-opacity:1;marker-start:url(#Arrow1);marker-end:url(#marker2751)"
         d="m 164.22164,21.372326 v 19.819018 l -15.31217,8.840485"
         id="path2527" /><path
         style="fill:none;stroke:#000000;stroke-width:0.264583px;stroke-linecap:butt;stroke-linejoin:miter;stroke-opacity:1;marker-end:url(#marker2805)"
         d="m 164.20503,41.22916 17.24191,4.619956"
         id="path2529" /><text
         xml:space="preserve"
         style="font-size:10.5833px;line-height:1.25;font-family:'TeX Gyre Termes';-inkscape-font-specification:'TeX Gyre Termes';stroke-width:0.264583"
         x="161.95468"
         y="18.543791"
         id="text2921"><tspan
           sodipodi:role="line"
           id="tspan2919"
           style="font-style:italic;font-variant:normal;font-weight:normal;font-stretch:normal;font-family:Roboto;-inkscape-font-specification:'Roboto Italic';stroke-width:0.264583"
           x="161.95468"
           y="18.543791">z</tspan></text><text
         xml:space="preserve"
         style="font-size:10.5833px;line-height:1.25;font-family:'TeX Gyre Termes';-inkscape-font-specification:'TeX Gyre Termes';stroke-width:0.264583"
         x="142.66261"
         y="54.185364"
         id="text2975"><tspan
           sodipodi:role="line"
           id="tspan2973"
           style="font-style:italic;font-variant:normal;font-weight:normal;font-stretch:normal;font-family:Roboto;-inkscape-font-specification:'Roboto Italic';stroke-width:0.264583"
           x="142.66261"
           y="54.185364">x</tspan></text><text
         xml:space="preserve"
         style="font-size:10.5833px;line-height:1.25;font-family:'TeX Gyre Termes';-inkscape-font-specification:'TeX Gyre Termes';stroke-width:0.264583"
         x="183.56995"
         y="49.624805"
         id="text2979"><tspan
           sodipodi:role="line"
           id="tspan2977"
           style="font-style:italic;font-variant:normal;font-weight:normal;font-stretch:normal;font-family:Roboto;-inkscape-font-specification:'Roboto Italic';stroke-width:0.264583"
           x="183.56995"
           y="49.624805">y</tspan></text></g><path
       style="fill:none;stroke:#000000;stroke-width:1.12288;stroke-linecap:butt;stroke-linejoin:miter;stroke-dasharray:none;stroke-opacity:1;marker-end:url(#marker2805)"
       d="M 4.1553754,110.39341 118.73273,42.237943"
       id="path3033" /><path
       style="fill:none;stroke:#000000;stroke-width:1.12288;stroke-linecap:butt;stroke-linejoin:miter;stroke-dasharray:none;stroke-opacity:1;marker-end:url(#marker2805)"
       d="M 105.83383,128.4305 41.063319,11.906173"
       id="path3091" /><text
       xml:space="preserve"
       style="font-size:10.5833px;line-height:1.25;font-family:'TeX Gyre Termes';-inkscape-font-specification:'TeX Gyre Termes';stroke-width:0.264583"
       x="123.97217"
       y="42.790226"
       id="text2975-3"><tspan
         sodipodi:role="line"
         id="tspan2973-6"
         style="font-style:italic;font-variant:normal;font-weight:normal;font-stretch:normal;font-family:Roboto;-inkscape-font-specification:'Roboto Italic';stroke-width:0.264583"
         x="123.97217"
         y="42.790226">A</tspan></text><text
       xml:space="preserve"
       style="font-size:10.5833px;line-height:1.25;font-family:'TeX Gyre Termes';-inkscape-font-specification:'TeX Gyre Termes';stroke-width:0.264583"
       x="31.23625"
       y="9.8279085"
       id="text3946"><tspan
         sodipodi:role="line"
         id="tspan3944"
         style="font-style:italic;font-variant:normal;font-weight:normal;font-stretch:normal;font-family:Roboto;-inkscape-font-specification:'Roboto Italic';stroke-width:0.264583"
         x="31.23625"
         y="9.8279085">B</tspan></text><path
       style="fill:none;stroke:#000000;stroke-width:0.865;stroke-linecap:butt;stroke-linejoin:miter;stroke-dasharray:0.865, 0.865;stroke-dashoffset:0;stroke-opacity:1;marker-end:url(#marker2805)"
       d="M 29.552709,53.100456 119.05559,86.69408"
       id="path3948" /><text
       xml:space="preserve"
       style="font-size:10.5833px;line-height:1.25;font-family:'TeX Gyre Termes';-inkscape-font-specification:'TeX Gyre Termes';stroke-width:0.264583"
       x="122.88118"
       y="90.358429"
       id="text3994"><tspan
         sodipodi:role="line"
         id="tspan3992"
         style="font-style:italic;font-variant:normal;font-weight:normal;font-stretch:normal;font-family:Roboto;-inkscape-font-specification:'Roboto Italic';stroke-width:0.264583"
         x="122.88118"
         y="90.358429">C</tspan></text></g></svg>
