<?xml version="1.0" encoding="utf-8" standalone="no"?>
<!DOCTYPE svg PUBLIC "-//W3C//DTD SVG 1.1//EN"
  "http://www.w3.org/Graphics/SVG/1.1/DTD/svg11.dtd">
<svg xmlns:xlink="http://www.w3.org/1999/xlink" width="576pt" height="252pt" viewBox="0 0 576 252" xmlns="http://www.w3.org/2000/svg" version="1.1">
 <metadata>
  <rdf:RDF xmlns:dc="http://purl.org/dc/elements/1.1/" xmlns:cc="http://creativecommons.org/ns#" xmlns:rdf="http://www.w3.org/1999/02/22-rdf-syntax-ns#">
   <cc:Work>
    <dc:type rdf:resource="http://purl.org/dc/dcmitype/StillImage"/>
    <dc:date>2022-06-02T14:25:17.721676</dc:date>
    <dc:format>image/svg+xml</dc:format>
    <dc:creator>
     <cc:Agent>
      <dc:title>Matplotlib v3.5.1, https://matplotlib.org/</dc:title>
     </cc:Agent>
    </dc:creator>
   </cc:Work>
  </rdf:RDF>
 </metadata>
 <defs>
  <style type="text/css">*{stroke-linejoin: round; stroke-linecap: butt}</style>
 </defs>
 <g id="figure_1">
  <g id="patch_1">
   <path d="M 0 252 
L 576 252 
L 576 0 
L 0 0 
L 0 252 
z
" style="fill: none"/>
  </g>
  <g id="axes_1">
   <g id="patch_2">
    <path d="M 52.2175 206.825 
L 262.81 206.825 
L 262.81 25.8 
L 52.2175 25.8 
L 52.2175 206.825 
z
" style="fill: none"/>
   </g>
   <g id="matplotlib.axis_1">
    <g id="xtick_1">
     <g id="line2d_1">
      <defs>
       <path id="m9f4a1bf06d" d="M 0 0 
L 0 4 
" style="stroke: #000000"/>
      </defs>
      <g>
       <use xlink:href="#m9f4a1bf06d" x="61.433663" y="206.825" style="stroke: #000000"/>
      </g>
     </g>
     <g id="text_1">
      <!-- 0 -->
      <g transform="translate(58.105538 223.325)scale(0.12 -0.12)">
       <defs>
        <path id="Roboto-Light-30" d="M 3172 2666 
L 3172 1900 
Q 3172 897 2805 417 
Q 2438 -63 1778 -63 
Q 1125 -63 750 417 
Q 375 897 375 1900 
L 375 2666 
Q 375 3666 747 4141 
Q 1119 4616 1772 4616 
Q 2431 4616 2801 4141 
Q 3172 3666 3172 2666 
z
M 2800 1856 
L 2800 2713 
Q 2800 4297 1772 4297 
Q 750 4297 750 2713 
L 750 1856 
Q 750 1091 1009 673 
Q 1269 256 1778 256 
Q 2294 256 2547 673 
Q 2800 1091 2800 1856 
z
" transform="scale(0.015625)"/>
       </defs>
       <use xlink:href="#Roboto-Light-30"/>
      </g>
     </g>
    </g>
    <g id="xtick_2">
     <g id="line2d_2">
      <g>
       <use xlink:href="#m9f4a1bf06d" x="106.185352" y="206.825" style="stroke: #000000"/>
      </g>
     </g>
     <g id="text_2">
      <!-- 25 -->
      <g transform="translate(99.529102 223.325)scale(0.12 -0.12)">
       <defs>
        <path id="Roboto-Light-32" d="M 3281 319 
L 3281 0 
L 428 0 
L 428 291 
L 1919 1978 
Q 2338 2453 2508 2764 
Q 2678 3075 2678 3359 
Q 2678 3772 2434 4033 
Q 2191 4294 1728 4294 
Q 1253 4294 978 3995 
Q 703 3697 703 3238 
L 328 3238 
Q 328 3803 700 4208 
Q 1072 4613 1728 4613 
Q 2344 4613 2698 4289 
Q 3053 3966 3053 3394 
Q 3053 2981 2779 2562 
Q 2506 2144 2159 1750 
L 888 319 
L 3281 319 
z
" transform="scale(0.015625)"/>
        <path id="Roboto-Light-35" d="M 978 2250 
L 684 2334 
L 906 4550 
L 3181 4550 
L 3181 4203 
L 1228 4203 
L 1066 2666 
Q 1181 2750 1409 2834 
Q 1638 2919 1922 2919 
Q 2531 2919 2901 2525 
Q 3272 2131 3272 1450 
Q 3272 797 2945 367 
Q 2619 -63 1909 -63 
Q 1369 -63 975 246 
Q 581 556 525 1197 
L 884 1197 
Q 991 256 1909 256 
Q 2394 256 2645 565 
Q 2897 875 2897 1444 
Q 2897 1925 2626 2251 
Q 2356 2578 1856 2578 
Q 1531 2578 1337 2489 
Q 1144 2400 978 2250 
z
" transform="scale(0.015625)"/>
       </defs>
       <use xlink:href="#Roboto-Light-32"/>
       <use xlink:href="#Roboto-Light-35" x="55.46875"/>
      </g>
     </g>
    </g>
    <g id="xtick_3">
     <g id="line2d_3">
      <g>
       <use xlink:href="#m9f4a1bf06d" x="150.937042" y="206.825" style="stroke: #000000"/>
      </g>
     </g>
     <g id="text_3">
      <!-- 50 -->
      <g transform="translate(144.280792 223.325)scale(0.12 -0.12)">
       <use xlink:href="#Roboto-Light-35"/>
       <use xlink:href="#Roboto-Light-30" x="55.46875"/>
      </g>
     </g>
    </g>
    <g id="xtick_4">
     <g id="line2d_4">
      <g>
       <use xlink:href="#m9f4a1bf06d" x="195.688731" y="206.825" style="stroke: #000000"/>
      </g>
     </g>
     <g id="text_4">
      <!-- 75 -->
      <g transform="translate(189.032481 223.325)scale(0.12 -0.12)">
       <defs>
        <path id="Roboto-Light-37" d="M 3231 4550 
L 3231 4338 
L 1288 0 
L 900 0 
L 2828 4231 
L 241 4231 
L 241 4550 
L 3231 4550 
z
" transform="scale(0.015625)"/>
       </defs>
       <use xlink:href="#Roboto-Light-37"/>
       <use xlink:href="#Roboto-Light-35" x="55.46875"/>
      </g>
     </g>
    </g>
    <g id="xtick_5">
     <g id="line2d_5">
      <g>
       <use xlink:href="#m9f4a1bf06d" x="240.440421" y="206.825" style="stroke: #000000"/>
      </g>
     </g>
     <g id="text_5">
      <!-- 100 -->
      <g transform="translate(230.456046 223.325)scale(0.12 -0.12)">
       <defs>
        <path id="Roboto-Light-31" d="M 2169 4569 
L 2169 0 
L 1794 0 
L 1794 4100 
L 559 3641 
L 559 3991 
L 2106 4569 
L 2169 4569 
z
" transform="scale(0.015625)"/>
       </defs>
       <use xlink:href="#Roboto-Light-31"/>
       <use xlink:href="#Roboto-Light-30" x="55.46875"/>
       <use xlink:href="#Roboto-Light-30" x="110.9375"/>
      </g>
     </g>
    </g>
    <g id="text_6">
     <!-- Steps / 1000 -->
     <g transform="translate(123.398125 238.7625)scale(0.12 -0.12)">
      <defs>
       <path id="Roboto-Regular-53" d="M 2953 1150 
Q 2953 1469 2734 1656 
Q 2516 1844 1872 2031 
Q 1197 2228 797 2536 
Q 397 2844 397 3375 
Q 397 3906 820 4259 
Q 1244 4613 1944 4613 
Q 2713 4613 3130 4191 
Q 3547 3769 3547 3238 
L 2947 3238 
Q 2947 3619 2700 3869 
Q 2453 4119 1944 4119 
Q 1463 4119 1231 3908 
Q 1000 3697 1000 3381 
Q 1000 3094 1251 2903 
Q 1503 2713 2066 2556 
Q 2838 2338 3198 2013 
Q 3559 1688 3559 1156 
Q 3559 600 3125 268 
Q 2691 -63 1972 -63 
Q 1553 -63 1158 93 
Q 763 250 508 558 
Q 253 866 253 1319 
L 853 1319 
Q 853 853 1193 640 
Q 1534 428 1972 428 
Q 2444 428 2698 623 
Q 2953 819 2953 1150 
z
" transform="scale(0.015625)"/>
       <path id="Roboto-Regular-74" d="M 1872 0 
Q 1803 -22 1692 -42 
Q 1581 -63 1425 -63 
Q 1103 -63 875 134 
Q 647 331 647 841 
L 647 2938 
L 28 2938 
L 28 3381 
L 647 3381 
L 647 4203 
L 1225 4203 
L 1225 3381 
L 1856 3381 
L 1856 2938 
L 1225 2938 
L 1225 838 
Q 1225 578 1337 506 
Q 1450 434 1597 434 
Q 1669 434 1748 448 
Q 1828 463 1869 472 
L 1872 0 
z
" transform="scale(0.015625)"/>
       <path id="Roboto-Regular-65" d="M 3116 591 
Q 2950 341 2647 139 
Q 2344 -63 1844 -63 
Q 1138 -63 714 396 
Q 291 856 291 1572 
L 291 1703 
Q 291 2256 502 2645 
Q 713 3034 1050 3239 
Q 1388 3444 1769 3444 
Q 2494 3444 2826 2970 
Q 3159 2497 3159 1788 
L 3159 1528 
L 872 1528 
Q 884 1063 1148 736 
Q 1413 409 1875 409 
Q 2181 409 2393 534 
Q 2606 659 2766 869 
L 3116 591 
z
M 1769 2969 
Q 1425 2969 1187 2719 
Q 950 2469 891 2000 
L 2581 2000 
L 2581 2044 
Q 2559 2381 2386 2675 
Q 2213 2969 1769 2969 
z
" transform="scale(0.015625)"/>
       <path id="Roboto-Regular-70" d="M 1984 -63 
Q 1375 -63 1019 328 
L 1019 -1300 
L 438 -1300 
L 438 3381 
L 969 3381 
L 997 3009 
Q 1353 3444 1975 3444 
Q 2616 3444 2956 2969 
Q 3297 2494 3297 1719 
L 3297 1653 
Q 3297 913 2955 425 
Q 2613 -63 1984 -63 
z
M 1806 2956 
Q 1513 2956 1322 2823 
Q 1131 2691 1019 2491 
L 1019 872 
Q 1134 672 1323 542 
Q 1513 413 1813 413 
Q 2281 413 2498 781 
Q 2716 1150 2716 1653 
L 2716 1719 
Q 2716 2222 2498 2589 
Q 2281 2956 1806 2956 
z
" transform="scale(0.015625)"/>
       <path id="Roboto-Regular-73" d="M 2409 897 
Q 2409 1084 2270 1232 
Q 2131 1381 1631 1481 
Q 1066 1600 739 1819 
Q 413 2038 413 2456 
Q 413 2856 755 3150 
Q 1097 3444 1666 3444 
Q 2272 3444 2612 3134 
Q 2953 2825 2953 2388 
L 2375 2388 
Q 2375 2597 2190 2783 
Q 2006 2969 1666 2969 
Q 1306 2969 1150 2812 
Q 994 2656 994 2472 
Q 994 2284 1144 2170 
Q 1294 2056 1772 1950 
Q 2394 1806 2691 1578 
Q 2988 1350 2988 941 
Q 2988 494 2630 215 
Q 2272 -63 1681 -63 
Q 1009 -63 653 281 
Q 297 625 297 1044 
L 878 1044 
Q 897 684 1155 548 
Q 1413 413 1681 413 
Q 2034 413 2221 550 
Q 2409 688 2409 897 
z
" transform="scale(0.015625)"/>
       <path id="Roboto-Regular-20" transform="scale(0.015625)"/>
       <path id="Roboto-Regular-2f" d="M 2453 4550 
L 556 -391 
L 59 -391 
L 1959 4550 
L 2453 4550 
z
" transform="scale(0.015625)"/>
       <path id="Roboto-Regular-31" d="M 2278 4575 
L 2278 0 
L 1700 0 
L 1700 3853 
L 534 3428 
L 534 3950 
L 2188 4575 
L 2278 4575 
z
" transform="scale(0.015625)"/>
       <path id="Roboto-Regular-30" d="M 3234 2638 
L 3234 1944 
Q 3234 825 2848 381 
Q 2463 -63 1800 -63 
Q 1147 -63 753 381 
Q 359 825 359 1944 
L 359 2638 
Q 359 3753 750 4183 
Q 1141 4613 1794 4613 
Q 2456 4613 2845 4183 
Q 3234 3753 3234 2638 
z
M 2653 1850 
L 2653 2734 
Q 2653 3503 2434 3822 
Q 2216 4141 1794 4141 
Q 1381 4141 1161 3822 
Q 941 3503 941 2734 
L 941 1850 
Q 941 1088 1164 750 
Q 1388 413 1800 413 
Q 2225 413 2439 750 
Q 2653 1088 2653 1850 
z
" transform="scale(0.015625)"/>
      </defs>
      <use xlink:href="#Roboto-Regular-53"/>
      <use xlink:href="#Roboto-Regular-74" x="59.375"/>
      <use xlink:href="#Roboto-Regular-65" x="92.089844"/>
      <use xlink:href="#Roboto-Regular-70" x="145.117188"/>
      <use xlink:href="#Roboto-Regular-73" x="201.269531"/>
      <use xlink:href="#Roboto-Regular-20" x="252.880859"/>
      <use xlink:href="#Roboto-Regular-2f" x="277.685547"/>
      <use xlink:href="#Roboto-Regular-20" x="318.945312"/>
      <use xlink:href="#Roboto-Regular-31" x="343.75"/>
      <use xlink:href="#Roboto-Regular-30" x="399.951172"/>
      <use xlink:href="#Roboto-Regular-30" x="456.152344"/>
      <use xlink:href="#Roboto-Regular-30" x="512.353516"/>
     </g>
    </g>
   </g>
   <g id="matplotlib.axis_2">
    <g id="ytick_1">
     <g id="line2d_6">
      <defs>
       <path id="m453e47635a" d="M 0 0 
L -4 0 
" style="stroke: #000000"/>
      </defs>
      <g>
       <use xlink:href="#m453e47635a" x="52.2175" y="169.370166" style="stroke: #000000"/>
      </g>
     </g>
     <g id="text_7">
      <!-- $\mathdefault{10^{1}}$ -->
      <g transform="translate(26.2375 173.870166)scale(0.12 -0.12)">
       <use xlink:href="#Roboto-Light-31" transform="translate(0 0.046875)"/>
       <use xlink:href="#Roboto-Light-30" transform="translate(55.46875 0.046875)"/>
       <use xlink:href="#Roboto-Light-31" transform="translate(111.861992 37.026562)scale(0.7)"/>
      </g>
     </g>
    </g>
    <g id="ytick_2">
     <g id="line2d_7">
      <g>
       <use xlink:href="#m453e47635a" x="52.2175" y="115.326097" style="stroke: #000000"/>
      </g>
     </g>
     <g id="text_8">
      <!-- $\mathdefault{10^{3}}$ -->
      <g transform="translate(26.2375 119.826097)scale(0.12 -0.12)">
       <defs>
        <path id="Roboto-Light-33" d="M 1641 2159 
L 1263 2159 
L 1263 2481 
L 1641 2481 
Q 2166 2481 2436 2740 
Q 2706 3000 2706 3366 
Q 2706 3775 2473 4034 
Q 2241 4294 1750 4294 
Q 1322 4294 1036 4042 
Q 750 3791 750 3356 
L 378 3356 
Q 378 3909 768 4261 
Q 1159 4613 1750 4613 
Q 2350 4613 2714 4284 
Q 3078 3956 3078 3353 
Q 3078 3047 2881 2761 
Q 2684 2475 2300 2331 
Q 2750 2209 2956 1914 
Q 3163 1619 3163 1238 
Q 3163 616 2766 276 
Q 2369 -63 1766 -63 
Q 1397 -63 1064 81 
Q 731 225 520 512 
Q 309 800 309 1234 
L 684 1234 
Q 684 800 986 528 
Q 1288 256 1766 256 
Q 2250 256 2520 506 
Q 2791 756 2791 1225 
Q 2791 1719 2472 1939 
Q 2153 2159 1641 2159 
z
" transform="scale(0.015625)"/>
       </defs>
       <use xlink:href="#Roboto-Light-31" transform="translate(0 0.565625)"/>
       <use xlink:href="#Roboto-Light-30" transform="translate(55.46875 0.565625)"/>
       <use xlink:href="#Roboto-Light-33" transform="translate(111.861992 37.545313)scale(0.7)"/>
      </g>
     </g>
    </g>
    <g id="ytick_3">
     <g id="line2d_8">
      <g>
       <use xlink:href="#m453e47635a" x="52.2175" y="61.282027" style="stroke: #000000"/>
      </g>
     </g>
     <g id="text_9">
      <!-- $\mathdefault{10^{5}}$ -->
      <g transform="translate(26.2375 65.782027)scale(0.12 -0.12)">
       <use xlink:href="#Roboto-Light-31" transform="translate(0 0.254688)"/>
       <use xlink:href="#Roboto-Light-30" transform="translate(55.46875 0.254688)"/>
       <use xlink:href="#Roboto-Light-35" transform="translate(111.861992 37.234375)scale(0.7)"/>
      </g>
     </g>
    </g>
    <g id="text_10">
     <!-- Training error -->
     <g transform="translate(19.73625 152.295625)rotate(-90)scale(0.12 -0.12)">
      <defs>
       <path id="Roboto-Regular-54" d="M 156 4056 
L 156 4550 
L 3672 4550 
L 3672 4056 
L 2209 4056 
L 2209 0 
L 1616 0 
L 1616 4056 
L 156 4056 
z
" transform="scale(0.015625)"/>
       <path id="Roboto-Regular-72" d="M 1791 2888 
Q 1494 2888 1303 2755 
Q 1113 2622 1019 2400 
L 1019 0 
L 441 0 
L 441 3381 
L 1003 3381 
L 1016 2994 
Q 1144 3200 1342 3322 
Q 1541 3444 1819 3444 
Q 1981 3444 2075 3400 
L 2072 2863 
Q 1944 2888 1791 2888 
z
" transform="scale(0.015625)"/>
       <path id="Roboto-Regular-61" d="M 2528 0 
Q 2472 122 2447 356 
Q 2284 184 2040 60 
Q 1797 -63 1484 -63 
Q 966 -63 653 228 
Q 341 519 341 941 
Q 341 1484 753 1767 
Q 1166 2050 1863 2050 
L 2434 2050 
L 2434 2319 
Q 2434 2619 2254 2798 
Q 2075 2978 1722 2978 
Q 1394 2978 1192 2817 
Q 991 2656 991 2444 
L 413 2444 
Q 413 2806 778 3125 
Q 1144 3444 1756 3444 
Q 2306 3444 2659 3162 
Q 3013 2881 3013 2313 
L 3013 738 
Q 3013 569 3042 378 
Q 3072 188 3131 50 
L 3131 0 
L 2528 0 
z
M 1569 444 
Q 1881 444 2111 600 
Q 2341 756 2434 947 
L 2434 1644 
L 1956 1644 
Q 922 1644 922 1019 
Q 922 778 1084 611 
Q 1247 444 1569 444 
z
" transform="scale(0.015625)"/>
       <path id="Roboto-Regular-69" d="M 444 4278 
Q 444 4419 530 4516 
Q 616 4613 784 4613 
Q 950 4613 1039 4516 
Q 1128 4419 1128 4278 
Q 1128 4144 1039 4048 
Q 950 3953 784 3953 
Q 616 3953 530 4048 
Q 444 4144 444 4278 
z
M 1069 3381 
L 1069 0 
L 488 0 
L 488 3381 
L 1069 3381 
z
" transform="scale(0.015625)"/>
       <path id="Roboto-Regular-6e" d="M 1844 2956 
Q 1566 2956 1353 2806 
Q 1141 2656 1019 2416 
L 1019 0 
L 441 0 
L 441 3381 
L 988 3381 
L 1006 2959 
Q 1391 3444 2016 3444 
Q 2516 3444 2808 3162 
Q 3100 2881 3100 2216 
L 3100 0 
L 2519 0 
L 2519 2222 
Q 2519 2619 2345 2787 
Q 2172 2956 1844 2956 
z
" transform="scale(0.015625)"/>
       <path id="Roboto-Regular-67" d="M 3156 72 
Q 3156 -600 2756 -967 
Q 2356 -1334 1725 -1334 
Q 1463 -1334 1081 -1206 
Q 700 -1078 472 -747 
L 775 -403 
Q 988 -663 1219 -761 
Q 1450 -859 1681 -859 
Q 2091 -859 2334 -629 
Q 2578 -400 2578 44 
L 2578 341 
Q 2234 -63 1631 -63 
Q 1022 -63 662 425 
Q 303 913 303 1653 
L 303 1719 
Q 303 2494 661 2969 
Q 1019 3444 1638 3444 
Q 2259 3444 2603 3006 
L 2631 3381 
L 3156 3381 
L 3156 72 
z
M 881 1653 
Q 881 1150 1092 789 
Q 1303 428 1772 428 
Q 2081 428 2273 568 
Q 2466 709 2578 928 
L 2578 2469 
Q 2469 2678 2275 2817 
Q 2081 2956 1778 2956 
Q 1306 2956 1093 2589 
Q 881 2222 881 1719 
L 881 1653 
z
" transform="scale(0.015625)"/>
       <path id="Roboto-Regular-6f" d="M 288 1653 
L 288 1725 
Q 288 2459 700 2951 
Q 1113 3444 1822 3444 
Q 2538 3444 2952 2951 
Q 3366 2459 3366 1725 
L 3366 1653 
Q 3366 919 2952 428 
Q 2538 -63 1828 -63 
Q 1116 -63 702 428 
Q 288 919 288 1653 
z
M 866 1725 
L 866 1653 
Q 866 1150 1105 781 
Q 1344 413 1828 413 
Q 2303 413 2543 781 
Q 2784 1150 2784 1653 
L 2784 1725 
Q 2784 2222 2543 2595 
Q 2303 2969 1822 2969 
Q 1344 2969 1105 2595 
Q 866 2222 866 1725 
z
" transform="scale(0.015625)"/>
      </defs>
      <use xlink:href="#Roboto-Regular-54"/>
      <use xlink:href="#Roboto-Regular-72" x="59.667969"/>
      <use xlink:href="#Roboto-Regular-61" x="93.554688"/>
      <use xlink:href="#Roboto-Regular-69" x="147.949219"/>
      <use xlink:href="#Roboto-Regular-6e" x="172.265625"/>
      <use xlink:href="#Roboto-Regular-69" x="227.490234"/>
      <use xlink:href="#Roboto-Regular-6e" x="251.806641"/>
      <use xlink:href="#Roboto-Regular-67" x="307.03125"/>
      <use xlink:href="#Roboto-Regular-20" x="363.183594"/>
      <use xlink:href="#Roboto-Regular-65" x="387.988281"/>
      <use xlink:href="#Roboto-Regular-72" x="441.015625"/>
      <use xlink:href="#Roboto-Regular-72" x="474.902344"/>
      <use xlink:href="#Roboto-Regular-6f" x="508.789062"/>
      <use xlink:href="#Roboto-Regular-72" x="565.820312"/>
     </g>
    </g>
   </g>
   <g id="line2d_9">
    <path d="M 61.789886 94.858249 
L 61.87939 94.713594 
L 62.41641 87.111348 
L 62.774424 99.179784 
L 63.132437 95.813732 
L 63.22194 98.666199 
L 63.311444 96.066001 
L 63.490451 95.665258 
L 63.579954 102.617432 
L 63.937967 86.402124 
L 64.474988 97.616785 
L 64.743498 95.294444 
L 64.833001 97.396213 
L 64.922505 107.219368 
L 65.101511 97.624211 
L 65.728035 98.777613 
L 65.817538 97.927339 
L 65.907042 93.156481 
L 66.086049 102.269133 
L 66.175552 87.914036 
L 66.354559 103.065891 
L 66.623069 89.979504 
L 66.891579 97.169664 
L 66.981082 114.761888 
L 67.070586 97.764627 
L 67.160089 106.239518 
L 67.339096 96.734754 
L 67.428599 101.874352 
L 67.518103 101.868243 
L 67.607606 101.148514 
L 67.786613 100.765092 
L 67.876116 108.594772 
L 68.413136 94.474451 
L 68.592143 97.195897 
L 68.681647 102.487706 
L 68.860653 101.27589 
L 69.129163 97.96298 
L 69.487177 100.30763 
L 69.57668 90.949339 
L 70.382211 99.714399 
L 70.471714 106.314896 
L 70.740224 102.391271 
L 71.008734 107.637068 
L 71.098238 98.725579 
L 71.277245 106.260421 
L 71.903768 112.689847 
L 72.351285 99.222326 
L 72.709299 107.452664 
L 72.798802 105.627593 
L 72.977809 106.89802 
L 73.156815 102.445569 
L 73.246319 110.270639 
L 73.335822 100.158574 
L 73.693836 100.867272 
L 73.783339 102.734242 
L 74.409863 97.983007 
L 74.58887 101.589672 
L 74.678373 96.139655 
L 74.946883 102.73739 
L 75.573407 109.151295 
L 75.841917 99.992042 
L 76.19993 105.340524 
L 76.736951 99.806867 
L 76.915957 94.40581 
L 77.184468 97.666472 
L 77.273971 107.634983 
L 77.363474 96.539462 
L 77.452978 104.169378 
L 77.631984 99.897934 
L 77.721488 107.775762 
L 77.989998 99.030791 
L 78.079501 100.535975 
L 78.169005 105.525043 
L 78.527018 94.908292 
L 78.616522 97.18114 
L 78.706025 102.964267 
L 78.974535 101.771046 
L 79.332549 87.791497 
L 79.422052 112.082703 
L 79.601059 89.974765 
L 79.690562 99.805182 
L 79.780066 91.457036 
L 80.227582 102.65647 
L 80.406589 103.319373 
L 80.585596 111.143496 
L 80.854106 105.221229 
L 81.033113 115.776603 
L 81.21212 103.025639 
L 81.301623 101.596378 
L 81.391126 101.843908 
L 81.570133 102.137182 
L 81.659636 105.741055 
L 82.01765 93.071465 
L 82.55467 89.890661 
L 82.733677 96.886751 
L 82.82318 94.829114 
L 82.912684 98.20596 
L 83.091691 98.173631 
L 83.181194 97.411306 
L 83.360201 87.003244 
L 83.539207 108.874183 
L 83.628711 98.030836 
L 84.076228 98.851036 
L 84.165731 98.356119 
L 84.255234 102.312119 
L 84.613248 97.27697 
L 84.702751 100.527327 
L 84.792255 111.427467 
L 84.971261 101.206428 
L 85.687289 110.146859 
L 85.776792 99.625206 
L 86.045302 102.375466 
L 86.224309 91.59816 
L 86.403316 103.457589 
L 86.582322 103.805932 
L 86.761329 108.142185 
L 86.850832 106.862982 
L 87.029839 106.677393 
L 87.208846 109.812211 
L 87.298349 98.187039 
L 87.477356 105.838243 
L 87.924873 97.042372 
L 88.014376 110.907769 
L 88.10388 105.961635 
L 88.193383 90.850361 
L 88.90941 111.356492 
L 89.088417 112.853052 
L 89.17792 111.517217 
L 89.44643 109.724657 
L 89.804444 100.249146 
L 89.983451 99.018701 
L 90.072954 95.986818 
L 90.341464 91.684952 
L 90.520471 100.534156 
L 90.967988 96.153409 
L 91.146995 114.528692 
L 91.236498 108.255267 
L 91.684015 92.784995 
L 91.773518 108.452323 
L 91.952525 103.169307 
L 92.221035 118.505948 
L 92.310539 97.752181 
L 92.400042 104.833873 
L 92.489545 100.559583 
L 92.668552 101.447674 
L 92.847559 108.790173 
L 93.026566 102.733602 
L 93.116069 112.757843 
L 93.205572 106.534361 
L 93.563586 101.548298 
L 94.100606 110.751408 
L 94.190109 105.232775 
L 94.279613 107.821434 
L 94.369116 115.712486 
L 94.45862 114.178446 
L 94.99564 101.936616 
L 95.26415 106.979532 
L 95.353653 105.90816 
L 96.06968 116.76493 
L 96.427694 109.630059 
L 96.517197 102.23261 
L 96.606701 110.996769 
L 96.696204 109.001568 
L 96.785707 111.429912 
L 97.054218 98.465611 
L 97.233224 105.100525 
L 97.412231 101.36712 
L 97.501735 103.709792 
L 97.680741 105.237537 
L 98.038755 104.735318 
L 98.128258 105.092106 
L 98.396768 106.793525 
L 98.486272 95.514946 
L 98.665278 110.876023 
L 98.933789 105.490617 
L 99.202299 104.462452 
L 99.291802 113.360698 
L 99.560312 103.472075 
L 99.649816 110.213699 
L 100.007829 97.774531 
L 100.097332 109.865716 
L 100.455346 112.579534 
L 100.544849 103.25478 
L 100.723856 111.110105 
L 100.81336 102.726129 
L 100.902863 110.370868 
L 100.992366 145.852363 
L 101.171373 140.6236 
L 101.260876 143.943091 
L 101.35038 141.445663 
L 101.439883 142.251355 
L 101.797897 143.958843 
L 101.976903 147.871927 
L 102.066407 147.557256 
L 102.15591 150.515367 
L 102.334917 151.757929 
L 102.69293 148.878237 
L 102.782434 151.82755 
L 103.140447 156.386466 
L 103.229951 154.612656 
L 103.408958 154.023896 
L 103.587964 156.96482 
L 103.945978 157.937516 
L 104.303991 162.166047 
L 104.393495 159.195833 
L 104.572501 165.43747 
L 104.751508 159.944741 
L 104.841012 164.174446 
L 105.020018 164.226598 
L 105.109522 162.286897 
L 105.199025 166.75633 
L 105.288528 165.509844 
L 105.467535 165.350507 
L 105.736045 166.776963 
L 106.094059 170.619891 
L 106.362569 168.659955 
L 106.452072 167.171114 
L 106.541576 171.664462 
L 107.078596 165.50947 
L 107.257603 171.202627 
L 107.43661 174.555117 
L 107.526113 171.654887 
L 107.794623 172.98334 
L 107.884126 175.552779 
L 107.97363 172.573182 
L 108.063133 175.166624 
L 108.331643 170.745848 
L 108.958167 176.993196 
L 109.226677 173.860071 
L 109.316181 179.579734 
L 109.495187 178.285336 
L 109.584691 178.494575 
L 109.674194 172.908677 
L 109.853201 178.435407 
L 110.032208 175.124058 
L 110.211214 178.090719 
L 110.390221 178.077201 
L 110.479724 175.957072 
L 110.748235 183.408688 
L 110.927241 176.692355 
L 111.106248 178.05505 
L 111.195751 174.837465 
L 111.285255 177.462664 
L 111.822275 178.905868 
L 111.911778 166.132641 
L 112.001282 177.232729 
L 112.359295 181.610522 
L 112.806812 179.197269 
L 113.075322 182.721603 
L 113.433336 181.580796 
L 113.791349 181.570747 
L 113.970356 183.496711 
L 114.507376 178.504319 
L 114.686383 183.748724 
L 114.86539 182.573289 
L 114.954893 180.775131 
L 115.1339 182.480995 
L 115.312907 179.811909 
L 115.40241 181.130671 
L 115.491914 180.726579 
L 115.67092 183.637912 
L 116.118437 180.339611 
L 116.386947 182.865587 
L 116.476451 180.802821 
L 116.655458 179.810885 
L 116.834464 181.823136 
L 117.013471 180.858209 
L 117.192478 177.207972 
L 117.281981 182.878767 
L 117.550491 184.125902 
L 117.729498 181.999809 
L 117.819001 184.98327 
L 118.177015 183.863796 
L 118.535029 179.713195 
L 118.803539 178.0571 
L 118.893042 179.755205 
L 118.982545 171.9869 
L 119.161552 180.140059 
L 119.251056 180.98468 
L 119.609069 179.447724 
L 119.877579 184.512481 
L 119.967083 184.31809 
L 120.146089 182.417511 
L 120.414599 171.881699 
L 120.593606 183.516774 
L 121.22013 184.565804 
L 121.48864 185.474692 
L 121.936157 186.287871 
L 122.02566 91.276219 
L 122.115164 168.888442 
L 122.383674 172.898445 
L 122.562681 177.877507 
L 122.652184 174.481067 
L 122.741687 176.331718 
L 123.010197 176.101109 
L 123.905231 181.6817 
L 124.084238 157.188977 
L 124.442252 183.727648 
L 124.621258 183.746115 
L 124.979272 184.198607 
L 125.068775 185.063629 
L 125.247782 184.459899 
L 125.516292 184.653731 
L 125.695299 185.431882 
L 125.963809 184.548557 
L 126.053312 182.439584 
L 126.232319 185.066941 
L 126.411326 185.228841 
L 126.590333 186.22974 
L 126.679836 186.160295 
L 126.769339 186.791337 
L 126.948346 185.429626 
L 127.127353 186.298076 
L 127.57487 187.157912 
L 127.664373 186.152235 
L 128.11189 187.288294 
L 128.201393 187.996841 
L 128.827917 186.764063 
L 129.096427 187.342986 
L 129.185931 187.215688 
L 129.364937 187.76604 
L 129.812454 188.020525 
L 129.901958 188.215394 
L 129.991461 188.048957 
L 130.259971 188.29957 
L 130.349475 188.621635 
L 130.617985 189.160816 
L 130.886495 187.218267 
L 130.975998 188.613805 
L 131.244508 188.465932 
L 131.334012 188.835309 
L 131.423515 188.479563 
L 131.513018 167.869915 
L 132.050039 188.379763 
L 132.318549 188.227906 
L 132.497556 187.367311 
L 132.676562 187.89951 
L 133.124079 188.664082 
L 133.482093 188.603983 
L 133.571596 188.868421 
L 133.6611 188.278051 
L 133.750603 188.624793 
L 134.019113 187.980802 
L 134.73514 188.992076 
L 135.00365 188.631012 
L 135.182657 189.109687 
L 135.361664 188.307249 
L 135.630174 188.769996 
L 136.077691 188.208573 
L 136.256698 188.688198 
L 136.346201 188.561278 
L 136.435704 188.181068 
L 136.614711 188.376026 
L 136.704214 188.999727 
L 137.151731 188.422065 
L 137.599248 189.078039 
L 137.688752 161.626158 
L 137.957262 164.178675 
L 138.225772 162.603652 
L 138.494282 163.40072 
L 138.941799 158.584757 
L 139.031302 160.808874 
L 139.478819 189.094333 
L 140.373853 177.203394 
L 140.642363 177.587434 
L 140.731866 178.433502 
L 140.82137 177.925684 
L 141.000377 178.325328 
L 141.179383 179.058292 
L 141.35839 180.459045 
L 141.6269 180.428606 
L 141.89541 181.31293 
L 142.253424 178.6486 
L 142.432431 178.543655 
L 142.790444 180.175885 
L 142.969451 180.442492 
L 143.058954 181.347863 
L 143.327464 180.460868 
L 143.685478 132.835049 
L 143.774981 138.073813 
L 143.953988 139.115188 
L 144.132995 136.463798 
L 144.580512 139.966663 
L 144.670015 142.601379 
L 144.759519 138.185075 
L 144.849022 138.819895 
L 144.938525 142.631556 
L 145.028029 138.818383 
L 145.207035 138.716227 
L 145.565049 142.36349 
L 145.833559 140.221841 
L 146.102069 142.452333 
L 146.460083 142.024707 
L 146.728593 141.446323 
L 146.997103 141.853617 
L 147.086606 139.725952 
L 147.623627 144.114905 
L 147.892137 140.683601 
L 148.429157 146.54244 
L 148.876674 143.122839 
L 149.145184 144.798549 
L 149.324191 144.072571 
L 149.413694 144.979869 
L 149.771708 146.378043 
L 149.950714 144.928262 
L 150.129721 145.943042 
L 150.308728 147.646227 
L 150.487735 143.268323 
L 150.577238 146.556751 
L 150.666742 144.498928 
L 150.845748 145.348293 
L 150.935252 146.549825 
L 151.203762 143.932365 
L 151.382769 148.526837 
L 151.472272 145.93297 
L 151.561775 148.299798 
L 152.009292 145.458085 
L 152.188299 148.841631 
L 152.367306 147.888808 
L 152.546312 143.825914 
L 152.993829 148.084751 
L 153.351843 147.90278 
L 153.53085 149.860434 
L 153.620353 147.428696 
L 154.157373 147.84468 
L 154.246877 145.016588 
L 154.33638 145.460876 
L 154.425883 147.713936 
L 154.8734 145.279978 
L 155.052407 146.076268 
L 155.14191 145.877457 
L 155.678931 145.320514 
L 156.036944 148.008537 
L 156.305454 144.243497 
L 156.394958 146.98241 
L 156.573965 144.618596 
L 156.842475 145.887457 
L 157.021481 148.144973 
L 157.200488 146.97613 
L 157.289992 149.758783 
L 157.558502 146.963032 
L 157.648005 147.136138 
L 157.916515 145.220785 
L 158.006019 149.1389 
L 158.185025 149.045961 
L 158.364032 146.057601 
L 158.632542 145.754508 
L 158.722046 148.576628 
L 158.811549 145.969284 
L 159.169563 146.887288 
L 159.796086 145.84043 
L 159.975093 147.650767 
L 160.1541 147.998317 
L 160.243603 150.781345 
L 160.601617 145.508093 
L 160.95963 150.699901 
L 161.049133 150.213616 
L 161.22814 147.784159 
L 161.407147 150.286806 
L 161.675657 151.553273 
L 161.854664 150.894152 
L 161.944167 151.196624 
L 162.212677 149.52985 
L 162.302181 151.628363 
L 162.570691 149.676726 
L 162.749698 152.815212 
L 162.839201 151.569816 
L 163.018208 152.190282 
L 163.107711 153.133152 
L 163.197215 156.153492 
L 163.465725 153.3336 
L 163.734235 152.622803 
L 164.002745 152.685141 
L 164.092248 155.777768 
L 164.360758 153.261354 
L 164.539765 156.836513 
L 164.629269 152.243079 
L 164.718772 154.963878 
L 165.345296 156.11561 
L 165.524302 157.517306 
L 165.703309 157.085333 
L 165.882316 155.866888 
L 165.971819 156.967138 
L 166.50884 158.672913 
L 166.77735 157.627666 
L 166.866853 37.566428 
L 166.956356 142.958091 
L 167.31437 142.260596 
L 167.672383 145.977469 
L 167.940894 142.549106 
L 168.030397 143.752099 
L 168.298907 144.92477 
L 168.477914 142.518277 
L 168.656921 143.395665 
L 168.746424 142.784986 
L 169.014934 143.609663 
L 169.104438 144.484396 
L 169.372948 143.726621 
L 169.462451 144.841894 
L 169.551954 142.463311 
L 169.730961 145.052868 
L 170.088975 139.950278 
L 170.267981 146.735483 
L 170.536492 146.504021 
L 170.984009 144.129064 
L 171.163015 147.91018 
L 171.521029 142.199377 
L 171.789539 144.387346 
L 171.879042 147.019425 
L 172.326559 145.319799 
L 172.595069 144.025504 
L 172.684573 146.920802 
L 172.774076 140.021606 
L 172.863579 141.669996 
L 172.953083 147.078179 
L 173.042586 145.335141 
L 173.311096 146.472557 
L 173.4006 144.613756 
L 173.579606 146.517706 
L 173.758613 143.462146 
L 173.93762 146.484601 
L 174.027123 141.974632 
L 174.385137 144.485224 
L 174.653647 144.744407 
L 174.922157 146.110962 
L 175.280171 144.052837 
L 175.727688 145.991076 
L 175.817191 144.696464 
L 175.906694 140.920315 
L 176.533218 146.054768 
L 176.980735 141.329019 
L 177.249245 145.536187 
L 177.517755 144.474834 
L 177.696762 141.109204 
L 177.786265 145.810019 
L 178.054775 143.356166 
L 178.412789 144.82419 
L 178.770802 145.685959 
L 179.128816 145.380562 
L 179.218319 146.2776 
L 179.665836 144.807302 
L 179.844843 141.728828 
L 179.934346 147.536635 
L 180.113353 143.396704 
L 180.202857 146.67458 
L 180.381863 144.306131 
L 181.008387 141.492393 
L 181.813917 147.546622 
L 181.903421 144.882704 
L 182.082427 149.891386 
L 182.171931 140.021078 
L 182.440441 143.920703 
L 182.529944 147.660802 
L 182.708951 143.845088 
L 183.066965 143.397872 
L 183.245971 144.076251 
L 183.603985 144.529364 
L 183.693488 141.611786 
L 183.872495 144.700516 
L 183.961998 118.898696 
L 184.320012 106.407419 
L 184.588522 145.958224 
L 184.678025 117.094689 
L 185.036039 148.094861 
L 185.483556 146.178607 
L 185.573059 125.168147 
L 185.931073 148.508562 
L 186.199583 146.458029 
L 186.557596 150.015502 
L 186.826107 102.334262 
L 187.094617 141.839998 
L 188.258161 113.5394 
L 188.347664 151.125123 
L 188.705678 150.084253 
L 188.795181 148.64396 
L 189.690215 95.248976 
L 190.048228 148.735268 
L 190.227235 148.705768 
L 190.316738 150.556069 
L 190.406242 150.100203 
L 190.495745 151.993529 
L 190.764255 150.333936 
L 190.943262 151.38863 
L 191.032765 150.115413 
L 191.211772 151.364944 
L 191.390779 150.70086 
L 191.480282 152.977143 
L 191.659289 153.119884 
L 191.838296 149.083166 
L 191.927799 150.915214 
L 192.017303 150.64067 
L 192.106806 152.292578 
L 192.196309 149.881944 
L 192.285813 154.127105 
L 192.464819 154.54012 
L 193.091343 150.934405 
L 193.359853 152.001141 
L 193.449357 156.146387 
L 193.628363 155.148395 
L 194.07588 153.449296 
L 194.165384 150.367655 
L 194.254887 153.768732 
L 194.612901 153.682532 
L 194.791907 150.116854 
L 194.881411 151.649647 
L 195.149921 152.221879 
L 195.239424 155.097536 
L 195.597438 152.566504 
L 195.686941 153.202293 
L 195.776444 154.888447 
L 195.955451 151.1518 
L 196.581975 152.816719 
L 196.671478 156.852333 
L 196.760982 154.515638 
L 196.939988 152.846432 
L 197.118995 158.236996 
L 197.208499 151.154692 
L 197.835022 156.029369 
L 198.103532 157.143409 
L 198.282539 151.558701 
L 198.819559 156.918926 
L 199.088069 156.296464 
L 199.177573 151.87317 
L 199.446083 154.560673 
L 200.072607 154.947999 
L 200.341117 152.80104 
L 200.43062 153.400131 
L 200.520124 152.424252 
L 200.69913 158.008446 
L 200.878137 158.342203 
L 201.325654 156.416858 
L 201.504661 153.825818 
L 201.683667 161.694425 
L 201.862674 159.030873 
L 202.041681 159.007283 
L 202.131184 155.697089 
L 202.310191 159.370353 
L 202.578701 161.221512 
L 202.757708 158.952371 
L 203.026218 162.962123 
L 203.115722 160.106604 
L 203.384232 158.96455 
L 203.831749 163.468973 
L 204.279265 166.57374 
L 204.368769 165.542905 
L 204.458272 166.348259 
L 204.905789 168.452114 
L 204.995292 162.566058 
L 205.621816 73.498914 
L 205.711319 90.534972 
L 205.890326 97.393498 
L 206.158836 153.672166 
L 206.695857 152.572814 
L 206.874863 155.640594 
L 207.143374 104.642258 
L 207.501387 107.646901 
L 207.859401 119.836456 
L 207.948904 97.435623 
L 208.038407 144.82528 
L 208.306917 158.567493 
L 208.396421 151.40468 
L 208.843938 154.355015 
L 208.933441 152.903547 
L 209.112448 153.300948 
L 209.380958 155.208518 
L 209.470461 158.611113 
L 209.559965 153.311613 
L 209.738972 157.57001 
L 209.917978 157.608952 
L 210.275992 155.625608 
L 210.454999 158.581867 
L 210.634005 156.764909 
L 210.902515 137.399573 
L 210.992019 156.420729 
L 211.350032 158.129654 
L 211.797549 154.62901 
L 211.887053 156.746824 
L 212.066059 103.712209 
L 212.424073 157.311654 
L 212.513576 157.14039 
L 212.60308 158.011216 
L 213.050597 130.014579 
L 213.1401 156.668662 
L 213.229603 156.28772 
L 213.40861 160.004549 
L 213.67712 153.24775 
L 213.856127 112.278061 
L 214.035134 153.567946 
L 214.303644 158.606434 
L 214.482651 156.088665 
L 214.572154 151.570052 
L 214.661657 156.114345 
L 214.751161 134.095489 
L 215.288181 158.788912 
L 215.377684 154.394364 
L 215.646195 162.658943 
L 215.735698 158.105524 
L 215.825201 158.595406 
L 215.914705 157.27277 
L 216.362222 158.539677 
L 217.078249 126.074289 
L 217.167752 155.007812 
L 217.525765 93.050788 
L 217.704772 158.711913 
L 217.973282 160.981691 
L 218.062786 155.178322 
L 218.152289 158.207619 
L 218.241793 153.270264 
L 218.420799 157.879838 
L 218.510303 117.521494 
L 218.778813 158.107682 
L 219.22633 137.161985 
L 219.315833 156.342794 
L 219.584343 159.471407 
L 219.76335 156.144365 
L 220.389874 155.842028 
L 220.56888 160.53303 
L 220.837391 155.084831 
L 221.284907 158.891902 
L 221.374411 158.61309 
L 221.642921 160.173667 
L 221.732424 158.369304 
L 221.911431 159.723228 
L 222.090438 156.163347 
L 222.269445 159.655791 
L 222.358948 156.292073 
L 222.627458 154.27414 
L 222.806465 154.911915 
L 222.895968 156.376479 
L 222.985472 133.254649 
L 223.522492 157.629464 
L 223.880505 150.088429 
L 224.059512 116.51874 
L 224.238519 146.586519 
L 224.328022 138.49928 
L 224.686036 142.847554 
L 225.044049 161.09805 
L 225.491566 141.929162 
L 225.670573 163.728076 
L 225.84958 104.12194 
L 226.028586 166.695443 
L 226.565607 171.255017 
L 226.65511 161.597492 
L 226.744614 166.342728 
L 226.834117 165.952241 
L 226.92362 163.273072 
L 227.371137 170.556614 
L 227.997661 168.661004 
L 228.355674 151.38726 
L 228.624184 157.566976 
L 228.982198 159.114519 
L 229.071701 160.926401 
L 229.250708 156.949785 
L 229.340211 163.034488 
L 229.519218 160.923193 
L 229.787728 162.384651 
L 230.056239 166.488742 
L 230.145742 160.46056 
L 230.503755 164.893769 
L 230.682762 166.103824 
L 231.130279 164.053892 
L 231.488293 167.329851 
L 231.756803 166.890791 
L 232.114816 167.832511 
L 232.293823 167.209769 
L 232.383326 170.318345 
L 232.47283 169.673266 
L 232.74134 170.696095 
L 233.00985 167.797041 
L 233.188857 174.343277 
L 233.725877 34.028409 
L 233.904884 70.769692 
L 234.441904 78.977512 
L 234.710414 74.804848 
L 234.799918 78.294172 
L 235.068428 77.795024 
L 235.157931 75.029111 
L 235.336938 78.868188 
L 235.605448 72.540294 
L 235.784455 71.939064 
L 236.052965 81.826168 
L 236.142468 74.716529 
L 236.321475 79.86224 
L 236.589985 76.929959 
L 236.947999 78.367065 
L 237.037502 85.530523 
L 237.127005 83.33738 
L 237.306012 76.206271 
L 237.485019 87.842266 
L 237.574522 78.25842 
L 237.664026 81.594645 
L 237.753529 79.293895 
L 238.290549 77.323145 
L 238.55906 81.554628 
L 238.648563 78.262365 
L 238.82757 85.729074 
L 239.185583 79.434356 
L 239.36459 78.955129 
L 239.454093 83.467193 
L 239.543597 82.343558 
L 239.722603 86.721884 
L 239.812107 82.292952 
L 239.90161 83.671424 
L 240.080617 79.102487 
L 240.707141 81.738294 
L 241.960188 81.795176 
L 242.049691 80.572355 
L 242.407705 83.021295 
L 242.497208 87.079021 
L 242.765718 77.259933 
L 242.855222 82.235981 
L 243.302739 86.506911 
L 243.392242 79.901217 
L 243.660752 85.5078 
L 243.750255 78.166818 
L 244.376779 85.844746 
L 244.466283 83.733686 
L 244.734793 80.785897 
L 244.913799 88.082206 
L 245.361316 76.973285 
L 245.45082 85.128167 
L 245.540323 83.540575 
L 245.629826 81.57778 
L 246.52486 85.45749 
L 246.614364 87.660485 
L 246.79337 86.728133 
L 247.151384 92.991436 
L 247.509397 80.179958 
L 247.598901 87.173105 
L 248.046418 85.313201 
L 248.225424 86.013918 
L 248.314928 87.459631 
L 248.493935 92.953717 
L 248.583438 91.60729 
L 248.672941 79.368684 
L 249.209962 93.927213 
L 249.299465 98.234974 
L 249.567975 77.452177 
L 250.015492 88.008255 
L 250.104995 85.688698 
L 250.284002 93.383987 
L 250.373506 92.970812 
L 250.821022 98.895797 
L 251.179036 90.455706 
L 251.268539 103.95303 
L 251.447546 94.031023 
L 251.626553 115.450069 
L 251.80556 118.198603 
L 251.895063 112.084766 
L 252.253076 139.787257 
L 252.521587 121.1042 
L 252.61109 137.291473 
L 252.700593 124.028149 
L 252.969103 140.915034 
L 253.237614 104.089427 
L 253.237614 104.089427 
" clip-path="url(#p86edf00c3d)" style="fill: none; stroke: #a50026; stroke-linecap: square"/>
   </g>
   <g id="patch_3">
    <path d="M 52.2175 206.825 
L 52.2175 25.8 
" style="fill: none; stroke: #000000; stroke-linejoin: miter; stroke-linecap: square"/>
   </g>
   <g id="patch_4">
    <path d="M 262.81 206.825 
L 262.81 25.8 
" style="fill: none; stroke: #000000; stroke-linejoin: miter; stroke-linecap: square"/>
   </g>
   <g id="patch_5">
    <path d="M 52.2175 206.825 
L 262.81 206.825 
" style="fill: none; stroke: #000000; stroke-linejoin: miter; stroke-linecap: square"/>
   </g>
   <g id="patch_6">
    <path d="M 52.2175 25.8 
L 262.81 25.8 
" style="fill: none; stroke: #000000; stroke-linejoin: miter; stroke-linecap: square"/>
   </g>
   <g id="text_11">
    <!-- Cosine scheduler -->
    <g transform="translate(111.558438 19.8)scale(0.12 -0.12)">
     <defs>
      <path id="Roboto-Regular-43" d="M 3275 1447 
L 3875 1447 
Q 3806 800 3387 368 
Q 2969 -63 2150 -63 
Q 1350 -63 862 514 
Q 375 1091 375 2047 
L 375 2500 
Q 375 3456 867 4034 
Q 1359 4613 2203 4613 
Q 2975 4613 3390 4188 
Q 3806 3763 3875 3091 
L 3275 3091 
Q 3206 3566 2968 3842 
Q 2731 4119 2203 4119 
Q 1600 4119 1287 3675 
Q 975 3231 975 2506 
L 975 2047 
Q 975 1375 1259 901 
Q 1544 428 2150 428 
Q 2725 428 2961 697 
Q 3197 966 3275 1447 
z
" transform="scale(0.015625)"/>
      <path id="Roboto-Regular-63" d="M 1794 413 
Q 2103 413 2336 597 
Q 2569 781 2591 1069 
L 3141 1069 
Q 3119 616 2725 276 
Q 2331 -63 1794 -63 
Q 1031 -63 661 440 
Q 291 944 291 1625 
L 291 1756 
Q 291 2438 661 2941 
Q 1031 3444 1794 3444 
Q 2388 3444 2753 3092 
Q 3119 2741 3141 2219 
L 2591 2219 
Q 2569 2531 2355 2750 
Q 2141 2969 1794 2969 
Q 1438 2969 1236 2787 
Q 1034 2606 951 2328 
Q 869 2050 869 1756 
L 869 1625 
Q 869 1328 950 1050 
Q 1031 772 1232 592 
Q 1434 413 1794 413 
z
" transform="scale(0.015625)"/>
      <path id="Roboto-Regular-68" d="M 1844 2956 
Q 1566 2956 1353 2806 
Q 1141 2656 1019 2416 
L 1019 0 
L 441 0 
L 441 4800 
L 1019 4800 
L 1019 2978 
Q 1403 3444 2016 3444 
Q 2516 3444 2808 3162 
Q 3100 2881 3100 2216 
L 3100 0 
L 2519 0 
L 2519 2222 
Q 2519 2619 2345 2787 
Q 2172 2956 1844 2956 
z
" transform="scale(0.015625)"/>
      <path id="Roboto-Regular-64" d="M 2622 0 
L 2594 363 
Q 2247 -63 1628 -63 
Q 1031 -63 664 425 
Q 297 913 297 1653 
L 297 1719 
Q 297 2494 664 2969 
Q 1031 3444 1634 3444 
Q 2231 3444 2572 3044 
L 2572 4800 
L 3153 4800 
L 3153 0 
L 2622 0 
z
M 878 1653 
Q 878 1150 1090 789 
Q 1303 428 1772 428 
Q 2075 428 2265 565 
Q 2456 703 2572 919 
L 2572 2475 
Q 2459 2684 2267 2820 
Q 2075 2956 1778 2956 
Q 1306 2956 1092 2589 
Q 878 2222 878 1719 
L 878 1653 
z
" transform="scale(0.015625)"/>
      <path id="Roboto-Regular-75" d="M 2538 0 
L 2525 334 
Q 2369 147 2125 42 
Q 1881 -63 1538 -63 
Q 1041 -63 734 231 
Q 428 525 428 1200 
L 428 3381 
L 1006 3381 
L 1006 1194 
Q 1006 738 1198 583 
Q 1391 428 1628 428 
Q 1981 428 2193 562 
Q 2406 697 2509 919 
L 2509 3381 
L 3091 3381 
L 3091 0 
L 2538 0 
z
" transform="scale(0.015625)"/>
      <path id="Roboto-Regular-6c" d="M 1069 4800 
L 1069 0 
L 488 0 
L 488 4800 
L 1069 4800 
z
" transform="scale(0.015625)"/>
     </defs>
     <use xlink:href="#Roboto-Regular-43"/>
     <use xlink:href="#Roboto-Regular-6f" x="65.087891"/>
     <use xlink:href="#Roboto-Regular-73" x="122.119141"/>
     <use xlink:href="#Roboto-Regular-69" x="173.730469"/>
     <use xlink:href="#Roboto-Regular-6e" x="198.046875"/>
     <use xlink:href="#Roboto-Regular-65" x="253.271484"/>
     <use xlink:href="#Roboto-Regular-20" x="306.298828"/>
     <use xlink:href="#Roboto-Regular-73" x="331.103516"/>
     <use xlink:href="#Roboto-Regular-63" x="382.714844"/>
     <use xlink:href="#Roboto-Regular-68" x="435.058594"/>
     <use xlink:href="#Roboto-Regular-65" x="490.136719"/>
     <use xlink:href="#Roboto-Regular-64" x="543.164062"/>
     <use xlink:href="#Roboto-Regular-75" x="599.560547"/>
     <use xlink:href="#Roboto-Regular-6c" x="654.6875"/>
     <use xlink:href="#Roboto-Regular-65" x="679.003906"/>
     <use xlink:href="#Roboto-Regular-72" x="732.03125"/>
    </g>
   </g>
  </g>
  <g id="axes_2">
   <g id="patch_7">
    <path d="M 308.39 206.825 
L 518.9825 206.825 
L 518.9825 25.8 
L 308.39 25.8 
L 308.39 206.825 
z
" style="fill: none"/>
   </g>
   <g id="matplotlib.axis_3">
    <g id="xtick_6">
     <g id="line2d_10">
      <g>
       <use xlink:href="#m9f4a1bf06d" x="317.608315" y="206.825" style="stroke: #000000"/>
      </g>
     </g>
     <g id="text_12">
      <!-- 0 -->
      <g transform="translate(314.28019 223.325)scale(0.12 -0.12)">
       <use xlink:href="#Roboto-Light-30"/>
      </g>
     </g>
    </g>
    <g id="xtick_7">
     <g id="line2d_11">
      <g>
       <use xlink:href="#m9f4a1bf06d" x="362.089664" y="206.825" style="stroke: #000000"/>
      </g>
     </g>
     <g id="text_13">
      <!-- 25 -->
      <g transform="translate(355.433414 223.325)scale(0.12 -0.12)">
       <use xlink:href="#Roboto-Light-32"/>
       <use xlink:href="#Roboto-Light-35" x="55.46875"/>
      </g>
     </g>
    </g>
    <g id="xtick_8">
     <g id="line2d_12">
      <g>
       <use xlink:href="#m9f4a1bf06d" x="406.571013" y="206.825" style="stroke: #000000"/>
      </g>
     </g>
     <g id="text_14">
      <!-- 50 -->
      <g transform="translate(399.914763 223.325)scale(0.12 -0.12)">
       <use xlink:href="#Roboto-Light-35"/>
       <use xlink:href="#Roboto-Light-30" x="55.46875"/>
      </g>
     </g>
    </g>
    <g id="xtick_9">
     <g id="line2d_13">
      <g>
       <use xlink:href="#m9f4a1bf06d" x="451.052363" y="206.825" style="stroke: #000000"/>
      </g>
     </g>
     <g id="text_15">
      <!-- 75 -->
      <g transform="translate(444.396113 223.325)scale(0.12 -0.12)">
       <use xlink:href="#Roboto-Light-37"/>
       <use xlink:href="#Roboto-Light-35" x="55.46875"/>
      </g>
     </g>
    </g>
    <g id="xtick_10">
     <g id="line2d_14">
      <g>
       <use xlink:href="#m9f4a1bf06d" x="495.533712" y="206.825" style="stroke: #000000"/>
      </g>
     </g>
     <g id="text_16">
      <!-- 100 -->
      <g transform="translate(485.549337 223.325)scale(0.12 -0.12)">
       <use xlink:href="#Roboto-Light-31"/>
       <use xlink:href="#Roboto-Light-30" x="55.46875"/>
       <use xlink:href="#Roboto-Light-30" x="110.9375"/>
      </g>
     </g>
    </g>
    <g id="text_17">
     <!-- Steps / 1000 -->
     <g transform="translate(379.570625 238.7625)scale(0.12 -0.12)">
      <use xlink:href="#Roboto-Regular-53"/>
      <use xlink:href="#Roboto-Regular-74" x="59.375"/>
      <use xlink:href="#Roboto-Regular-65" x="92.089844"/>
      <use xlink:href="#Roboto-Regular-70" x="145.117188"/>
      <use xlink:href="#Roboto-Regular-73" x="201.269531"/>
      <use xlink:href="#Roboto-Regular-20" x="252.880859"/>
      <use xlink:href="#Roboto-Regular-2f" x="277.685547"/>
      <use xlink:href="#Roboto-Regular-20" x="318.945312"/>
      <use xlink:href="#Roboto-Regular-31" x="343.75"/>
      <use xlink:href="#Roboto-Regular-30" x="399.951172"/>
      <use xlink:href="#Roboto-Regular-30" x="456.152344"/>
      <use xlink:href="#Roboto-Regular-30" x="512.353516"/>
     </g>
    </g>
   </g>
   <g id="matplotlib.axis_4">
    <g id="ytick_4">
     <g id="line2d_15">
      <g>
       <use xlink:href="#m453e47635a" x="308.39" y="169.370166" style="stroke: #000000"/>
      </g>
     </g>
    </g>
    <g id="ytick_5">
     <g id="line2d_16">
      <g>
       <use xlink:href="#m453e47635a" x="308.39" y="115.326097" style="stroke: #000000"/>
      </g>
     </g>
    </g>
    <g id="ytick_6">
     <g id="line2d_17">
      <g>
       <use xlink:href="#m453e47635a" x="308.39" y="61.282027" style="stroke: #000000"/>
      </g>
     </g>
    </g>
   </g>
   <g id="line2d_18">
    <path d="M 317.962386 143.388275 
L 318.051349 138.20108 
L 318.585125 141.089659 
L 318.940976 147.874579 
L 319.029939 145.950555 
L 319.296827 148.092196 
L 319.38579 151.479772 
L 319.474752 148.491851 
L 319.652678 148.406247 
L 319.74164 150.396017 
L 320.008528 151.681876 
L 320.097491 156.119244 
L 320.631267 156.413217 
L 320.898155 154.561196 
L 321.076081 161.619792 
L 321.254006 159.413949 
L 321.876745 166.38858 
L 321.965708 165.666031 
L 322.05467 163.596133 
L 322.232596 165.374786 
L 322.321559 167.613706 
L 322.499484 164.363601 
L 323.03326 168.268724 
L 323.122223 171.367963 
L 323.300148 168.180871 
L 323.478074 170.954206 
L 323.567036 170.383148 
L 323.655999 172.02446 
L 323.744962 169.888311 
L 323.922887 173.220358 
L 324.01185 164.607319 
L 324.99044 174.474705 
L 325.257328 171.679521 
L 325.613178 173.282947 
L 325.702141 170.277006 
L 326.502805 172.787922 
L 326.591768 176.316766 
L 326.858656 174.74638 
L 327.125544 173.930712 
L 327.214507 176.01903 
L 327.392432 176.89958 
L 328.015171 171.728305 
L 328.459985 173.69351 
L 328.815836 176.892224 
L 328.904798 174.418208 
L 329.082724 174.856956 
L 329.260649 176.856395 
L 329.438574 174.184892 
L 329.794425 175.804779 
L 329.883388 174.59303 
L 330.506127 176.828366 
L 330.684052 174.764904 
L 330.773015 178.713863 
L 331.039903 174.905466 
L 331.662642 174.182462 
L 331.840567 180.357394 
L 331.92953 180.209616 
L 332.107455 178.651233 
L 332.285381 179.307332 
L 332.819157 180.293078 
L 332.90812 177.513326 
L 332.997082 182.083736 
L 333.263971 181.95744 
L 333.352933 180.179375 
L 333.441896 184.125689 
L 333.530859 181.492386 
L 333.797747 182.599026 
L 334.064635 182.359442 
L 334.153597 184.918415 
L 334.24256 182.895959 
L 334.598411 46.131762 
L 334.776336 91.422246 
L 335.043224 93.213329 
L 335.399075 86.575713 
L 335.488038 99.952707 
L 335.665963 89.662588 
L 335.754926 90.709518 
L 335.843889 86.657789 
L 335.932851 94.009903 
L 336.110777 90.477044 
L 336.288702 97.441282 
L 336.466628 88.970938 
L 336.644553 100.984907 
L 336.822478 101.767193 
L 336.911441 90.398875 
L 337.178329 98.41866 
L 337.267292 98.043138 
L 337.356255 94.795426 
L 337.445217 97.061255 
L 337.623143 106.979808 
L 337.712105 93.289324 
L 338.067956 91.356845 
L 338.601732 148.707158 
L 338.957583 156.643961 
L 339.135509 156.123935 
L 339.224471 154.904273 
L 339.402397 155.24901 
L 339.491359 157.440411 
L 339.669285 152.23956 
L 340.114098 154.285862 
L 340.203061 158.558177 
L 340.292024 157.073882 
L 340.647874 156.898448 
L 340.8258 159.472818 
L 341.003725 158.655208 
L 341.715427 166.447949 
L 342.071278 164.810314 
L 342.249203 164.898664 
L 342.427128 167.803162 
L 342.605054 168.179609 
L 342.871942 167.368772 
L 343.049867 167.769511 
L 343.227793 170.948816 
L 343.316755 165.341126 
L 343.494681 167.830528 
L 343.939494 171.752888 
L 344.028457 170.353378 
L 344.11742 174.618445 
L 344.206382 168.230841 
L 344.918084 173.547243 
L 345.096009 170.291328 
L 345.184972 171.447591 
L 345.45186 171.290145 
L 345.540823 174.041323 
L 345.807711 172.485641 
L 345.985636 168.602143 
L 346.074599 172.588408 
L 346.519413 175.390443 
L 346.964226 171.547264 
L 347.142151 174.346768 
L 347.231114 174.173723 
L 347.675928 171.643371 
L 347.76489 173.85159 
L 347.942816 175.294024 
L 348.209704 174.411041 
L 348.298667 172.061899 
L 348.476592 177.424572 
L 348.832443 172.419606 
L 349.010368 175.186821 
L 349.099331 174.512438 
L 349.188294 174.899196 
L 349.544144 174.04266 
L 349.899995 175.990806 
L 349.988958 174.713307 
L 350.077921 175.274247 
L 350.166883 176.943024 
L 350.255846 173.415149 
L 350.344809 175.968457 
L 350.433771 174.108451 
L 350.967548 174.204022 
L 351.234436 173.011103 
L 351.323398 179.029898 
L 352.0351 172.656348 
L 352.390951 174.042032 
L 352.479913 179.042571 
L 352.568876 174.461125 
L 352.746801 178.202007 
L 353.01369 176.581513 
L 353.191615 176.368052 
L 353.36954 179.105424 
L 353.458503 177.990002 
L 353.636428 177.965696 
L 353.992279 179.790933 
L 354.081242 180.84475 
L 354.34813 181.547848 
L 354.437093 180.842048 
L 354.526055 182.920988 
L 354.615018 179.463487 
L 354.881906 183.254898 
L 355.148794 182.849298 
L 355.237757 183.057935 
L 355.504645 184.403986 
L 355.593608 181.856822 
L 355.949459 183.524228 
L 356.038421 183.086128 
L 356.394272 183.946236 
L 356.483235 185.218075 
L 356.572198 184.731126 
L 356.66116 183.500754 
L 356.750123 183.922378 
L 356.839086 185.20585 
L 356.928048 184.839962 
L 357.105974 185.168866 
L 357.194936 185.887602 
L 357.283899 184.772374 
L 357.372862 185.502246 
L 357.728713 185.419928 
L 357.995601 186.656232 
L 358.084563 186.135442 
L 358.262489 185.961737 
L 358.440414 187.312767 
L 358.61834 187.120678 
L 358.707302 186.832566 
L 358.97419 187.336353 
L 359.152116 186.751843 
L 359.330041 173.112534 
L 359.507967 176.718101 
L 359.863817 171.747758 
L 359.95278 172.264264 
L 360.575519 173.52657 
L 360.664482 173.176698 
L 360.753444 173.728497 
L 361.020332 173.352055 
L 361.198258 174.008632 
L 361.643071 174.582445 
L 361.998922 174.202382 
L 362.26581 174.349324 
L 362.354773 174.860237 
L 362.443736 174.840185 
L 362.710624 174.608426 
L 362.977512 175.206689 
L 363.2444 174.570379 
L 363.422325 175.479883 
L 363.689213 175.36622 
L 363.867139 175.547093 
L 363.956102 175.084121 
L 364.22299 175.566066 
L 364.845728 175.556146 
L 365.201579 175.890987 
L 365.55743 175.818796 
L 365.735355 176.167206 
L 366.002244 175.738789 
L 366.269132 176.360113 
L 366.358094 176.165498 
L 366.802908 176.014824 
L 367.069796 175.756217 
L 367.158759 176.120361 
L 367.692535 176.559015 
L 368.226311 176.182407 
L 368.493199 176.560286 
L 368.938013 176.39142 
L 369.649714 176.547716 
L 369.82764 176.292363 
L 370.005565 176.747026 
L 370.18349 176.286889 
L 370.361416 176.467326 
L 370.539341 176.431596 
L 370.717267 176.984661 
L 370.806229 176.234759 
L 370.895192 176.525473 
L 371.16208 176.031645 
L 371.251043 176.663806 
L 371.340005 176.317967 
L 371.517931 177.034719 
L 371.784819 176.303031 
L 372.229632 176.966497 
L 372.318595 176.351184 
L 372.496521 176.710129 
L 372.674446 176.627317 
L 372.852371 177.137934 
L 373.030297 177.070533 
L 373.119259 176.781145 
L 373.386148 176.848034 
L 373.564073 177.195236 
L 373.653036 177.072071 
L 374.008886 177.236639 
L 374.364737 176.294824 
L 374.631625 175.930587 
L 374.898513 176.661189 
L 374.987476 176.392985 
L 375.076439 176.490926 
L 375.43229 176.641979 
L 375.610215 176.498892 
L 375.699178 177.30633 
L 375.78814 176.84466 
L 375.966066 177.417507 
L 376.232954 177.365346 
L 376.410879 177.595919 
L 377.300506 178.188096 
L 377.74532 178.228245 
L 377.923245 178.857333 
L 378.368059 179.141367 
L 378.457021 178.594767 
L 378.545984 179.442006 
L 378.812872 179.723961 
L 379.257686 179.88543 
L 379.613536 180.584108 
L 379.702499 180.451185 
L 379.880425 180.75856 
L 380.147313 181.441467 
L 380.236275 181.28567 
L 380.859014 181.817076 
L 381.03694 182.053563 
L 381.481753 185.766881 
L 381.659679 185.790352 
L 381.748641 185.591695 
L 381.837604 186.321412 
L 382.015529 185.708131 
L 382.193455 186.351007 
L 382.282417 162.374759 
L 382.37138 186.638609 
L 382.460343 186.516029 
L 382.549306 186.517953 
L 382.816194 170.129315 
L 382.905156 186.087344 
L 383.34997 186.24136 
L 383.438932 169.592521 
L 383.794783 186.850722 
L 383.972709 186.212583 
L 384.862336 187.440424 
L 384.951298 172.264016 
L 385.129224 186.418109 
L 385.574037 186.337073 
L 385.663 187.271488 
L 385.751963 187.155138 
L 386.018851 185.890754 
L 386.107813 187.182516 
L 386.374702 186.065498 
L 386.64159 187.512232 
L 386.730552 159.496515 
L 386.908478 187.238067 
L 386.99744 186.227574 
L 387.086403 186.169451 
L 387.175366 185.893851 
L 387.264329 187.328165 
L 387.798105 172.122126 
L 388.064993 187.000111 
L 388.242918 186.251269 
L 388.420844 186.446358 
L 388.776694 170.05638 
L 388.865657 187.641011 
L 389.310471 187.949959 
L 389.399433 186.593969 
L 389.488396 187.29395 
L 389.755284 187.510183 
L 390.466986 186.185813 
L 390.555948 186.453281 
L 390.733874 186.049414 
L 391.089725 187.165149 
L 391.178687 186.845747 
L 391.356613 186.999214 
L 391.712463 186.222315 
L 391.801426 186.332033 
L 392.068314 186.351231 
L 392.157277 186.866833 
L 392.335202 186.230661 
L 392.424165 186.74675 
L 392.691053 185.986966 
L 392.868979 187.498934 
L 393.313792 186.676636 
L 393.402755 187.642814 
L 393.669643 186.370578 
L 393.936531 186.364355 
L 394.381344 187.884361 
L 394.648233 187.05176 
L 394.737195 187.856649 
L 395.093046 187.097498 
L 395.182009 187.328973 
L 396.071636 186.854074 
L 396.249561 186.628426 
L 396.338524 186.953724 
L 396.427486 187.912362 
L 396.516449 186.796074 
L 396.8723 187.549387 
L 397.317113 187.033549 
L 397.584002 187.441311 
L 397.85089 188.263638 
L 397.939852 187.402572 
L 398.117778 187.411571 
L 398.295703 187.791631 
L 398.384666 186.59557 
L 398.473629 186.631051 
L 398.651554 186.953558 
L 398.740517 187.972076 
L 399.007405 187.425973 
L 399.452218 187.829713 
L 399.808069 187.578306 
L 400.16392 187.92025 
L 400.252883 187.168999 
L 400.341845 188.114126 
L 400.430808 186.697875 
L 400.608733 188.175805 
L 400.697696 187.717622 
L 400.875621 174.90665 
L 401.231472 188.00213 
L 401.409398 189.127438 
L 401.49836 187.799334 
L 401.765248 173.094326 
L 402.121099 186.699493 
L 402.387987 186.275135 
L 402.743838 187.610754 
L 403.366577 186.243035 
L 403.544502 186.544197 
L 403.81139 187.686175 
L 404.078279 188.088907 
L 404.523092 186.331943 
L 404.701017 187.429706 
L 404.78998 186.746556 
L 404.967906 186.864871 
L 405.056868 186.716517 
L 405.412719 188.230621 
L 405.590644 187.994687 
L 405.76857 188.128906 
L 405.946495 187.970349 
L 406.213383 189.215913 
L 406.302346 188.309304 
L 406.480271 176.411157 
L 406.569234 188.403013 
L 406.836122 189.412428 
L 407.10301 187.722015 
L 407.191973 187.547624 
L 407.636786 189.174758 
L 407.814712 188.289229 
L 407.992637 188.142417 
L 408.0816 189.064561 
L 408.170563 188.463709 
L 408.615376 187.594894 
L 408.971227 187.951859 
L 409.149152 187.901287 
L 409.238115 188.424691 
L 409.771891 188.689865 
L 409.860854 187.958534 
L 409.949817 188.31852 
L 410.038779 187.952678 
L 410.127742 188.196183 
L 410.483593 188.174752 
L 410.661518 187.522045 
L 410.750481 187.85802 
L 411.284257 188.979886 
L 411.37322 188.265037 
L 411.640108 187.324392 
L 411.818033 187.350643 
L 411.906996 187.197366 
L 411.995959 188.368012 
L 412.173884 188.330964 
L 412.529735 188.092339 
L 412.618698 188.091713 
L 412.796623 188.445981 
L 412.885586 188.312911 
L 412.974548 187.822408 
L 413.063511 187.915818 
L 413.152474 188.738576 
L 413.241437 187.922805 
L 413.508325 187.760211 
L 413.864175 188.537808 
L 413.953138 187.614511 
L 414.220026 188.000189 
L 414.308989 187.766521 
L 414.397952 188.846599 
L 415.376541 187.229597 
L 415.554467 187.888072 
L 415.732392 189.512205 
L 415.910317 187.997963 
L 416.177206 188.315896 
L 416.266168 188.220799 
L 416.355131 188.871725 
L 416.622019 188.426247 
L 416.799944 189.480632 
L 417.244758 189.613537 
L 417.422683 190.111553 
L 417.511646 183.307701 
L 417.867497 188.72017 
L 418.045422 189.422503 
L 418.134385 188.532261 
L 418.223348 189.848816 
L 418.401273 188.873678 
L 418.579198 189.051616 
L 418.668161 189.338449 
L 419.024012 188.662924 
L 419.2909 187.821716 
L 419.557788 189.638528 
L 419.646751 189.502588 
L 419.824676 188.839658 
L 419.913639 190.760108 
L 420.002602 189.31505 
L 420.091564 190.484468 
L 420.180527 189.774291 
L 420.26949 190.037683 
L 420.892229 190.936351 
L 421.070154 184.096123 
L 421.514967 187.039542 
L 422.048744 187.252624 
L 422.137706 188.296344 
L 422.315632 188.373402 
L 422.404594 188.905851 
L 422.493557 187.794076 
L 423.027333 190.26183 
L 423.383184 188.802596 
L 423.472147 188.919505 
L 423.56111 189.558692 
L 423.827998 188.143056 
L 424.005923 189.852361 
L 424.183848 188.930459 
L 424.272811 189.00106 
L 424.628662 190.66432 
L 424.89555 190.772461 
L 424.984513 190.477557 
L 425.073475 190.947107 
L 425.251401 164.486999 
L 425.607252 190.076354 
L 425.696214 188.884966 
L 425.785177 190.327297 
L 426.052065 189.703046 
L 426.674804 189.052102 
L 426.941692 190.885381 
L 427.030655 189.807213 
L 427.297543 190.8099 
L 427.386506 189.210915 
L 427.831319 189.307744 
L 428.18717 188.56301 
L 428.365095 189.136592 
L 428.454058 189.198821 
L 428.543021 190.375081 
L 428.809909 189.244066 
L 429.076797 190.212975 
L 429.254722 188.457232 
L 429.432648 189.628168 
L 429.52161 189.144068 
L 429.877461 190.711885 
L 430.144349 189.51649 
L 430.411237 189.432556 
L 430.767088 190.216544 
L 431.211902 188.982753 
L 431.300864 188.336915 
L 431.389827 189.85821 
L 431.745678 189.888039 
L 432.012566 190.809317 
L 432.457379 189.700314 
L 432.724267 190.009317 
L 432.991156 189.290742 
L 433.169081 190.815106 
L 433.258044 190.340591 
L 433.524932 190.283116 
L 433.880783 189.813739 
L 434.236633 190.615768 
L 434.681447 189.849846 
L 435.12626 189.732905 
L 435.304186 190.123497 
L 435.393148 190.977312 
L 435.571074 190.45747 
L 435.660037 191.003096 
L 435.837962 190.638823 
L 436.460701 190.720592 
L 437.350328 190.28663 
L 437.528253 190.992835 
L 437.617216 189.637941 
L 437.884104 190.789715 
L 437.973067 190.465453 
L 438.150992 190.605623 
L 438.506843 191.299832 
L 438.684768 190.758193 
L 439.129582 190.413708 
L 439.218544 191.185029 
L 439.307507 190.562769 
L 439.39647 191.939814 
L 439.752321 191.251287 
L 439.841283 192.304182 
L 440.019209 190.473566 
L 440.108171 191.30821 
L 440.464022 190.803761 
L 440.908836 191.104458 
L 440.997798 190.977663 
L 441.353649 190.174334 
L 441.620537 190.741689 
L 442.243276 191.341539 
L 442.510164 190.905111 
L 443.666679 192.668304 
L 443.755642 191.865106 
L 444.111493 192.804457 
L 445.00112 192.509799 
L 445.090083 192.163509 
L 445.445933 192.774255 
L 445.623859 192.361415 
L 445.712821 192.700106 
L 445.801784 191.995189 
L 445.890747 192.122238 
L 446.157635 191.75125 
L 446.33556 193.291597 
L 446.602448 191.595664 
L 446.869337 193.831618 
L 447.136225 191.370907 
L 447.225187 191.50958 
L 447.403113 192.593004 
L 447.492075 191.441651 
L 447.581038 192.161913 
L 447.670001 191.493046 
L 447.847926 191.784175 
L 448.470665 191.912436 
L 448.737553 193.34458 
L 449.004441 191.529143 
L 449.449255 192.338586 
L 449.538218 194.478063 
L 449.62718 194.031105 
L 449.983031 192.968315 
L 450.160956 194.213624 
L 450.249919 134.864466 
L 450.516807 135.981297 
L 450.60577 137.750064 
L 450.961621 110.058906 
L 451.050583 122.904475 
L 451.139546 193.208217 
L 451.317471 192.760826 
L 451.94021 193.23789 
L 452.029173 132.865583 
L 452.118136 141.053769 
L 452.296061 193.799156 
L 452.473987 192.107348 
L 452.562949 192.928136 
L 453.185688 194.635007 
L 453.630502 192.226777 
L 454.164278 193.061821 
L 454.431166 153.740223 
L 454.520129 192.597482 
L 454.787017 193.18853 
L 455.409756 191.109428 
L 455.676644 191.266436 
L 455.854569 193.090144 
L 456.032495 191.711755 
L 456.21042 192.643998 
L 456.655233 163.111814 
L 456.922121 193.596638 
L 457.011084 192.380861 
L 457.18901 191.901581 
L 457.366935 193.901039 
L 457.455898 192.674751 
L 457.633823 193.673962 
L 457.900711 194.334872 
L 458.256562 193.08171 
L 458.345525 193.888681 
L 458.434487 193.403569 
L 458.701375 193.46202 
L 459.146189 194.376197 
L 459.591002 193.081985 
L 459.679965 194.265415 
L 459.768928 193.978594 
L 460.213741 192.660489 
L 460.302704 194.200482 
L 460.925443 194.14521 
L 461.014406 192.762795 
L 461.192331 193.914506 
L 461.281294 192.710725 
L 461.459219 194.05745 
L 461.992995 193.950555 
L 462.170921 193.740691 
L 462.348846 191.837371 
L 462.437809 193.918648 
L 462.79366 193.552184 
L 463.14951 194.040115 
L 463.327436 193.549172 
L 463.594324 193.565424 
L 463.683287 192.43705 
L 464.217063 193.92505 
L 464.394988 193.933725 
L 464.572914 192.170788 
L 464.661876 194.801291 
L 464.750839 194.289025 
L 464.839802 192.785752 
L 465.017727 194.400755 
L 465.195652 193.943466 
L 465.551503 195.94803 
L 465.729429 194.605977 
L 465.907354 162.475097 
L 466.174242 194.948607 
L 466.263205 193.733684 
L 466.619056 194.317267 
L 466.885944 194.225049 
L 467.063869 193.14583 
L 467.152832 193.904122 
L 467.330757 193.757795 
L 467.597645 193.705695 
L 467.686608 195.702919 
L 467.775571 193.334467 
L 467.864533 194.170856 
L 468.309347 192.545703 
L 468.665198 194.296009 
L 468.843123 192.81432 
L 468.932086 192.284887 
L 469.110011 194.92303 
L 469.287937 193.695889 
L 469.554825 193.768143 
L 469.73275 194.97353 
L 469.821713 193.022027 
L 469.910675 193.905353 
L 469.999638 193.424701 
L 470.533414 194.017128 
L 470.622377 194.616605 
L 470.889265 192.799405 
L 471.067191 194.342562 
L 471.156153 194.977836 
L 471.600967 189.33628 
L 472.312668 193.395545 
L 472.401631 194.704605 
L 472.757482 196.650049 
L 472.935407 193.333803 
L 473.291258 194.87711 
L 473.380221 192.942898 
L 473.469183 193.308362 
L 473.736072 193.559106 
L 474.00296 195.540801 
L 474.447773 194.305493 
L 474.714661 194.669041 
L 474.981549 194.958839 
L 475.604288 192.98527 
L 475.693251 196.319142 
L 475.782214 194.79263 
L 476.049102 196.008866 
L 476.404952 194.457139 
L 476.493915 196.041222 
L 476.582878 194.536883 
L 476.849766 195.439443 
L 476.938729 195.405117 
L 477.294579 193.729308 
L 477.561468 195.460606 
L 477.828356 193.927486 
L 478.006281 196.439511 
L 478.095244 195.413495 
L 478.184206 195.878794 
L 478.540057 196.499404 
L 478.717983 196.280085 
L 479.251759 194.400193 
L 479.429684 197.636355 
L 479.518647 195.40737 
L 479.874498 195.136894 
L 480.141386 196.196152 
L 480.230349 194.965165 
L 480.408274 195.474256 
L 480.497237 194.415243 
L 480.675162 196.005842 
L 480.764125 195.475369 
L 480.853087 193.928322 
L 481.031013 187.827314 
L 481.208938 195.841398 
L 481.831677 194.361935 
L 481.92064 194.650943 
L 482.098565 196.326825 
L 482.365453 194.869614 
L 482.543379 194.647043 
L 483.166118 148.796165 
L 483.521968 194.49115 
L 483.610931 193.205235 
L 483.788856 194.927963 
L 484.144707 194.697223 
L 484.23367 195.896579 
L 484.322633 195.608092 
L 484.411595 194.240447 
L 484.500558 194.360131 
L 484.678483 195.814559 
L 484.945372 194.83371 
L 485.21226 194.874027 
L 485.301222 195.726689 
L 485.657073 190.370576 
L 485.834999 194.173918 
L 486.279812 194.221036 
L 486.902551 195.508575 
L 487.52529 194.41185 
L 487.614252 194.917052 
L 487.881141 194.887199 
L 488.148029 190.061582 
L 488.325954 196.178006 
L 488.85973 193.836469 
L 489.037656 196.395164 
L 489.304544 193.61197 
L 489.571432 195.416287 
L 489.83832 195.879999 
L 489.927283 195.094387 
L 490.194171 195.24589 
L 490.283133 196.411191 
L 490.372096 179.912348 
L 490.461059 195.736005 
L 490.727947 195.030054 
L 490.905872 195.461625 
L 491.17276 196.676901 
L 491.261723 194.385661 
L 491.439649 194.700528 
L 491.706537 195.495438 
L 492.062387 195.604256 
L 492.240313 197.176436 
L 492.418238 195.822244 
L 492.596164 195.150536 
L 492.685126 194.084541 
L 492.774089 196.594244 
L 492.863052 194.623434 
L 493.396828 194.140428 
L 493.574753 194.98654 
L 493.663716 197.389066 
L 493.752679 195.523991 
L 493.841641 195.53751 
L 493.930604 196.83406 
L 494.019567 194.96909 
L 494.108529 197.165463 
L 494.46438 193.628406 
L 494.553343 195.172329 
L 494.642306 194.627008 
L 494.820231 194.856717 
L 494.909194 197.00901 
L 495.176082 188.923277 
L 495.798821 196.764078 
L 497.044299 195.600295 
L 497.133261 197.060829 
L 497.489112 195.198306 
L 497.578075 197.469646 
L 497.667037 195.429692 
L 497.844963 195.473754 
L 497.933926 194.928547 
L 498.111851 195.17079 
L 498.378739 196.08911 
L 498.467702 195.922103 
L 498.645627 196.678096 
L 498.73459 195.364722 
L 498.823553 196.326768 
L 499.179403 194.176298 
L 499.535254 196.364651 
L 499.802142 196.779777 
L 499.891105 194.783948 
L 499.980068 196.076171 
L 500.424881 194.937078 
L 500.513844 195.500393 
L 500.691769 195.043549 
L 501.581396 183.145844 
L 501.670359 192.757982 
L 501.848284 196.244475 
L 502.204135 196.252324 
L 502.559986 195.219849 
L 502.648949 196.015278 
L 503.093762 196.229389 
L 503.271687 197.267751 
L 503.36065 195.310599 
L 503.627538 197.247232 
L 503.716501 195.610369 
L 504.072352 195.546505 
L 504.161314 198.596591 
L 504.250277 198.384691 
L 504.33924 198.51395 
L 504.517165 195.845456 
L 504.606128 196.805773 
L 504.961979 194.217907 
L 505.050941 194.774426 
L 505.139904 196.447882 
L 505.31783 185.093107 
L 505.406792 196.112764 
L 505.762643 194.903565 
L 505.851606 196.938614 
L 506.207456 194.546438 
L 506.296419 196.685731 
L 506.65227 194.139902 
L 506.919158 195.067526 
L 507.275009 194.86012 
L 507.541897 193.883032 
L 507.63086 195.386251 
L 507.719822 194.90372 
L 507.98671 195.62728 
L 508.342561 195.212195 
L 508.9653 195.660404 
L 509.321151 195.221444 
L 509.410114 195.944602 
L 509.410114 195.944602 
" clip-path="url(#p41fc7e4ea3)" style="fill: none; stroke: #a50026; stroke-linecap: square"/>
   </g>
   <g id="patch_8">
    <path d="M 308.39 206.825 
L 308.39 25.8 
" style="fill: none; stroke: #000000; stroke-linejoin: miter; stroke-linecap: square"/>
   </g>
   <g id="patch_9">
    <path d="M 518.9825 206.825 
L 518.9825 25.8 
" style="fill: none; stroke: #000000; stroke-linejoin: miter; stroke-linecap: square"/>
   </g>
   <g id="patch_10">
    <path d="M 308.39 206.825 
L 518.9825 206.825 
" style="fill: none; stroke: #000000; stroke-linejoin: miter; stroke-linecap: square"/>
   </g>
   <g id="patch_11">
    <path d="M 308.39 25.8 
L 518.9825 25.8 
" style="fill: none; stroke: #000000; stroke-linejoin: miter; stroke-linecap: square"/>
   </g>
   <g id="text_18">
    <!-- Dampened cosine scheduler -->
    <g transform="translate(338.114375 19.8)scale(0.12 -0.12)">
     <defs>
      <path id="Roboto-Regular-44" d="M 528 0 
L 528 4550 
L 1816 4550 
Q 2713 4550 3267 3973 
Q 3822 3397 3822 2409 
L 3822 2138 
Q 3822 1150 3264 575 
Q 2706 0 1759 0 
L 528 0 
z
M 1816 4056 
L 1131 4056 
L 1131 491 
L 1759 491 
Q 2488 491 2856 941 
Q 3225 1391 3225 2138 
L 3225 2416 
Q 3225 3200 2856 3628 
Q 2488 4056 1816 4056 
z
" transform="scale(0.015625)"/>
      <path id="Roboto-Regular-6d" d="M 1794 2956 
Q 1484 2956 1296 2825 
Q 1109 2694 1016 2478 
L 1016 0 
L 434 0 
L 434 3381 
L 984 3381 
L 1000 3013 
Q 1366 3444 2000 3444 
Q 2325 3444 2579 3314 
Q 2834 3184 2969 2900 
Q 3138 3144 3408 3294 
Q 3678 3444 4044 3444 
Q 4588 3444 4883 3153 
Q 5178 2863 5178 2222 
L 5178 0 
L 4597 0 
L 4597 2228 
Q 4597 2653 4401 2804 
Q 4206 2956 3875 2956 
Q 3525 2956 3325 2748 
Q 3125 2541 3094 2244 
L 3094 0 
L 2516 0 
L 2516 2225 
Q 2516 2622 2319 2789 
Q 2122 2956 1794 2956 
z
" transform="scale(0.015625)"/>
     </defs>
     <use xlink:href="#Roboto-Regular-44"/>
     <use xlink:href="#Roboto-Regular-61" x="65.625"/>
     <use xlink:href="#Roboto-Regular-6d" x="120.019531"/>
     <use xlink:href="#Roboto-Regular-70" x="207.714844"/>
     <use xlink:href="#Roboto-Regular-65" x="263.867188"/>
     <use xlink:href="#Roboto-Regular-6e" x="316.894531"/>
     <use xlink:href="#Roboto-Regular-65" x="372.119141"/>
     <use xlink:href="#Roboto-Regular-64" x="425.146484"/>
     <use xlink:href="#Roboto-Regular-20" x="481.542969"/>
     <use xlink:href="#Roboto-Regular-63" x="506.347656"/>
     <use xlink:href="#Roboto-Regular-6f" x="558.691406"/>
     <use xlink:href="#Roboto-Regular-73" x="615.722656"/>
     <use xlink:href="#Roboto-Regular-69" x="667.333984"/>
     <use xlink:href="#Roboto-Regular-6e" x="691.650391"/>
     <use xlink:href="#Roboto-Regular-65" x="746.875"/>
     <use xlink:href="#Roboto-Regular-20" x="799.902344"/>
     <use xlink:href="#Roboto-Regular-73" x="824.707031"/>
     <use xlink:href="#Roboto-Regular-63" x="876.318359"/>
     <use xlink:href="#Roboto-Regular-68" x="928.662109"/>
     <use xlink:href="#Roboto-Regular-65" x="983.740234"/>
     <use xlink:href="#Roboto-Regular-64" x="1036.767578"/>
     <use xlink:href="#Roboto-Regular-75" x="1093.164062"/>
     <use xlink:href="#Roboto-Regular-6c" x="1148.291016"/>
     <use xlink:href="#Roboto-Regular-65" x="1172.607422"/>
     <use xlink:href="#Roboto-Regular-72" x="1225.634766"/>
    </g>
   </g>
  </g>
  <g id="axes_3">
   <g id="matplotlib.axis_5">
    <g id="ytick_7">
     <g id="line2d_19">
      <defs>
       <path id="m012c040fe0" d="M 0 0 
L 4 0 
" style="stroke: #000000"/>
      </defs>
      <g>
       <use xlink:href="#m012c040fe0" x="262.81" y="198.596591" style="stroke: #000000"/>
      </g>
     </g>
     <g id="text_19">
      <!-- $\mathdefault{10^{-6}}$ -->
      <g transform="translate(270.31 203.096591)scale(0.12 -0.12)">
       <defs>
        <path id="Roboto-Light-2212" d="M 3128 2466 
L 3128 2147 
L 519 2147 
L 519 2466 
L 3128 2466 
z
" transform="scale(0.015625)"/>
        <path id="Roboto-Light-36" d="M 3228 1494 
Q 3228 838 2868 387 
Q 2509 -63 1881 -63 
Q 1194 -63 800 429 
Q 406 922 406 1609 
L 406 2009 
Q 406 3175 943 3879 
Q 1481 4584 2581 4584 
L 2638 4584 
L 2638 4259 
L 2581 4259 
Q 1766 4259 1303 3773 
Q 841 3288 788 2441 
Q 1178 2988 1919 2988 
Q 2572 2988 2900 2542 
Q 3228 2097 3228 1494 
z
M 781 1603 
Q 781 972 1101 614 
Q 1422 256 1881 256 
Q 2338 256 2597 615 
Q 2856 975 2856 1478 
Q 2856 1963 2609 2316 
Q 2363 2669 1859 2669 
Q 1488 2669 1183 2451 
Q 878 2234 781 1913 
L 781 1603 
z
" transform="scale(0.015625)"/>
       </defs>
       <use xlink:href="#Roboto-Light-31" transform="translate(0 0.882812)"/>
       <use xlink:href="#Roboto-Light-30" transform="translate(55.46875 0.882812)"/>
       <use xlink:href="#Roboto-Light-2212" transform="translate(111.861992 37.8625)scale(0.7)"/>
       <use xlink:href="#Roboto-Light-36" transform="translate(151.818047 37.8625)scale(0.7)"/>
      </g>
     </g>
    </g>
    <g id="ytick_8">
     <g id="line2d_20">
      <g>
       <use xlink:href="#m012c040fe0" x="262.81" y="143.740531" style="stroke: #000000"/>
      </g>
     </g>
     <g id="text_20">
      <!-- $\mathdefault{10^{-5}}$ -->
      <g transform="translate(270.31 148.240531)scale(0.12 -0.12)">
       <use xlink:href="#Roboto-Light-31" transform="translate(0 0.254688)"/>
       <use xlink:href="#Roboto-Light-30" transform="translate(55.46875 0.254688)"/>
       <use xlink:href="#Roboto-Light-2212" transform="translate(111.861992 37.234375)scale(0.7)"/>
       <use xlink:href="#Roboto-Light-35" transform="translate(151.818047 37.234375)scale(0.7)"/>
      </g>
     </g>
    </g>
    <g id="ytick_9">
     <g id="line2d_21">
      <g>
       <use xlink:href="#m012c040fe0" x="262.81" y="88.88447" style="stroke: #000000"/>
      </g>
     </g>
     <g id="text_21">
      <!-- $\mathdefault{10^{-4}}$ -->
      <g transform="translate(270.31 93.38447)scale(0.12 -0.12)">
       <defs>
        <path id="Roboto-Light-34" d="M 213 1366 
L 2316 4550 
L 2725 4550 
L 2725 1469 
L 3434 1469 
L 3434 1150 
L 2725 1150 
L 2725 0 
L 2350 0 
L 2350 1150 
L 213 1150 
L 213 1366 
z
M 672 1469 
L 2350 1469 
L 2350 4066 
L 2184 3778 
L 672 1469 
z
" transform="scale(0.015625)"/>
       </defs>
       <use xlink:href="#Roboto-Light-31" transform="translate(0 0.254688)"/>
       <use xlink:href="#Roboto-Light-30" transform="translate(55.46875 0.254688)"/>
       <use xlink:href="#Roboto-Light-2212" transform="translate(111.861992 37.234375)scale(0.7)"/>
       <use xlink:href="#Roboto-Light-34" transform="translate(151.818047 37.234375)scale(0.7)"/>
      </g>
     </g>
    </g>
    <g id="ytick_10">
     <g id="line2d_22">
      <g>
       <use xlink:href="#m012c040fe0" x="262.81" y="34.02841" style="stroke: #000000"/>
      </g>
     </g>
     <g id="text_22">
      <!-- $\mathdefault{10^{-3}}$ -->
      <g transform="translate(270.31 38.52841)scale(0.12 -0.12)">
       <use xlink:href="#Roboto-Light-31" transform="translate(0 0.565625)"/>
       <use xlink:href="#Roboto-Light-30" transform="translate(55.46875 0.565625)"/>
       <use xlink:href="#Roboto-Light-2212" transform="translate(111.861992 37.545313)scale(0.7)"/>
       <use xlink:href="#Roboto-Light-33" transform="translate(151.818047 37.545313)scale(0.7)"/>
      </g>
     </g>
    </g>
    <g id="ytick_11">
     <g id="line2d_23">
      <defs>
       <path id="m30076b27b2" d="M 0 0 
L 3 0 
" style="stroke: #000000"/>
      </defs>
      <g>
       <use xlink:href="#m30076b27b2" x="262.81" y="203.912692" style="stroke: #000000"/>
      </g>
     </g>
    </g>
    <g id="ytick_12">
     <g id="line2d_24">
      <g>
       <use xlink:href="#m30076b27b2" x="262.81" y="201.106667" style="stroke: #000000"/>
      </g>
     </g>
    </g>
    <g id="ytick_13">
     <g id="line2d_25">
      <g>
       <use xlink:href="#m30076b27b2" x="262.81" y="182.083271" style="stroke: #000000"/>
      </g>
     </g>
    </g>
    <g id="ytick_14">
     <g id="line2d_26">
      <g>
       <use xlink:href="#m30076b27b2" x="262.81" y="172.423599" style="stroke: #000000"/>
      </g>
     </g>
    </g>
    <g id="ytick_15">
     <g id="line2d_27">
      <g>
       <use xlink:href="#m30076b27b2" x="262.81" y="165.569952" style="stroke: #000000"/>
      </g>
     </g>
    </g>
    <g id="ytick_16">
     <g id="line2d_28">
      <g>
       <use xlink:href="#m30076b27b2" x="262.81" y="160.25385" style="stroke: #000000"/>
      </g>
     </g>
    </g>
    <g id="ytick_17">
     <g id="line2d_29">
      <g>
       <use xlink:href="#m30076b27b2" x="262.81" y="155.910279" style="stroke: #000000"/>
      </g>
     </g>
    </g>
    <g id="ytick_18">
     <g id="line2d_30">
      <g>
       <use xlink:href="#m30076b27b2" x="262.81" y="152.237842" style="stroke: #000000"/>
      </g>
     </g>
    </g>
    <g id="ytick_19">
     <g id="line2d_31">
      <g>
       <use xlink:href="#m30076b27b2" x="262.81" y="149.056632" style="stroke: #000000"/>
      </g>
     </g>
    </g>
    <g id="ytick_20">
     <g id="line2d_32">
      <g>
       <use xlink:href="#m30076b27b2" x="262.81" y="146.250606" style="stroke: #000000"/>
      </g>
     </g>
    </g>
    <g id="ytick_21">
     <g id="line2d_33">
      <g>
       <use xlink:href="#m30076b27b2" x="262.81" y="127.227211" style="stroke: #000000"/>
      </g>
     </g>
    </g>
    <g id="ytick_22">
     <g id="line2d_34">
      <g>
       <use xlink:href="#m30076b27b2" x="262.81" y="117.567538" style="stroke: #000000"/>
      </g>
     </g>
    </g>
    <g id="ytick_23">
     <g id="line2d_35">
      <g>
       <use xlink:href="#m30076b27b2" x="262.81" y="110.713892" style="stroke: #000000"/>
      </g>
     </g>
    </g>
    <g id="ytick_24">
     <g id="line2d_36">
      <g>
       <use xlink:href="#m30076b27b2" x="262.81" y="105.39779" style="stroke: #000000"/>
      </g>
     </g>
    </g>
    <g id="ytick_25">
     <g id="line2d_37">
      <g>
       <use xlink:href="#m30076b27b2" x="262.81" y="101.054219" style="stroke: #000000"/>
      </g>
     </g>
    </g>
    <g id="ytick_26">
     <g id="line2d_38">
      <g>
       <use xlink:href="#m30076b27b2" x="262.81" y="97.381782" style="stroke: #000000"/>
      </g>
     </g>
    </g>
    <g id="ytick_27">
     <g id="line2d_39">
      <g>
       <use xlink:href="#m30076b27b2" x="262.81" y="94.200572" style="stroke: #000000"/>
      </g>
     </g>
    </g>
    <g id="ytick_28">
     <g id="line2d_40">
      <g>
       <use xlink:href="#m30076b27b2" x="262.81" y="91.394546" style="stroke: #000000"/>
      </g>
     </g>
    </g>
    <g id="ytick_29">
     <g id="line2d_41">
      <g>
       <use xlink:href="#m30076b27b2" x="262.81" y="72.371151" style="stroke: #000000"/>
      </g>
     </g>
    </g>
    <g id="ytick_30">
     <g id="line2d_42">
      <g>
       <use xlink:href="#m30076b27b2" x="262.81" y="62.711478" style="stroke: #000000"/>
      </g>
     </g>
    </g>
    <g id="ytick_31">
     <g id="line2d_43">
      <g>
       <use xlink:href="#m30076b27b2" x="262.81" y="55.857831" style="stroke: #000000"/>
      </g>
     </g>
    </g>
    <g id="ytick_32">
     <g id="line2d_44">
      <g>
       <use xlink:href="#m30076b27b2" x="262.81" y="50.54173" style="stroke: #000000"/>
      </g>
     </g>
    </g>
    <g id="ytick_33">
     <g id="line2d_45">
      <g>
       <use xlink:href="#m30076b27b2" x="262.81" y="46.198159" style="stroke: #000000"/>
      </g>
     </g>
    </g>
    <g id="ytick_34">
     <g id="line2d_46">
      <g>
       <use xlink:href="#m30076b27b2" x="262.81" y="42.525721" style="stroke: #000000"/>
      </g>
     </g>
    </g>
    <g id="ytick_35">
     <g id="line2d_47">
      <g>
       <use xlink:href="#m30076b27b2" x="262.81" y="39.344512" style="stroke: #000000"/>
      </g>
     </g>
    </g>
    <g id="ytick_36">
     <g id="line2d_48">
      <g>
       <use xlink:href="#m30076b27b2" x="262.81" y="36.538486" style="stroke: #000000"/>
      </g>
     </g>
    </g>
   </g>
   <g id="line2d_49">
    <path d="M 61.789886 34.028409 
L 63.490451 34.028409 
L 63.579954 36.416926 
L 65.101511 36.416926 
L 65.817538 44.114 
L 67.607606 44.114 
L 67.876116 59.302829 
L 69.57668 59.302829 
L 70.471714 89.758927 
L 71.903768 89.758927 
L 72.351285 198.596591 
L 73.783339 198.596591 
L 74.409863 89.758927 
L 76.020924 89.758927 
L 76.19993 59.302829 
L 78.169005 59.302829 
L 78.616522 44.114 
L 80.227582 44.114 
L 80.406589 36.416926 
L 82.01765 36.416926 
L 82.55467 34.028409 
L 84.255234 34.028409 
L 84.702751 36.416926 
L 86.582322 36.416926 
L 86.850832 44.114 
L 88.193383 44.114 
L 88.90941 59.302829 
L 90.520471 59.302829 
L 91.057491 89.758927 
L 92.847559 89.758927 
L 93.116069 198.596591 
L 94.99564 198.596591 
L 95.353653 89.758927 
L 97.054218 89.758927 
L 97.233224 59.302829 
L 98.933789 59.302829 
L 99.291802 44.114 
L 101.260876 44.114 
L 101.439883 36.416926 
L 103.229951 36.416926 
L 103.408958 34.028409 
L 105.467535 34.028409 
L 105.736045 36.416926 
L 107.526113 36.416926 
L 107.884126 44.114 
L 109.674194 44.114 
L 109.853201 59.302829 
L 111.285255 59.302829 
L 111.911778 89.758927 
L 113.880853 89.758927 
L 113.970356 198.596591 
L 115.939431 198.596591 
L 116.118437 89.758927 
L 117.819001 89.758927 
L 118.177015 59.302829 
L 120.146089 59.302829 
L 120.414599 44.114 
L 122.115164 44.114 
L 122.383674 36.416926 
L 124.352748 36.416926 
L 124.442252 34.028409 
L 126.411326 34.028409 
L 126.590333 36.416926 
L 128.201393 36.416926 
L 128.827917 44.114 
L 130.617985 44.114 
L 130.975998 59.302829 
L 132.676562 59.302829 
L 133.124079 89.758927 
L 134.824643 89.758927 
L 135.00365 198.596591 
L 136.704214 198.596591 
L 136.972725 89.758927 
L 139.031302 89.758927 
L 139.478819 59.302829 
L 141.000377 59.302829 
L 141.179383 44.114 
L 143.058954 44.114 
L 143.327464 36.416926 
L 145.207035 36.416926 
L 145.565049 34.028409 
L 147.44462 34.028409 
L 147.71313 36.416926 
L 149.413694 36.416926 
L 149.771708 44.114 
L 151.561775 44.114 
L 152.009292 59.302829 
L 153.620353 59.302829 
L 154.246877 89.758927 
L 155.768434 89.758927 
L 156.036944 198.596591 
L 157.916515 198.596591 
L 158.006019 89.758927 
L 159.975093 89.758927 
L 160.243603 59.302829 
L 161.944167 59.302829 
L 162.302181 44.114 
L 164.092248 44.114 
L 164.360758 36.416926 
L 165.971819 36.416926 
L 166.598343 34.028409 
L 168.388411 34.028409 
L 168.477914 36.416926 
L 170.267981 36.416926 
L 170.536492 44.114 
L 172.595069 44.114 
L 172.774076 59.302829 
L 174.653647 59.302829 
L 174.922157 89.758927 
L 176.533218 89.758927 
L 176.980735 198.596591 
L 178.770802 198.596591 
L 179.218319 89.758927 
L 181.008387 89.758927 
L 181.903421 59.302829 
L 183.066965 59.302829 
L 183.245971 44.114 
L 185.036039 44.114 
L 185.573059 36.416926 
L 187.094617 36.416926 
L 188.347664 34.028409 
L 188.795181 34.028409 
L 189.690215 36.416926 
L 191.480282 36.416926 
L 191.748792 44.114 
L 193.449357 44.114 
L 193.628363 59.302829 
L 195.686941 59.302829 
L 195.776444 89.758927 
L 197.208499 89.758927 
L 197.835022 198.596591 
L 199.446083 198.596591 
L 200.072607 89.758927 
L 201.862674 89.758927 
L 202.131184 59.302829 
L 203.831749 59.302829 
L 204.368769 44.114 
L 206.158836 44.114 
L 206.695857 36.416926 
L 208.038407 36.416926 
L 208.396421 34.028409 
L 210.275992 34.028409 
L 210.454999 36.416926 
L 212.424073 36.416926 
L 212.60308 44.114 
L 214.572154 44.114 
L 214.751161 59.302829 
L 216.362222 59.302829 
L 217.167752 89.758927 
L 218.778813 89.758927 
L 219.315833 198.596591 
L 220.837391 198.596591 
L 221.284907 89.758927 
L 222.895968 89.758927 
L 222.985472 59.302829 
L 225.044049 59.302829 
L 225.312559 44.114 
L 226.92362 44.114 
L 227.19213 36.416926 
L 229.250708 36.416926 
L 229.340211 34.028409 
L 231.130279 34.028409 
L 231.488293 36.416926 
L 233.188857 36.416926 
L 233.81538 44.114 
L 235.336938 44.114 
L 235.605448 59.302829 
L 237.574522 59.302829 
L 237.753529 89.758927 
L 239.722603 89.758927 
L 239.90161 198.596591 
L 240.707141 198.596591 
L 242.049691 89.758927 
L 243.750255 89.758927 
L 244.197772 59.302829 
L 245.629826 59.302829 
L 246.614364 44.114 
L 248.046418 44.114 
L 248.314928 36.416926 
L 250.104995 36.416926 
L 250.373506 34.028409 
L 252.253076 34.028409 
L 252.61109 36.416926 
L 253.237614 36.416926 
L 253.237614 36.416926 
" clip-path="url(#p86edf00c3d)" style="fill: none; stroke: #313695; stroke-opacity: 0.4; stroke-linecap: square"/>
   </g>
   <g id="patch_12">
    <path d="M 52.2175 206.825 
L 52.2175 25.8 
" style="fill: none; stroke: #000000; stroke-linejoin: miter; stroke-linecap: square"/>
   </g>
   <g id="patch_13">
    <path d="M 262.81 206.825 
L 262.81 25.8 
" style="fill: none; stroke: #000000; stroke-linejoin: miter; stroke-linecap: square"/>
   </g>
   <g id="patch_14">
    <path d="M 52.2175 206.825 
L 262.81 206.825 
" style="fill: none; stroke: #000000; stroke-linejoin: miter; stroke-linecap: square"/>
   </g>
   <g id="patch_15">
    <path d="M 52.2175 25.8 
L 262.81 25.8 
" style="fill: none; stroke: #000000; stroke-linejoin: miter; stroke-linecap: square"/>
   </g>
  </g>
  <g id="axes_4">
   <g id="matplotlib.axis_6">
    <g id="ytick_37">
     <g id="line2d_50">
      <g>
       <use xlink:href="#m012c040fe0" x="518.9825" y="198.596591" style="stroke: #000000"/>
      </g>
     </g>
     <g id="text_23">
      <!-- $\mathdefault{10^{-6}}$ -->
      <g transform="translate(526.4825 203.096591)scale(0.12 -0.12)">
       <use xlink:href="#Roboto-Light-31" transform="translate(0 0.882812)"/>
       <use xlink:href="#Roboto-Light-30" transform="translate(55.46875 0.882812)"/>
       <use xlink:href="#Roboto-Light-2212" transform="translate(111.861992 37.8625)scale(0.7)"/>
       <use xlink:href="#Roboto-Light-36" transform="translate(151.818047 37.8625)scale(0.7)"/>
      </g>
     </g>
    </g>
    <g id="ytick_38">
     <g id="line2d_51">
      <g>
       <use xlink:href="#m012c040fe0" x="518.9825" y="143.740531" style="stroke: #000000"/>
      </g>
     </g>
     <g id="text_24">
      <!-- $\mathdefault{10^{-5}}$ -->
      <g transform="translate(526.4825 148.240531)scale(0.12 -0.12)">
       <use xlink:href="#Roboto-Light-31" transform="translate(0 0.254688)"/>
       <use xlink:href="#Roboto-Light-30" transform="translate(55.46875 0.254688)"/>
       <use xlink:href="#Roboto-Light-2212" transform="translate(111.861992 37.234375)scale(0.7)"/>
       <use xlink:href="#Roboto-Light-35" transform="translate(151.818047 37.234375)scale(0.7)"/>
      </g>
     </g>
    </g>
    <g id="ytick_39">
     <g id="line2d_52">
      <g>
       <use xlink:href="#m012c040fe0" x="518.9825" y="88.88447" style="stroke: #000000"/>
      </g>
     </g>
     <g id="text_25">
      <!-- $\mathdefault{10^{-4}}$ -->
      <g transform="translate(526.4825 93.38447)scale(0.12 -0.12)">
       <use xlink:href="#Roboto-Light-31" transform="translate(0 0.254688)"/>
       <use xlink:href="#Roboto-Light-30" transform="translate(55.46875 0.254688)"/>
       <use xlink:href="#Roboto-Light-2212" transform="translate(111.861992 37.234375)scale(0.7)"/>
       <use xlink:href="#Roboto-Light-34" transform="translate(151.818047 37.234375)scale(0.7)"/>
      </g>
     </g>
    </g>
    <g id="ytick_40">
     <g id="line2d_53">
      <g>
       <use xlink:href="#m012c040fe0" x="518.9825" y="34.02841" style="stroke: #000000"/>
      </g>
     </g>
     <g id="text_26">
      <!-- $\mathdefault{10^{-3}}$ -->
      <g transform="translate(526.4825 38.52841)scale(0.12 -0.12)">
       <use xlink:href="#Roboto-Light-31" transform="translate(0 0.565625)"/>
       <use xlink:href="#Roboto-Light-30" transform="translate(55.46875 0.565625)"/>
       <use xlink:href="#Roboto-Light-2212" transform="translate(111.861992 37.545313)scale(0.7)"/>
       <use xlink:href="#Roboto-Light-33" transform="translate(151.818047 37.545313)scale(0.7)"/>
      </g>
     </g>
    </g>
    <g id="ytick_41">
     <g id="line2d_54">
      <g>
       <use xlink:href="#m30076b27b2" x="518.9825" y="203.912692" style="stroke: #000000"/>
      </g>
     </g>
    </g>
    <g id="ytick_42">
     <g id="line2d_55">
      <g>
       <use xlink:href="#m30076b27b2" x="518.9825" y="201.106667" style="stroke: #000000"/>
      </g>
     </g>
    </g>
    <g id="ytick_43">
     <g id="line2d_56">
      <g>
       <use xlink:href="#m30076b27b2" x="518.9825" y="182.083271" style="stroke: #000000"/>
      </g>
     </g>
    </g>
    <g id="ytick_44">
     <g id="line2d_57">
      <g>
       <use xlink:href="#m30076b27b2" x="518.9825" y="172.423599" style="stroke: #000000"/>
      </g>
     </g>
    </g>
    <g id="ytick_45">
     <g id="line2d_58">
      <g>
       <use xlink:href="#m30076b27b2" x="518.9825" y="165.569952" style="stroke: #000000"/>
      </g>
     </g>
    </g>
    <g id="ytick_46">
     <g id="line2d_59">
      <g>
       <use xlink:href="#m30076b27b2" x="518.9825" y="160.25385" style="stroke: #000000"/>
      </g>
     </g>
    </g>
    <g id="ytick_47">
     <g id="line2d_60">
      <g>
       <use xlink:href="#m30076b27b2" x="518.9825" y="155.910279" style="stroke: #000000"/>
      </g>
     </g>
    </g>
    <g id="ytick_48">
     <g id="line2d_61">
      <g>
       <use xlink:href="#m30076b27b2" x="518.9825" y="152.237842" style="stroke: #000000"/>
      </g>
     </g>
    </g>
    <g id="ytick_49">
     <g id="line2d_62">
      <g>
       <use xlink:href="#m30076b27b2" x="518.9825" y="149.056632" style="stroke: #000000"/>
      </g>
     </g>
    </g>
    <g id="ytick_50">
     <g id="line2d_63">
      <g>
       <use xlink:href="#m30076b27b2" x="518.9825" y="146.250606" style="stroke: #000000"/>
      </g>
     </g>
    </g>
    <g id="ytick_51">
     <g id="line2d_64">
      <g>
       <use xlink:href="#m30076b27b2" x="518.9825" y="127.227211" style="stroke: #000000"/>
      </g>
     </g>
    </g>
    <g id="ytick_52">
     <g id="line2d_65">
      <g>
       <use xlink:href="#m30076b27b2" x="518.9825" y="117.567538" style="stroke: #000000"/>
      </g>
     </g>
    </g>
    <g id="ytick_53">
     <g id="line2d_66">
      <g>
       <use xlink:href="#m30076b27b2" x="518.9825" y="110.713892" style="stroke: #000000"/>
      </g>
     </g>
    </g>
    <g id="ytick_54">
     <g id="line2d_67">
      <g>
       <use xlink:href="#m30076b27b2" x="518.9825" y="105.39779" style="stroke: #000000"/>
      </g>
     </g>
    </g>
    <g id="ytick_55">
     <g id="line2d_68">
      <g>
       <use xlink:href="#m30076b27b2" x="518.9825" y="101.054219" style="stroke: #000000"/>
      </g>
     </g>
    </g>
    <g id="ytick_56">
     <g id="line2d_69">
      <g>
       <use xlink:href="#m30076b27b2" x="518.9825" y="97.381782" style="stroke: #000000"/>
      </g>
     </g>
    </g>
    <g id="ytick_57">
     <g id="line2d_70">
      <g>
       <use xlink:href="#m30076b27b2" x="518.9825" y="94.200572" style="stroke: #000000"/>
      </g>
     </g>
    </g>
    <g id="ytick_58">
     <g id="line2d_71">
      <g>
       <use xlink:href="#m30076b27b2" x="518.9825" y="91.394546" style="stroke: #000000"/>
      </g>
     </g>
    </g>
    <g id="ytick_59">
     <g id="line2d_72">
      <g>
       <use xlink:href="#m30076b27b2" x="518.9825" y="72.371151" style="stroke: #000000"/>
      </g>
     </g>
    </g>
    <g id="ytick_60">
     <g id="line2d_73">
      <g>
       <use xlink:href="#m30076b27b2" x="518.9825" y="62.711478" style="stroke: #000000"/>
      </g>
     </g>
    </g>
    <g id="ytick_61">
     <g id="line2d_74">
      <g>
       <use xlink:href="#m30076b27b2" x="518.9825" y="55.857831" style="stroke: #000000"/>
      </g>
     </g>
    </g>
    <g id="ytick_62">
     <g id="line2d_75">
      <g>
       <use xlink:href="#m30076b27b2" x="518.9825" y="50.54173" style="stroke: #000000"/>
      </g>
     </g>
    </g>
    <g id="ytick_63">
     <g id="line2d_76">
      <g>
       <use xlink:href="#m30076b27b2" x="518.9825" y="46.198159" style="stroke: #000000"/>
      </g>
     </g>
    </g>
    <g id="ytick_64">
     <g id="line2d_77">
      <g>
       <use xlink:href="#m30076b27b2" x="518.9825" y="42.525721" style="stroke: #000000"/>
      </g>
     </g>
    </g>
    <g id="ytick_65">
     <g id="line2d_78">
      <g>
       <use xlink:href="#m30076b27b2" x="518.9825" y="39.344512" style="stroke: #000000"/>
      </g>
     </g>
    </g>
    <g id="ytick_66">
     <g id="line2d_79">
      <g>
       <use xlink:href="#m30076b27b2" x="518.9825" y="36.538486" style="stroke: #000000"/>
      </g>
     </g>
    </g>
    <g id="text_27">
     <!-- $\eta$ / Learning rate -->
     <g transform="translate(562.68 160.7125)rotate(-90)scale(0.12 -0.12)">
      <defs>
       <path id="DejaVuSans-Oblique-3b7" d="M 3703 2113 
L 3034 -1331 
L 2459 -1331 
L 3125 2094 
Q 3222 2591 3075 2838 
Q 2931 3084 2544 3084 
Q 2078 3084 1750 2788 
Q 1425 2491 1325 1978 
L 941 0 
L 363 0 
L 1044 3500 
L 1622 3500 
L 1516 2956 
Q 1781 3272 2094 3428 
Q 2403 3584 2769 3584 
Q 3372 3584 3609 3213 
Q 3844 2838 3703 2113 
z
" transform="scale(0.015625)"/>
       <path id="Roboto-Regular-4c" d="M 3288 491 
L 3288 0 
L 528 0 
L 528 4550 
L 1131 4550 
L 1131 491 
L 3288 491 
z
" transform="scale(0.015625)"/>
      </defs>
      <use xlink:href="#DejaVuSans-Oblique-3b7" transform="translate(0 0.921875)"/>
      <use xlink:href="#Roboto-Regular-20" transform="translate(63.378906 0.921875)"/>
      <use xlink:href="#Roboto-Regular-2f" transform="translate(88.183594 0.921875)"/>
      <use xlink:href="#Roboto-Regular-20" transform="translate(129.443359 0.921875)"/>
      <use xlink:href="#Roboto-Regular-4c" transform="translate(154.248047 0.921875)"/>
      <use xlink:href="#Roboto-Regular-65" transform="translate(208.105469 0.921875)"/>
      <use xlink:href="#Roboto-Regular-61" transform="translate(261.132812 0.921875)"/>
      <use xlink:href="#Roboto-Regular-72" transform="translate(315.527344 0.921875)"/>
      <use xlink:href="#Roboto-Regular-6e" transform="translate(349.414062 0.921875)"/>
      <use xlink:href="#Roboto-Regular-69" transform="translate(404.638672 0.921875)"/>
      <use xlink:href="#Roboto-Regular-6e" transform="translate(428.955078 0.921875)"/>
      <use xlink:href="#Roboto-Regular-67" transform="translate(484.179688 0.921875)"/>
      <use xlink:href="#Roboto-Regular-20" transform="translate(540.332031 0.921875)"/>
      <use xlink:href="#Roboto-Regular-72" transform="translate(565.136719 0.921875)"/>
      <use xlink:href="#Roboto-Regular-61" transform="translate(599.023438 0.921875)"/>
      <use xlink:href="#Roboto-Regular-74" transform="translate(653.417969 0.921875)"/>
      <use xlink:href="#Roboto-Regular-65" transform="translate(686.132812 0.921875)"/>
     </g>
    </g>
   </g>
   <g id="line2d_80">
    <path d="M 317.962386 34.028409 
L 319.652678 34.028409 
L 319.74164 37.844717 
L 321.254006 37.844717 
L 321.965708 46.968204 
L 323.744962 46.968204 
L 324.01185 63.577521 
L 325.702141 63.577521 
L 326.591768 95.409669 
L 328.015171 95.409669 
L 328.459985 198.596591 
L 329.883388 198.596591 
L 330.506127 98.228598 
L 332.107455 98.228598 
L 332.285381 69.272879 
L 334.24256 69.272879 
L 334.687374 55.526967 
L 336.288702 55.526967 
L 336.466628 49.262866 
L 338.067956 49.262866 
L 338.601732 48.303044 
L 340.292024 48.303044 
L 340.736837 52.115952 
L 342.605054 52.115952 
L 342.871942 61.228722 
L 344.206382 61.228722 
L 344.918084 77.804126 
L 346.519413 77.804126 
L 347.053189 109.447691 
L 348.832443 109.447691 
L 349.099331 198.596591 
L 350.967548 198.596591 
L 351.323398 112.234637 
L 353.01369 112.234637 
L 353.191615 83.481255 
L 354.881906 83.481255 
L 355.237757 69.772936 
L 357.194936 69.772936 
L 357.372862 63.51998 
L 359.152116 63.51998 
L 359.330041 62.561622 
L 361.376183 62.561622 
L 361.643071 66.368349 
L 363.422325 66.368349 
L 363.778176 75.461666 
L 365.55743 75.461666 
L 365.735355 91.975637 
L 367.158759 91.975637 
L 367.781498 123.282067 
L 369.738677 123.282067 
L 369.82764 198.596591 
L 371.784819 198.596591 
L 371.962744 126.012561 
L 373.653036 126.012561 
L 374.008886 97.619861 
L 375.966066 97.619861 
L 376.232954 83.979497 
L 377.923245 83.979497 
L 378.190133 77.746746 
L 380.147313 77.746746 
L 380.236275 76.791044 
L 382.193455 76.791044 
L 382.37138 80.586564 
L 383.972709 80.586564 
L 384.951298 89.644642 
L 386.374702 89.644642 
L 386.730552 106.047892 
L 388.420844 106.047892 
L 388.865657 136.76056 
L 390.555948 136.76056 
L 390.733874 198.596591 
L 392.424165 198.596591 
L 392.691053 139.393869 
L 394.737195 139.393869 
L 395.182009 111.633127 
L 396.694375 111.633127 
L 396.8723 98.114824 
L 398.740517 98.114824 
L 399.007405 91.918553 
L 400.875621 91.918553 
L 401.231472 90.967653 
L 403.099689 90.967653 
L 403.366577 94.74292 
L 405.056868 94.74292 
L 405.412719 103.737497 
L 407.191973 103.737497 
L 407.636786 119.942911 
L 409.238115 119.942911 
L 409.860854 149.636652 
L 411.37322 149.636652 
L 411.640108 198.596591 
L 413.508325 198.596591 
L 413.597287 152.1096 
L 415.554467 152.1096 
L 415.821355 125.423785 
L 417.511646 125.423785 
L 417.867497 112.122225 
L 419.646751 112.122225 
L 419.913639 105.991337 
L 421.514967 105.991337 
L 422.137706 105.049059 
L 423.91696 105.049059 
L 424.005923 108.787978 
L 425.785177 108.787978 
L 426.052065 117.669132 
L 428.098207 117.669132 
L 428.276133 133.526511 
L 430.144349 133.526511 
L 430.411237 161.545766 
L 432.012566 161.545766 
L 432.457379 198.596591 
L 434.236633 198.596591 
L 434.681447 163.771748 
L 436.460701 163.771748 
L 437.350328 138.826969 
L 438.506843 138.826969 
L 438.684768 125.902553 
L 440.464022 125.902553 
L 440.997798 119.887294 
L 442.510164 119.887294 
L 443.755642 118.960338 
L 444.111493 118.960338 
L 445.090083 122.634794 
L 446.869337 122.634794 
L 447.136225 131.316548 
L 448.826516 131.316548 
L 449.004441 146.578009 
L 451.050583 146.578009 
L 451.139546 172.026655 
L 452.562949 172.026655 
L 453.185688 198.596591 
L 454.787017 198.596591 
L 455.409756 173.909994 
L 457.18901 173.909994 
L 457.455898 151.578642 
L 459.146189 151.578642 
L 459.679965 139.287989 
L 461.459219 139.287989 
L 461.992995 133.472528 
L 463.327436 133.472528 
L 463.683287 132.572246 
L 465.551503 132.572246 
L 465.729429 136.134793 
L 467.686608 136.134793 
L 467.864533 144.47556 
L 469.821713 144.47556 
L 469.999638 158.762162 
L 471.600967 158.762162 
L 472.401631 180.63577 
L 474.00296 180.63577 
L 474.536736 198.596591 
L 476.049102 198.596591 
L 476.493915 182.106646 
L 478.095244 182.106646 
L 478.184206 163.295775 
L 480.230349 163.295775 
L 480.497237 152.010494 
L 482.098565 152.010494 
L 482.365453 146.526768 
L 484.411595 146.526768 
L 484.500558 145.671334 
L 486.279812 145.671334 
L 486.635663 149.046605 
L 488.325954 149.046605 
L 488.948693 156.830894 
L 490.461059 156.830894 
L 490.727947 169.634836 
L 492.685126 169.634836 
L 492.863052 187.139189 
L 494.820231 187.139189 
L 494.998156 198.596591 
L 495.798821 198.596591 
L 497.133261 188.190579 
L 498.823553 188.190579 
L 499.268366 173.509577 
L 500.691769 173.509577 
L 501.670359 163.682988 
L 503.093762 163.682988 
L 503.36065 158.715257 
L 505.139904 158.715257 
L 505.406792 157.93101 
L 507.275009 157.93101 
L 507.63086 161.011303 
L 509.410114 161.011303 
L 509.410114 161.011303 
" clip-path="url(#p41fc7e4ea3)" style="fill: none; stroke: #313695; stroke-opacity: 0.4; stroke-linecap: square"/>
   </g>
   <g id="patch_16">
    <path d="M 308.39 206.825 
L 308.39 25.8 
" style="fill: none; stroke: #000000; stroke-linejoin: miter; stroke-linecap: square"/>
   </g>
   <g id="patch_17">
    <path d="M 518.9825 206.825 
L 518.9825 25.8 
" style="fill: none; stroke: #000000; stroke-linejoin: miter; stroke-linecap: square"/>
   </g>
   <g id="patch_18">
    <path d="M 308.39 206.825 
L 518.9825 206.825 
" style="fill: none; stroke: #000000; stroke-linejoin: miter; stroke-linecap: square"/>
   </g>
   <g id="patch_19">
    <path d="M 308.39 25.8 
L 518.9825 25.8 
" style="fill: none; stroke: #000000; stroke-linejoin: miter; stroke-linecap: square"/>
   </g>
  </g>
 </g>
 <defs>
  <clipPath id="p86edf00c3d">
   <rect x="52.2175" y="25.8" width="210.5925" height="181.025"/>
  </clipPath>
  <clipPath id="p41fc7e4ea3">
   <rect x="308.39" y="25.8" width="210.5925" height="181.025"/>
  </clipPath>
 </defs>
</svg>
