<?xml version="1.0" encoding="utf-8" standalone="no"?>
<!DOCTYPE svg PUBLIC "-//W3C//DTD SVG 1.1//EN"
  "http://www.w3.org/Graphics/SVG/1.1/DTD/svg11.dtd">
<svg xmlns:xlink="http://www.w3.org/1999/xlink" width="720pt" height="396pt" viewBox="0 0 720 396" xmlns="http://www.w3.org/2000/svg" version="1.1">
 <metadata>
  <rdf:RDF xmlns:dc="http://purl.org/dc/elements/1.1/" xmlns:cc="http://creativecommons.org/ns#" xmlns:rdf="http://www.w3.org/1999/02/22-rdf-syntax-ns#">
   <cc:Work>
    <dc:type rdf:resource="http://purl.org/dc/dcmitype/StillImage"/>
    <dc:date>2022-06-06T12:56:14.653300</dc:date>
    <dc:format>image/svg+xml</dc:format>
    <dc:creator>
     <cc:Agent>
      <dc:title>Matplotlib v3.5.1, https://matplotlib.org/</dc:title>
     </cc:Agent>
    </dc:creator>
   </cc:Work>
  </rdf:RDF>
 </metadata>
 <defs>
  <style type="text/css">*{stroke-linejoin: round; stroke-linecap: butt}</style>
 </defs>
 <g id="figure_1">
  <g id="patch_1">
   <path d="M 0 396 
L 720 396 
L 720 0 
L 0 0 
L 0 396 
z
" style="fill: none"/>
  </g>
  <g id="axes_1">
   <g id="patch_2">
    <path d="M 50.2375 350.825 
L 709.2 350.825 
L 709.2 10.8 
L 50.2375 10.8 
L 50.2375 350.825 
z
" style="fill: none"/>
   </g>
   <g id="matplotlib.axis_1">
    <g id="xtick_1">
     <g id="line2d_1">
      <defs>
       <path id="m01f3990127" d="M 0 0 
L 0 4 
" style="stroke: #000000"/>
      </defs>
      <g>
       <use xlink:href="#m01f3990127" x="79.590684" y="350.825" style="stroke: #000000"/>
      </g>
     </g>
     <g id="text_1">
      <!-- 0 -->
      <g transform="translate(76.262559 367.325)scale(0.12 -0.12)">
       <defs>
        <path id="Roboto-Light-30" d="M 3172 2666 
L 3172 1900 
Q 3172 897 2805 417 
Q 2438 -63 1778 -63 
Q 1125 -63 750 417 
Q 375 897 375 1900 
L 375 2666 
Q 375 3666 747 4141 
Q 1119 4616 1772 4616 
Q 2431 4616 2801 4141 
Q 3172 3666 3172 2666 
z
M 2800 1856 
L 2800 2713 
Q 2800 4297 1772 4297 
Q 750 4297 750 2713 
L 750 1856 
Q 750 1091 1009 673 
Q 1269 256 1778 256 
Q 2294 256 2547 673 
Q 2800 1091 2800 1856 
z
" transform="scale(0.015625)"/>
       </defs>
       <use xlink:href="#Roboto-Light-30"/>
      </g>
     </g>
    </g>
    <g id="xtick_2">
     <g id="line2d_2">
      <g>
       <use xlink:href="#m01f3990127" x="199.521979" y="350.825" style="stroke: #000000"/>
      </g>
     </g>
     <g id="text_2">
      <!-- 200 -->
      <g transform="translate(189.537604 367.325)scale(0.12 -0.12)">
       <defs>
        <path id="Roboto-Light-32" d="M 3281 319 
L 3281 0 
L 428 0 
L 428 291 
L 1919 1978 
Q 2338 2453 2508 2764 
Q 2678 3075 2678 3359 
Q 2678 3772 2434 4033 
Q 2191 4294 1728 4294 
Q 1253 4294 978 3995 
Q 703 3697 703 3238 
L 328 3238 
Q 328 3803 700 4208 
Q 1072 4613 1728 4613 
Q 2344 4613 2698 4289 
Q 3053 3966 3053 3394 
Q 3053 2981 2779 2562 
Q 2506 2144 2159 1750 
L 888 319 
L 3281 319 
z
" transform="scale(0.015625)"/>
       </defs>
       <use xlink:href="#Roboto-Light-32"/>
       <use xlink:href="#Roboto-Light-30" x="55.46875"/>
       <use xlink:href="#Roboto-Light-30" x="110.9375"/>
      </g>
     </g>
    </g>
    <g id="xtick_3">
     <g id="line2d_3">
      <g>
       <use xlink:href="#m01f3990127" x="319.453274" y="350.825" style="stroke: #000000"/>
      </g>
     </g>
     <g id="text_3">
      <!-- 400 -->
      <g transform="translate(309.468899 367.325)scale(0.12 -0.12)">
       <defs>
        <path id="Roboto-Light-34" d="M 213 1366 
L 2316 4550 
L 2725 4550 
L 2725 1469 
L 3434 1469 
L 3434 1150 
L 2725 1150 
L 2725 0 
L 2350 0 
L 2350 1150 
L 213 1150 
L 213 1366 
z
M 672 1469 
L 2350 1469 
L 2350 4066 
L 2184 3778 
L 672 1469 
z
" transform="scale(0.015625)"/>
       </defs>
       <use xlink:href="#Roboto-Light-34"/>
       <use xlink:href="#Roboto-Light-30" x="55.46875"/>
       <use xlink:href="#Roboto-Light-30" x="110.9375"/>
      </g>
     </g>
    </g>
    <g id="xtick_4">
     <g id="line2d_4">
      <g>
       <use xlink:href="#m01f3990127" x="439.384569" y="350.825" style="stroke: #000000"/>
      </g>
     </g>
     <g id="text_4">
      <!-- 600 -->
      <g transform="translate(429.400194 367.325)scale(0.12 -0.12)">
       <defs>
        <path id="Roboto-Light-36" d="M 3228 1494 
Q 3228 838 2868 387 
Q 2509 -63 1881 -63 
Q 1194 -63 800 429 
Q 406 922 406 1609 
L 406 2009 
Q 406 3175 943 3879 
Q 1481 4584 2581 4584 
L 2638 4584 
L 2638 4259 
L 2581 4259 
Q 1766 4259 1303 3773 
Q 841 3288 788 2441 
Q 1178 2988 1919 2988 
Q 2572 2988 2900 2542 
Q 3228 2097 3228 1494 
z
M 781 1603 
Q 781 972 1101 614 
Q 1422 256 1881 256 
Q 2338 256 2597 615 
Q 2856 975 2856 1478 
Q 2856 1963 2609 2316 
Q 2363 2669 1859 2669 
Q 1488 2669 1183 2451 
Q 878 2234 781 1913 
L 781 1603 
z
" transform="scale(0.015625)"/>
       </defs>
       <use xlink:href="#Roboto-Light-36"/>
       <use xlink:href="#Roboto-Light-30" x="55.46875"/>
       <use xlink:href="#Roboto-Light-30" x="110.9375"/>
      </g>
     </g>
    </g>
    <g id="xtick_5">
     <g id="line2d_5">
      <g>
       <use xlink:href="#m01f3990127" x="559.315864" y="350.825" style="stroke: #000000"/>
      </g>
     </g>
     <g id="text_5">
      <!-- 800 -->
      <g transform="translate(549.331489 367.325)scale(0.12 -0.12)">
       <defs>
        <path id="Roboto-Light-38" d="M 3225 1206 
Q 3225 584 2806 260 
Q 2388 -63 1778 -63 
Q 1166 -63 747 260 
Q 328 584 328 1206 
Q 328 1606 561 1904 
Q 794 2203 1181 2338 
Q 847 2472 647 2747 
Q 447 3022 447 3381 
Q 447 3975 825 4294 
Q 1203 4613 1772 4613 
Q 2341 4613 2723 4294 
Q 3106 3975 3106 3381 
Q 3106 3019 2901 2745 
Q 2697 2472 2363 2338 
Q 2750 2203 2987 1904 
Q 3225 1606 3225 1206 
z
M 2734 3381 
Q 2734 3781 2457 4037 
Q 2181 4294 1772 4294 
Q 1356 4294 1087 4050 
Q 819 3806 819 3381 
Q 819 2975 1089 2734 
Q 1359 2494 1775 2494 
Q 2188 2494 2461 2734 
Q 2734 2975 2734 3381 
z
M 2850 1206 
Q 2850 1644 2542 1909 
Q 2234 2175 1772 2175 
Q 1303 2175 1003 1909 
Q 703 1644 703 1206 
Q 703 750 1003 503 
Q 1303 256 1778 256 
Q 2247 256 2548 503 
Q 2850 750 2850 1206 
z
" transform="scale(0.015625)"/>
       </defs>
       <use xlink:href="#Roboto-Light-38"/>
       <use xlink:href="#Roboto-Light-30" x="55.46875"/>
       <use xlink:href="#Roboto-Light-30" x="110.9375"/>
      </g>
     </g>
    </g>
    <g id="xtick_6">
     <g id="line2d_6">
      <g>
       <use xlink:href="#m01f3990127" x="679.247159" y="350.825" style="stroke: #000000"/>
      </g>
     </g>
     <g id="text_6">
      <!-- 1000 -->
      <g transform="translate(665.934659 367.325)scale(0.12 -0.12)">
       <defs>
        <path id="Roboto-Light-31" d="M 2169 4569 
L 2169 0 
L 1794 0 
L 1794 4100 
L 559 3641 
L 559 3991 
L 2106 4569 
L 2169 4569 
z
" transform="scale(0.015625)"/>
       </defs>
       <use xlink:href="#Roboto-Light-31"/>
       <use xlink:href="#Roboto-Light-30" x="55.46875"/>
       <use xlink:href="#Roboto-Light-30" x="110.9375"/>
       <use xlink:href="#Roboto-Light-30" x="166.40625"/>
      </g>
     </g>
    </g>
    <g id="text_7">
     <!-- Temperature -->
     <g transform="translate(345.360313 382.7625)scale(0.12 -0.12)">
      <defs>
       <path id="Roboto-Regular-54" d="M 156 4056 
L 156 4550 
L 3672 4550 
L 3672 4056 
L 2209 4056 
L 2209 0 
L 1616 0 
L 1616 4056 
L 156 4056 
z
" transform="scale(0.015625)"/>
       <path id="Roboto-Regular-65" d="M 3116 591 
Q 2950 341 2647 139 
Q 2344 -63 1844 -63 
Q 1138 -63 714 396 
Q 291 856 291 1572 
L 291 1703 
Q 291 2256 502 2645 
Q 713 3034 1050 3239 
Q 1388 3444 1769 3444 
Q 2494 3444 2826 2970 
Q 3159 2497 3159 1788 
L 3159 1528 
L 872 1528 
Q 884 1063 1148 736 
Q 1413 409 1875 409 
Q 2181 409 2393 534 
Q 2606 659 2766 869 
L 3116 591 
z
M 1769 2969 
Q 1425 2969 1187 2719 
Q 950 2469 891 2000 
L 2581 2000 
L 2581 2044 
Q 2559 2381 2386 2675 
Q 2213 2969 1769 2969 
z
" transform="scale(0.015625)"/>
       <path id="Roboto-Regular-6d" d="M 1794 2956 
Q 1484 2956 1296 2825 
Q 1109 2694 1016 2478 
L 1016 0 
L 434 0 
L 434 3381 
L 984 3381 
L 1000 3013 
Q 1366 3444 2000 3444 
Q 2325 3444 2579 3314 
Q 2834 3184 2969 2900 
Q 3138 3144 3408 3294 
Q 3678 3444 4044 3444 
Q 4588 3444 4883 3153 
Q 5178 2863 5178 2222 
L 5178 0 
L 4597 0 
L 4597 2228 
Q 4597 2653 4401 2804 
Q 4206 2956 3875 2956 
Q 3525 2956 3325 2748 
Q 3125 2541 3094 2244 
L 3094 0 
L 2516 0 
L 2516 2225 
Q 2516 2622 2319 2789 
Q 2122 2956 1794 2956 
z
" transform="scale(0.015625)"/>
       <path id="Roboto-Regular-70" d="M 1984 -63 
Q 1375 -63 1019 328 
L 1019 -1300 
L 438 -1300 
L 438 3381 
L 969 3381 
L 997 3009 
Q 1353 3444 1975 3444 
Q 2616 3444 2956 2969 
Q 3297 2494 3297 1719 
L 3297 1653 
Q 3297 913 2955 425 
Q 2613 -63 1984 -63 
z
M 1806 2956 
Q 1513 2956 1322 2823 
Q 1131 2691 1019 2491 
L 1019 872 
Q 1134 672 1323 542 
Q 1513 413 1813 413 
Q 2281 413 2498 781 
Q 2716 1150 2716 1653 
L 2716 1719 
Q 2716 2222 2498 2589 
Q 2281 2956 1806 2956 
z
" transform="scale(0.015625)"/>
       <path id="Roboto-Regular-72" d="M 1791 2888 
Q 1494 2888 1303 2755 
Q 1113 2622 1019 2400 
L 1019 0 
L 441 0 
L 441 3381 
L 1003 3381 
L 1016 2994 
Q 1144 3200 1342 3322 
Q 1541 3444 1819 3444 
Q 1981 3444 2075 3400 
L 2072 2863 
Q 1944 2888 1791 2888 
z
" transform="scale(0.015625)"/>
       <path id="Roboto-Regular-61" d="M 2528 0 
Q 2472 122 2447 356 
Q 2284 184 2040 60 
Q 1797 -63 1484 -63 
Q 966 -63 653 228 
Q 341 519 341 941 
Q 341 1484 753 1767 
Q 1166 2050 1863 2050 
L 2434 2050 
L 2434 2319 
Q 2434 2619 2254 2798 
Q 2075 2978 1722 2978 
Q 1394 2978 1192 2817 
Q 991 2656 991 2444 
L 413 2444 
Q 413 2806 778 3125 
Q 1144 3444 1756 3444 
Q 2306 3444 2659 3162 
Q 3013 2881 3013 2313 
L 3013 738 
Q 3013 569 3042 378 
Q 3072 188 3131 50 
L 3131 0 
L 2528 0 
z
M 1569 444 
Q 1881 444 2111 600 
Q 2341 756 2434 947 
L 2434 1644 
L 1956 1644 
Q 922 1644 922 1019 
Q 922 778 1084 611 
Q 1247 444 1569 444 
z
" transform="scale(0.015625)"/>
       <path id="Roboto-Regular-74" d="M 1872 0 
Q 1803 -22 1692 -42 
Q 1581 -63 1425 -63 
Q 1103 -63 875 134 
Q 647 331 647 841 
L 647 2938 
L 28 2938 
L 28 3381 
L 647 3381 
L 647 4203 
L 1225 4203 
L 1225 3381 
L 1856 3381 
L 1856 2938 
L 1225 2938 
L 1225 838 
Q 1225 578 1337 506 
Q 1450 434 1597 434 
Q 1669 434 1748 448 
Q 1828 463 1869 472 
L 1872 0 
z
" transform="scale(0.015625)"/>
       <path id="Roboto-Regular-75" d="M 2538 0 
L 2525 334 
Q 2369 147 2125 42 
Q 1881 -63 1538 -63 
Q 1041 -63 734 231 
Q 428 525 428 1200 
L 428 3381 
L 1006 3381 
L 1006 1194 
Q 1006 738 1198 583 
Q 1391 428 1628 428 
Q 1981 428 2193 562 
Q 2406 697 2509 919 
L 2509 3381 
L 3091 3381 
L 3091 0 
L 2538 0 
z
" transform="scale(0.015625)"/>
      </defs>
      <use xlink:href="#Roboto-Regular-54"/>
      <use xlink:href="#Roboto-Regular-65" x="59.667969"/>
      <use xlink:href="#Roboto-Regular-6d" x="112.695312"/>
      <use xlink:href="#Roboto-Regular-70" x="200.390625"/>
      <use xlink:href="#Roboto-Regular-65" x="256.542969"/>
      <use xlink:href="#Roboto-Regular-72" x="309.570312"/>
      <use xlink:href="#Roboto-Regular-61" x="343.457031"/>
      <use xlink:href="#Roboto-Regular-74" x="397.851562"/>
      <use xlink:href="#Roboto-Regular-75" x="430.566406"/>
      <use xlink:href="#Roboto-Regular-72" x="485.693359"/>
      <use xlink:href="#Roboto-Regular-65" x="519.580078"/>
     </g>
    </g>
   </g>
   <g id="matplotlib.axis_2">
    <g id="ytick_1">
     <g id="line2d_7">
      <defs>
       <path id="m4966f9a1d2" d="M 0 0 
L -4 0 
" style="stroke: #000000"/>
      </defs>
      <g>
       <use xlink:href="#m4966f9a1d2" x="50.2375" y="329.310453" style="stroke: #000000"/>
      </g>
     </g>
     <g id="text_8">
      <!-- 2.8 -->
      <g transform="translate(26.56 333.810453)scale(0.12 -0.12)">
       <defs>
        <path id="Roboto-Light-2e" d="M 456 228 
Q 456 488 719 488 
Q 988 488 988 228 
Q 988 -28 719 -28 
Q 456 -28 456 228 
z
" transform="scale(0.015625)"/>
       </defs>
       <use xlink:href="#Roboto-Light-32"/>
       <use xlink:href="#Roboto-Light-2e" x="55.46875"/>
       <use xlink:href="#Roboto-Light-38" x="79.345703"/>
      </g>
     </g>
    </g>
    <g id="ytick_2">
     <g id="line2d_8">
      <g>
       <use xlink:href="#m4966f9a1d2" x="50.2375" y="283.669952" style="stroke: #000000"/>
      </g>
     </g>
     <g id="text_9">
      <!-- 2.9 -->
      <g transform="translate(26.56 288.169952)scale(0.12 -0.12)">
       <defs>
        <path id="Roboto-Light-39" d="M 3141 2434 
Q 3141 1759 2955 1198 
Q 2769 638 2308 302 
Q 1847 -34 1025 -34 
L 944 -34 
L 947 291 
L 1025 291 
Q 1984 291 2365 809 
Q 2747 1328 2766 2109 
Q 2578 1831 2281 1661 
Q 1984 1491 1622 1491 
Q 1197 1491 906 1709 
Q 616 1928 467 2276 
Q 319 2625 319 3016 
Q 319 3672 681 4142 
Q 1044 4613 1691 4613 
Q 2425 4613 2783 4103 
Q 3141 3594 3141 2797 
L 3141 2434 
z
M 688 3031 
Q 688 2566 939 2189 
Q 1191 1813 1669 1813 
Q 2094 1813 2376 2061 
Q 2659 2309 2766 2613 
L 2766 2834 
Q 2766 3550 2467 3920 
Q 2169 4291 1700 4291 
Q 1225 4291 956 3912 
Q 688 3534 688 3031 
z
" transform="scale(0.015625)"/>
       </defs>
       <use xlink:href="#Roboto-Light-32"/>
       <use xlink:href="#Roboto-Light-2e" x="55.46875"/>
       <use xlink:href="#Roboto-Light-39" x="79.345703"/>
      </g>
     </g>
    </g>
    <g id="ytick_3">
     <g id="line2d_9">
      <g>
       <use xlink:href="#m4966f9a1d2" x="50.2375" y="238.029451" style="stroke: #000000"/>
      </g>
     </g>
     <g id="text_10">
      <!-- 3.0 -->
      <g transform="translate(26.56 242.529451)scale(0.12 -0.12)">
       <defs>
        <path id="Roboto-Light-33" d="M 1641 2159 
L 1263 2159 
L 1263 2481 
L 1641 2481 
Q 2166 2481 2436 2740 
Q 2706 3000 2706 3366 
Q 2706 3775 2473 4034 
Q 2241 4294 1750 4294 
Q 1322 4294 1036 4042 
Q 750 3791 750 3356 
L 378 3356 
Q 378 3909 768 4261 
Q 1159 4613 1750 4613 
Q 2350 4613 2714 4284 
Q 3078 3956 3078 3353 
Q 3078 3047 2881 2761 
Q 2684 2475 2300 2331 
Q 2750 2209 2956 1914 
Q 3163 1619 3163 1238 
Q 3163 616 2766 276 
Q 2369 -63 1766 -63 
Q 1397 -63 1064 81 
Q 731 225 520 512 
Q 309 800 309 1234 
L 684 1234 
Q 684 800 986 528 
Q 1288 256 1766 256 
Q 2250 256 2520 506 
Q 2791 756 2791 1225 
Q 2791 1719 2472 1939 
Q 2153 2159 1641 2159 
z
" transform="scale(0.015625)"/>
       </defs>
       <use xlink:href="#Roboto-Light-33"/>
       <use xlink:href="#Roboto-Light-2e" x="55.46875"/>
       <use xlink:href="#Roboto-Light-30" x="79.345703"/>
      </g>
     </g>
    </g>
    <g id="ytick_4">
     <g id="line2d_10">
      <g>
       <use xlink:href="#m4966f9a1d2" x="50.2375" y="192.38895" style="stroke: #000000"/>
      </g>
     </g>
     <g id="text_11">
      <!-- 3.1 -->
      <g transform="translate(26.56 196.88895)scale(0.12 -0.12)">
       <use xlink:href="#Roboto-Light-33"/>
       <use xlink:href="#Roboto-Light-2e" x="55.46875"/>
       <use xlink:href="#Roboto-Light-31" x="79.345703"/>
      </g>
     </g>
    </g>
    <g id="ytick_5">
     <g id="line2d_11">
      <g>
       <use xlink:href="#m4966f9a1d2" x="50.2375" y="146.748449" style="stroke: #000000"/>
      </g>
     </g>
     <g id="text_12">
      <!-- 3.2 -->
      <g transform="translate(26.56 151.248449)scale(0.12 -0.12)">
       <use xlink:href="#Roboto-Light-33"/>
       <use xlink:href="#Roboto-Light-2e" x="55.46875"/>
       <use xlink:href="#Roboto-Light-32" x="79.345703"/>
      </g>
     </g>
    </g>
    <g id="ytick_6">
     <g id="line2d_12">
      <g>
       <use xlink:href="#m4966f9a1d2" x="50.2375" y="101.107947" style="stroke: #000000"/>
      </g>
     </g>
     <g id="text_13">
      <!-- 3.3 -->
      <g transform="translate(26.56 105.607947)scale(0.12 -0.12)">
       <use xlink:href="#Roboto-Light-33"/>
       <use xlink:href="#Roboto-Light-2e" x="55.46875"/>
       <use xlink:href="#Roboto-Light-33" x="79.345703"/>
      </g>
     </g>
    </g>
    <g id="ytick_7">
     <g id="line2d_13">
      <g>
       <use xlink:href="#m4966f9a1d2" x="50.2375" y="55.467446" style="stroke: #000000"/>
      </g>
     </g>
     <g id="text_14">
      <!-- 3.4 -->
      <g transform="translate(26.56 59.967446)scale(0.12 -0.12)">
       <use xlink:href="#Roboto-Light-33"/>
       <use xlink:href="#Roboto-Light-2e" x="55.46875"/>
       <use xlink:href="#Roboto-Light-34" x="79.345703"/>
      </g>
     </g>
    </g>
    <g id="text_15">
     <!-- Attention entropy / $H(X)$ -->
     <g transform="translate(19.92 245.6725)rotate(-90)scale(0.12 -0.12)">
      <defs>
       <path id="Roboto-Regular-41" d="M 91 0 
L 1825 4550 
L 2353 4550 
L 4094 0 
L 3475 0 
L 3041 1191 
L 1138 1191 
L 706 0 
L 91 0 
z
M 1319 1684 
L 2863 1684 
L 2091 3806 
L 1319 1684 
z
" transform="scale(0.015625)"/>
       <path id="Roboto-Regular-6e" d="M 1844 2956 
Q 1566 2956 1353 2806 
Q 1141 2656 1019 2416 
L 1019 0 
L 441 0 
L 441 3381 
L 988 3381 
L 1006 2959 
Q 1391 3444 2016 3444 
Q 2516 3444 2808 3162 
Q 3100 2881 3100 2216 
L 3100 0 
L 2519 0 
L 2519 2222 
Q 2519 2619 2345 2787 
Q 2172 2956 1844 2956 
z
" transform="scale(0.015625)"/>
       <path id="Roboto-Regular-69" d="M 444 4278 
Q 444 4419 530 4516 
Q 616 4613 784 4613 
Q 950 4613 1039 4516 
Q 1128 4419 1128 4278 
Q 1128 4144 1039 4048 
Q 950 3953 784 3953 
Q 616 3953 530 4048 
Q 444 4144 444 4278 
z
M 1069 3381 
L 1069 0 
L 488 0 
L 488 3381 
L 1069 3381 
z
" transform="scale(0.015625)"/>
       <path id="Roboto-Regular-6f" d="M 288 1653 
L 288 1725 
Q 288 2459 700 2951 
Q 1113 3444 1822 3444 
Q 2538 3444 2952 2951 
Q 3366 2459 3366 1725 
L 3366 1653 
Q 3366 919 2952 428 
Q 2538 -63 1828 -63 
Q 1116 -63 702 428 
Q 288 919 288 1653 
z
M 866 1725 
L 866 1653 
Q 866 1150 1105 781 
Q 1344 413 1828 413 
Q 2303 413 2543 781 
Q 2784 1150 2784 1653 
L 2784 1725 
Q 2784 2222 2543 2595 
Q 2303 2969 1822 2969 
Q 1344 2969 1105 2595 
Q 866 2222 866 1725 
z
" transform="scale(0.015625)"/>
       <path id="Roboto-Regular-20" transform="scale(0.015625)"/>
       <path id="Roboto-Regular-79" d="M 1594 -522 
Q 1531 -688 1412 -886 
Q 1294 -1084 1095 -1225 
Q 897 -1366 591 -1366 
Q 519 -1366 414 -1348 
Q 309 -1331 266 -1316 
L 263 -847 
Q 331 -859 419 -859 
Q 713 -859 878 -739 
Q 1044 -619 1150 -306 
L 1275 38 
L 69 3381 
L 700 3381 
L 1547 850 
L 2331 3381 
L 2950 3381 
L 1594 -522 
z
" transform="scale(0.015625)"/>
       <path id="Roboto-Regular-2f" d="M 2453 4550 
L 556 -391 
L 59 -391 
L 1959 4550 
L 2453 4550 
z
" transform="scale(0.015625)"/>
       <path id="DejaVuSans-Oblique-48" d="M 1081 4666 
L 1716 4666 
L 1344 2753 
L 3634 2753 
L 4006 4666 
L 4641 4666 
L 3731 0 
L 3097 0 
L 3531 2222 
L 1241 2222 
L 806 0 
L 172 0 
L 1081 4666 
z
" transform="scale(0.015625)"/>
       <path id="DejaVuSans-28" d="M 1984 4856 
Q 1566 4138 1362 3434 
Q 1159 2731 1159 2009 
Q 1159 1288 1364 580 
Q 1569 -128 1984 -844 
L 1484 -844 
Q 1016 -109 783 600 
Q 550 1309 550 2009 
Q 550 2706 781 3412 
Q 1013 4119 1484 4856 
L 1984 4856 
z
" transform="scale(0.015625)"/>
       <path id="DejaVuSans-Oblique-58" d="M 878 4666 
L 1516 4666 
L 2316 2981 
L 3763 4666 
L 4500 4666 
L 2578 2438 
L 3738 0 
L 3103 0 
L 2163 1966 
L 459 0 
L -275 0 
L 1906 2509 
L 878 4666 
z
" transform="scale(0.015625)"/>
       <path id="DejaVuSans-29" d="M 513 4856 
L 1013 4856 
Q 1481 4119 1714 3412 
Q 1947 2706 1947 2009 
Q 1947 1309 1714 600 
Q 1481 -109 1013 -844 
L 513 -844 
Q 928 -128 1133 580 
Q 1338 1288 1338 2009 
Q 1338 2731 1133 3434 
Q 928 4138 513 4856 
z
" transform="scale(0.015625)"/>
      </defs>
      <use xlink:href="#Roboto-Regular-41" transform="translate(0 0.125)"/>
      <use xlink:href="#Roboto-Regular-74" transform="translate(65.234375 0.125)"/>
      <use xlink:href="#Roboto-Regular-74" transform="translate(97.949219 0.125)"/>
      <use xlink:href="#Roboto-Regular-65" transform="translate(130.664062 0.125)"/>
      <use xlink:href="#Roboto-Regular-6e" transform="translate(183.691406 0.125)"/>
      <use xlink:href="#Roboto-Regular-74" transform="translate(238.916016 0.125)"/>
      <use xlink:href="#Roboto-Regular-69" transform="translate(271.630859 0.125)"/>
      <use xlink:href="#Roboto-Regular-6f" transform="translate(295.947266 0.125)"/>
      <use xlink:href="#Roboto-Regular-6e" transform="translate(352.978516 0.125)"/>
      <use xlink:href="#Roboto-Regular-20" transform="translate(408.203125 0.125)"/>
      <use xlink:href="#Roboto-Regular-65" transform="translate(433.007812 0.125)"/>
      <use xlink:href="#Roboto-Regular-6e" transform="translate(486.035156 0.125)"/>
      <use xlink:href="#Roboto-Regular-74" transform="translate(541.259766 0.125)"/>
      <use xlink:href="#Roboto-Regular-72" transform="translate(573.974609 0.125)"/>
      <use xlink:href="#Roboto-Regular-6f" transform="translate(607.861328 0.125)"/>
      <use xlink:href="#Roboto-Regular-70" transform="translate(664.892578 0.125)"/>
      <use xlink:href="#Roboto-Regular-79" transform="translate(721.044922 0.125)"/>
      <use xlink:href="#Roboto-Regular-20" transform="translate(768.359375 0.125)"/>
      <use xlink:href="#Roboto-Regular-2f" transform="translate(793.164062 0.125)"/>
      <use xlink:href="#Roboto-Regular-20" transform="translate(834.423828 0.125)"/>
      <use xlink:href="#DejaVuSans-Oblique-48" transform="translate(859.228516 0.125)"/>
      <use xlink:href="#DejaVuSans-28" transform="translate(934.423828 0.125)"/>
      <use xlink:href="#DejaVuSans-Oblique-58" transform="translate(973.4375 0.125)"/>
      <use xlink:href="#DejaVuSans-29" transform="translate(1041.943359 0.125)"/>
     </g>
    </g>
   </g>
   <g id="line2d_14">
    <path d="M 80.190341 150.991249 
L 83.78828 136.42478 
L 86.786562 125.122121 
L 89.784845 114.570506 
L 92.783127 104.755245 
L 95.781409 95.657622 
L 98.779692 87.255656 
L 101.777974 79.524972 
L 104.776256 72.440217 
L 107.774539 65.974948 
L 110.772821 60.102505 
L 113.771103 54.795903 
L 116.769386 50.02859 
L 119.168012 46.585778 
L 121.566638 43.458749 
L 123.965264 40.634771 
L 126.363889 38.101439 
L 128.762515 35.846674 
L 131.161141 33.859487 
L 133.559767 32.12758 
L 135.958393 30.641161 
L 138.357019 29.388913 
L 140.755645 28.361369 
L 143.154271 27.548518 
L 145.552897 26.940784 
L 147.951523 26.529244 
L 150.350148 26.305628 
L 153.348431 26.276792 
L 156.346713 26.51216 
L 159.344996 26.996933 
L 162.343278 27.716855 
L 165.34156 28.658762 
L 168.339843 29.80905 
L 171.937782 31.44781 
L 175.53572 33.348707 
L 179.133659 35.493459 
L 183.331255 38.27957 
L 187.52885 41.345445 
L 192.326102 45.159861 
L 197.123353 49.271996 
L 202.520262 54.212978 
L 207.91717 59.445369 
L 213.913735 65.553723 
L 221.109612 73.224014 
L 228.905147 81.866354 
L 238.49965 92.850836 
L 251.692093 108.332226 
L 283.473886 145.765062 
L 294.867359 158.787549 
L 305.061519 170.125355 
L 314.656022 180.477403 
L 323.65087 189.87231 
L 332.645717 198.945123 
L 341.040907 207.110416 
L 349.436098 214.972548 
L 357.831289 222.528692 
L 366.226479 229.774603 
L 374.62167 236.710934 
L 382.417204 242.875981 
L 390.212738 248.778457 
L 398.607929 254.844373 
L 407.00312 260.6154 
L 415.39831 266.099045 
L 423.793501 271.300749 
L 431.589035 275.886884 
L 439.984226 280.569757 
L 448.379416 284.995716 
L 456.774607 289.17314 
L 465.169798 293.110844 
L 473.564988 296.817533 
L 482.559835 300.542068 
L 491.554683 304.021333 
L 500.54953 307.265556 
L 509.544377 310.284531 
L 519.13888 313.266836 
L 528.733384 316.015296 
L 538.927544 318.690632 
L 549.121704 321.125487 
L 559.315864 323.331393 
L 569.510024 325.319342 
L 580.303841 327.198476 
L 591.097657 328.856497 
L 602.49113 330.378934 
L 613.884603 331.679931 
L 625.877733 332.821296 
L 638.470519 333.782136 
L 651.662961 334.540797 
L 664.855404 335.060282 
L 678.047846 335.353649 
L 679.247159 335.369318 
L 679.247159 335.369318 
" clip-path="url(#p4aaf285e3f)" style="fill: none; stroke: #aa4639; stroke-linecap: square"/>
   </g>
   <g id="patch_3">
    <path d="M 50.2375 350.825 
L 50.2375 10.8 
" style="fill: none; stroke: #000000; stroke-linejoin: miter; stroke-linecap: square"/>
   </g>
   <g id="patch_4">
    <path d="M 50.2375 350.825 
L 709.2 350.825 
" style="fill: none; stroke: #000000; stroke-linejoin: miter; stroke-linecap: square"/>
   </g>
  </g>
 </g>
 <defs>
  <clipPath id="p4aaf285e3f">
   <rect x="50.2375" y="10.8" width="658.9625" height="340.025"/>
  </clipPath>
 </defs>
</svg>
