<?xml version="1.0" encoding="utf-8" standalone="no"?>
<!DOCTYPE svg PUBLIC "-//W3C//DTD SVG 1.1//EN"
  "http://www.w3.org/Graphics/SVG/1.1/DTD/svg11.dtd">
<svg xmlns:xlink="http://www.w3.org/1999/xlink" width="432pt" height="252pt" viewBox="0 0 432 252" xmlns="http://www.w3.org/2000/svg" version="1.1">
 <metadata>
  <rdf:RDF xmlns:dc="http://purl.org/dc/elements/1.1/" xmlns:cc="http://creativecommons.org/ns#" xmlns:rdf="http://www.w3.org/1999/02/22-rdf-syntax-ns#">
   <cc:Work>
    <dc:type rdf:resource="http://purl.org/dc/dcmitype/StillImage"/>
    <dc:date>2022-06-01T22:01:34.334358</dc:date>
    <dc:format>image/svg+xml</dc:format>
    <dc:creator>
     <cc:Agent>
      <dc:title>Matplotlib v3.5.1, https://matplotlib.org/</dc:title>
     </cc:Agent>
    </dc:creator>
   </cc:Work>
  </rdf:RDF>
 </metadata>
 <defs>
  <style type="text/css">*{stroke-linejoin: round; stroke-linecap: butt}</style>
 </defs>
 <g id="figure_1">
  <g id="patch_1">
   <path d="M 0 252 
L 432 252 
L 432 0 
L 0 0 
L 0 252 
z
" style="fill: none"/>
  </g>
  <g id="axes_1">
   <g id="patch_2">
    <path d="M 57.0175 206.825 
L 421.2 206.825 
L 421.2 10.8 
L 57.0175 10.8 
L 57.0175 206.825 
z
" style="fill: none"/>
   </g>
   <g id="matplotlib.axis_1">
    <g id="xtick_1">
     <g id="line2d_1">
      <defs>
       <path id="m292f44c00c" d="M 0 0 
L 0 4 
" style="stroke: #000000"/>
      </defs>
      <g>
       <use xlink:href="#m292f44c00c" x="73.57125" y="206.825" style="stroke: #000000"/>
      </g>
     </g>
     <g id="text_1">
      <!-- 0 -->
      <g transform="translate(70.243125 223.325)scale(0.12 -0.12)">
       <defs>
        <path id="Roboto-Light-30" d="M 3172 2666 
L 3172 1900 
Q 3172 897 2805 417 
Q 2438 -63 1778 -63 
Q 1125 -63 750 417 
Q 375 897 375 1900 
L 375 2666 
Q 375 3666 747 4141 
Q 1119 4616 1772 4616 
Q 2431 4616 2801 4141 
Q 3172 3666 3172 2666 
z
M 2800 1856 
L 2800 2713 
Q 2800 4297 1772 4297 
Q 750 4297 750 2713 
L 750 1856 
Q 750 1091 1009 673 
Q 1269 256 1778 256 
Q 2294 256 2547 673 
Q 2800 1091 2800 1856 
z
" transform="scale(0.015625)"/>
       </defs>
       <use xlink:href="#Roboto-Light-30"/>
      </g>
     </g>
    </g>
    <g id="xtick_2">
     <g id="line2d_2">
      <g>
       <use xlink:href="#m292f44c00c" x="139.78625" y="206.825" style="stroke: #000000"/>
      </g>
     </g>
     <g id="text_2">
      <!-- 20 -->
      <g transform="translate(133.13 223.325)scale(0.12 -0.12)">
       <defs>
        <path id="Roboto-Light-32" d="M 3281 319 
L 3281 0 
L 428 0 
L 428 291 
L 1919 1978 
Q 2338 2453 2508 2764 
Q 2678 3075 2678 3359 
Q 2678 3772 2434 4033 
Q 2191 4294 1728 4294 
Q 1253 4294 978 3995 
Q 703 3697 703 3238 
L 328 3238 
Q 328 3803 700 4208 
Q 1072 4613 1728 4613 
Q 2344 4613 2698 4289 
Q 3053 3966 3053 3394 
Q 3053 2981 2779 2562 
Q 2506 2144 2159 1750 
L 888 319 
L 3281 319 
z
" transform="scale(0.015625)"/>
       </defs>
       <use xlink:href="#Roboto-Light-32"/>
       <use xlink:href="#Roboto-Light-30" x="55.46875"/>
      </g>
     </g>
    </g>
    <g id="xtick_3">
     <g id="line2d_3">
      <g>
       <use xlink:href="#m292f44c00c" x="206.00125" y="206.825" style="stroke: #000000"/>
      </g>
     </g>
     <g id="text_3">
      <!-- 40 -->
      <g transform="translate(199.345 223.325)scale(0.12 -0.12)">
       <defs>
        <path id="Roboto-Light-34" d="M 213 1366 
L 2316 4550 
L 2725 4550 
L 2725 1469 
L 3434 1469 
L 3434 1150 
L 2725 1150 
L 2725 0 
L 2350 0 
L 2350 1150 
L 213 1150 
L 213 1366 
z
M 672 1469 
L 2350 1469 
L 2350 4066 
L 2184 3778 
L 672 1469 
z
" transform="scale(0.015625)"/>
       </defs>
       <use xlink:href="#Roboto-Light-34"/>
       <use xlink:href="#Roboto-Light-30" x="55.46875"/>
      </g>
     </g>
    </g>
    <g id="xtick_4">
     <g id="line2d_4">
      <g>
       <use xlink:href="#m292f44c00c" x="272.21625" y="206.825" style="stroke: #000000"/>
      </g>
     </g>
     <g id="text_4">
      <!-- 60 -->
      <g transform="translate(265.56 223.325)scale(0.12 -0.12)">
       <defs>
        <path id="Roboto-Light-36" d="M 3228 1494 
Q 3228 838 2868 387 
Q 2509 -63 1881 -63 
Q 1194 -63 800 429 
Q 406 922 406 1609 
L 406 2009 
Q 406 3175 943 3879 
Q 1481 4584 2581 4584 
L 2638 4584 
L 2638 4259 
L 2581 4259 
Q 1766 4259 1303 3773 
Q 841 3288 788 2441 
Q 1178 2988 1919 2988 
Q 2572 2988 2900 2542 
Q 3228 2097 3228 1494 
z
M 781 1603 
Q 781 972 1101 614 
Q 1422 256 1881 256 
Q 2338 256 2597 615 
Q 2856 975 2856 1478 
Q 2856 1963 2609 2316 
Q 2363 2669 1859 2669 
Q 1488 2669 1183 2451 
Q 878 2234 781 1913 
L 781 1603 
z
" transform="scale(0.015625)"/>
       </defs>
       <use xlink:href="#Roboto-Light-36"/>
       <use xlink:href="#Roboto-Light-30" x="55.46875"/>
      </g>
     </g>
    </g>
    <g id="xtick_5">
     <g id="line2d_5">
      <g>
       <use xlink:href="#m292f44c00c" x="338.43125" y="206.825" style="stroke: #000000"/>
      </g>
     </g>
     <g id="text_5">
      <!-- 80 -->
      <g transform="translate(331.775 223.325)scale(0.12 -0.12)">
       <defs>
        <path id="Roboto-Light-38" d="M 3225 1206 
Q 3225 584 2806 260 
Q 2388 -63 1778 -63 
Q 1166 -63 747 260 
Q 328 584 328 1206 
Q 328 1606 561 1904 
Q 794 2203 1181 2338 
Q 847 2472 647 2747 
Q 447 3022 447 3381 
Q 447 3975 825 4294 
Q 1203 4613 1772 4613 
Q 2341 4613 2723 4294 
Q 3106 3975 3106 3381 
Q 3106 3019 2901 2745 
Q 2697 2472 2363 2338 
Q 2750 2203 2987 1904 
Q 3225 1606 3225 1206 
z
M 2734 3381 
Q 2734 3781 2457 4037 
Q 2181 4294 1772 4294 
Q 1356 4294 1087 4050 
Q 819 3806 819 3381 
Q 819 2975 1089 2734 
Q 1359 2494 1775 2494 
Q 2188 2494 2461 2734 
Q 2734 2975 2734 3381 
z
M 2850 1206 
Q 2850 1644 2542 1909 
Q 2234 2175 1772 2175 
Q 1303 2175 1003 1909 
Q 703 1644 703 1206 
Q 703 750 1003 503 
Q 1303 256 1778 256 
Q 2247 256 2548 503 
Q 2850 750 2850 1206 
z
" transform="scale(0.015625)"/>
       </defs>
       <use xlink:href="#Roboto-Light-38"/>
       <use xlink:href="#Roboto-Light-30" x="55.46875"/>
      </g>
     </g>
    </g>
    <g id="xtick_6">
     <g id="line2d_6">
      <g>
       <use xlink:href="#m292f44c00c" x="404.64625" y="206.825" style="stroke: #000000"/>
      </g>
     </g>
     <g id="text_6">
      <!-- 100 -->
      <g transform="translate(394.661875 223.325)scale(0.12 -0.12)">
       <defs>
        <path id="Roboto-Light-31" d="M 2169 4569 
L 2169 0 
L 1794 0 
L 1794 4100 
L 559 3641 
L 559 3991 
L 2106 4569 
L 2169 4569 
z
" transform="scale(0.015625)"/>
       </defs>
       <use xlink:href="#Roboto-Light-31"/>
       <use xlink:href="#Roboto-Light-30" x="55.46875"/>
       <use xlink:href="#Roboto-Light-30" x="110.9375"/>
      </g>
     </g>
    </g>
    <g id="text_7">
     <!-- Epochs -->
     <g transform="translate(219.365 238.7625)scale(0.12 -0.12)">
      <defs>
       <path id="Roboto-Regular-45" d="M 528 0 
L 528 4550 
L 3388 4550 
L 3388 4056 
L 1131 4056 
L 1131 2594 
L 3100 2594 
L 3100 2103 
L 1131 2103 
L 1131 491 
L 3419 491 
L 3419 0 
L 528 0 
z
" transform="scale(0.015625)"/>
       <path id="Roboto-Regular-70" d="M 1984 -63 
Q 1375 -63 1019 328 
L 1019 -1300 
L 438 -1300 
L 438 3381 
L 969 3381 
L 997 3009 
Q 1353 3444 1975 3444 
Q 2616 3444 2956 2969 
Q 3297 2494 3297 1719 
L 3297 1653 
Q 3297 913 2955 425 
Q 2613 -63 1984 -63 
z
M 1806 2956 
Q 1513 2956 1322 2823 
Q 1131 2691 1019 2491 
L 1019 872 
Q 1134 672 1323 542 
Q 1513 413 1813 413 
Q 2281 413 2498 781 
Q 2716 1150 2716 1653 
L 2716 1719 
Q 2716 2222 2498 2589 
Q 2281 2956 1806 2956 
z
" transform="scale(0.015625)"/>
       <path id="Roboto-Regular-6f" d="M 288 1653 
L 288 1725 
Q 288 2459 700 2951 
Q 1113 3444 1822 3444 
Q 2538 3444 2952 2951 
Q 3366 2459 3366 1725 
L 3366 1653 
Q 3366 919 2952 428 
Q 2538 -63 1828 -63 
Q 1116 -63 702 428 
Q 288 919 288 1653 
z
M 866 1725 
L 866 1653 
Q 866 1150 1105 781 
Q 1344 413 1828 413 
Q 2303 413 2543 781 
Q 2784 1150 2784 1653 
L 2784 1725 
Q 2784 2222 2543 2595 
Q 2303 2969 1822 2969 
Q 1344 2969 1105 2595 
Q 866 2222 866 1725 
z
" transform="scale(0.015625)"/>
       <path id="Roboto-Regular-63" d="M 1794 413 
Q 2103 413 2336 597 
Q 2569 781 2591 1069 
L 3141 1069 
Q 3119 616 2725 276 
Q 2331 -63 1794 -63 
Q 1031 -63 661 440 
Q 291 944 291 1625 
L 291 1756 
Q 291 2438 661 2941 
Q 1031 3444 1794 3444 
Q 2388 3444 2753 3092 
Q 3119 2741 3141 2219 
L 2591 2219 
Q 2569 2531 2355 2750 
Q 2141 2969 1794 2969 
Q 1438 2969 1236 2787 
Q 1034 2606 951 2328 
Q 869 2050 869 1756 
L 869 1625 
Q 869 1328 950 1050 
Q 1031 772 1232 592 
Q 1434 413 1794 413 
z
" transform="scale(0.015625)"/>
       <path id="Roboto-Regular-68" d="M 1844 2956 
Q 1566 2956 1353 2806 
Q 1141 2656 1019 2416 
L 1019 0 
L 441 0 
L 441 4800 
L 1019 4800 
L 1019 2978 
Q 1403 3444 2016 3444 
Q 2516 3444 2808 3162 
Q 3100 2881 3100 2216 
L 3100 0 
L 2519 0 
L 2519 2222 
Q 2519 2619 2345 2787 
Q 2172 2956 1844 2956 
z
" transform="scale(0.015625)"/>
       <path id="Roboto-Regular-73" d="M 2409 897 
Q 2409 1084 2270 1232 
Q 2131 1381 1631 1481 
Q 1066 1600 739 1819 
Q 413 2038 413 2456 
Q 413 2856 755 3150 
Q 1097 3444 1666 3444 
Q 2272 3444 2612 3134 
Q 2953 2825 2953 2388 
L 2375 2388 
Q 2375 2597 2190 2783 
Q 2006 2969 1666 2969 
Q 1306 2969 1150 2812 
Q 994 2656 994 2472 
Q 994 2284 1144 2170 
Q 1294 2056 1772 1950 
Q 2394 1806 2691 1578 
Q 2988 1350 2988 941 
Q 2988 494 2630 215 
Q 2272 -63 1681 -63 
Q 1009 -63 653 281 
Q 297 625 297 1044 
L 878 1044 
Q 897 684 1155 548 
Q 1413 413 1681 413 
Q 2034 413 2221 550 
Q 2409 688 2409 897 
z
" transform="scale(0.015625)"/>
      </defs>
      <use xlink:href="#Roboto-Regular-45"/>
      <use xlink:href="#Roboto-Regular-70" x="56.835938"/>
      <use xlink:href="#Roboto-Regular-6f" x="112.988281"/>
      <use xlink:href="#Roboto-Regular-63" x="170.019531"/>
      <use xlink:href="#Roboto-Regular-68" x="222.363281"/>
      <use xlink:href="#Roboto-Regular-73" x="277.441406"/>
     </g>
    </g>
   </g>
   <g id="matplotlib.axis_2">
    <g id="ytick_1">
     <g id="line2d_7">
      <defs>
       <path id="m18c3db01eb" d="M 0 0 
L -4 0 
" style="stroke: #000000"/>
      </defs>
      <g>
       <use xlink:href="#m18c3db01eb" x="57.0175" y="197.914773" style="stroke: #000000"/>
      </g>
     </g>
     <g id="text_8">
      <!-- $\mathdefault{10^{-6}}$ -->
      <g transform="translate(26.2375 202.414773)scale(0.12 -0.12)">
       <defs>
        <path id="Roboto-Light-2212" d="M 3128 2466 
L 3128 2147 
L 519 2147 
L 519 2466 
L 3128 2466 
z
" transform="scale(0.015625)"/>
       </defs>
       <use xlink:href="#Roboto-Light-31" transform="translate(0 0.882812)"/>
       <use xlink:href="#Roboto-Light-30" transform="translate(55.46875 0.882812)"/>
       <use xlink:href="#Roboto-Light-2212" transform="translate(111.861992 37.8625)scale(0.7)"/>
       <use xlink:href="#Roboto-Light-36" transform="translate(151.818047 37.8625)scale(0.7)"/>
      </g>
     </g>
    </g>
    <g id="ytick_2">
     <g id="line2d_8">
      <g>
       <use xlink:href="#m18c3db01eb" x="57.0175" y="138.513258" style="stroke: #000000"/>
      </g>
     </g>
     <g id="text_9">
      <!-- $\mathdefault{10^{-5}}$ -->
      <g transform="translate(26.2375 143.013258)scale(0.12 -0.12)">
       <defs>
        <path id="Roboto-Light-35" d="M 978 2250 
L 684 2334 
L 906 4550 
L 3181 4550 
L 3181 4203 
L 1228 4203 
L 1066 2666 
Q 1181 2750 1409 2834 
Q 1638 2919 1922 2919 
Q 2531 2919 2901 2525 
Q 3272 2131 3272 1450 
Q 3272 797 2945 367 
Q 2619 -63 1909 -63 
Q 1369 -63 975 246 
Q 581 556 525 1197 
L 884 1197 
Q 991 256 1909 256 
Q 2394 256 2645 565 
Q 2897 875 2897 1444 
Q 2897 1925 2626 2251 
Q 2356 2578 1856 2578 
Q 1531 2578 1337 2489 
Q 1144 2400 978 2250 
z
" transform="scale(0.015625)"/>
       </defs>
       <use xlink:href="#Roboto-Light-31" transform="translate(0 0.254688)"/>
       <use xlink:href="#Roboto-Light-30" transform="translate(55.46875 0.254688)"/>
       <use xlink:href="#Roboto-Light-2212" transform="translate(111.861992 37.234375)scale(0.7)"/>
       <use xlink:href="#Roboto-Light-35" transform="translate(151.818047 37.234375)scale(0.7)"/>
      </g>
     </g>
    </g>
    <g id="ytick_3">
     <g id="line2d_9">
      <g>
       <use xlink:href="#m18c3db01eb" x="57.0175" y="79.111742" style="stroke: #000000"/>
      </g>
     </g>
     <g id="text_10">
      <!-- $\mathdefault{10^{-4}}$ -->
      <g transform="translate(26.2375 83.611742)scale(0.12 -0.12)">
       <use xlink:href="#Roboto-Light-31" transform="translate(0 0.254688)"/>
       <use xlink:href="#Roboto-Light-30" transform="translate(55.46875 0.254688)"/>
       <use xlink:href="#Roboto-Light-2212" transform="translate(111.861992 37.234375)scale(0.7)"/>
       <use xlink:href="#Roboto-Light-34" transform="translate(151.818047 37.234375)scale(0.7)"/>
      </g>
     </g>
    </g>
    <g id="ytick_4">
     <g id="line2d_10">
      <g>
       <use xlink:href="#m18c3db01eb" x="57.0175" y="19.710227" style="stroke: #000000"/>
      </g>
     </g>
     <g id="text_11">
      <!-- $\mathdefault{10^{-3}}$ -->
      <g transform="translate(26.2375 24.210227)scale(0.12 -0.12)">
       <defs>
        <path id="Roboto-Light-33" d="M 1641 2159 
L 1263 2159 
L 1263 2481 
L 1641 2481 
Q 2166 2481 2436 2740 
Q 2706 3000 2706 3366 
Q 2706 3775 2473 4034 
Q 2241 4294 1750 4294 
Q 1322 4294 1036 4042 
Q 750 3791 750 3356 
L 378 3356 
Q 378 3909 768 4261 
Q 1159 4613 1750 4613 
Q 2350 4613 2714 4284 
Q 3078 3956 3078 3353 
Q 3078 3047 2881 2761 
Q 2684 2475 2300 2331 
Q 2750 2209 2956 1914 
Q 3163 1619 3163 1238 
Q 3163 616 2766 276 
Q 2369 -63 1766 -63 
Q 1397 -63 1064 81 
Q 731 225 520 512 
Q 309 800 309 1234 
L 684 1234 
Q 684 800 986 528 
Q 1288 256 1766 256 
Q 2250 256 2520 506 
Q 2791 756 2791 1225 
Q 2791 1719 2472 1939 
Q 2153 2159 1641 2159 
z
" transform="scale(0.015625)"/>
       </defs>
       <use xlink:href="#Roboto-Light-31" transform="translate(0 0.565625)"/>
       <use xlink:href="#Roboto-Light-30" transform="translate(55.46875 0.565625)"/>
       <use xlink:href="#Roboto-Light-2212" transform="translate(111.861992 37.545313)scale(0.7)"/>
       <use xlink:href="#Roboto-Light-33" transform="translate(151.818047 37.545313)scale(0.7)"/>
      </g>
     </g>
    </g>
    <g id="ytick_5">
     <g id="line2d_11">
      <defs>
       <path id="m724d6f75e3" d="M 0 0 
L -3 0 
" style="stroke: #000000"/>
      </defs>
      <g>
       <use xlink:href="#m724d6f75e3" x="57.0175" y="203.671374" style="stroke: #000000"/>
      </g>
     </g>
    </g>
    <g id="ytick_6">
     <g id="line2d_12">
      <g>
       <use xlink:href="#m724d6f75e3" x="57.0175" y="200.632837" style="stroke: #000000"/>
      </g>
     </g>
    </g>
    <g id="ytick_7">
     <g id="line2d_13">
      <g>
       <use xlink:href="#m724d6f75e3" x="57.0175" y="180.033135" style="stroke: #000000"/>
      </g>
     </g>
    </g>
    <g id="ytick_8">
     <g id="line2d_14">
      <g>
       <use xlink:href="#m724d6f75e3" x="57.0175" y="169.573047" style="stroke: #000000"/>
      </g>
     </g>
    </g>
    <g id="ytick_9">
     <g id="line2d_15">
      <g>
       <use xlink:href="#m724d6f75e3" x="57.0175" y="162.151497" style="stroke: #000000"/>
      </g>
     </g>
    </g>
    <g id="ytick_10">
     <g id="line2d_16">
      <g>
       <use xlink:href="#m724d6f75e3" x="57.0175" y="156.394895" style="stroke: #000000"/>
      </g>
     </g>
    </g>
    <g id="ytick_11">
     <g id="line2d_17">
      <g>
       <use xlink:href="#m724d6f75e3" x="57.0175" y="151.691409" style="stroke: #000000"/>
      </g>
     </g>
    </g>
    <g id="ytick_12">
     <g id="line2d_18">
      <g>
       <use xlink:href="#m724d6f75e3" x="57.0175" y="147.714669" style="stroke: #000000"/>
      </g>
     </g>
    </g>
    <g id="ytick_13">
     <g id="line2d_19">
      <g>
       <use xlink:href="#m724d6f75e3" x="57.0175" y="144.269859" style="stroke: #000000"/>
      </g>
     </g>
    </g>
    <g id="ytick_14">
     <g id="line2d_20">
      <g>
       <use xlink:href="#m724d6f75e3" x="57.0175" y="141.231322" style="stroke: #000000"/>
      </g>
     </g>
    </g>
    <g id="ytick_15">
     <g id="line2d_21">
      <g>
       <use xlink:href="#m724d6f75e3" x="57.0175" y="120.63162" style="stroke: #000000"/>
      </g>
     </g>
    </g>
    <g id="ytick_16">
     <g id="line2d_22">
      <g>
       <use xlink:href="#m724d6f75e3" x="57.0175" y="110.171532" style="stroke: #000000"/>
      </g>
     </g>
    </g>
    <g id="ytick_17">
     <g id="line2d_23">
      <g>
       <use xlink:href="#m724d6f75e3" x="57.0175" y="102.749982" style="stroke: #000000"/>
      </g>
     </g>
    </g>
    <g id="ytick_18">
     <g id="line2d_24">
      <g>
       <use xlink:href="#m724d6f75e3" x="57.0175" y="96.99338" style="stroke: #000000"/>
      </g>
     </g>
    </g>
    <g id="ytick_19">
     <g id="line2d_25">
      <g>
       <use xlink:href="#m724d6f75e3" x="57.0175" y="92.289894" style="stroke: #000000"/>
      </g>
     </g>
    </g>
    <g id="ytick_20">
     <g id="line2d_26">
      <g>
       <use xlink:href="#m724d6f75e3" x="57.0175" y="88.313154" style="stroke: #000000"/>
      </g>
     </g>
    </g>
    <g id="ytick_21">
     <g id="line2d_27">
      <g>
       <use xlink:href="#m724d6f75e3" x="57.0175" y="84.868344" style="stroke: #000000"/>
      </g>
     </g>
    </g>
    <g id="ytick_22">
     <g id="line2d_28">
      <g>
       <use xlink:href="#m724d6f75e3" x="57.0175" y="81.829807" style="stroke: #000000"/>
      </g>
     </g>
    </g>
    <g id="ytick_23">
     <g id="line2d_29">
      <g>
       <use xlink:href="#m724d6f75e3" x="57.0175" y="61.230105" style="stroke: #000000"/>
      </g>
     </g>
    </g>
    <g id="ytick_24">
     <g id="line2d_30">
      <g>
       <use xlink:href="#m724d6f75e3" x="57.0175" y="50.770017" style="stroke: #000000"/>
      </g>
     </g>
    </g>
    <g id="ytick_25">
     <g id="line2d_31">
      <g>
       <use xlink:href="#m724d6f75e3" x="57.0175" y="43.348467" style="stroke: #000000"/>
      </g>
     </g>
    </g>
    <g id="ytick_26">
     <g id="line2d_32">
      <g>
       <use xlink:href="#m724d6f75e3" x="57.0175" y="37.591865" style="stroke: #000000"/>
      </g>
     </g>
    </g>
    <g id="ytick_27">
     <g id="line2d_33">
      <g>
       <use xlink:href="#m724d6f75e3" x="57.0175" y="32.888379" style="stroke: #000000"/>
      </g>
     </g>
    </g>
    <g id="ytick_28">
     <g id="line2d_34">
      <g>
       <use xlink:href="#m724d6f75e3" x="57.0175" y="28.911638" style="stroke: #000000"/>
      </g>
     </g>
    </g>
    <g id="ytick_29">
     <g id="line2d_35">
      <g>
       <use xlink:href="#m724d6f75e3" x="57.0175" y="25.466829" style="stroke: #000000"/>
      </g>
     </g>
    </g>
    <g id="ytick_30">
     <g id="line2d_36">
      <g>
       <use xlink:href="#m724d6f75e3" x="57.0175" y="22.428292" style="stroke: #000000"/>
      </g>
     </g>
    </g>
    <g id="text_12">
     <!-- $\eta$ / Learning rate -->
     <g transform="translate(19.7175 153.2125)rotate(-90)scale(0.12 -0.12)">
      <defs>
       <path id="DejaVuSans-Oblique-3b7" d="M 3703 2113 
L 3034 -1331 
L 2459 -1331 
L 3125 2094 
Q 3222 2591 3075 2838 
Q 2931 3084 2544 3084 
Q 2078 3084 1750 2788 
Q 1425 2491 1325 1978 
L 941 0 
L 363 0 
L 1044 3500 
L 1622 3500 
L 1516 2956 
Q 1781 3272 2094 3428 
Q 2403 3584 2769 3584 
Q 3372 3584 3609 3213 
Q 3844 2838 3703 2113 
z
" transform="scale(0.015625)"/>
       <path id="Roboto-Regular-20" transform="scale(0.015625)"/>
       <path id="Roboto-Regular-2f" d="M 2453 4550 
L 556 -391 
L 59 -391 
L 1959 4550 
L 2453 4550 
z
" transform="scale(0.015625)"/>
       <path id="Roboto-Regular-4c" d="M 3288 491 
L 3288 0 
L 528 0 
L 528 4550 
L 1131 4550 
L 1131 491 
L 3288 491 
z
" transform="scale(0.015625)"/>
       <path id="Roboto-Regular-65" d="M 3116 591 
Q 2950 341 2647 139 
Q 2344 -63 1844 -63 
Q 1138 -63 714 396 
Q 291 856 291 1572 
L 291 1703 
Q 291 2256 502 2645 
Q 713 3034 1050 3239 
Q 1388 3444 1769 3444 
Q 2494 3444 2826 2970 
Q 3159 2497 3159 1788 
L 3159 1528 
L 872 1528 
Q 884 1063 1148 736 
Q 1413 409 1875 409 
Q 2181 409 2393 534 
Q 2606 659 2766 869 
L 3116 591 
z
M 1769 2969 
Q 1425 2969 1187 2719 
Q 950 2469 891 2000 
L 2581 2000 
L 2581 2044 
Q 2559 2381 2386 2675 
Q 2213 2969 1769 2969 
z
" transform="scale(0.015625)"/>
       <path id="Roboto-Regular-61" d="M 2528 0 
Q 2472 122 2447 356 
Q 2284 184 2040 60 
Q 1797 -63 1484 -63 
Q 966 -63 653 228 
Q 341 519 341 941 
Q 341 1484 753 1767 
Q 1166 2050 1863 2050 
L 2434 2050 
L 2434 2319 
Q 2434 2619 2254 2798 
Q 2075 2978 1722 2978 
Q 1394 2978 1192 2817 
Q 991 2656 991 2444 
L 413 2444 
Q 413 2806 778 3125 
Q 1144 3444 1756 3444 
Q 2306 3444 2659 3162 
Q 3013 2881 3013 2313 
L 3013 738 
Q 3013 569 3042 378 
Q 3072 188 3131 50 
L 3131 0 
L 2528 0 
z
M 1569 444 
Q 1881 444 2111 600 
Q 2341 756 2434 947 
L 2434 1644 
L 1956 1644 
Q 922 1644 922 1019 
Q 922 778 1084 611 
Q 1247 444 1569 444 
z
" transform="scale(0.015625)"/>
       <path id="Roboto-Regular-72" d="M 1791 2888 
Q 1494 2888 1303 2755 
Q 1113 2622 1019 2400 
L 1019 0 
L 441 0 
L 441 3381 
L 1003 3381 
L 1016 2994 
Q 1144 3200 1342 3322 
Q 1541 3444 1819 3444 
Q 1981 3444 2075 3400 
L 2072 2863 
Q 1944 2888 1791 2888 
z
" transform="scale(0.015625)"/>
       <path id="Roboto-Regular-6e" d="M 1844 2956 
Q 1566 2956 1353 2806 
Q 1141 2656 1019 2416 
L 1019 0 
L 441 0 
L 441 3381 
L 988 3381 
L 1006 2959 
Q 1391 3444 2016 3444 
Q 2516 3444 2808 3162 
Q 3100 2881 3100 2216 
L 3100 0 
L 2519 0 
L 2519 2222 
Q 2519 2619 2345 2787 
Q 2172 2956 1844 2956 
z
" transform="scale(0.015625)"/>
       <path id="Roboto-Regular-69" d="M 444 4278 
Q 444 4419 530 4516 
Q 616 4613 784 4613 
Q 950 4613 1039 4516 
Q 1128 4419 1128 4278 
Q 1128 4144 1039 4048 
Q 950 3953 784 3953 
Q 616 3953 530 4048 
Q 444 4144 444 4278 
z
M 1069 3381 
L 1069 0 
L 488 0 
L 488 3381 
L 1069 3381 
z
" transform="scale(0.015625)"/>
       <path id="Roboto-Regular-67" d="M 3156 72 
Q 3156 -600 2756 -967 
Q 2356 -1334 1725 -1334 
Q 1463 -1334 1081 -1206 
Q 700 -1078 472 -747 
L 775 -403 
Q 988 -663 1219 -761 
Q 1450 -859 1681 -859 
Q 2091 -859 2334 -629 
Q 2578 -400 2578 44 
L 2578 341 
Q 2234 -63 1631 -63 
Q 1022 -63 662 425 
Q 303 913 303 1653 
L 303 1719 
Q 303 2494 661 2969 
Q 1019 3444 1638 3444 
Q 2259 3444 2603 3006 
L 2631 3381 
L 3156 3381 
L 3156 72 
z
M 881 1653 
Q 881 1150 1092 789 
Q 1303 428 1772 428 
Q 2081 428 2273 568 
Q 2466 709 2578 928 
L 2578 2469 
Q 2469 2678 2275 2817 
Q 2081 2956 1778 2956 
Q 1306 2956 1093 2589 
Q 881 2222 881 1719 
L 881 1653 
z
" transform="scale(0.015625)"/>
       <path id="Roboto-Regular-74" d="M 1872 0 
Q 1803 -22 1692 -42 
Q 1581 -63 1425 -63 
Q 1103 -63 875 134 
Q 647 331 647 841 
L 647 2938 
L 28 2938 
L 28 3381 
L 647 3381 
L 647 4203 
L 1225 4203 
L 1225 3381 
L 1856 3381 
L 1856 2938 
L 1225 2938 
L 1225 838 
Q 1225 578 1337 506 
Q 1450 434 1597 434 
Q 1669 434 1748 448 
Q 1828 463 1869 472 
L 1872 0 
z
" transform="scale(0.015625)"/>
      </defs>
      <use xlink:href="#DejaVuSans-Oblique-3b7" transform="translate(0 0.921875)"/>
      <use xlink:href="#Roboto-Regular-20" transform="translate(63.378906 0.921875)"/>
      <use xlink:href="#Roboto-Regular-2f" transform="translate(88.183594 0.921875)"/>
      <use xlink:href="#Roboto-Regular-20" transform="translate(129.443359 0.921875)"/>
      <use xlink:href="#Roboto-Regular-4c" transform="translate(154.248047 0.921875)"/>
      <use xlink:href="#Roboto-Regular-65" transform="translate(208.105469 0.921875)"/>
      <use xlink:href="#Roboto-Regular-61" transform="translate(261.132812 0.921875)"/>
      <use xlink:href="#Roboto-Regular-72" transform="translate(315.527344 0.921875)"/>
      <use xlink:href="#Roboto-Regular-6e" transform="translate(349.414062 0.921875)"/>
      <use xlink:href="#Roboto-Regular-69" transform="translate(404.638672 0.921875)"/>
      <use xlink:href="#Roboto-Regular-6e" transform="translate(428.955078 0.921875)"/>
      <use xlink:href="#Roboto-Regular-67" transform="translate(484.179688 0.921875)"/>
      <use xlink:href="#Roboto-Regular-20" transform="translate(540.332031 0.921875)"/>
      <use xlink:href="#Roboto-Regular-72" transform="translate(565.136719 0.921875)"/>
      <use xlink:href="#Roboto-Regular-61" transform="translate(599.023438 0.921875)"/>
      <use xlink:href="#Roboto-Regular-74" transform="translate(653.417969 0.921875)"/>
      <use xlink:href="#Roboto-Regular-65" transform="translate(686.132812 0.921875)"/>
     </g>
    </g>
   </g>
   <g id="line2d_37">
    <path d="M 73.57125 19.710227 
L 74.234063 20.018622 
L 74.896876 20.531848 
L 75.891095 21.69156 
L 76.885314 23.333705 
L 77.879533 25.483903 
L 78.873753 28.179806 
L 79.867972 31.474427 
L 80.862191 35.441417 
L 81.85641 40.183517 
L 82.850629 45.846592 
L 83.844849 52.644043 
L 84.839068 60.902191 
L 85.833287 71.152375 
L 86.827506 84.341719 
L 87.490319 95.643824 
L 88.153132 110.183959 
L 88.815945 130.287224 
L 89.478758 161.54011 
L 89.810164 183.736273 
L 90.14157 197.862669 
L 90.804383 159.888137 
L 91.467196 129.86337 
L 92.130009 110.560679 
L 92.792822 96.645477 
L 93.787041 81.333777 
L 94.78126 69.998927 
L 95.775479 61.18292 
L 96.769698 54.130051 
L 97.763918 48.400191 
L 98.758137 43.715986 
L 99.752356 39.892733 
L 100.746575 36.802584 
L 101.740795 34.354765 
L 102.735014 32.483993 
L 103.729233 31.143385 
L 104.392046 30.527438 
L 105.054859 30.125329 
L 105.717671 29.932072 
L 106.380484 29.944453 
L 107.043297 30.160926 
L 107.70611 30.581565 
L 108.368923 31.208063 
L 109.363142 32.541651 
L 110.357361 34.365501 
L 111.35158 36.709266 
L 112.3458 39.61563 
L 113.340019 43.144223 
L 114.334238 47.377824 
L 115.328457 52.432395 
L 116.322676 58.473958 
L 117.316896 65.748506 
L 118.311115 74.638987 
L 119.305334 85.784618 
L 120.299553 100.365319 
L 120.962366 113.132719 
L 121.625179 130.011627 
L 122.287992 154.206619 
L 122.950805 189.364235 
L 123.282211 197.602148 
L 123.613617 184.02244 
L 124.27643 150.45251 
L 124.939243 128.114805 
L 125.602056 112.430009 
L 126.596275 95.569617 
L 127.590494 83.306467 
L 128.584713 73.865944 
L 129.578933 66.358174 
L 130.573152 60.277047 
L 131.567371 55.30905 
L 132.56159 51.24797 
L 133.55581 47.952298 
L 134.550029 45.322093 
L 135.544248 43.285606 
L 136.538467 41.79117 
L 137.532686 40.802132 
L 138.195499 40.410859 
L 138.858312 40.22808 
L 139.521125 40.250672 
L 140.183938 40.477172 
L 140.846751 40.907729 
L 141.509563 41.544111 
L 142.503783 42.892616 
L 143.498002 44.731709 
L 144.492221 47.091307 
L 145.48644 50.014391 
L 146.480659 53.560937 
L 147.474879 57.814144 
L 148.469098 62.890484 
L 149.463317 68.956575 
L 150.457536 76.259001 
L 151.451756 85.180838 
L 152.445975 96.358959 
L 153.440194 110.958668 
L 154.103007 123.697185 
L 154.76582 140.397281 
L 155.428632 163.66506 
L 156.091445 193.103695 
L 156.422852 197.335909 
L 156.754258 186.364314 
L 157.417071 157.576838 
L 158.079884 136.718927 
L 158.742696 121.634104 
L 159.736916 105.184903 
L 160.731135 93.125083 
L 161.725354 83.804975 
L 162.719573 76.377111 
L 163.713793 70.35335 
L 164.708012 65.429008 
L 165.702231 61.402686 
L 166.69645 58.135721 
L 167.690669 55.529962 
L 168.684889 53.514847 
L 169.679108 52.03953 
L 170.673327 51.067953 
L 171.33614 50.687626 
L 171.998953 50.515364 
L 172.661766 50.548137 
L 173.324578 50.784564 
L 173.987391 51.224868 
L 174.650204 51.870885 
L 175.644423 53.23377 
L 176.638642 55.087341 
L 177.632862 57.461712 
L 178.627081 60.400063 
L 179.6213 63.962564 
L 180.615519 68.232583 
L 181.609738 73.32668 
L 182.603958 79.411314 
L 183.598177 86.732215 
L 184.592396 95.669516 
L 185.586615 106.850346 
L 186.580835 121.403898 
L 187.243647 134.016824 
L 187.90646 150.315736 
L 188.569273 172.052321 
L 189.232086 195.381385 
L 189.563492 197.157205 
L 189.894899 188.483665 
L 190.889118 153.925755 
L 191.551931 137.37691 
L 192.54615 119.457548 
L 193.540369 106.474331 
L 194.534588 96.524569 
L 195.528808 88.636167 
L 196.523027 82.256513 
L 197.517246 77.044809 
L 198.511465 72.777953 
L 199.505684 69.303424 
L 200.499904 66.513755 
L 201.494123 64.331808 
L 202.488342 62.701879 
L 203.482561 61.584138 
L 204.145374 61.10952 
L 204.808187 60.844538 
L 205.471 60.78541 
L 206.133813 60.930025 
L 206.796625 61.277883 
L 207.459438 61.830074 
L 208.453657 63.047889 
L 209.447877 64.748497 
L 210.442096 66.958382 
L 211.436315 69.716086 
L 212.430534 73.075557 
L 213.424754 77.111409 
L 214.418973 81.927288 
L 215.413192 87.66958 
L 216.407411 94.550857 
L 217.40163 102.892268 
L 218.39585 113.205567 
L 219.390069 126.364275 
L 220.052882 137.46263 
L 220.715694 151.301901 
L 221.378507 168.903516 
L 222.372726 196.668279 
L 222.704133 197.076995 
L 223.035539 190.342842 
L 224.361165 153.016338 
L 225.355384 133.788824 
L 226.349603 119.89181 
L 227.343823 109.303213 
L 228.338042 100.944499 
L 229.332261 94.201117 
L 230.32648 88.696116 
L 231.320699 84.184279 
L 232.314919 80.498866 
L 233.309138 77.522818 
L 234.303357 75.172233 
L 235.297576 73.386417 
L 236.291796 72.121682 
L 236.954608 71.552439 
L 237.617421 71.19457 
L 238.280234 71.043533 
L 238.943047 71.096492 
L 239.60586 71.352229 
L 240.268672 71.8111 
L 240.931485 72.47505 
L 241.925704 73.86383 
L 242.919924 75.74226 
L 243.914143 78.140517 
L 244.908362 81.101654 
L 245.902581 84.68541 
L 246.896801 88.974169 
L 247.89102 94.082435 
L 248.885239 100.172391 
L 249.879458 107.480483 
L 250.873677 116.365153 
L 251.867897 127.396759 
L 252.862116 141.529049 
L 253.856335 160.341108 
L 255.513367 197.348183 
L 255.844774 197.076247 
L 256.17618 191.928824 
L 258.164618 147.932222 
L 259.158838 133.261479 
L 260.153057 122.073931 
L 261.147276 113.258049 
L 262.141495 106.155472 
L 263.135714 100.358604 
L 264.129934 95.602047 
L 265.124153 91.705586 
L 266.118372 88.542881 
L 267.112591 86.023399 
L 268.106811 84.081515 
L 269.10103 82.66972 
L 270.095249 81.754275 
L 270.758062 81.4081 
L 271.420875 81.267823 
L 272.083687 81.33071 
L 272.7465 81.595622 
L 273.409313 82.062969 
L 274.072126 82.734728 
L 275.066345 84.133983 
L 276.060564 86.021315 
L 277.054784 88.426647 
L 278.049003 91.392525 
L 279.043222 94.977778 
L 280.037441 99.263177 
L 281.03166 104.360327 
L 282.02588 110.425971 
L 283.020099 117.685708 
L 284.014318 126.474457 
L 285.008537 137.305536 
L 286.002757 150.972318 
L 286.996976 168.51513 
L 288.322601 194.662115 
L 288.654008 197.683603 
L 288.985414 197.129252 
L 289.316821 193.248304 
L 290.31104 173.803236 
L 291.305259 155.959915 
L 292.299478 142.160652 
L 293.293697 131.411505 
L 294.287917 122.847967 
L 295.282136 115.905567 
L 296.276355 110.217993 
L 297.270574 105.540224 
L 298.264794 101.703045 
L 299.259013 98.586485 
L 300.253232 96.10391 
L 301.247451 94.192186 
L 302.24167 92.805445 
L 303.23589 91.911052 
L 303.898702 91.577069 
L 304.561515 91.447694 
L 305.224328 91.520309 
L 305.887141 91.793845 
L 306.549954 92.268755 
L 307.212767 92.947021 
L 308.206986 94.353978 
L 309.201205 96.246272 
L 310.195424 98.653256 
L 311.189643 101.616483 
L 312.183863 105.193111 
L 313.178082 109.461093 
L 314.172301 114.527135 
L 315.16652 120.539076 
L 316.160739 127.705308 
L 317.154959 136.324772 
L 318.149178 146.827654 
L 319.143397 159.790889 
L 320.137616 175.632561 
L 321.131836 192.140761 
L 321.463242 195.996306 
L 321.794648 197.83551 
L 322.126055 197.212915 
L 322.457461 194.321961 
L 323.120274 184.558224 
L 324.4459 163.422042 
L 325.440119 150.677843 
L 326.434338 140.479208 
L 327.428557 132.236416 
L 328.422777 125.497783 
L 329.416996 119.94851 
L 330.411215 115.369518 
L 331.405434 111.605746 
L 332.399653 108.54546 
L 333.393873 106.107066 
L 334.388092 104.230643 
L 335.382311 102.872422 
L 336.37653 102.001161 
L 337.039343 101.680071 
L 337.702156 101.561786 
L 338.364969 101.643807 
L 339.027782 101.925137 
L 339.690594 102.406247 
L 340.684814 103.50718 
L 341.679033 105.07551 
L 342.673252 107.133027 
L 343.667471 109.711639 
L 344.66169 112.855663 
L 345.65591 116.625267 
L 346.650129 121.101563 
L 347.644348 126.394082 
L 348.638567 132.651597 
L 349.632787 140.076821 
L 350.627006 148.941796 
L 351.621225 159.580789 
L 352.946851 176.854171 
L 354.272476 194.231004 
L 354.603883 196.809214 
L 354.935289 197.89563 
L 355.266695 197.309617 
L 355.598102 195.178761 
L 356.260915 187.820309 
L 358.249353 162.29299 
L 359.243572 152.143316 
L 360.237792 143.787754 
L 361.232011 136.8902 
L 362.22623 131.174029 
L 363.220449 126.432597 
L 364.214668 122.514158 
L 365.208888 119.306953 
L 366.203107 116.728152 
L 367.197326 114.716188 
L 368.191545 113.22553 
L 369.185765 112.223134 
L 369.848577 111.814434 
L 370.51139 111.607727 
L 371.174203 111.599914 
L 371.837016 111.78935 
L 372.499829 112.175797 
L 373.162641 112.760412 
L 374.156861 114.014949 
L 375.15108 115.736609 
L 376.145299 117.94894 
L 377.139518 120.685404 
L 378.133737 123.991531 
L 379.127957 127.928017 
L 380.122176 132.574962 
L 381.116395 138.037404 
L 382.110614 144.451444 
L 383.104834 151.987262 
L 384.430459 164.100302 
L 385.756085 178.633067 
L 387.08171 193.050876 
L 387.413117 195.6085 
L 387.744523 197.291346 
L 388.07593 197.913347 
L 388.407336 197.407333 
L 388.738742 195.851083 
L 389.401555 190.409251 
L 392.715619 157.378328 
L 394.041245 147.890144 
L 395.366871 140.389097 
L 396.692496 134.487935 
L 397.686715 130.937617 
L 398.680935 128.038194 
L 399.675154 125.723123 
L 400.669373 123.942109 
L 401.663592 122.657661 
L 402.657812 121.842629 
L 403.320624 121.550603 
L 403.983437 121.455231 
L 404.64625 121.554299 
L 404.64625 121.554299 
" clip-path="url(#p30f509b3a6)" style="fill: none; stroke: #ffffcc; stroke-linecap: square"/>
   </g>
   <g id="line2d_38">
    <path d="M 73.57125 19.710227 
L 74.234063 20.225001 
L 75.228282 21.381896 
L 76.222501 23.009724 
L 77.21672 25.127267 
L 78.21094 27.76384 
L 79.205159 30.961718 
L 80.199378 34.780004 
L 81.193597 39.300772 
L 82.187817 44.638992 
L 83.182036 50.959218 
L 84.176255 58.505177 
L 85.170474 67.656121 
L 86.164693 79.044936 
L 87.158913 93.840558 
L 87.821725 106.728283 
L 88.484538 123.715171 
L 89.147351 148.145695 
L 90.14157 197.872114 
L 90.472977 183.867919 
L 91.13579 147.738836 
L 91.798602 124.697756 
L 92.461415 108.829519 
L 93.124228 96.941808 
L 94.118447 83.544136 
L 95.112666 73.493384 
L 96.106886 65.649785 
L 97.101105 59.393412 
L 98.095324 54.351624 
L 99.089543 50.284415 
L 100.083763 47.029484 
L 101.077982 44.473311 
L 102.072201 42.534798 
L 103.06642 41.155525 
L 103.729233 40.525507 
L 104.392046 40.116111 
L 105.054859 39.920414 
L 105.717671 39.933429 
L 106.380484 40.151935 
L 107.043297 40.574378 
L 107.70611 41.200815 
L 108.700329 42.527074 
L 109.694548 44.329274 
L 110.688768 46.629658 
L 111.682987 49.461658 
L 112.677206 52.872728 
L 113.671425 56.928822 
L 114.665644 61.721499 
L 115.659864 67.379508 
L 116.654083 74.088437 
L 117.648302 82.12599 
L 118.642521 91.930114 
L 119.63674 104.243628 
L 120.63096 120.460743 
L 121.293773 134.791423 
L 121.956585 153.811796 
L 122.950805 192.860955 
L 123.282211 197.742835 
L 123.613617 189.424091 
L 124.607837 151.997604 
L 125.270649 134.726962 
L 125.933462 121.800141 
L 126.927681 107.347998 
L 127.921901 96.595708 
L 128.91612 88.249232 
L 129.910339 81.610301 
L 130.904558 76.263434 
L 131.898778 71.943417 
L 132.892997 68.472145 
L 133.887216 65.725634 
L 134.881435 63.615509 
L 135.875654 62.07804 
L 136.869874 61.067383 
L 137.532686 60.669902 
L 138.195499 60.485241 
L 138.858312 60.508529 
L 139.521125 60.736641 
L 140.183938 61.16809 
L 140.846751 61.802987 
L 141.84097 63.140979 
L 142.835189 64.953784 
L 143.829408 67.263569 
L 144.823627 70.103537 
L 145.817847 73.520677 
L 146.812066 77.580093 
L 147.806285 82.371809 
L 148.800504 88.021721 
L 149.794723 94.709887 
L 150.788943 102.702513 
L 151.783162 112.411222 
L 152.777381 124.50986 
L 153.7716 140.172833 
L 154.434413 153.569687 
L 155.428632 179.635338 
L 156.091445 196.033524 
L 156.422852 197.700521 
L 156.754258 193.067102 
L 158.742696 145.875308 
L 159.736916 130.774442 
L 160.731135 119.475638 
L 161.725354 110.699592 
L 162.719573 103.717912 
L 163.713793 98.089717 
L 164.708012 93.532013 
L 165.702231 89.854457 
L 166.69645 86.92447 
L 167.690669 84.647447 
L 168.684889 82.954962 
L 169.679108 81.797481 
L 170.341921 81.30514 
L 171.004733 81.02709 
L 171.667546 80.957703 
L 172.330359 81.093117 
L 172.993172 81.43111 
L 173.655985 81.971033 
L 174.650204 83.161931 
L 175.644423 84.819313 
L 176.638642 86.961605 
L 177.632862 89.617231 
L 178.627081 92.82678 
L 179.6213 96.646388 
L 180.615519 101.152947 
L 181.609738 106.45218 
L 182.603958 112.691433 
L 183.598177 120.080342 
L 184.592396 128.924711 
L 185.586615 139.680131 
L 186.580835 153.015203 
L 187.575054 169.697584 
L 188.900679 193.961917 
L 189.232086 197.264888 
L 189.563492 197.726146 
L 189.894899 195.263262 
L 190.557711 184.934288 
L 191.883337 162.113477 
L 192.877556 148.777479 
L 193.871776 138.334943 
L 194.865995 130.035651 
L 195.860214 123.347134 
L 196.854433 117.9127 
L 197.848652 113.490071 
L 198.842872 109.910479 
L 199.837091 107.053613 
L 200.83131 104.832225 
L 201.825529 103.182483 
L 202.819748 102.05778 
L 203.482561 101.58271 
L 204.145374 101.318713 
L 204.808187 101.260412 
L 205.471 101.404097 
L 206.133813 101.74761 
L 206.796625 102.29028 
L 207.790845 103.47983 
L 208.785064 105.128558 
L 209.779283 107.253471 
L 210.773502 109.880699 
L 211.767721 113.047226 
L 212.761941 116.803508 
L 214.087566 122.84951 
L 215.413192 130.293911 
L 216.738818 139.469787 
L 217.733037 147.769193 
L 218.727256 157.55891 
L 220.052882 173.223413 
L 221.709914 193.671803 
L 222.04132 196.275341 
L 222.372726 197.704067 
L 222.704133 197.774651 
L 223.035539 196.507593 
L 223.698352 190.922669 
L 226.68101 158.559614 
L 227.675229 150.598729 
L 228.669448 144.024844 
L 229.663667 138.599425 
L 230.657887 134.132487 
L 231.652106 130.479895 
L 232.646325 127.533409 
L 233.640544 125.211734 
L 234.634764 123.453797 
L 235.628983 122.213962 
L 236.291796 121.658249 
L 236.954608 121.310234 
L 237.617421 121.164162 
L 238.280234 121.215816 
L 238.943047 121.462396 
L 239.60586 121.902443 
L 240.600079 122.925239 
L 241.594298 124.388068 
L 242.588517 126.302371 
L 243.582736 128.686673 
L 244.576956 131.567362 
L 245.902581 136.24293 
L 247.228207 141.97745 
L 248.553833 148.919499 
L 249.879458 157.245861 
L 251.205084 167.102777 
L 253.193522 184.201223 
L 254.187741 192.214261 
L 254.850554 196.070613 
L 255.181961 197.258085 
L 255.513367 197.851262 
L 255.844774 197.820714 
L 256.17618 197.183334 
L 256.507586 195.99844 
L 257.170399 192.355487 
L 258.496025 182.633266 
L 260.153057 170.626607 
L 261.478682 162.609703 
L 262.804308 156.100235 
L 264.129934 150.934995 
L 265.124153 147.836399 
L 266.118372 145.331331 
L 267.112591 143.368194 
L 268.106811 141.905856 
L 269.10103 140.912264 
L 269.763843 140.498013 
L 270.426655 140.275672 
L 271.089468 140.240952 
L 271.752281 140.390678 
L 272.415094 140.722716 
L 273.409313 141.560345 
L 274.403532 142.80583 
L 275.397752 144.463697 
L 276.391971 146.54275 
L 277.38619 149.055796 
L 278.711816 153.110091 
L 280.037441 158.008809 
L 281.363067 163.789187 
L 283.020099 172.240138 
L 286.996976 194.057132 
L 287.659789 196.3485 
L 288.322601 197.65719 
L 288.654008 197.897507 
L 288.985414 197.855754 
L 289.316821 197.540087 
L 289.648227 196.967967 
L 290.31104 195.159151 
L 291.305259 191.260596 
L 295.613542 172.214487 
L 296.939168 167.782004 
L 298.264794 164.215479 
L 299.259013 162.085166 
L 300.253232 160.397986 
L 301.247451 159.13328 
L 302.24167 158.272705 
L 303.23589 157.800821 
L 303.898702 157.695906 
L 304.561515 157.755181 
L 305.224328 157.976206 
L 306.218547 158.60688 
L 307.212767 159.592389 
L 308.206986 160.929593 
L 309.201205 162.616309 
L 310.526831 165.404821 
L 311.852456 168.799344 
L 313.178082 172.771709 
L 314.835114 178.44402 
L 319.143397 193.774162 
L 320.137616 196.175163 
L 320.800429 197.241139 
L 321.463242 197.815311 
L 321.794648 197.910817 
L 322.126055 197.87948 
L 322.788868 197.45274 
L 323.45168 196.587488 
L 324.114493 195.359358 
L 325.108712 193.026026 
L 327.428557 186.654318 
L 329.416996 181.520015 
L 330.742621 178.64295 
L 332.068247 176.295991 
L 333.062466 174.899663 
L 334.056685 173.817313 
L 335.050905 173.04619 
L 336.045124 172.581323 
L 337.039343 172.416582 
L 338.033562 172.545195 
L 339.027782 172.959899 
L 340.022001 173.652777 
L 341.01622 174.614841 
L 342.341846 176.297346 
L 343.667471 178.405093 
L 345.324503 181.561034 
L 347.312942 185.903656 
L 350.627006 193.21932 
L 351.952631 195.54003 
L 352.946851 196.824288 
L 353.609663 197.417059 
L 354.272476 197.781823 
L 354.935289 197.914133 
L 355.598102 197.819333 
L 356.260915 197.511938 
L 357.255134 196.702229 
L 358.249353 195.560652 
L 359.906385 193.206281 
L 363.551856 187.850107 
L 364.877481 186.27374 
L 366.203107 185.012555 
L 367.528732 184.098894 
L 368.522952 183.651044 
L 369.517171 183.408615 
L 370.51139 183.369925 
L 371.505609 183.530635 
L 372.499829 183.88395 
L 373.825454 184.638236 
L 375.15108 185.688585 
L 376.808112 187.356353 
L 378.79655 189.735479 
L 383.104834 195.05628 
L 384.430459 196.330331 
L 385.756085 197.263217 
L 386.750304 197.70072 
L 387.744523 197.900601 
L 388.738742 197.867127 
L 389.732962 197.618517 
L 391.058587 197.004823 
L 392.715619 195.913459 
L 398.349528 191.815693 
L 400.00656 191.011844 
L 401.332186 190.590192 
L 402.657812 190.37896 
L 403.983437 190.380106 
L 404.64625 190.458538 
L 404.64625 190.458538 
" clip-path="url(#p30f509b3a6)" style="fill: none; stroke: #febf5a; stroke-linecap: square"/>
   </g>
   <g id="line2d_39">
    <path d="M 73.57125 19.710227 
L 74.565469 20.868643 
L 75.559688 22.490533 
L 76.553908 24.588492 
L 77.548127 27.184578 
L 78.542346 30.312053 
L 79.536565 34.018213 
L 80.862191 39.977223 
L 82.187817 47.317206 
L 83.182036 53.944089 
L 84.176255 61.794734 
L 85.170474 71.24654 
L 86.164693 82.927868 
L 87.158913 97.994291 
L 87.821725 111.028946 
L 88.484538 128.077999 
L 89.147351 152.236011 
L 90.14157 197.879849 
L 90.472977 185.950404 
L 91.13579 152.355768 
L 91.798602 130.009586 
L 92.461415 114.508853 
L 93.124228 102.899322 
L 94.118447 89.862207 
L 95.112666 80.145907 
L 96.106886 72.625932 
L 97.101105 66.687839 
L 98.095324 61.961352 
L 99.089543 58.207619 
L 100.083763 55.264957 
L 101.077982 53.020193 
L 102.072201 51.392432 
L 102.735014 50.620514 
L 103.397827 50.083562 
L 104.060639 49.771283 
L 104.723452 49.675704 
L 105.386265 49.790892 
L 106.049078 50.112749 
L 106.711891 50.638883 
L 107.70611 51.809853 
L 108.700329 53.443261 
L 109.694548 55.55172 
L 110.688768 58.157206 
L 111.682987 61.292744 
L 113.008612 66.381438 
L 114.334238 72.66203 
L 115.659864 80.389603 
L 116.654083 87.372099 
L 117.648302 95.661027 
L 118.642521 105.673043 
L 119.63674 118.097602 
L 120.63096 134.165538 
L 121.293773 147.980335 
L 121.956585 165.428617 
L 122.950805 195.010235 
L 123.282211 197.820326 
L 123.613617 192.93507 
L 125.270649 148.977275 
L 126.264869 131.914091 
L 127.259088 119.570611 
L 128.253307 110.212517 
L 129.247526 102.90492 
L 130.241745 97.104992 
L 131.235965 92.474515 
L 132.230184 88.790808 
L 133.224403 85.90109 
L 134.218622 83.697422 
L 135.212842 82.102137 
L 135.875654 81.348127 
L 136.538467 80.826598 
L 137.20128 80.527562 
L 137.864093 80.443272 
L 138.526906 80.567949 
L 139.189718 80.897593 
L 139.852531 81.429848 
L 140.846751 82.606841 
L 141.84097 84.24221 
L 142.835189 86.347953 
L 143.829408 88.944984 
L 144.823627 92.064612 
L 146.149253 97.115556 
L 147.474879 103.328491 
L 148.800504 110.935199 
L 150.12613 120.29368 
L 151.120349 128.793143 
L 152.114568 138.954253 
L 153.108788 151.28978 
L 154.103007 166.389075 
L 155.760039 194.226805 
L 156.091445 197.204549 
L 156.422852 197.835826 
L 156.754258 196.032979 
L 157.417071 187.490664 
L 159.074103 162.381339 
L 160.068322 150.782281 
L 161.062541 141.612002 
L 162.056761 134.29824 
L 163.05098 128.418173 
L 164.045199 123.678212 
L 165.039418 119.873466 
L 166.033637 116.85832 
L 167.027857 114.527436 
L 168.022076 112.803633 
L 169.016295 111.630081 
L 169.679108 111.132348 
L 170.341921 110.851145 
L 171.004733 110.779185 
L 171.667546 110.910964 
L 172.330359 111.242582 
L 172.993172 111.77163 
L 173.987391 112.933574 
L 174.98161 114.540221 
L 175.97583 116.601006 
L 176.970049 119.132806 
L 177.964268 122.160769 
L 179.289894 127.031411 
L 180.615519 132.96152 
L 181.941145 140.110339 
L 183.266771 148.688264 
L 184.592396 158.937984 
L 185.918022 170.993206 
L 188.237867 193.097322 
L 188.900679 196.875598 
L 189.232086 197.752565 
L 189.563492 197.868195 
L 189.894899 197.238782 
L 190.226305 195.943851 
L 190.889118 191.862544 
L 192.54615 178.474201 
L 193.871776 168.560678 
L 195.197401 160.434247 
L 196.523027 154.002362 
L 197.517246 150.14343 
L 198.511465 147.004245 
L 199.505684 144.50544 
L 200.499904 142.583346 
L 201.494123 141.187783 
L 202.488342 140.279744 
L 203.151155 139.930187 
L 203.813968 139.777021 
L 204.476781 139.814705 
L 205.139593 140.038912 
L 205.802406 140.446413 
L 206.796625 141.396757 
L 207.790845 142.751177 
L 208.785064 144.510387 
L 209.779283 146.678952 
L 211.104909 150.221159 
L 212.430534 154.530358 
L 213.75616 159.631721 
L 215.081786 165.533686 
L 216.738818 173.954086 
L 220.384288 193.121254 
L 221.047101 195.528719 
L 221.709914 197.15589 
L 222.04132 197.634764 
L 222.372726 197.879747 
L 222.704133 197.8916 
L 223.035539 197.678179 
L 223.366946 197.253712 
L 224.029759 195.852618 
L 224.692571 193.876476 
L 226.018197 188.967918 
L 228.669448 178.941887 
L 229.995074 174.794209 
L 231.320699 171.407653 
L 232.314919 169.369542 
L 233.309138 167.748297 
L 234.303357 166.527693 
L 235.297576 165.690937 
L 236.291796 165.222122 
L 236.954608 165.106795 
L 237.617421 165.144664 
L 238.61164 165.480922 
L 239.60586 166.142715 
L 240.600079 167.119681 
L 241.594298 168.401539 
L 242.919924 170.565442 
L 244.245549 173.218317 
L 245.902581 177.147291 
L 247.89102 182.546517 
L 251.205084 191.76656 
L 252.530709 194.749602 
L 253.524929 196.421477 
L 254.187741 197.20506 
L 254.850554 197.701747 
L 255.513367 197.907715 
L 256.17618 197.833205 
L 256.838993 197.501137 
L 257.501806 196.94427 
L 258.496025 195.773546 
L 259.82165 193.802788 
L 263.798527 187.584995 
L 265.124153 185.955588 
L 266.449779 184.679109 
L 267.443998 183.969884 
L 268.438217 183.477941 
L 269.432436 183.202576 
L 270.426655 183.139761 
L 271.420875 183.282779 
L 272.415094 183.622528 
L 273.740719 184.361477 
L 275.066345 185.395677 
L 276.723377 187.037408 
L 278.711816 189.374466 
L 283.020099 194.630356 
L 284.345724 195.933365 
L 285.67135 196.941028 
L 286.665569 197.470177 
L 287.659789 197.793502 
L 288.654008 197.913488 
L 289.648227 197.843997 
L 290.973853 197.497982 
L 292.630885 196.762792 
L 295.613542 195.065093 
L 297.933387 193.833377 
L 299.590419 193.158764 
L 301.247451 192.714058 
L 302.904483 192.521222 
L 304.561515 192.579951 
L 306.218547 192.871509 
L 308.206986 193.479707 
L 310.526831 194.438504 
L 316.160739 196.892484 
L 318.149178 197.48145 
L 320.137616 197.823434 
L 322.126055 197.91302 
L 324.114493 197.784925 
L 326.765744 197.386961 
L 333.062466 196.347253 
L 335.713717 196.173939 
L 338.364969 196.22192 
L 341.347626 196.501045 
L 352.946851 197.876701 
L 356.592321 197.893921 
L 361.894824 197.639046 
L 368.191545 197.384601 
L 373.162641 197.43525 
L 390.727181 197.898725 
L 404.64625 197.756908 
L 404.64625 197.756908 
" clip-path="url(#p30f509b3a6)" style="fill: none; stroke: #f43d25; stroke-linecap: square"/>
   </g>
   <g id="line2d_40">
    <path d="M 73.57125 19.710227 
L 74.565469 21.178199 
L 75.559688 23.1096 
L 76.553908 25.516997 
L 77.548127 28.422413 
L 78.873753 33.130342 
L 80.199378 38.903741 
L 81.525004 45.928116 
L 82.850629 54.494922 
L 83.844849 62.208726 
L 84.839068 71.374046 
L 85.833287 82.512216 
L 86.827506 96.54287 
L 87.490319 108.339594 
L 88.153132 123.226489 
L 88.815945 143.194188 
L 89.478758 171.917846 
L 89.810164 189.112232 
L 90.14157 197.886182 
L 90.472977 187.782176 
L 91.13579 156.807906 
L 91.798602 135.237706 
L 92.461415 120.137113 
L 93.124228 108.821404 
L 94.118447 96.156415 
L 95.112666 86.780334 
L 96.106886 79.587235 
L 97.101105 73.969382 
L 98.095324 69.559407 
L 99.089543 66.119882 
L 100.083763 63.489882 
L 101.077982 61.556657 
L 102.072201 60.239555 
L 102.735014 59.674323 
L 103.397827 59.343746 
L 104.060639 59.23754 
L 104.723452 59.347729 
L 105.386265 59.668369 
L 106.049078 60.19534 
L 107.043297 61.367803 
L 108.037516 62.998012 
L 109.031735 65.092645 
L 110.025955 67.666938 
L 111.020174 70.745777 
L 112.3458 75.700771 
L 113.671425 81.748123 
L 114.997051 89.085873 
L 116.322676 98.022412 
L 117.316896 106.063233 
L 118.311115 115.606939 
L 119.305334 127.167053 
L 120.299553 141.572151 
L 121.293773 160.10274 
L 122.950805 196.275012 
L 123.282211 197.862928 
L 123.613617 195.076172 
L 124.27643 182.145163 
L 125.270649 161.934785 
L 126.264869 146.618474 
L 127.259088 135.198184 
L 128.253307 126.462187 
L 129.247526 119.643224 
L 130.241745 114.263823 
L 131.235965 110.015237 
L 132.230184 106.689573 
L 133.224403 104.142065 
L 134.218622 102.26936 
L 135.212842 100.996486 
L 135.875654 100.453475 
L 136.538467 100.140131 
L 137.20128 100.04663 
L 137.864093 100.165291 
L 138.526906 100.490317 
L 139.189718 101.017607 
L 140.183938 102.18264 
L 141.178157 103.795032 
L 142.172376 105.859709 
L 143.166595 108.389094 
L 144.492221 112.52136 
L 145.817847 117.59273 
L 147.143472 123.716078 
L 148.469098 131.053788 
L 149.794723 139.832936 
L 151.120349 150.35351 
L 152.445975 162.932318 
L 154.103007 181.290468 
L 155.097226 191.769799 
L 155.760039 196.48631 
L 156.091445 197.650428 
L 156.422852 197.885731 
L 156.754258 197.209928 
L 157.085664 195.733845 
L 157.748477 191.076637 
L 160.731135 166.162167 
L 161.725354 159.847908 
L 162.719573 154.634122 
L 163.713793 150.377346 
L 164.708012 146.947905 
L 165.702231 144.239794 
L 166.69645 142.169261 
L 167.690669 140.670983 
L 168.684889 139.69436 
L 169.347701 139.313468 
L 170.010514 139.137809 
L 170.673327 139.159858 
L 171.33614 139.373497 
L 171.998953 139.773859 
L 172.993172 140.716578 
L 173.987391 142.062686 
L 174.98161 143.808031 
L 175.97583 145.952188 
L 177.301455 149.436254 
L 178.627081 153.645443 
L 179.952706 158.590297 
L 181.609738 165.795248 
L 183.598177 175.751682 
L 186.580835 191.021668 
L 187.575054 194.845754 
L 188.237867 196.622338 
L 188.900679 197.652885 
L 189.232086 197.874574 
L 189.563492 197.903295 
L 189.894899 197.747327 
L 190.557711 196.934891 
L 191.220524 195.571686 
L 192.214743 192.832326 
L 196.523027 179.833051 
L 197.848652 176.88308 
L 198.842872 175.114374 
L 199.837091 173.722244 
L 200.83131 172.695521 
L 201.825529 172.020067 
L 202.819748 171.680733 
L 203.813968 171.66228 
L 204.808187 171.949665 
L 205.802406 172.527939 
L 206.796625 173.381864 
L 207.790845 174.495304 
L 209.11647 176.352349 
L 210.442096 178.58821 
L 212.099128 181.815339 
L 215.081786 188.261134 
L 217.070224 192.356847 
L 218.39585 194.652211 
L 219.390069 196.023659 
L 220.384288 197.036014 
L 221.378507 197.663225 
L 222.04132 197.867988 
L 222.704133 197.910948 
L 223.698352 197.702183 
L 224.692571 197.220027 
L 226.018197 196.272833 
L 228.338042 194.231779 
L 230.657887 192.287194 
L 232.314919 191.199691 
L 233.640544 190.574316 
L 234.96617 190.185421 
L 236.291796 190.035309 
L 237.617421 190.115344 
L 238.943047 190.408138 
L 240.600079 191.035066 
L 242.588517 192.086524 
L 245.571175 193.996888 
L 248.553833 195.862248 
L 250.542271 196.85204 
L 252.199303 197.440795 
L 253.856335 197.791765 
L 255.513367 197.913989 
L 257.501806 197.80782 
L 260.153057 197.386024 
L 266.118372 196.322194 
L 268.769623 196.128965 
L 271.420875 196.171438 
L 274.403532 196.453241 
L 286.002757 197.854434 
L 289.648227 197.909565 
L 295.282136 197.723309 
L 302.24167 197.542458 
L 308.206986 197.632134 
L 321.794648 197.914763 
L 404.64625 197.911873 
L 404.64625 197.911873 
" clip-path="url(#p30f509b3a6)" style="fill: none; stroke: #800026; stroke-linecap: square"/>
   </g>
   <g id="patch_3">
    <path d="M 57.0175 206.825 
L 57.0175 10.8 
" style="fill: none; stroke: #000000; stroke-linejoin: miter; stroke-linecap: square"/>
   </g>
   <g id="patch_4">
    <path d="M 421.2 206.825 
L 421.2 10.8 
" style="fill: none; stroke: #000000; stroke-linejoin: miter; stroke-linecap: square"/>
   </g>
   <g id="patch_5">
    <path d="M 57.0175 206.825 
L 421.2 206.825 
" style="fill: none; stroke: #000000; stroke-linejoin: miter; stroke-linecap: square"/>
   </g>
   <g id="patch_6">
    <path d="M 57.0175 10.8 
L 421.2 10.8 
" style="fill: none; stroke: #000000; stroke-linejoin: miter; stroke-linecap: square"/>
   </g>
   <g id="legend_1">
    <g id="text_13">
     <!-- $\gamma$ -->
     <g transform="translate(388.459375 27.3)scale(0.1 -0.1)">
      <defs>
       <path id="DejaVuSans-Oblique-3b3" d="M 1491 2950 
L 1838 788 
L 3456 3500 
L 4066 3500 
L 1972 0 
L 1713 -1331 
L 1138 -1331 
L 1397 0 
L 988 2613 
Q 925 3006 628 3006 
L 475 3006 
L 569 3500 
L 788 3500 
Q 1403 3500 1491 2950 
z
" transform="scale(0.015625)"/>
      </defs>
      <use xlink:href="#DejaVuSans-Oblique-3b3" transform="translate(0 0.3125)"/>
     </g>
    </g>
    <g id="line2d_41">
     <path d="M 370.71875 38.4 
L 380.71875 38.4 
L 390.71875 38.4 
" style="fill: none; stroke: #ffffcc; stroke-linecap: square"/>
    </g>
    <g id="text_14">
     <!-- 0.2 -->
     <g transform="translate(398.71875 41.9)scale(0.1 -0.1)">
      <defs>
       <path id="Roboto-Light-2e" d="M 456 228 
Q 456 488 719 488 
Q 988 488 988 228 
Q 988 -28 719 -28 
Q 456 -28 456 228 
z
" transform="scale(0.015625)"/>
      </defs>
      <use xlink:href="#Roboto-Light-30"/>
      <use xlink:href="#Roboto-Light-2e" x="55.46875"/>
      <use xlink:href="#Roboto-Light-32" x="79.345703"/>
     </g>
    </g>
    <g id="line2d_42">
     <path d="M 370.71875 52.93125 
L 380.71875 52.93125 
L 390.71875 52.93125 
" style="fill: none; stroke: #febf5a; stroke-linecap: square"/>
    </g>
    <g id="text_15">
     <!-- 0.4 -->
     <g transform="translate(398.71875 56.43125)scale(0.1 -0.1)">
      <use xlink:href="#Roboto-Light-30"/>
      <use xlink:href="#Roboto-Light-2e" x="55.46875"/>
      <use xlink:href="#Roboto-Light-34" x="79.345703"/>
     </g>
    </g>
    <g id="line2d_43">
     <path d="M 370.71875 67.4625 
L 380.71875 67.4625 
L 390.71875 67.4625 
" style="fill: none; stroke: #f43d25; stroke-linecap: square"/>
    </g>
    <g id="text_16">
     <!-- 0.6 -->
     <g transform="translate(398.71875 70.9625)scale(0.1 -0.1)">
      <use xlink:href="#Roboto-Light-30"/>
      <use xlink:href="#Roboto-Light-2e" x="55.46875"/>
      <use xlink:href="#Roboto-Light-36" x="79.345703"/>
     </g>
    </g>
    <g id="line2d_44">
     <path d="M 370.71875 81.99375 
L 380.71875 81.99375 
L 390.71875 81.99375 
" style="fill: none; stroke: #800026; stroke-linecap: square"/>
    </g>
    <g id="text_17">
     <!-- 0.8 -->
     <g transform="translate(398.71875 85.49375)scale(0.1 -0.1)">
      <use xlink:href="#Roboto-Light-30"/>
      <use xlink:href="#Roboto-Light-2e" x="55.46875"/>
      <use xlink:href="#Roboto-Light-38" x="79.345703"/>
     </g>
    </g>
   </g>
  </g>
 </g>
 <defs>
  <clipPath id="p30f509b3a6">
   <rect x="57.0175" y="10.8" width="364.1825" height="196.025"/>
  </clipPath>
 </defs>
</svg>
