<?xml version="1.0" encoding="utf-8" standalone="no"?>
<!DOCTYPE svg PUBLIC "-//W3C//DTD SVG 1.1//EN"
  "http://www.w3.org/Graphics/SVG/1.1/DTD/svg11.dtd">
<svg xmlns:xlink="http://www.w3.org/1999/xlink" width="432pt" height="252pt" viewBox="0 0 432 252" xmlns="http://www.w3.org/2000/svg" version="1.1">
 <metadata>
  <rdf:RDF xmlns:dc="http://purl.org/dc/elements/1.1/" xmlns:cc="http://creativecommons.org/ns#" xmlns:rdf="http://www.w3.org/1999/02/22-rdf-syntax-ns#">
   <cc:Work>
    <dc:type rdf:resource="http://purl.org/dc/dcmitype/StillImage"/>
    <dc:date>2022-06-03T11:38:30.198207</dc:date>
    <dc:format>image/svg+xml</dc:format>
    <dc:creator>
     <cc:Agent>
      <dc:title>Matplotlib v3.5.1, https://matplotlib.org/</dc:title>
     </cc:Agent>
    </dc:creator>
   </cc:Work>
  </rdf:RDF>
 </metadata>
 <defs>
  <style type="text/css">*{stroke-linejoin: round; stroke-linecap: butt}</style>
 </defs>
 <g id="figure_1">
  <g id="patch_1">
   <path d="M 0 252 
L 432 252 
L 432 0 
L 0 0 
L 0 252 
z
" style="fill: none"/>
  </g>
  <g id="axes_1">
   <g id="patch_2">
    <path d="M 47.243125 221.22 
L 421.2 221.22 
L 421.2 15.3 
L 47.243125 15.3 
L 47.243125 221.22 
z
" style="fill: none"/>
   </g>
   <g id="PolyCollection_1">
    <path d="M 88.386452 191.127956 
L 71.001405 191.127956 
L 66.609086 187.978797 
L 64.241165 184.829639 
L 65.033152 181.68048 
L 68.091903 178.531321 
L 71.591886 175.382163 
L 74.313156 172.233004 
L 76.014708 169.083845 
L 76.958492 165.934687 
L 77.467484 162.785528 
L 77.770834 159.636369 
L 77.997658 156.487211 
L 78.202816 153.338052 
L 78.395589 150.188893 
L 78.568981 147.039735 
L 78.718118 143.890576 
L 78.841445 140.741417 
L 78.938725 137.592258 
L 79.01603 134.4431 
L 79.085037 131.293941 
L 79.149837 128.144782 
L 79.201453 124.995624 
L 79.232442 121.846465 
L 79.249965 118.697306 
L 79.267897 115.548148 
L 79.292182 112.398989 
L 79.320538 109.24983 
L 79.352346 106.100672 
L 79.389849 102.951513 
L 79.429244 99.802354 
L 79.459046 96.653196 
L 79.470989 93.504037 
L 79.468536 90.354878 
L 79.4621 87.20572 
L 79.45943 84.056561 
L 79.463713 80.907402 
L 79.476917 77.758244 
L 79.49954 74.609085 
L 79.526916 71.459926 
L 79.54952 68.310768 
L 79.561014 65.161609 
L 79.564741 62.01245 
L 79.568278 58.863292 
L 79.573748 55.714133 
L 79.577684 52.564974 
L 79.578506 49.415815 
L 79.579286 46.266657 
L 79.5823 43.117498 
L 79.585476 39.968339 
L 79.587069 36.819181 
L 79.589931 33.670022 
L 79.598168 30.520863 
L 79.611455 27.371705 
L 79.624339 24.222546 
L 79.631329 21.073387 
L 79.632036 17.924229 
L 79.629986 14.77507 
L 79.627518 11.625911 
L 79.625187 8.476753 
L 79.625579 5.327594 
L 79.633018 2.178435 
L 79.647925 -0.970723 
L 79.664551 -4.119882 
L 79.676033 -7.269041 
L 79.679791 -10.418199 
L 79.677359 -13.567358 
L 79.671725 -16.716517 
L 79.666425 -19.865675 
L 79.664759 -23.014834 
L 79.667442 -26.163993 
L 79.671991 -29.313151 
L 79.675551 -32.46231 
L 79.67707 -35.611469 
L 79.676774 -38.760627 
L 79.675842 -41.909786 
L 79.676217 -45.058945 
L 79.678547 -48.208104 
L 79.681284 -51.357262 
L 79.683034 -54.506421 
L 79.684227 -57.65558 
L 79.685824 -60.804738 
L 79.68755 -63.953897 
L 79.688007 -67.103056 
L 79.686371 -70.252214 
L 79.683726 -73.401373 
L 79.682188 -76.550532 
L 79.68272 -79.69969 
L 79.684653 -82.848849 
L 79.687096 -85.998008 
L 79.689522 -89.147166 
L 79.691295 -92.296325 
L 79.691766 -95.445484 
L 79.690885 -98.594642 
L 79.68949 -101.743801 
L 79.688812 -104.89296 
L 79.689306 -108.042118 
L 79.690103 -111.191277 
L 79.690071 -114.340436 
L 79.689255 -117.489594 
L 79.688827 -120.638753 
L 79.69903 -120.638753 
L 79.69903 -120.638753 
L 79.698601 -117.489594 
L 79.697785 -114.340436 
L 79.697753 -111.191277 
L 79.69855 -108.042118 
L 79.699045 -104.89296 
L 79.698367 -101.743801 
L 79.696971 -98.594642 
L 79.69609 -95.445484 
L 79.696561 -92.296325 
L 79.698335 -89.147166 
L 79.70076 -85.998008 
L 79.703203 -82.848849 
L 79.705137 -79.69969 
L 79.705668 -76.550532 
L 79.704131 -73.401373 
L 79.701486 -70.252214 
L 79.69985 -67.103056 
L 79.700307 -63.953897 
L 79.702032 -60.804738 
L 79.703629 -57.65558 
L 79.704823 -54.506421 
L 79.706572 -51.357262 
L 79.70931 -48.208104 
L 79.711639 -45.058945 
L 79.712014 -41.909786 
L 79.711083 -38.760627 
L 79.710786 -35.611469 
L 79.712306 -32.46231 
L 79.715865 -29.313151 
L 79.720414 -26.163993 
L 79.723098 -23.014834 
L 79.721431 -19.865675 
L 79.716131 -16.716517 
L 79.710498 -13.567358 
L 79.708065 -10.418199 
L 79.711823 -7.269041 
L 79.723305 -4.119882 
L 79.739931 -0.970723 
L 79.754838 2.178435 
L 79.762278 5.327594 
L 79.76267 8.476753 
L 79.760338 11.625911 
L 79.757871 14.77507 
L 79.755821 17.924229 
L 79.756527 21.073387 
L 79.763518 24.222546 
L 79.776402 27.371705 
L 79.789688 30.520863 
L 79.797926 33.670022 
L 79.800787 36.819181 
L 79.80238 39.968339 
L 79.805557 43.117498 
L 79.80857 46.266657 
L 79.80935 49.415815 
L 79.810172 52.564974 
L 79.814109 55.714133 
L 79.819578 58.863292 
L 79.823116 62.01245 
L 79.826842 65.161609 
L 79.838336 68.310768 
L 79.860941 71.459926 
L 79.888316 74.609085 
L 79.910939 77.758244 
L 79.924143 80.907402 
L 79.928426 84.056561 
L 79.925756 87.20572 
L 79.91932 90.354878 
L 79.916867 93.504037 
L 79.92881 96.653196 
L 79.958613 99.802354 
L 79.998007 102.951513 
L 80.03551 106.100672 
L 80.067318 109.24983 
L 80.095675 112.398989 
L 80.119959 115.548148 
L 80.137891 118.697306 
L 80.155415 121.846465 
L 80.186403 124.995624 
L 80.238019 128.144782 
L 80.302819 131.293941 
L 80.371826 134.4431 
L 80.449131 137.592258 
L 80.546411 140.741417 
L 80.669738 143.890576 
L 80.818875 147.039735 
L 80.992267 150.188893 
L 81.18504 153.338052 
L 81.390198 156.487211 
L 81.617022 159.636369 
L 81.920373 162.785528 
L 82.429365 165.934687 
L 83.373148 169.083845 
L 85.0747 172.233004 
L 87.79597 175.382163 
L 91.295953 178.531321 
L 94.354705 181.68048 
L 95.146692 184.829639 
L 92.778771 187.978797 
L 88.386452 191.127956 
z
" clip-path="url(#p7329db002c)" style="fill: #aa4639; fill-opacity: 0.3"/>
   </g>
   <g id="PolyCollection_2">
    <path d="M 154.263309 196.111429 
L 128.746655 196.111429 
L 126.052218 179.328078 
L 134.71091 162.544727 
L 138.090323 145.761375 
L 139.657936 128.978024 
L 140.468066 112.194673 
L 140.837494 95.411322 
L 141.051974 78.62797 
L 141.169877 61.844619 
L 141.205363 45.061268 
L 141.277885 28.277917 
L 141.358765 11.494566 
L 141.387546 -5.288786 
L 141.400658 -22.072137 
L 141.4187 -38.855488 
L 141.419912 -55.638839 
L 141.464074 -72.422191 
L 141.472031 -89.205542 
L 141.481421 -105.988893 
L 141.486268 -122.772244 
L 141.485622 -139.555596 
L 141.500857 -156.338947 
L 141.496177 -173.122298 
L 141.491833 -189.905649 
L 141.497571 -206.689001 
L 141.493321 -223.472352 
L 141.496701 -240.255703 
L 141.487655 -257.039054 
L 141.493429 -273.822405 
L 141.504015 -290.605757 
L 141.504322 -307.389108 
L 141.49946 -324.172459 
L 141.502193 -340.95581 
L 141.504898 -357.739162 
L 141.504982 -374.522513 
L 141.504982 -391.305864 
L 141.50497 -408.089215 
L 141.503913 -424.872567 
L 141.499021 -441.655918 
L 141.502997 -458.439269 
L 141.504942 -475.22262 
L 141.504982 -492.005972 
L 141.504982 -508.789323 
L 141.504982 -525.572674 
L 141.504982 -542.356025 
L 141.504982 -559.139377 
L 141.504942 -575.922728 
L 141.502984 -592.706079 
L 141.499016 -609.48943 
L 141.502967 -626.272781 
L 141.499086 -643.056133 
L 141.502815 -659.839484 
L 141.504934 -676.622835 
L 141.504982 -693.406186 
L 141.504982 -710.189538 
L 141.504982 -726.972889 
L 141.504982 -743.75624 
L 141.504982 -760.539591 
L 141.504982 -777.322943 
L 141.504982 -794.106294 
L 141.504982 -810.889645 
L 141.504982 -827.672996 
L 141.504982 -844.456348 
L 141.504982 -861.239699 
L 141.504982 -878.02305 
L 141.504982 -894.806401 
L 141.504982 -911.589753 
L 141.504982 -928.373104 
L 141.504982 -945.156455 
L 141.504982 -961.939806 
L 141.504982 -978.723157 
L 141.504982 -995.506509 
L 141.504982 -1012.28986 
L 141.504982 -1029.073211 
L 141.504982 -1045.856562 
L 141.504982 -1062.639914 
L 141.504982 -1079.423265 
L 141.504982 -1096.206616 
L 141.504982 -1112.989967 
L 141.504981 -1129.773319 
L 141.504672 -1146.55667 
L 141.500441 -1163.340021 
L 141.501004 -1180.123372 
L 141.504774 -1196.906724 
L 141.504981 -1213.690075 
L 141.504982 -1230.473426 
L 141.504982 -1247.256777 
L 141.504982 -1264.040128 
L 141.504982 -1280.82348 
L 141.504982 -1297.606831 
L 141.504982 -1314.390182 
L 141.504982 -1331.173533 
L 141.504982 -1347.956885 
L 141.504982 -1364.740236 
L 141.504982 -1381.523587 
L 141.504982 -1398.306938 
L 141.504982 -1415.09029 
L 141.50496 -1431.873641 
L 141.5035 -1448.656992 
L 141.498919 -1465.440343 
L 141.511045 -1465.440343 
L 141.511045 -1465.440343 
L 141.506464 -1448.656992 
L 141.505004 -1431.873641 
L 141.504982 -1415.09029 
L 141.504982 -1398.306938 
L 141.504982 -1381.523587 
L 141.504982 -1364.740236 
L 141.504982 -1347.956885 
L 141.504982 -1331.173533 
L 141.504982 -1314.390182 
L 141.504982 -1297.606831 
L 141.504982 -1280.82348 
L 141.504982 -1264.040128 
L 141.504982 -1247.256777 
L 141.504982 -1230.473426 
L 141.504983 -1213.690075 
L 141.50519 -1196.906724 
L 141.508959 -1180.123372 
L 141.509523 -1163.340021 
L 141.505291 -1146.55667 
L 141.504983 -1129.773319 
L 141.504982 -1112.989967 
L 141.504982 -1096.206616 
L 141.504982 -1079.423265 
L 141.504982 -1062.639914 
L 141.504982 -1045.856562 
L 141.504982 -1029.073211 
L 141.504982 -1012.28986 
L 141.504982 -995.506509 
L 141.504982 -978.723157 
L 141.504982 -961.939806 
L 141.504982 -945.156455 
L 141.504982 -928.373104 
L 141.504982 -911.589753 
L 141.504982 -894.806401 
L 141.504982 -878.02305 
L 141.504982 -861.239699 
L 141.504982 -844.456348 
L 141.504982 -827.672996 
L 141.504982 -810.889645 
L 141.504982 -794.106294 
L 141.504982 -777.322943 
L 141.504982 -760.539591 
L 141.504982 -743.75624 
L 141.504982 -726.972889 
L 141.504982 -710.189538 
L 141.504982 -693.406186 
L 141.50503 -676.622835 
L 141.507149 -659.839484 
L 141.510878 -643.056133 
L 141.506997 -626.272781 
L 141.510948 -609.48943 
L 141.50698 -592.706079 
L 141.505022 -575.922728 
L 141.504982 -559.139377 
L 141.504982 -542.356025 
L 141.504982 -525.572674 
L 141.504982 -508.789323 
L 141.504982 -492.005972 
L 141.505021 -475.22262 
L 141.506967 -458.439269 
L 141.510943 -441.655918 
L 141.506051 -424.872567 
L 141.504993 -408.089215 
L 141.504982 -391.305864 
L 141.504982 -374.522513 
L 141.505066 -357.739162 
L 141.507771 -340.95581 
L 141.510504 -324.172459 
L 141.505641 -307.389108 
L 141.505948 -290.605757 
L 141.516535 -273.822405 
L 141.522308 -257.039054 
L 141.513263 -240.255703 
L 141.516643 -223.472352 
L 141.512393 -206.689001 
L 141.518131 -189.905649 
L 141.513787 -173.122298 
L 141.509107 -156.338947 
L 141.524342 -139.555596 
L 141.523696 -122.772244 
L 141.528543 -105.988893 
L 141.537933 -89.205542 
L 141.54589 -72.422191 
L 141.590052 -55.638839 
L 141.591264 -38.855488 
L 141.609306 -22.072137 
L 141.622418 -5.288786 
L 141.651199 11.494566 
L 141.732079 28.277917 
L 141.8046 45.061268 
L 141.840087 61.844619 
L 141.95799 78.62797 
L 142.17247 95.411322 
L 142.541898 112.194673 
L 143.352028 128.978024 
L 144.919641 145.761375 
L 148.299054 162.544727 
L 156.957745 179.328078 
L 154.263309 196.111429 
z
" clip-path="url(#p7329db002c)" style="fill: #aa4639; fill-opacity: 0.3"/>
   </g>
   <g id="PolyCollection_3">
    <path d="M 208.837579 190.897904 
L 197.794492 190.897904 
L 187.863272 184.333955 
L 188.378956 177.770006 
L 194.023095 171.206057 
L 197.042167 164.642107 
L 198.643253 158.078158 
L 199.492711 151.514209 
L 200.309692 144.95026 
L 200.970793 138.386311 
L 201.473945 131.822361 
L 201.784888 125.258412 
L 202.126764 118.694463 
L 202.441147 112.130514 
L 202.615834 105.566565 
L 202.704166 99.002615 
L 202.845915 92.438666 
L 203.022335 85.874717 
L 203.140153 79.310768 
L 203.216092 72.746819 
L 203.254131 66.182869 
L 203.267013 59.61892 
L 203.26868 53.054971 
L 203.28483 46.491022 
L 203.290424 39.927073 
L 203.296769 33.363123 
L 203.295309 26.799174 
L 203.288713 20.235225 
L 203.281233 13.671276 
L 203.291169 7.107327 
L 203.299925 0.543377 
L 203.291275 -6.020572 
L 203.294665 -12.584521 
L 203.292784 -19.14847 
L 203.302662 -25.71242 
L 203.314286 -32.276369 
L 203.31599 -38.840318 
L 203.316035 -45.404267 
L 203.316036 -51.968216 
L 203.316036 -58.532166 
L 203.316022 -65.096115 
L 203.315376 -71.660064 
L 203.310687 -78.224013 
L 203.308871 -84.787962 
L 203.314449 -91.351912 
L 203.315978 -97.915861 
L 203.316018 -104.47981 
L 203.315239 -111.043759 
L 203.309499 -117.607708 
L 203.303263 -124.171658 
L 203.307876 -130.735607 
L 203.314696 -137.299556 
L 203.315995 -143.863505 
L 203.316035 -150.427454 
L 203.316036 -156.991404 
L 203.316036 -163.555353 
L 203.316036 -170.119302 
L 203.316036 -176.683251 
L 203.316036 -183.2472 
L 203.316036 -189.81115 
L 203.316036 -196.375099 
L 203.316036 -202.939048 
L 203.316036 -209.502997 
L 203.316036 -216.066947 
L 203.316036 -222.630896 
L 203.316036 -229.194845 
L 203.316036 -235.758794 
L 203.316036 -242.322743 
L 203.316036 -248.886693 
L 203.316036 -255.450642 
L 203.316036 -262.014591 
L 203.316036 -268.57854 
L 203.316036 -275.142489 
L 203.316036 -281.706439 
L 203.316036 -288.270388 
L 203.316036 -294.834337 
L 203.316036 -301.398286 
L 203.316036 -307.962235 
L 203.316036 -314.526185 
L 203.316036 -321.090134 
L 203.316036 -327.654083 
L 203.316036 -334.218032 
L 203.316036 -340.781981 
L 203.316036 -347.345931 
L 203.316036 -353.90988 
L 203.316036 -360.473829 
L 203.316036 -367.037778 
L 203.316036 -373.601727 
L 203.316036 -380.165677 
L 203.316036 -386.729626 
L 203.316036 -393.293575 
L 203.316036 -399.857524 
L 203.316036 -406.421474 
L 203.316036 -412.985423 
L 203.316036 -419.549372 
L 203.316036 -426.113321 
L 203.316036 -432.67727 
L 203.316033 -439.24122 
L 203.315819 -445.805169 
L 203.312808 -452.369118 
L 203.308097 -458.933067 
L 203.323975 -458.933067 
L 203.323975 -458.933067 
L 203.319263 -452.369118 
L 203.316253 -445.805169 
L 203.316038 -439.24122 
L 203.316036 -432.67727 
L 203.316036 -426.113321 
L 203.316036 -419.549372 
L 203.316036 -412.985423 
L 203.316036 -406.421474 
L 203.316036 -399.857524 
L 203.316036 -393.293575 
L 203.316036 -386.729626 
L 203.316036 -380.165677 
L 203.316036 -373.601727 
L 203.316036 -367.037778 
L 203.316036 -360.473829 
L 203.316036 -353.90988 
L 203.316036 -347.345931 
L 203.316036 -340.781981 
L 203.316036 -334.218032 
L 203.316036 -327.654083 
L 203.316036 -321.090134 
L 203.316036 -314.526185 
L 203.316036 -307.962235 
L 203.316036 -301.398286 
L 203.316036 -294.834337 
L 203.316036 -288.270388 
L 203.316036 -281.706439 
L 203.316036 -275.142489 
L 203.316036 -268.57854 
L 203.316036 -262.014591 
L 203.316036 -255.450642 
L 203.316036 -248.886693 
L 203.316036 -242.322743 
L 203.316036 -235.758794 
L 203.316036 -229.194845 
L 203.316036 -222.630896 
L 203.316036 -216.066947 
L 203.316036 -209.502997 
L 203.316036 -202.939048 
L 203.316036 -196.375099 
L 203.316036 -189.81115 
L 203.316036 -183.2472 
L 203.316036 -176.683251 
L 203.316036 -170.119302 
L 203.316036 -163.555353 
L 203.316036 -156.991404 
L 203.316036 -150.427454 
L 203.316077 -143.863505 
L 203.317375 -137.299556 
L 203.324195 -130.735607 
L 203.328808 -124.171658 
L 203.322572 -117.607708 
L 203.316832 -111.043759 
L 203.316054 -104.47981 
L 203.316094 -97.915861 
L 203.317622 -91.351912 
L 203.3232 -84.787962 
L 203.321385 -78.224013 
L 203.316696 -71.660064 
L 203.316049 -65.096115 
L 203.316036 -58.532166 
L 203.316036 -51.968216 
L 203.316036 -45.404267 
L 203.316082 -38.840318 
L 203.317785 -32.276369 
L 203.329409 -25.71242 
L 203.339287 -19.14847 
L 203.337407 -12.584521 
L 203.340796 -6.020572 
L 203.332147 0.543377 
L 203.340902 7.107327 
L 203.350838 13.671276 
L 203.343358 20.235225 
L 203.336762 26.799174 
L 203.335303 33.363123 
L 203.341648 39.927073 
L 203.347242 46.491022 
L 203.363391 53.054971 
L 203.365059 59.61892 
L 203.37794 66.182869 
L 203.415979 72.746819 
L 203.491918 79.310768 
L 203.609736 85.874717 
L 203.786157 92.438666 
L 203.927905 99.002615 
L 204.016237 105.566565 
L 204.190924 112.130514 
L 204.505307 118.694463 
L 204.847183 125.258412 
L 205.158127 131.822361 
L 205.661279 138.386311 
L 206.322379 144.95026 
L 207.13936 151.514209 
L 207.988818 158.078158 
L 209.589905 164.642107 
L 212.608976 171.206057 
L 218.253115 177.770006 
L 218.768799 184.333955 
L 208.837579 190.897904 
z
" clip-path="url(#p7329db002c)" style="fill: #aa4639; fill-opacity: 0.3"/>
   </g>
   <g id="PolyCollection_4">
    <path d="M 265.27773 201.31259 
L 264.976449 201.31259 
L 264.81247 201.090999 
L 264.496183 200.869407 
L 263.928793 200.647816 
L 262.993248 200.426224 
L 261.589659 200.204633 
L 259.691191 199.983041 
L 257.397886 199.76145 
L 254.952399 199.539859 
L 252.691915 199.318267 
L 250.946075 199.096676 
L 249.928076 198.875084 
L 249.674326 198.653493 
L 250.058346 198.431901 
L 250.860789 198.21031 
L 251.85255 197.988718 
L 252.854573 197.767127 
L 253.761674 197.545536 
L 254.536974 197.323944 
L 255.189967 197.102353 
L 255.750088 196.880761 
L 256.245293 196.65917 
L 256.691709 196.437578 
L 257.094594 196.215987 
L 257.455208 195.994395 
L 257.776858 195.772804 
L 258.066683 195.551212 
L 258.333955 195.329621 
L 258.587399 195.10803 
L 258.833217 194.886438 
L 259.074189 194.664847 
L 259.309964 194.443255 
L 259.538931 194.221664 
L 259.761499 194.000072 
L 259.982802 193.778481 
L 260.211878 193.556889 
L 260.456349 193.335298 
L 260.715724 193.113706 
L 260.978619 192.892115 
L 261.226833 192.670524 
L 261.444041 192.448932 
L 261.623435 192.227341 
L 261.769712 192.005749 
L 261.894959 191.784158 
L 262.011719 191.562566 
L 262.127517 191.340975 
L 262.243433 191.119383 
L 262.356677 190.897792 
L 262.465155 190.6762 
L 262.571334 190.454609 
L 262.683016 190.233018 
L 262.810098 190.011426 
L 262.95873 189.789835 
L 263.126614 189.568243 
L 263.303018 189.346652 
L 263.473902 189.12506 
L 263.628634 188.903469 
L 263.763791 188.681877 
L 263.882174 188.460286 
L 263.988748 188.238695 
L 264.086719 188.017103 
L 264.176016 187.795512 
L 264.254418 187.57392 
L 264.319984 187.352329 
L 264.372949 187.130737 
L 264.415892 186.909146 
L 264.452337 186.687554 
L 264.485001 186.465963 
L 264.515037 186.244371 
L 264.542733 186.02278 
L 264.568867 185.801189 
L 264.595407 185.579597 
L 264.624808 185.358006 
L 264.658438 185.136414 
L 264.695435 184.914823 
L 264.732938 184.693231 
L 264.767533 184.47164 
L 264.796937 184.250048 
L 264.821008 184.028457 
L 264.841671 183.806865 
L 264.861912 183.585274 
L 264.884366 183.363683 
L 264.910159 183.142091 
L 264.938587 182.9205 
L 264.967673 182.698908 
L 264.995166 182.477317 
L 265.019355 182.255725 
L 265.039377 182.034134 
L 265.05509 181.812542 
L 265.066794 181.590951 
L 265.074964 181.36936 
L 265.080081 181.147768 
L 265.082607 180.926177 
L 265.083111 180.704585 
L 265.08242 180.482994 
L 265.081616 180.261402 
L 265.081818 180.039811 
L 265.083858 179.818219 
L 265.088045 179.596628 
L 265.094101 179.375036 
L 265.160078 179.375036 
L 265.160078 179.375036 
L 265.166133 179.596628 
L 265.170321 179.818219 
L 265.172361 180.039811 
L 265.172563 180.261402 
L 265.171759 180.482994 
L 265.171068 180.704585 
L 265.171571 180.926177 
L 265.174097 181.147768 
L 265.179214 181.36936 
L 265.187385 181.590951 
L 265.199089 181.812542 
L 265.214802 182.034134 
L 265.234823 182.255725 
L 265.259013 182.477317 
L 265.286505 182.698908 
L 265.315592 182.9205 
L 265.34402 183.142091 
L 265.369813 183.363683 
L 265.392266 183.585274 
L 265.412508 183.806865 
L 265.433171 184.028457 
L 265.457242 184.250048 
L 265.486646 184.47164 
L 265.521241 184.693231 
L 265.558744 184.914823 
L 265.59574 185.136414 
L 265.629371 185.358006 
L 265.658772 185.579597 
L 265.685312 185.801189 
L 265.711446 186.02278 
L 265.739142 186.244371 
L 265.769178 186.465963 
L 265.801841 186.687554 
L 265.838287 186.909146 
L 265.88123 187.130737 
L 265.934195 187.352329 
L 265.999761 187.57392 
L 266.078163 187.795512 
L 266.16746 188.017103 
L 266.265431 188.238695 
L 266.372005 188.460286 
L 266.490388 188.681877 
L 266.625545 188.903469 
L 266.780277 189.12506 
L 266.951161 189.346652 
L 267.127565 189.568243 
L 267.295449 189.789835 
L 267.444081 190.011426 
L 267.571162 190.233018 
L 267.682845 190.454609 
L 267.789023 190.6762 
L 267.897502 190.897792 
L 268.010745 191.119383 
L 268.126662 191.340975 
L 268.24246 191.562566 
L 268.35922 191.784158 
L 268.484467 192.005749 
L 268.630744 192.227341 
L 268.810138 192.448932 
L 269.027346 192.670524 
L 269.27556 192.892115 
L 269.538454 193.113706 
L 269.79783 193.335298 
L 270.042301 193.556889 
L 270.271376 193.778481 
L 270.49268 194.000072 
L 270.715248 194.221664 
L 270.944215 194.443255 
L 271.17999 194.664847 
L 271.420962 194.886438 
L 271.66678 195.10803 
L 271.920224 195.329621 
L 272.187496 195.551212 
L 272.47732 195.772804 
L 272.798971 195.994395 
L 273.159585 196.215987 
L 273.56247 196.437578 
L 274.008886 196.65917 
L 274.504091 196.880761 
L 275.064212 197.102353 
L 275.717205 197.323944 
L 276.492505 197.545536 
L 277.399606 197.767127 
L 278.401629 197.988718 
L 279.39339 198.21031 
L 280.195833 198.431901 
L 280.579853 198.653493 
L 280.326103 198.875084 
L 279.308104 199.096676 
L 277.562263 199.318267 
L 275.30178 199.539859 
L 272.856292 199.76145 
L 270.562988 199.983041 
L 268.66452 200.204633 
L 267.26093 200.426224 
L 266.325385 200.647816 
L 265.757995 200.869407 
L 265.441708 201.090999 
L 265.27773 201.31259 
z
" clip-path="url(#p7329db002c)" style="fill: #aa4639; fill-opacity: 0.3"/>
   </g>
   <g id="PolyCollection_5">
    <path d="M 330.216888 196.936408 
L 323.659398 196.936408 
L 321.635348 196.833917 
L 319.209142 196.731426 
L 316.699328 196.628936 
L 314.476918 196.526445 
L 312.824097 196.423954 
L 311.847114 196.321463 
L 311.48538 196.218973 
L 311.587102 196.116482 
L 311.991396 196.013991 
L 312.577097 195.9115 
L 313.271264 195.80901 
L 314.030376 195.706519 
L 314.815967 195.604028 
L 315.584418 195.501537 
L 316.295074 195.399047 
L 316.923203 195.296556 
L 317.462839 195.194065 
L 317.919229 195.091574 
L 318.302155 194.989084 
L 318.626944 194.886593 
L 318.917664 194.784102 
L 319.203126 194.681611 
L 319.504832 194.579121 
L 319.825949 194.47663 
L 320.150203 194.374139 
L 320.450604 194.271648 
L 320.701093 194.169158 
L 320.885807 194.066667 
L 321.005546 193.964176 
L 321.081227 193.861685 
L 321.150417 193.759195 
L 321.253702 193.656704 
L 321.415977 193.554213 
L 321.635178 193.451723 
L 321.887228 193.349232 
L 322.143283 193.246741 
L 322.386501 193.14425 
L 322.618474 193.04176 
L 322.854324 192.939269 
L 323.111163 192.836778 
L 323.395721 192.734287 
L 323.697497 192.631797 
L 323.992708 192.529306 
L 324.25768 192.426815 
L 324.481815 192.324324 
L 324.669903 192.221834 
L 324.833659 192.119343 
L 324.982236 192.016852 
L 325.120073 191.914361 
L 325.250946 191.811871 
L 325.381135 191.70938 
L 325.517755 191.606889 
L 325.66449 191.504398 
L 325.819072 191.401908 
L 325.974358 191.299417 
L 326.121749 191.196926 
L 326.254502 191.094435 
L 326.369245 190.991945 
L 326.465497 190.889454 
L 326.544145 190.786963 
L 326.606094 190.684473 
L 326.651876 190.581982 
L 326.682382 190.479491 
L 326.700137 190.377 
L 326.709938 190.27451 
L 326.717912 190.172019 
L 326.729279 190.069528 
L 326.74642 189.967037 
L 326.768578 189.864547 
L 326.793142 189.762056 
L 326.817326 189.659565 
L 326.839282 189.557074 
L 326.858319 189.454584 
L 326.874432 189.352093 
L 326.88759 189.249602 
L 326.897398 189.147111 
L 326.903456 189.044621 
L 326.90601 188.94213 
L 326.906125 188.839639 
L 326.905155 188.737148 
L 326.904119 188.634658 
L 326.903616 188.532167 
L 326.904145 188.429676 
L 326.906141 188.327185 
L 326.909557 188.224695 
L 326.913618 188.122204 
L 326.917291 188.019713 
L 326.920092 187.917222 
L 326.922387 187.814732 
L 326.924871 187.712241 
L 326.927821 187.60975 
L 326.930841 187.50726 
L 326.933175 187.404769 
L 326.93418 187.302278 
L 326.933597 187.199787 
L 326.931641 187.097297 
L 326.929015 186.994806 
L 326.926766 186.892315 
L 326.925886 186.789824 
L 326.950401 186.789824 
L 326.950401 186.789824 
L 326.94952 186.892315 
L 326.947271 186.994806 
L 326.944645 187.097297 
L 326.94269 187.199787 
L 326.942106 187.302278 
L 326.943111 187.404769 
L 326.945446 187.50726 
L 326.948465 187.60975 
L 326.951415 187.712241 
L 326.953899 187.814732 
L 326.956194 187.917222 
L 326.958995 188.019713 
L 326.962668 188.122204 
L 326.966729 188.224695 
L 326.970145 188.327185 
L 326.972141 188.429676 
L 326.97267 188.532167 
L 326.972167 188.634658 
L 326.971131 188.737148 
L 326.970161 188.839639 
L 326.970276 188.94213 
L 326.97283 189.044621 
L 326.978888 189.147111 
L 326.988696 189.249602 
L 327.001854 189.352093 
L 327.017967 189.454584 
L 327.037004 189.557074 
L 327.05896 189.659565 
L 327.083145 189.762056 
L 327.107708 189.864547 
L 327.129866 189.967037 
L 327.147007 190.069528 
L 327.158374 190.172019 
L 327.166348 190.27451 
L 327.176149 190.377 
L 327.193904 190.479491 
L 327.22441 190.581982 
L 327.270192 190.684473 
L 327.332141 190.786963 
L 327.410789 190.889454 
L 327.507041 190.991945 
L 327.621784 191.094435 
L 327.754537 191.196926 
L 327.901928 191.299417 
L 328.057214 191.401908 
L 328.211796 191.504398 
L 328.358531 191.606889 
L 328.495151 191.70938 
L 328.625341 191.811871 
L 328.756213 191.914361 
L 328.89405 192.016852 
L 329.042627 192.119343 
L 329.206383 192.221834 
L 329.394471 192.324324 
L 329.618606 192.426815 
L 329.883578 192.529306 
L 330.178789 192.631797 
L 330.480565 192.734287 
L 330.765123 192.836778 
L 331.021963 192.939269 
L 331.257812 193.04176 
L 331.489785 193.14425 
L 331.733003 193.246741 
L 331.989058 193.349232 
L 332.241109 193.451723 
L 332.460309 193.554213 
L 332.622584 193.656704 
L 332.725869 193.759195 
L 332.795059 193.861685 
L 332.87074 193.964176 
L 332.990479 194.066667 
L 333.175193 194.169158 
L 333.425682 194.271648 
L 333.726084 194.374139 
L 334.050337 194.47663 
L 334.371454 194.579121 
L 334.67316 194.681611 
L 334.958622 194.784102 
L 335.249342 194.886593 
L 335.574131 194.989084 
L 335.957057 195.091574 
L 336.413447 195.194065 
L 336.953083 195.296556 
L 337.581212 195.399047 
L 338.291868 195.501537 
L 339.060319 195.604028 
L 339.84591 195.706519 
L 340.605022 195.80901 
L 341.299189 195.9115 
L 341.88489 196.013991 
L 342.289184 196.116482 
L 342.390907 196.218973 
L 342.029172 196.321463 
L 341.052189 196.423954 
L 339.399368 196.526445 
L 337.176958 196.628936 
L 334.667144 196.731426 
L 332.240938 196.833917 
L 330.216888 196.936408 
z
" clip-path="url(#p7329db002c)" style="fill: #aa4639; fill-opacity: 0.3"/>
   </g>
   <g id="PolyCollection_6">
    <path d="M 390.939045 202.581904 
L 386.559348 202.581904 
L 385.32542 201.68012 
L 383.697326 200.778335 
L 381.719198 199.87655 
L 379.527931 198.974765 
L 377.346787 198.07298 
L 375.443104 197.171195 
L 374.058847 196.26941 
L 373.340092 195.367625 
L 373.296433 194.46584 
L 373.808399 193.564055 
L 374.677305 192.66227 
L 375.692587 191.760485 
L 376.687655 190.8587 
L 377.566395 189.956915 
L 378.299468 189.05513 
L 378.90206 188.153345 
L 379.408087 187.25156 
L 379.851477 186.349775 
L 380.25769 185.44799 
L 380.642659 184.546205 
L 381.014323 183.644421 
L 381.373574 182.742636 
L 381.714629 181.840851 
L 382.026748 180.939066 
L 382.298516 180.037281 
L 382.523498 179.135496 
L 382.70423 178.233711 
L 382.852056 177.331926 
L 382.98277 176.430141 
L 383.110576 175.528356 
L 383.243495 174.626571 
L 383.38211 173.724786 
L 383.52141 172.823001 
L 383.654117 171.921216 
L 383.773729 171.019431 
L 383.876422 170.117646 
L 383.961831 169.215861 
L 384.033115 168.314076 
L 384.096339 167.412291 
L 384.158922 166.510506 
L 384.227155 165.608721 
L 384.303618 164.706937 
L 384.385896 163.805152 
L 384.467627 162.903367 
L 384.541661 162.001582 
L 384.603837 161.099797 
L 384.655517 160.198012 
L 384.703783 159.296227 
L 384.759445 158.394442 
L 384.833975 157.492657 
L 384.936552 156.590872 
L 385.07201 155.689087 
L 385.239932 154.787302 
L 385.435013 153.885517 
L 385.648728 152.983732 
L 385.871972 152.081947 
L 386.097677 151.180162 
L 386.322125 150.278377 
L 386.544329 149.376592 
L 386.764009 148.474807 
L 386.979534 147.573022 
L 387.186963 146.671238 
L 387.380527 145.769453 
L 387.554095 144.867668 
L 387.702921 143.965883 
L 387.82505 143.064098 
L 387.921943 142.162313 
L 387.99817 141.260528 
L 388.060329 140.358743 
L 388.115525 139.456958 
L 388.169787 138.555173 
L 388.226797 137.653388 
L 388.287267 136.751603 
L 388.349244 135.849818 
L 388.409311 134.948033 
L 388.46416 134.046248 
L 388.511771 133.144463 
L 388.551646 132.242678 
L 388.584193 131.340893 
L 388.609873 130.439108 
L 388.628741 129.537323 
L 388.640628 128.635539 
L 388.645733 127.733754 
L 388.645175 126.831969 
L 388.641149 125.930184 
L 388.636595 125.028399 
L 388.634457 124.126614 
L 388.63685 123.224829 
L 388.644416 122.323044 
L 388.656197 121.421259 
L 388.670096 120.519474 
L 388.683753 119.617689 
L 388.695411 118.715904 
L 388.704384 117.814119 
L 388.710975 116.912334 
L 388.716013 116.010549 
L 388.720344 115.108764 
L 388.724524 114.206979 
L 388.728757 113.305194 
L 388.769636 113.305194 
L 388.769636 113.305194 
L 388.773869 114.206979 
L 388.778049 115.108764 
L 388.782381 116.010549 
L 388.787419 116.912334 
L 388.79401 117.814119 
L 388.802983 118.715904 
L 388.814641 119.617689 
L 388.828298 120.519474 
L 388.842197 121.421259 
L 388.853977 122.323044 
L 388.861543 123.224829 
L 388.863936 124.126614 
L 388.861799 125.028399 
L 388.857244 125.930184 
L 388.853219 126.831969 
L 388.85266 127.733754 
L 388.857765 128.635539 
L 388.869653 129.537323 
L 388.888521 130.439108 
L 388.914201 131.340893 
L 388.946748 132.242678 
L 388.986622 133.144463 
L 389.034233 134.046248 
L 389.089083 134.948033 
L 389.149149 135.849818 
L 389.211126 136.751603 
L 389.271596 137.653388 
L 389.328607 138.555173 
L 389.382869 139.456958 
L 389.438064 140.358743 
L 389.500224 141.260528 
L 389.576451 142.162313 
L 389.673343 143.064098 
L 389.795472 143.965883 
L 389.944298 144.867668 
L 390.117866 145.769453 
L 390.311431 146.671238 
L 390.51886 147.573022 
L 390.734384 148.474807 
L 390.954065 149.376592 
L 391.176269 150.278377 
L 391.400717 151.180162 
L 391.626421 152.081947 
L 391.849666 152.983732 
L 392.063381 153.885517 
L 392.258461 154.787302 
L 392.426383 155.689087 
L 392.561842 156.590872 
L 392.664419 157.492657 
L 392.738949 158.394442 
L 392.794611 159.296227 
L 392.842876 160.198012 
L 392.894557 161.099797 
L 392.956732 162.001582 
L 393.030766 162.903367 
L 393.112497 163.805152 
L 393.194775 164.706937 
L 393.271238 165.608721 
L 393.339471 166.510506 
L 393.402054 167.412291 
L 393.465279 168.314076 
L 393.536563 169.215861 
L 393.621972 170.117646 
L 393.724664 171.019431 
L 393.844277 171.921216 
L 393.976983 172.823001 
L 394.116284 173.724786 
L 394.254898 174.626571 
L 394.387817 175.528356 
L 394.515624 176.430141 
L 394.646338 177.331926 
L 394.794163 178.233711 
L 394.974896 179.135496 
L 395.199877 180.037281 
L 395.471645 180.939066 
L 395.783764 181.840851 
L 396.12482 182.742636 
L 396.484071 183.644421 
L 396.855735 184.546205 
L 397.240704 185.44799 
L 397.646917 186.349775 
L 398.090307 187.25156 
L 398.596333 188.153345 
L 399.198925 189.05513 
L 399.931999 189.956915 
L 400.810738 190.8587 
L 401.805806 191.760485 
L 402.821089 192.66227 
L 403.689994 193.564055 
L 404.20196 194.46584 
L 404.158301 195.367625 
L 403.439546 196.26941 
L 402.05529 197.171195 
L 400.151606 198.07298 
L 397.970463 198.974765 
L 395.779196 199.87655 
L 393.801068 200.778335 
L 392.172973 201.68012 
L 390.939045 202.581904 
z
" clip-path="url(#p7329db002c)" style="fill: #aa4639; fill-opacity: 0.3"/>
   </g>
   <g id="matplotlib.axis_1">
    <g id="xtick_1">
     <g id="line2d_1">
      <defs>
       <path id="m0ff9931ec3" d="M 0 0 
L 0 4 
" style="stroke: #000000"/>
      </defs>
      <g>
       <use xlink:href="#m0ff9931ec3" x="79.693928" y="221.22" style="stroke: #000000"/>
      </g>
     </g>
     <g id="text_1">
      <!-- $A$ -->
      <g transform="translate(75.553928 237.72)scale(0.12 -0.12)">
       <defs>
        <path id="DejaVuSans-Oblique-41" d="M 2356 4666 
L 3072 4666 
L 3938 0 
L 3278 0 
L 3084 1197 
L 984 1197 
L 325 0 
L -341 0 
L 2356 4666 
z
M 2584 4044 
L 1275 1722 
L 2988 1722 
L 2584 4044 
z
" transform="scale(0.015625)"/>
       </defs>
       <use xlink:href="#DejaVuSans-Oblique-41" transform="translate(0 0.09375)"/>
      </g>
     </g>
    </g>
    <g id="xtick_2">
     <g id="line2d_2">
      <g>
       <use xlink:href="#m0ff9931ec3" x="141.504982" y="221.22" style="stroke: #000000"/>
      </g>
     </g>
     <g id="text_2">
      <!-- $B$ -->
      <g transform="translate(137.364982 237.72)scale(0.12 -0.12)">
       <defs>
        <path id="DejaVuSans-Oblique-42" d="M 1081 4666 
L 2694 4666 
Q 3350 4666 3675 4422 
Q 4000 4178 4000 3688 
Q 4000 3238 3720 2911 
Q 3441 2584 2988 2516 
Q 3375 2428 3569 2181 
Q 3763 1934 3763 1522 
Q 3763 819 3242 409 
Q 2722 0 1819 0 
L 172 0 
L 1081 4666 
z
M 1234 2228 
L 903 519 
L 1919 519 
Q 2491 519 2800 781 
Q 3109 1044 3109 1522 
Q 3109 1891 2904 2059 
Q 2700 2228 2247 2228 
L 1234 2228 
z
M 1606 4147 
L 1331 2741 
L 2272 2741 
Q 2775 2741 3058 2959 
Q 3341 3178 3341 3566 
Q 3341 3869 3150 4008 
Q 2959 4147 2541 4147 
L 1606 4147 
z
" transform="scale(0.015625)"/>
       </defs>
       <use xlink:href="#DejaVuSans-Oblique-42" transform="translate(0 0.09375)"/>
      </g>
     </g>
    </g>
    <g id="xtick_3">
     <g id="line2d_3">
      <g>
       <use xlink:href="#m0ff9931ec3" x="203.316036" y="221.22" style="stroke: #000000"/>
      </g>
     </g>
     <g id="text_3">
      <!-- $C$ -->
      <g transform="translate(199.116036 237.72)scale(0.12 -0.12)">
       <defs>
        <path id="DejaVuSans-Oblique-43" d="M 4447 4306 
L 4319 3641 
Q 4019 3944 3683 4091 
Q 3347 4238 2956 4238 
Q 2422 4238 2017 3981 
Q 1613 3725 1319 3200 
Q 1131 2863 1032 2486 
Q 934 2109 934 1728 
Q 934 1091 1264 756 
Q 1594 422 2222 422 
Q 2656 422 3056 561 
Q 3456 700 3834 978 
L 3688 231 
Q 3316 72 2936 -9 
Q 2556 -91 2175 -91 
Q 1278 -91 773 396 
Q 269 884 269 1753 
Q 269 2309 461 2846 
Q 653 3384 1013 3828 
Q 1394 4300 1883 4525 
Q 2372 4750 3022 4750 
Q 3422 4750 3780 4639 
Q 4138 4528 4447 4306 
z
" transform="scale(0.015625)"/>
       </defs>
       <use xlink:href="#DejaVuSans-Oblique-43" transform="translate(0 0.78125)"/>
      </g>
     </g>
    </g>
    <g id="xtick_4">
     <g id="line2d_4">
      <g>
       <use xlink:href="#m0ff9931ec3" x="265.127089" y="221.22" style="stroke: #000000"/>
      </g>
     </g>
     <g id="text_4">
      <!-- $D_J$ -->
      <g transform="translate(259.067089 237.48)scale(0.12 -0.12)">
       <defs>
        <path id="DejaVuSans-Oblique-44" d="M 1081 4666 
L 2438 4666 
Q 3519 4666 4070 4208 
Q 4622 3750 4622 2847 
Q 4622 2250 4412 1698 
Q 4203 1147 3834 769 
Q 3463 381 2891 190 
Q 2319 0 1538 0 
L 172 0 
L 1081 4666 
z
M 1613 4147 
L 909 519 
L 1734 519 
Q 2794 519 3375 1128 
Q 3956 1738 3956 2847 
Q 3956 3519 3581 3833 
Q 3206 4147 2406 4147 
L 1613 4147 
z
" transform="scale(0.015625)"/>
        <path id="DejaVuSans-Oblique-4a" d="M 1069 4666 
L 1703 4666 
L 856 325 
Q 691 -522 298 -901 
Q -94 -1281 -800 -1281 
L -1050 -1281 
L -947 -750 
L -750 -750 
Q -328 -750 -109 -509 
Q 109 -269 225 325 
L 1069 4666 
z
" transform="scale(0.015625)"/>
       </defs>
       <use xlink:href="#DejaVuSans-Oblique-44" transform="translate(0 0.09375)"/>
       <use xlink:href="#DejaVuSans-Oblique-4a" transform="translate(77.001953 -16.3125)scale(0.7)"/>
      </g>
     </g>
    </g>
    <g id="xtick_5">
     <g id="line2d_5">
      <g>
       <use xlink:href="#m0ff9931ec3" x="326.938143" y="221.22" style="stroke: #000000"/>
      </g>
     </g>
     <g id="text_5">
      <!-- $D_{JK}$ -->
      <g transform="translate(318.118143 237.48)scale(0.12 -0.12)">
       <defs>
        <path id="DejaVuSans-Oblique-4b" d="M 1081 4666 
L 1716 4666 
L 1331 2700 
L 3781 4666 
L 4622 4666 
L 1850 2438 
L 3878 0 
L 3109 0 
L 1247 2272 
L 806 0 
L 172 0 
L 1081 4666 
z
" transform="scale(0.015625)"/>
       </defs>
       <use xlink:href="#DejaVuSans-Oblique-44" transform="translate(0 0.09375)"/>
       <use xlink:href="#DejaVuSans-Oblique-4a" transform="translate(77.001953 -16.3125)scale(0.7)"/>
       <use xlink:href="#DejaVuSans-Oblique-4b" transform="translate(97.646484 -16.3125)scale(0.7)"/>
      </g>
     </g>
    </g>
    <g id="xtick_6">
     <g id="line2d_6">
      <g>
       <use xlink:href="#m0ff9931ec3" x="388.749197" y="221.22" style="stroke: #000000"/>
      </g>
     </g>
     <g id="text_6">
      <!-- $D_K$ -->
      <g transform="translate(381.189197 237.72)scale(0.12 -0.12)">
       <use xlink:href="#DejaVuSans-Oblique-44" transform="translate(0 0.09375)"/>
       <use xlink:href="#DejaVuSans-Oblique-4b" transform="translate(77.001953 -16.3125)scale(0.7)"/>
      </g>
     </g>
    </g>
   </g>
   <g id="matplotlib.axis_2">
    <g id="ytick_1">
     <g id="line2d_7">
      <defs>
       <path id="m38659994e2" d="M 0 0 
L -4 0 
" style="stroke: #000000"/>
      </defs>
      <g>
       <use xlink:href="#m38659994e2" x="47.243125" y="221.22" style="stroke: #000000"/>
      </g>
     </g>
     <g id="text_7">
      <!-- −1 -->
      <g transform="translate(26.2375 225.72)scale(0.12 -0.12)">
       <defs>
        <path id="Roboto-Light-2212" d="M 3128 2466 
L 3128 2147 
L 519 2147 
L 519 2466 
L 3128 2466 
z
" transform="scale(0.015625)"/>
        <path id="Roboto-Light-31" d="M 2169 4569 
L 2169 0 
L 1794 0 
L 1794 4100 
L 559 3641 
L 559 3991 
L 2106 4569 
L 2169 4569 
z
" transform="scale(0.015625)"/>
       </defs>
       <use xlink:href="#Roboto-Light-2212"/>
       <use xlink:href="#Roboto-Light-31" x="57.080078"/>
      </g>
     </g>
    </g>
    <g id="ytick_2">
     <g id="line2d_8">
      <g>
       <use xlink:href="#m38659994e2" x="47.243125" y="186.9" style="stroke: #000000"/>
      </g>
     </g>
     <g id="text_8">
      <!-- 0 -->
      <g transform="translate(33.086875 191.4)scale(0.12 -0.12)">
       <defs>
        <path id="Roboto-Light-30" d="M 3172 2666 
L 3172 1900 
Q 3172 897 2805 417 
Q 2438 -63 1778 -63 
Q 1125 -63 750 417 
Q 375 897 375 1900 
L 375 2666 
Q 375 3666 747 4141 
Q 1119 4616 1772 4616 
Q 2431 4616 2801 4141 
Q 3172 3666 3172 2666 
z
M 2800 1856 
L 2800 2713 
Q 2800 4297 1772 4297 
Q 750 4297 750 2713 
L 750 1856 
Q 750 1091 1009 673 
Q 1269 256 1778 256 
Q 2294 256 2547 673 
Q 2800 1091 2800 1856 
z
" transform="scale(0.015625)"/>
       </defs>
       <use xlink:href="#Roboto-Light-30"/>
      </g>
     </g>
    </g>
    <g id="ytick_3">
     <g id="line2d_9">
      <g>
       <use xlink:href="#m38659994e2" x="47.243125" y="152.58" style="stroke: #000000"/>
      </g>
     </g>
     <g id="text_9">
      <!-- 1 -->
      <g transform="translate(33.086875 157.08)scale(0.12 -0.12)">
       <use xlink:href="#Roboto-Light-31"/>
      </g>
     </g>
    </g>
    <g id="ytick_4">
     <g id="line2d_10">
      <g>
       <use xlink:href="#m38659994e2" x="47.243125" y="118.26" style="stroke: #000000"/>
      </g>
     </g>
     <g id="text_10">
      <!-- 2 -->
      <g transform="translate(33.086875 122.76)scale(0.12 -0.12)">
       <defs>
        <path id="Roboto-Light-32" d="M 3281 319 
L 3281 0 
L 428 0 
L 428 291 
L 1919 1978 
Q 2338 2453 2508 2764 
Q 2678 3075 2678 3359 
Q 2678 3772 2434 4033 
Q 2191 4294 1728 4294 
Q 1253 4294 978 3995 
Q 703 3697 703 3238 
L 328 3238 
Q 328 3803 700 4208 
Q 1072 4613 1728 4613 
Q 2344 4613 2698 4289 
Q 3053 3966 3053 3394 
Q 3053 2981 2779 2562 
Q 2506 2144 2159 1750 
L 888 319 
L 3281 319 
z
" transform="scale(0.015625)"/>
       </defs>
       <use xlink:href="#Roboto-Light-32"/>
      </g>
     </g>
    </g>
    <g id="ytick_5">
     <g id="line2d_11">
      <g>
       <use xlink:href="#m38659994e2" x="47.243125" y="83.94" style="stroke: #000000"/>
      </g>
     </g>
     <g id="text_11">
      <!-- 3 -->
      <g transform="translate(33.086875 88.44)scale(0.12 -0.12)">
       <defs>
        <path id="Roboto-Light-33" d="M 1641 2159 
L 1263 2159 
L 1263 2481 
L 1641 2481 
Q 2166 2481 2436 2740 
Q 2706 3000 2706 3366 
Q 2706 3775 2473 4034 
Q 2241 4294 1750 4294 
Q 1322 4294 1036 4042 
Q 750 3791 750 3356 
L 378 3356 
Q 378 3909 768 4261 
Q 1159 4613 1750 4613 
Q 2350 4613 2714 4284 
Q 3078 3956 3078 3353 
Q 3078 3047 2881 2761 
Q 2684 2475 2300 2331 
Q 2750 2209 2956 1914 
Q 3163 1619 3163 1238 
Q 3163 616 2766 276 
Q 2369 -63 1766 -63 
Q 1397 -63 1064 81 
Q 731 225 520 512 
Q 309 800 309 1234 
L 684 1234 
Q 684 800 986 528 
Q 1288 256 1766 256 
Q 2250 256 2520 506 
Q 2791 756 2791 1225 
Q 2791 1719 2472 1939 
Q 2153 2159 1641 2159 
z
" transform="scale(0.015625)"/>
       </defs>
       <use xlink:href="#Roboto-Light-33"/>
      </g>
     </g>
    </g>
    <g id="ytick_6">
     <g id="line2d_12">
      <g>
       <use xlink:href="#m38659994e2" x="47.243125" y="49.62" style="stroke: #000000"/>
      </g>
     </g>
     <g id="text_12">
      <!-- 4 -->
      <g transform="translate(33.086875 54.12)scale(0.12 -0.12)">
       <defs>
        <path id="Roboto-Light-34" d="M 213 1366 
L 2316 4550 
L 2725 4550 
L 2725 1469 
L 3434 1469 
L 3434 1150 
L 2725 1150 
L 2725 0 
L 2350 0 
L 2350 1150 
L 213 1150 
L 213 1366 
z
M 672 1469 
L 2350 1469 
L 2350 4066 
L 2184 3778 
L 672 1469 
z
" transform="scale(0.015625)"/>
       </defs>
       <use xlink:href="#Roboto-Light-34"/>
      </g>
     </g>
    </g>
    <g id="ytick_7">
     <g id="line2d_13">
      <g>
       <use xlink:href="#m38659994e2" x="47.243125" y="15.3" style="stroke: #000000"/>
      </g>
     </g>
     <g id="text_13">
      <!-- 5 -->
      <g transform="translate(33.086875 19.8)scale(0.12 -0.12)">
       <defs>
        <path id="Roboto-Light-35" d="M 978 2250 
L 684 2334 
L 906 4550 
L 3181 4550 
L 3181 4203 
L 1228 4203 
L 1066 2666 
Q 1181 2750 1409 2834 
Q 1638 2919 1922 2919 
Q 2531 2919 2901 2525 
Q 3272 2131 3272 1450 
Q 3272 797 2945 367 
Q 2619 -63 1909 -63 
Q 1369 -63 975 246 
Q 581 556 525 1197 
L 884 1197 
Q 991 256 1909 256 
Q 2394 256 2645 565 
Q 2897 875 2897 1444 
Q 2897 1925 2626 2251 
Q 2356 2578 1856 2578 
Q 1531 2578 1337 2489 
Q 1144 2400 978 2250 
z
" transform="scale(0.015625)"/>
       </defs>
       <use xlink:href="#Roboto-Light-35"/>
      </g>
     </g>
    </g>
    <g id="text_14">
     <!-- Gaussian NLL -->
     <g transform="translate(19.8 155.378437)rotate(-90)scale(0.12 -0.12)">
      <defs>
       <path id="Roboto-Regular-47" d="M 3891 2266 
L 3891 600 
Q 3763 413 3403 175 
Q 3044 -63 2281 -63 
Q 1450 -63 915 507 
Q 381 1078 381 2100 
L 381 2453 
Q 381 3469 856 4041 
Q 1331 4613 2213 4613 
Q 2994 4613 3398 4219 
Q 3803 3825 3891 3219 
L 3288 3219 
Q 3225 3588 2979 3853 
Q 2734 4119 2213 4119 
Q 1581 4119 1284 3672 
Q 988 3225 988 2459 
L 988 2100 
Q 988 1313 1344 870 
Q 1700 428 2284 428 
Q 2769 428 2984 542 
Q 3200 656 3291 759 
L 3291 1778 
L 2238 1778 
L 2238 2266 
L 3891 2266 
z
" transform="scale(0.015625)"/>
       <path id="Roboto-Regular-61" d="M 2528 0 
Q 2472 122 2447 356 
Q 2284 184 2040 60 
Q 1797 -63 1484 -63 
Q 966 -63 653 228 
Q 341 519 341 941 
Q 341 1484 753 1767 
Q 1166 2050 1863 2050 
L 2434 2050 
L 2434 2319 
Q 2434 2619 2254 2798 
Q 2075 2978 1722 2978 
Q 1394 2978 1192 2817 
Q 991 2656 991 2444 
L 413 2444 
Q 413 2806 778 3125 
Q 1144 3444 1756 3444 
Q 2306 3444 2659 3162 
Q 3013 2881 3013 2313 
L 3013 738 
Q 3013 569 3042 378 
Q 3072 188 3131 50 
L 3131 0 
L 2528 0 
z
M 1569 444 
Q 1881 444 2111 600 
Q 2341 756 2434 947 
L 2434 1644 
L 1956 1644 
Q 922 1644 922 1019 
Q 922 778 1084 611 
Q 1247 444 1569 444 
z
" transform="scale(0.015625)"/>
       <path id="Roboto-Regular-75" d="M 2538 0 
L 2525 334 
Q 2369 147 2125 42 
Q 1881 -63 1538 -63 
Q 1041 -63 734 231 
Q 428 525 428 1200 
L 428 3381 
L 1006 3381 
L 1006 1194 
Q 1006 738 1198 583 
Q 1391 428 1628 428 
Q 1981 428 2193 562 
Q 2406 697 2509 919 
L 2509 3381 
L 3091 3381 
L 3091 0 
L 2538 0 
z
" transform="scale(0.015625)"/>
       <path id="Roboto-Regular-73" d="M 2409 897 
Q 2409 1084 2270 1232 
Q 2131 1381 1631 1481 
Q 1066 1600 739 1819 
Q 413 2038 413 2456 
Q 413 2856 755 3150 
Q 1097 3444 1666 3444 
Q 2272 3444 2612 3134 
Q 2953 2825 2953 2388 
L 2375 2388 
Q 2375 2597 2190 2783 
Q 2006 2969 1666 2969 
Q 1306 2969 1150 2812 
Q 994 2656 994 2472 
Q 994 2284 1144 2170 
Q 1294 2056 1772 1950 
Q 2394 1806 2691 1578 
Q 2988 1350 2988 941 
Q 2988 494 2630 215 
Q 2272 -63 1681 -63 
Q 1009 -63 653 281 
Q 297 625 297 1044 
L 878 1044 
Q 897 684 1155 548 
Q 1413 413 1681 413 
Q 2034 413 2221 550 
Q 2409 688 2409 897 
z
" transform="scale(0.015625)"/>
       <path id="Roboto-Regular-69" d="M 444 4278 
Q 444 4419 530 4516 
Q 616 4613 784 4613 
Q 950 4613 1039 4516 
Q 1128 4419 1128 4278 
Q 1128 4144 1039 4048 
Q 950 3953 784 3953 
Q 616 3953 530 4048 
Q 444 4144 444 4278 
z
M 1069 3381 
L 1069 0 
L 488 0 
L 488 3381 
L 1069 3381 
z
" transform="scale(0.015625)"/>
       <path id="Roboto-Regular-6e" d="M 1844 2956 
Q 1566 2956 1353 2806 
Q 1141 2656 1019 2416 
L 1019 0 
L 441 0 
L 441 3381 
L 988 3381 
L 1006 2959 
Q 1391 3444 2016 3444 
Q 2516 3444 2808 3162 
Q 3100 2881 3100 2216 
L 3100 0 
L 2519 0 
L 2519 2222 
Q 2519 2619 2345 2787 
Q 2172 2956 1844 2956 
z
" transform="scale(0.015625)"/>
       <path id="Roboto-Regular-20" transform="scale(0.015625)"/>
       <path id="Roboto-Regular-4e" d="M 4028 4550 
L 4028 0 
L 3422 0 
L 1131 3509 
L 1131 0 
L 528 0 
L 528 4550 
L 1131 4550 
L 3431 1031 
L 3431 4550 
L 4028 4550 
z
" transform="scale(0.015625)"/>
       <path id="Roboto-Regular-4c" d="M 3288 491 
L 3288 0 
L 528 0 
L 528 4550 
L 1131 4550 
L 1131 491 
L 3288 491 
z
" transform="scale(0.015625)"/>
      </defs>
      <use xlink:href="#Roboto-Regular-47"/>
      <use xlink:href="#Roboto-Regular-61" x="68.115234"/>
      <use xlink:href="#Roboto-Regular-75" x="122.509766"/>
      <use xlink:href="#Roboto-Regular-73" x="177.636719"/>
      <use xlink:href="#Roboto-Regular-73" x="229.248047"/>
      <use xlink:href="#Roboto-Regular-69" x="280.859375"/>
      <use xlink:href="#Roboto-Regular-61" x="305.175781"/>
      <use xlink:href="#Roboto-Regular-6e" x="359.570312"/>
      <use xlink:href="#Roboto-Regular-20" x="414.794922"/>
      <use xlink:href="#Roboto-Regular-4e" x="439.599609"/>
      <use xlink:href="#Roboto-Regular-4c" x="510.9375"/>
      <use xlink:href="#Roboto-Regular-4c" x="564.794922"/>
     </g>
    </g>
   </g>
   <g id="LineCollection_1">
    <path d="M 71.967546 182.552244 
L 87.42031 182.552244 
" clip-path="url(#p7329db002c)" style="fill: none; stroke: #aa4639"/>
    <path d="M 133.7786 182.1674 
L 149.231364 182.1674 
" clip-path="url(#p7329db002c)" style="fill: none; stroke: #aa4639"/>
    <path d="M 195.589654 174.925751 
L 211.042417 174.925751 
" clip-path="url(#p7329db002c)" style="fill: none; stroke: #aa4639"/>
    <path d="M 257.400708 196.8854 
L 272.853471 196.8854 
" clip-path="url(#p7329db002c)" style="fill: none; stroke: #aa4639"/>
    <path d="M 319.211761 195.329838 
L 334.664525 195.329838 
" clip-path="url(#p7329db002c)" style="fill: none; stroke: #aa4639"/>
    <path d="M 381.022815 185.325826 
L 396.475579 185.325826 
" clip-path="url(#p7329db002c)" style="fill: none; stroke: #aa4639"/>
   </g>
   <g id="patch_3">
    <path d="M 47.243125 221.22 
L 47.243125 15.3 
" style="fill: none; stroke: #000000; stroke-linejoin: miter; stroke-linecap: square"/>
   </g>
   <g id="patch_4">
    <path d="M 421.2 221.22 
L 421.2 15.3 
" style="fill: none; stroke: #000000; stroke-linejoin: miter; stroke-linecap: square"/>
   </g>
   <g id="patch_5">
    <path d="M 47.243125 221.22 
L 421.2 221.22 
" style="fill: none; stroke: #000000; stroke-linejoin: miter; stroke-linecap: square"/>
   </g>
   <g id="patch_6">
    <path d="M 47.243125 15.3 
L 421.2 15.3 
" style="fill: none; stroke: #000000; stroke-linejoin: miter; stroke-linecap: square"/>
   </g>
  </g>
 </g>
 <defs>
  <clipPath id="p7329db002c">
   <rect x="47.243125" y="15.3" width="373.956875" height="205.92"/>
  </clipPath>
 </defs>
</svg>
