<?xml version="1.0" encoding="utf-8" standalone="no"?>
<!DOCTYPE svg PUBLIC "-//W3C//DTD SVG 1.1//EN"
  "http://www.w3.org/Graphics/SVG/1.1/DTD/svg11.dtd">
<svg xmlns:xlink="http://www.w3.org/1999/xlink" width="576pt" height="396pt" viewBox="0 0 576 396" xmlns="http://www.w3.org/2000/svg" version="1.1">
 <metadata>
  <rdf:RDF xmlns:dc="http://purl.org/dc/elements/1.1/" xmlns:cc="http://creativecommons.org/ns#" xmlns:rdf="http://www.w3.org/1999/02/22-rdf-syntax-ns#">
   <cc:Work>
    <dc:type rdf:resource="http://purl.org/dc/dcmitype/StillImage"/>
    <dc:date>2022-06-06T13:25:02.390308</dc:date>
    <dc:format>image/svg+xml</dc:format>
    <dc:creator>
     <cc:Agent>
      <dc:title>Matplotlib v3.5.1, https://matplotlib.org/</dc:title>
     </cc:Agent>
    </dc:creator>
   </cc:Work>
  </rdf:RDF>
 </metadata>
 <defs>
  <style type="text/css">*{stroke-linejoin: round; stroke-linecap: butt}</style>
 </defs>
 <g id="figure_1">
  <g id="patch_1">
   <path d="M 0 396 
L 576 396 
L 576 0 
L 0 0 
L 0 396 
z
" style="fill: none"/>
  </g>
  <g id="axes_1">
   <g id="patch_2">
    <path d="M 48.136875 82.759296 
L 157.312914 82.759296 
L 157.312914 10.8 
L 48.136875 10.8 
L 48.136875 82.759296 
z
" style="fill: none"/>
   </g>
   <g id="matplotlib.axis_1">
    <g id="xtick_1">
     <g id="line2d_1">
      <defs>
       <path id="m8b834a534a" d="M 0 0 
L 0 4 
" style="stroke: #000000"/>
      </defs>
      <g>
       <use xlink:href="#m8b834a534a" x="53.099422" y="82.759296" style="stroke: #000000"/>
      </g>
     </g>
    </g>
    <g id="xtick_2">
     <g id="line2d_2">
      <g>
       <use xlink:href="#m8b834a534a" x="102.77457" y="82.759296" style="stroke: #000000"/>
      </g>
     </g>
    </g>
    <g id="xtick_3">
     <g id="line2d_3">
      <g>
       <use xlink:href="#m8b834a534a" x="152.449717" y="82.759296" style="stroke: #000000"/>
      </g>
     </g>
    </g>
   </g>
   <g id="matplotlib.axis_2">
    <g id="ytick_1">
     <g id="line2d_4">
      <defs>
       <path id="m31c93f3dd5" d="M 0 0 
L -4 0 
" style="stroke: #000000"/>
      </defs>
      <g>
       <use xlink:href="#m31c93f3dd5" x="48.136875" y="79.523565" style="stroke: #000000"/>
      </g>
     </g>
     <g id="text_1">
      <!-- 0 -->
      <g transform="translate(33.980625 84.023565)scale(0.12 -0.12)">
       <defs>
        <path id="Roboto-Light-30" d="M 3172 2666 
L 3172 1900 
Q 3172 897 2805 417 
Q 2438 -63 1778 -63 
Q 1125 -63 750 417 
Q 375 897 375 1900 
L 375 2666 
Q 375 3666 747 4141 
Q 1119 4616 1772 4616 
Q 2431 4616 2801 4141 
Q 3172 3666 3172 2666 
z
M 2800 1856 
L 2800 2713 
Q 2800 4297 1772 4297 
Q 750 4297 750 2713 
L 750 1856 
Q 750 1091 1009 673 
Q 1269 256 1778 256 
Q 2294 256 2547 673 
Q 2800 1091 2800 1856 
z
" transform="scale(0.015625)"/>
       </defs>
       <use xlink:href="#Roboto-Light-30"/>
      </g>
     </g>
    </g>
    <g id="ytick_2">
     <g id="line2d_5">
      <g>
       <use xlink:href="#m31c93f3dd5" x="48.136875" y="18.926883" style="stroke: #000000"/>
      </g>
     </g>
     <g id="text_2">
      <!-- 5 -->
      <g transform="translate(33.980625 23.426883)scale(0.12 -0.12)">
       <defs>
        <path id="Roboto-Light-35" d="M 978 2250 
L 684 2334 
L 906 4550 
L 3181 4550 
L 3181 4203 
L 1228 4203 
L 1066 2666 
Q 1181 2750 1409 2834 
Q 1638 2919 1922 2919 
Q 2531 2919 2901 2525 
Q 3272 2131 3272 1450 
Q 3272 797 2945 367 
Q 2619 -63 1909 -63 
Q 1369 -63 975 246 
Q 581 556 525 1197 
L 884 1197 
Q 991 256 1909 256 
Q 2394 256 2645 565 
Q 2897 875 2897 1444 
Q 2897 1925 2626 2251 
Q 2356 2578 1856 2578 
Q 1531 2578 1337 2489 
Q 1144 2400 978 2250 
z
" transform="scale(0.015625)"/>
       </defs>
       <use xlink:href="#Roboto-Light-35"/>
      </g>
     </g>
    </g>
   </g>
   <g id="line2d_6">
    <path d="M 53.099422 72.130769 
L 53.397473 61.702081 
L 53.794874 56.3114 
L 54.291626 52.508352 
L 54.887728 49.526995 
L 55.68253 46.762573 
L 56.576683 44.495046 
L 57.570185 42.562013 
L 58.762389 40.733204 
L 60.053943 39.135876 
L 61.643548 37.530065 
L 63.531203 35.969093 
L 65.518209 34.600819 
L 68.101317 33.116201 
L 70.883125 31.777016 
L 74.360385 30.367533 
L 78.632448 28.921698 
L 82.60646 27.77642 
L 87.971376 26.45178 
L 93.534992 25.276203 
L 101.085615 23.915203 
L 108.040135 22.839006 
L 116.882311 21.654946 
L 129.102398 20.275765 
L 146.6874 18.668743 
L 152.350367 18.22396 
L 152.350367 18.22396 
" clip-path="url(#pa9025c4ca3)" style="fill: none; stroke: #aa4639; stroke-linecap: square"/>
   </g>
   <g id="line2d_7">
    <path d="M 53.099422 70.569315 
L 53.397473 60.217772 
L 53.794874 54.943758 
L 54.390976 50.819237 
L 55.086428 47.471622 
L 55.88123 44.787343 
L 56.775383 42.62876 
L 57.768886 40.798761 
L 58.96109 39.045164 
L 60.351994 37.385525 
L 61.941598 35.839997 
L 63.729904 34.418586 
L 65.81626 33.05541 
L 68.300017 31.709221 
L 71.379876 30.306126 
L 75.155188 28.839654 
L 79.625951 27.348436 
L 84.494115 25.959321 
L 89.859031 24.661514 
L 95.820049 23.450171 
L 102.675219 22.290405 
L 110.424542 21.208002 
L 119.564769 20.16207 
L 130.294601 19.163074 
L 142.912089 18.214875 
L 152.350367 17.627295 
L 152.350367 17.627295 
" clip-path="url(#pa9025c4ca3)" style="fill: none; stroke-dasharray: 3.7,1.6; stroke-dashoffset: 0; stroke: #255c69"/>
   </g>
   <g id="patch_3">
    <path d="M 48.136875 82.759296 
L 48.136875 10.8 
" style="fill: none; stroke: #000000; stroke-linejoin: miter; stroke-linecap: square"/>
   </g>
   <g id="patch_4">
    <path d="M 48.136875 82.759296 
L 157.312914 82.759296 
" style="fill: none; stroke: #000000; stroke-linejoin: miter; stroke-linecap: square"/>
   </g>
   <g id="legend_1">
    <g id="line2d_8">
     <path d="M 64.722289 53.696796 
L 74.722289 53.696796 
L 84.722289 53.696796 
" style="fill: none; stroke: #aa4639; stroke-linecap: square"/>
    </g>
    <g id="text_3">
     <!-- Ground truth -->
     <g transform="translate(92.722289 57.196796)scale(0.1 -0.1)">
      <defs>
       <path id="Roboto-Light-47" d="M 3859 2163 
L 3859 544 
Q 3741 372 3367 154 
Q 2994 -63 2278 -63 
Q 1475 -63 964 500 
Q 453 1063 453 2016 
L 453 2569 
Q 453 3506 926 4059 
Q 1400 4613 2219 4613 
Q 2978 4613 3379 4228 
Q 3781 3844 3856 3269 
L 3472 3269 
Q 3403 3675 3118 3979 
Q 2834 4284 2219 4284 
Q 1553 4284 1197 3814 
Q 841 3344 841 2575 
L 841 2016 
Q 841 1222 1236 742 
Q 1631 263 2281 263 
Q 2800 263 3090 402 
Q 3381 541 3478 659 
L 3478 1834 
L 2256 1834 
L 2256 2163 
L 3859 2163 
z
" transform="scale(0.015625)"/>
       <path id="Roboto-Light-72" d="M 1800 3088 
Q 1422 3088 1189 2877 
Q 956 2666 863 2331 
L 863 0 
L 488 0 
L 488 3381 
L 853 3381 
L 863 2853 
Q 1000 3125 1236 3284 
Q 1472 3444 1813 3444 
Q 1963 3444 2063 3406 
L 2050 3066 
Q 1988 3075 1928 3081 
Q 1869 3088 1800 3088 
z
" transform="scale(0.015625)"/>
       <path id="Roboto-Light-6f" d="M 284 1641 
L 284 1741 
Q 284 2478 696 2961 
Q 1109 3444 1791 3444 
Q 2481 3444 2892 2961 
Q 3303 2478 3303 1741 
L 3303 1641 
Q 3303 900 2892 418 
Q 2481 -63 1797 -63 
Q 1109 -63 696 418 
Q 284 900 284 1641 
z
M 659 1741 
L 659 1641 
Q 659 1081 951 668 
Q 1244 256 1797 256 
Q 2344 256 2636 668 
Q 2928 1081 2928 1641 
L 2928 1741 
Q 2928 2288 2634 2706 
Q 2341 3125 1791 3125 
Q 1244 3125 951 2706 
Q 659 2288 659 1741 
z
" transform="scale(0.015625)"/>
       <path id="Roboto-Light-75" d="M 2672 0 
L 2663 428 
Q 2506 200 2240 68 
Q 1975 -63 1588 -63 
Q 1091 -63 783 231 
Q 475 525 475 1219 
L 475 3381 
L 850 3381 
L 850 1213 
Q 850 672 1079 467 
Q 1309 263 1631 263 
Q 2078 263 2320 452 
Q 2563 641 2656 928 
L 2656 3381 
L 3031 3381 
L 3031 0 
L 2672 0 
z
" transform="scale(0.015625)"/>
       <path id="Roboto-Light-6e" d="M 1869 3122 
Q 1475 3122 1223 2876 
Q 972 2631 863 2325 
L 863 0 
L 488 0 
L 488 3381 
L 847 3381 
L 859 2809 
Q 1034 3097 1317 3270 
Q 1600 3444 1963 3444 
Q 2466 3444 2753 3158 
Q 3041 2872 3041 2203 
L 3041 0 
L 2666 0 
L 2666 2203 
Q 2666 2728 2452 2925 
Q 2238 3122 1869 3122 
z
" transform="scale(0.015625)"/>
       <path id="Roboto-Light-64" d="M 2713 0 
L 2694 453 
Q 2528 213 2265 75 
Q 2003 -63 1638 -63 
Q 1041 -63 691 418 
Q 341 900 341 1656 
L 341 1722 
Q 341 2509 691 2976 
Q 1041 3444 1644 3444 
Q 2003 3444 2261 3303 
Q 2519 3163 2688 2909 
L 2688 4800 
L 3063 4800 
L 3063 0 
L 2713 0 
z
M 716 1656 
Q 716 1066 958 664 
Q 1200 263 1709 263 
Q 2091 263 2327 436 
Q 2563 609 2688 872 
L 2688 2469 
Q 2578 2725 2350 2922 
Q 2122 3119 1716 3119 
Q 1200 3119 958 2716 
Q 716 2313 716 1722 
L 716 1656 
z
" transform="scale(0.015625)"/>
       <path id="Roboto-Light-20" transform="scale(0.015625)"/>
       <path id="Roboto-Light-74" d="M 1831 -13 
Q 1688 -63 1431 -63 
Q 1106 -63 900 126 
Q 694 316 694 825 
L 694 3075 
L 75 3075 
L 75 3381 
L 694 3381 
L 694 4250 
L 1072 4250 
L 1072 3381 
L 1769 3381 
L 1769 3075 
L 1072 3075 
L 1072 825 
Q 1072 469 1205 367 
Q 1338 266 1509 266 
Q 1597 266 1673 277 
Q 1750 288 1816 300 
L 1831 -13 
z
" transform="scale(0.015625)"/>
       <path id="Roboto-Light-68" d="M 1869 3122 
Q 1475 3122 1223 2876 
Q 972 2631 863 2325 
L 863 0 
L 488 0 
L 488 4800 
L 863 4800 
L 863 2816 
Q 1038 3100 1319 3272 
Q 1600 3444 1963 3444 
Q 2466 3444 2753 3158 
Q 3041 2872 3041 2203 
L 3041 0 
L 2666 0 
L 2666 2203 
Q 2666 2728 2452 2925 
Q 2238 3122 1869 3122 
z
" transform="scale(0.015625)"/>
      </defs>
      <use xlink:href="#Roboto-Light-47"/>
      <use xlink:href="#Roboto-Light-72" x="68.408203"/>
      <use xlink:href="#Roboto-Light-6f" x="102.099609"/>
      <use xlink:href="#Roboto-Light-75" x="158.154297"/>
      <use xlink:href="#Roboto-Light-6e" x="213.085938"/>
      <use xlink:href="#Roboto-Light-64" x="268.066406"/>
      <use xlink:href="#Roboto-Light-20" x="323.632812"/>
      <use xlink:href="#Roboto-Light-74" x="347.998047"/>
      <use xlink:href="#Roboto-Light-72" x="380.175781"/>
      <use xlink:href="#Roboto-Light-75" x="413.867188"/>
      <use xlink:href="#Roboto-Light-74" x="468.798828"/>
      <use xlink:href="#Roboto-Light-68" x="500.976562"/>
     </g>
    </g>
    <g id="line2d_9">
     <path d="M 64.722289 68.228046 
L 74.722289 68.228046 
L 84.722289 68.228046 
" style="fill: none; stroke-dasharray: 3.7,1.6; stroke-dashoffset: 0; stroke: #255c69"/>
    </g>
    <g id="text_4">
     <!-- Prediction -->
     <g transform="translate(92.722289 71.728046)scale(0.1 -0.1)">
      <defs>
       <path id="Roboto-Light-50" d="M 2128 1853 
L 963 1853 
L 963 0 
L 578 0 
L 578 4550 
L 2128 4550 
Q 2878 4550 3268 4173 
Q 3659 3797 3659 3194 
Q 3659 2563 3268 2208 
Q 2878 1853 2128 1853 
z
M 963 4222 
L 963 2181 
L 2128 2181 
Q 2734 2181 3004 2472 
Q 3275 2763 3275 3188 
Q 3275 3606 3004 3914 
Q 2734 4222 2128 4222 
L 963 4222 
z
" transform="scale(0.015625)"/>
       <path id="Roboto-Light-65" d="M 2997 538 
Q 2831 291 2540 114 
Q 2250 -63 1797 -63 
Q 1138 -63 709 403 
Q 281 869 281 1597 
L 281 1731 
Q 281 2513 717 2978 
Q 1153 3444 1731 3444 
Q 2375 3444 2722 3008 
Q 3069 2572 3069 1897 
L 3069 1669 
L 656 1669 
L 656 1597 
Q 656 1038 976 645 
Q 1297 253 1813 253 
Q 2409 253 2759 716 
L 2997 538 
z
M 1731 3125 
Q 1303 3125 1017 2812 
Q 731 2500 672 1988 
L 2694 1988 
L 2694 2028 
Q 2684 2453 2445 2789 
Q 2206 3125 1731 3125 
z
" transform="scale(0.015625)"/>
       <path id="Roboto-Light-69" d="M 466 4359 
Q 466 4613 722 4613 
Q 981 4613 981 4359 
Q 981 4113 722 4113 
Q 466 4113 466 4359 
z
M 906 3381 
L 906 0 
L 534 0 
L 534 3381 
L 906 3381 
z
" transform="scale(0.015625)"/>
       <path id="Roboto-Light-63" d="M 1741 256 
Q 2094 256 2373 457 
Q 2653 659 2681 1047 
L 3038 1047 
Q 3013 563 2634 250 
Q 2256 -63 1741 -63 
Q 1028 -63 662 425 
Q 297 913 297 1625 
L 297 1756 
Q 297 2469 662 2956 
Q 1028 3444 1734 3444 
Q 2278 3444 2645 3119 
Q 3013 2794 3038 2244 
L 2681 2244 
Q 2656 2653 2387 2889 
Q 2119 3125 1734 3125 
Q 1156 3125 912 2709 
Q 669 2294 669 1756 
L 669 1625 
Q 669 1084 912 670 
Q 1156 256 1741 256 
z
" transform="scale(0.015625)"/>
      </defs>
      <use xlink:href="#Roboto-Light-50"/>
      <use xlink:href="#Roboto-Light-72" x="61.572266"/>
      <use xlink:href="#Roboto-Light-65" x="95.263672"/>
      <use xlink:href="#Roboto-Light-64" x="146.972656"/>
      <use xlink:href="#Roboto-Light-69" x="202.539062"/>
      <use xlink:href="#Roboto-Light-63" x="225"/>
      <use xlink:href="#Roboto-Light-74" x="276.5625"/>
      <use xlink:href="#Roboto-Light-69" x="308.740234"/>
      <use xlink:href="#Roboto-Light-6f" x="331.201172"/>
      <use xlink:href="#Roboto-Light-6e" x="387.255859"/>
     </g>
    </g>
   </g>
  </g>
  <g id="axes_2">
   <g id="patch_5">
    <path d="M 181.102656 82.759296 
L 290.278695 82.759296 
L 290.278695 10.8 
L 181.102656 10.8 
L 181.102656 82.759296 
z
" style="fill: none"/>
   </g>
   <g id="matplotlib.axis_3">
    <g id="xtick_4">
     <g id="line2d_10">
      <g>
       <use xlink:href="#m8b834a534a" x="186.065203" y="82.759296" style="stroke: #000000"/>
      </g>
     </g>
    </g>
    <g id="xtick_5">
     <g id="line2d_11">
      <g>
       <use xlink:href="#m8b834a534a" x="235.740351" y="82.759296" style="stroke: #000000"/>
      </g>
     </g>
    </g>
    <g id="xtick_6">
     <g id="line2d_12">
      <g>
       <use xlink:href="#m8b834a534a" x="285.415498" y="82.759296" style="stroke: #000000"/>
      </g>
     </g>
    </g>
   </g>
   <g id="matplotlib.axis_4">
    <g id="ytick_3">
     <g id="line2d_13">
      <g>
       <use xlink:href="#m31c93f3dd5" x="181.102656" y="79.523565" style="stroke: #000000"/>
      </g>
     </g>
    </g>
    <g id="ytick_4">
     <g id="line2d_14">
      <g>
       <use xlink:href="#m31c93f3dd5" x="181.102656" y="18.926883" style="stroke: #000000"/>
      </g>
     </g>
    </g>
   </g>
   <g id="line2d_15">
    <path d="M 186.065203 74.358304 
L 186.363254 64.458017 
L 186.760656 59.05643 
L 187.257407 55.248534 
L 187.853509 52.263541 
L 188.648311 49.496696 
L 189.542464 47.229169 
L 190.535967 45.296136 
L 191.72817 43.467326 
L 193.119074 41.760924 
L 194.708679 40.176928 
L 196.496984 38.708064 
L 198.48399 37.342215 
L 201.067098 35.861231 
L 203.848906 34.524468 
L 207.226816 33.157408 
L 211.498879 31.710359 
L 215.472891 30.566295 
L 220.738456 29.2671 
L 226.202723 28.112131 
L 233.753345 26.751124 
L 244.880578 25.09805 
L 255.014308 23.848543 
L 269.916852 22.323934 
L 280.050582 21.44528 
L 285.316148 21.029588 
L 285.316148 21.029588 
" clip-path="url(#p5186e4be76)" style="fill: none; stroke: #aa4639; stroke-linecap: square"/>
   </g>
   <g id="line2d_16">
    <path d="M 186.065203 72.7824 
L 186.363254 62.713383 
L 186.760656 57.369856 
L 187.257407 53.917725 
L 188.052209 50.053417 
L 188.847012 47.304465 
L 189.741164 45.067136 
L 190.734667 43.184164 
L 191.926871 41.399936 
L 193.317775 39.724257 
L 194.90738 38.16896 
L 196.695685 36.740502 
L 198.782041 35.373858 
L 201.166448 34.081644 
L 204.047607 32.773917 
L 207.624217 31.401763 
L 211.89628 30.007175 
L 216.764445 28.653196 
L 222.328061 27.342397 
L 228.68648 26.083014 
L 235.839701 24.896197 
L 244.085776 23.75371 
L 253.822104 22.635131 
L 265.148038 21.565008 
L 278.063576 20.569052 
L 285.316148 20.09163 
L 285.316148 20.09163 
" clip-path="url(#p5186e4be76)" style="fill: none; stroke-dasharray: 3.7,1.6; stroke-dashoffset: 0; stroke: #255c69"/>
   </g>
   <g id="patch_6">
    <path d="M 181.102656 82.759296 
L 181.102656 10.8 
" style="fill: none; stroke: #000000; stroke-linejoin: miter; stroke-linecap: square"/>
   </g>
   <g id="patch_7">
    <path d="M 181.102656 82.759296 
L 290.278695 82.759296 
" style="fill: none; stroke: #000000; stroke-linejoin: miter; stroke-linecap: square"/>
   </g>
  </g>
  <g id="axes_3">
   <g id="patch_8">
    <path d="M 314.068437 82.759296 
L 423.244476 82.759296 
L 423.244476 10.8 
L 314.068437 10.8 
L 314.068437 82.759296 
z
" style="fill: none"/>
   </g>
   <g id="matplotlib.axis_5">
    <g id="xtick_7">
     <g id="line2d_17">
      <g>
       <use xlink:href="#m8b834a534a" x="319.030985" y="82.759296" style="stroke: #000000"/>
      </g>
     </g>
    </g>
    <g id="xtick_8">
     <g id="line2d_18">
      <g>
       <use xlink:href="#m8b834a534a" x="368.706132" y="82.759296" style="stroke: #000000"/>
      </g>
     </g>
    </g>
    <g id="xtick_9">
     <g id="line2d_19">
      <g>
       <use xlink:href="#m8b834a534a" x="418.381279" y="82.759296" style="stroke: #000000"/>
      </g>
     </g>
    </g>
   </g>
   <g id="matplotlib.axis_6">
    <g id="ytick_5">
     <g id="line2d_20">
      <g>
       <use xlink:href="#m31c93f3dd5" x="314.068437" y="79.523565" style="stroke: #000000"/>
      </g>
     </g>
    </g>
    <g id="ytick_6">
     <g id="line2d_21">
      <g>
       <use xlink:href="#m31c93f3dd5" x="314.068437" y="18.926883" style="stroke: #000000"/>
      </g>
     </g>
    </g>
   </g>
   <g id="line2d_22">
    <path d="M 319.030985 73.317253 
L 319.329036 61.697232 
L 319.726437 55.757546 
L 320.223188 51.663634 
L 320.81929 48.506548 
L 321.514742 45.919069 
L 322.408895 43.483083 
L 323.402398 41.430067 
L 324.594601 39.503091 
L 325.886155 37.829412 
L 327.376409 36.245413 
L 329.065364 34.758371 
L 331.05237 33.297993 
L 333.337427 31.896996 
L 335.920535 30.569929 
L 338.702343 29.365267 
L 341.881552 28.199387 
L 345.557513 27.060171 
L 349.432175 26.039724 
L 354.49904 24.913834 
L 362.248363 23.514051 
L 370.395087 22.331204 
L 384.006077 20.78114 
L 397.120316 19.612838 
L 418.281929 18.146395 
L 418.281929 18.146395 
" clip-path="url(#p2504e18fae)" style="fill: none; stroke: #aa4639; stroke-linecap: square"/>
   </g>
   <g id="line2d_23">
    <path d="M 319.030985 67.778057 
L 319.329036 58.046472 
L 319.726437 52.59877 
L 320.223188 49.181529 
L 321.017991 45.498916 
L 321.812793 42.779993 
L 322.706946 40.476281 
L 323.700449 38.513847 
L 324.892652 36.674437 
L 326.184206 35.092284 
L 327.67446 33.623824 
L 329.363415 32.277794 
L 331.350421 30.988181 
L 333.734828 29.717286 
L 336.615987 28.43878 
L 340.192597 27.100265 
L 344.46466 25.744258 
L 349.332825 24.43836 
L 354.69774 23.232102 
L 360.857459 22.083085 
L 367.91133 21.001462 
L 376.157404 19.96796 
L 385.993083 18.967196 
L 397.517717 18.024083 
L 411.128708 17.141048 
L 418.281929 16.753535 
L 418.281929 16.753535 
" clip-path="url(#p2504e18fae)" style="fill: none; stroke-dasharray: 3.7,1.6; stroke-dashoffset: 0; stroke: #255c69"/>
   </g>
   <g id="patch_9">
    <path d="M 314.068437 82.759296 
L 314.068437 10.8 
" style="fill: none; stroke: #000000; stroke-linejoin: miter; stroke-linecap: square"/>
   </g>
   <g id="patch_10">
    <path d="M 314.068437 82.759296 
L 423.244476 82.759296 
" style="fill: none; stroke: #000000; stroke-linejoin: miter; stroke-linecap: square"/>
   </g>
  </g>
  <g id="axes_4">
   <g id="patch_11">
    <path d="M 447.034219 82.759296 
L 556.210258 82.759296 
L 556.210258 10.8 
L 447.034219 10.8 
L 447.034219 82.759296 
z
" style="fill: none"/>
   </g>
   <g id="matplotlib.axis_7">
    <g id="xtick_10">
     <g id="line2d_24">
      <g>
       <use xlink:href="#m8b834a534a" x="451.996766" y="82.759296" style="stroke: #000000"/>
      </g>
     </g>
    </g>
    <g id="xtick_11">
     <g id="line2d_25">
      <g>
       <use xlink:href="#m8b834a534a" x="501.671913" y="82.759296" style="stroke: #000000"/>
      </g>
     </g>
    </g>
    <g id="xtick_12">
     <g id="line2d_26">
      <g>
       <use xlink:href="#m8b834a534a" x="551.347061" y="82.759296" style="stroke: #000000"/>
      </g>
     </g>
    </g>
   </g>
   <g id="matplotlib.axis_8">
    <g id="ytick_7">
     <g id="line2d_27">
      <g>
       <use xlink:href="#m31c93f3dd5" x="447.034219" y="79.523565" style="stroke: #000000"/>
      </g>
     </g>
    </g>
    <g id="ytick_8">
     <g id="line2d_28">
      <g>
       <use xlink:href="#m31c93f3dd5" x="447.034219" y="18.926883" style="stroke: #000000"/>
      </g>
     </g>
    </g>
   </g>
   <g id="line2d_29">
    <path d="M 451.996766 78.689755 
L 452.394167 67.691457 
L 452.791568 62.606183 
L 453.28832 58.788593 
L 453.884422 55.735731 
L 454.679224 52.887688 
L 455.573377 50.55108 
L 456.56688 48.561084 
L 457.759083 46.680163 
L 459.149987 44.928918 
L 460.640242 43.395824 
L 462.527897 41.797282 
L 464.614253 40.333266 
L 466.89931 38.983173 
L 469.482418 37.683979 
L 472.760978 36.285409 
L 476.635639 34.890472 
L 481.106402 33.530682 
L 486.073917 32.250882 
L 491.041432 31.151656 
L 500.281009 29.461013 
L 509.917988 28.043049 
L 519.058215 26.926856 
L 531.973753 25.620392 
L 551.24771 24.072754 
L 551.24771 24.072754 
" clip-path="url(#pad784d1cf0)" style="fill: none; stroke: #aa4639; stroke-linecap: square"/>
   </g>
   <g id="line2d_30">
    <path d="M 451.996766 59.538747 
L 452.394167 55.948187 
L 452.791568 53.967794 
L 453.28832 52.560851 
L 453.884422 51.523241 
L 454.877925 50.304974 
L 456.56688 48.626461 
L 458.553885 46.959549 
L 460.640242 45.503742 
L 463.024649 44.116684 
L 465.905807 42.709111 
L 469.383068 41.264743 
L 473.75448 39.701318 
L 479.020046 38.06222 
L 485.179764 36.380701 
L 492.233635 34.691433 
L 500.082309 33.048559 
L 508.626434 31.491421 
L 518.263412 29.9716 
L 528.595843 28.569107 
L 540.021127 27.241919 
L 551.24771 26.127154 
L 551.24771 26.127154 
" clip-path="url(#pad784d1cf0)" style="fill: none; stroke-dasharray: 3.7,1.6; stroke-dashoffset: 0; stroke: #255c69"/>
   </g>
   <g id="patch_12">
    <path d="M 447.034219 82.759296 
L 447.034219 10.8 
" style="fill: none; stroke: #000000; stroke-linejoin: miter; stroke-linecap: square"/>
   </g>
   <g id="patch_13">
    <path d="M 447.034219 82.759296 
L 556.210258 82.759296 
" style="fill: none; stroke: #000000; stroke-linejoin: miter; stroke-linecap: square"/>
   </g>
  </g>
  <g id="axes_5">
   <g id="patch_14">
    <path d="M 48.136875 169.533489 
L 157.312914 169.533489 
L 157.312914 97.574193 
L 48.136875 97.574193 
L 48.136875 169.533489 
z
" style="fill: none"/>
   </g>
   <g id="matplotlib.axis_9">
    <g id="xtick_13">
     <g id="line2d_31">
      <g>
       <use xlink:href="#m8b834a534a" x="53.099422" y="169.533489" style="stroke: #000000"/>
      </g>
     </g>
    </g>
    <g id="xtick_14">
     <g id="line2d_32">
      <g>
       <use xlink:href="#m8b834a534a" x="102.77457" y="169.533489" style="stroke: #000000"/>
      </g>
     </g>
    </g>
    <g id="xtick_15">
     <g id="line2d_33">
      <g>
       <use xlink:href="#m8b834a534a" x="152.449717" y="169.533489" style="stroke: #000000"/>
      </g>
     </g>
    </g>
   </g>
   <g id="matplotlib.axis_10">
    <g id="ytick_9">
     <g id="line2d_34">
      <g>
       <use xlink:href="#m31c93f3dd5" x="48.136875" y="166.297758" style="stroke: #000000"/>
      </g>
     </g>
     <g id="text_5">
      <!-- 0 -->
      <g transform="translate(33.980625 170.797758)scale(0.12 -0.12)">
       <use xlink:href="#Roboto-Light-30"/>
      </g>
     </g>
    </g>
    <g id="ytick_10">
     <g id="line2d_35">
      <g>
       <use xlink:href="#m31c93f3dd5" x="48.136875" y="105.701076" style="stroke: #000000"/>
      </g>
     </g>
     <g id="text_6">
      <!-- 5 -->
      <g transform="translate(33.980625 110.201076)scale(0.12 -0.12)">
       <use xlink:href="#Roboto-Light-35"/>
      </g>
     </g>
    </g>
   </g>
   <g id="line2d_36">
    <path d="M 53.099422 164.054469 
L 53.397473 154.306886 
L 53.794874 148.776833 
L 54.291626 144.891374 
L 54.887728 141.860327 
L 55.58318 139.360107 
L 56.477332 136.994413 
L 57.470835 134.997147 
L 58.563688 133.260446 
L 59.855242 131.603734 
L 61.444847 129.949443 
L 63.332503 128.349691 
L 65.518209 126.828714 
L 68.200667 125.28956 
L 71.379876 123.784338 
L 74.956487 122.374857 
L 79.526601 120.875697 
L 83.699313 119.715876 
L 89.56098 118.328211 
L 98.303806 116.625447 
L 107.841435 115.108102 
L 116.782961 113.909502 
L 129.400449 112.481847 
L 148.078304 110.768169 
L 152.350367 110.427615 
L 152.350367 110.427615 
" clip-path="url(#pefa259199d)" style="fill: none; stroke: #aa4639; stroke-linecap: square"/>
   </g>
   <g id="line2d_37">
    <path d="M 53.099422 160.995631 
L 53.397473 151.522209 
L 53.794874 146.19394 
L 54.390976 141.927149 
L 55.086428 138.537321 
L 55.78188 136.204902 
L 56.576683 134.304243 
L 57.570185 132.512855 
L 58.861739 130.678691 
L 60.351994 128.96091 
L 62.040949 127.355726 
L 63.928604 125.875543 
L 66.014961 124.527892 
L 68.399368 123.25784 
L 71.280526 121.989066 
L 74.757786 120.709613 
L 79.129199 119.343009 
L 84.494115 117.905533 
L 90.355783 116.568605 
L 96.714202 115.351252 
L 103.768072 114.231124 
L 111.914797 113.168138 
L 121.551775 112.141473 
L 133.37446 111.11405 
L 148.376355 110.049591 
L 152.350367 109.80016 
L 152.350367 109.80016 
" clip-path="url(#pefa259199d)" style="fill: none; stroke-dasharray: 3.7,1.6; stroke-dashoffset: 0; stroke: #255c69"/>
   </g>
   <g id="patch_15">
    <path d="M 48.136875 169.533489 
L 48.136875 97.574193 
" style="fill: none; stroke: #000000; stroke-linejoin: miter; stroke-linecap: square"/>
   </g>
   <g id="patch_16">
    <path d="M 48.136875 169.533489 
L 157.312914 169.533489 
" style="fill: none; stroke: #000000; stroke-linejoin: miter; stroke-linecap: square"/>
   </g>
  </g>
  <g id="axes_6">
   <g id="patch_17">
    <path d="M 181.102656 169.533489 
L 290.278695 169.533489 
L 290.278695 97.574193 
L 181.102656 97.574193 
L 181.102656 169.533489 
z
" style="fill: none"/>
   </g>
   <g id="matplotlib.axis_11">
    <g id="xtick_16">
     <g id="line2d_38">
      <g>
       <use xlink:href="#m8b834a534a" x="186.065203" y="169.533489" style="stroke: #000000"/>
      </g>
     </g>
    </g>
    <g id="xtick_17">
     <g id="line2d_39">
      <g>
       <use xlink:href="#m8b834a534a" x="235.740351" y="169.533489" style="stroke: #000000"/>
      </g>
     </g>
    </g>
    <g id="xtick_18">
     <g id="line2d_40">
      <g>
       <use xlink:href="#m8b834a534a" x="285.415498" y="169.533489" style="stroke: #000000"/>
      </g>
     </g>
    </g>
   </g>
   <g id="matplotlib.axis_12">
    <g id="ytick_11">
     <g id="line2d_41">
      <g>
       <use xlink:href="#m31c93f3dd5" x="181.102656" y="166.297758" style="stroke: #000000"/>
      </g>
     </g>
    </g>
    <g id="ytick_12">
     <g id="line2d_42">
      <g>
       <use xlink:href="#m31c93f3dd5" x="181.102656" y="105.701076" style="stroke: #000000"/>
      </g>
     </g>
    </g>
   </g>
   <g id="line2d_43">
    <path d="M 186.065203 157.23613 
L 186.363254 144.93258 
L 186.760656 138.773532 
L 187.257407 134.539036 
L 187.853509 131.260756 
L 188.648311 128.220014 
L 189.542464 125.705252 
L 190.535967 123.554069 
L 191.62882 121.693753 
L 192.920374 119.954627 
L 194.311278 118.46395 
L 195.801532 117.167183 
L 197.589838 115.898287 
L 199.775544 114.640296 
L 202.358652 113.435634 
L 205.537861 112.237033 
L 208.915771 111.194771 
L 214.280687 109.867704 
L 219.546253 108.823015 
L 228.090378 107.47656 
L 237.926057 106.267049 
L 248.159138 105.255085 
L 264.154535 104.000735 
L 275.97722 103.245698 
L 285.316148 102.724564 
L 285.316148 102.724564 
" clip-path="url(#p8850452439)" style="fill: none; stroke: #aa4639; stroke-linecap: square"/>
   </g>
   <g id="line2d_44">
    <path d="M 186.065203 153.671215 
L 186.363254 143.55617 
L 186.760656 138.210671 
L 187.257407 134.74162 
L 188.052209 130.884549 
L 188.847012 128.106833 
L 189.741164 125.815026 
L 190.734667 123.884605 
L 191.926871 122.075658 
L 193.218425 120.513848 
L 194.708679 119.058746 
L 196.397634 117.721124 
L 198.38464 116.436573 
L 200.769047 115.167412 
L 203.749556 113.84624 
L 207.425517 112.474115 
L 211.697579 111.124337 
L 216.466394 109.856065 
L 221.731959 108.690261 
L 227.692977 107.603055 
L 234.647498 106.568507 
L 242.694871 105.597384 
L 252.4312 104.649474 
L 263.955834 103.753275 
L 277.666175 102.91546 
L 285.316148 102.529975 
L 285.316148 102.529975 
" clip-path="url(#p8850452439)" style="fill: none; stroke-dasharray: 3.7,1.6; stroke-dashoffset: 0; stroke: #255c69"/>
   </g>
   <g id="patch_18">
    <path d="M 181.102656 169.533489 
L 181.102656 97.574193 
" style="fill: none; stroke: #000000; stroke-linejoin: miter; stroke-linecap: square"/>
   </g>
   <g id="patch_19">
    <path d="M 181.102656 169.533489 
L 290.278695 169.533489 
" style="fill: none; stroke: #000000; stroke-linejoin: miter; stroke-linecap: square"/>
   </g>
  </g>
  <g id="axes_7">
   <g id="patch_20">
    <path d="M 314.068437 169.533489 
L 423.244476 169.533489 
L 423.244476 97.574193 
L 314.068437 97.574193 
L 314.068437 169.533489 
z
" style="fill: none"/>
   </g>
   <g id="matplotlib.axis_13">
    <g id="xtick_19">
     <g id="line2d_45">
      <g>
       <use xlink:href="#m8b834a534a" x="319.030985" y="169.533489" style="stroke: #000000"/>
      </g>
     </g>
    </g>
    <g id="xtick_20">
     <g id="line2d_46">
      <g>
       <use xlink:href="#m8b834a534a" x="368.706132" y="169.533489" style="stroke: #000000"/>
      </g>
     </g>
    </g>
    <g id="xtick_21">
     <g id="line2d_47">
      <g>
       <use xlink:href="#m8b834a534a" x="418.381279" y="169.533489" style="stroke: #000000"/>
      </g>
     </g>
    </g>
   </g>
   <g id="matplotlib.axis_14">
    <g id="ytick_13">
     <g id="line2d_48">
      <g>
       <use xlink:href="#m31c93f3dd5" x="314.068437" y="166.297758" style="stroke: #000000"/>
      </g>
     </g>
    </g>
    <g id="ytick_14">
     <g id="line2d_49">
      <g>
       <use xlink:href="#m31c93f3dd5" x="314.068437" y="105.701076" style="stroke: #000000"/>
      </g>
     </g>
    </g>
   </g>
   <g id="line2d_50">
    <path d="M 319.030985 164.632561 
L 319.329036 155.326122 
L 319.726437 149.946349 
L 320.223188 146.13603 
L 320.81929 143.147401 
L 321.514742 140.673845 
L 322.408895 138.327542 
L 323.402398 136.343605 
L 324.594601 134.477227 
L 325.886155 132.854449 
L 327.376409 131.32014 
L 329.164715 129.802799 
L 331.251071 128.335148 
L 333.734828 126.883253 
L 336.814687 125.388938 
L 340.291948 123.983096 
L 343.669858 122.820851 
L 348.438672 121.424703 
L 353.704238 120.123087 
L 361.552911 118.510003 
L 370.097036 117.059319 
L 377.945709 115.926159 
L 388.675541 114.597879 
L 396.623565 113.738618 
L 415.30142 112.026159 
L 418.281929 111.784981 
L 418.281929 111.784981 
" clip-path="url(#p6cbce3a0f5)" style="fill: none; stroke: #aa4639; stroke-linecap: square"/>
   </g>
   <g id="line2d_51">
    <path d="M 319.030985 162.186159 
L 319.527736 151.82206 
L 319.925137 147.332328 
L 320.421889 144.192818 
L 321.017991 141.875811 
L 321.812793 139.674589 
L 322.905646 137.331598 
L 324.09785 135.294315 
L 325.389404 133.505676 
L 326.879658 131.824163 
L 328.568613 130.267597 
L 330.456269 128.835608 
L 332.641975 127.459978 
L 335.225083 126.10287 
L 338.304942 124.741826 
L 342.080253 123.327705 
L 346.551016 121.89643 
L 351.816582 120.44585 
L 357.9763 118.985122 
L 364.930821 117.570588 
L 372.680144 116.226242 
L 381.224269 114.97143 
L 390.960598 113.77365 
L 401.78978 112.669212 
L 414.109217 111.63634 
L 418.281929 111.329946 
L 418.281929 111.329946 
" clip-path="url(#p6cbce3a0f5)" style="fill: none; stroke-dasharray: 3.7,1.6; stroke-dashoffset: 0; stroke: #255c69"/>
   </g>
   <g id="patch_21">
    <path d="M 314.068437 169.533489 
L 314.068437 97.574193 
" style="fill: none; stroke: #000000; stroke-linejoin: miter; stroke-linecap: square"/>
   </g>
   <g id="patch_22">
    <path d="M 314.068437 169.533489 
L 423.244476 169.533489 
" style="fill: none; stroke: #000000; stroke-linejoin: miter; stroke-linecap: square"/>
   </g>
  </g>
  <g id="axes_8">
   <g id="patch_23">
    <path d="M 447.034219 169.533489 
L 556.210258 169.533489 
L 556.210258 97.574193 
L 447.034219 97.574193 
L 447.034219 169.533489 
z
" style="fill: none"/>
   </g>
   <g id="matplotlib.axis_15">
    <g id="xtick_22">
     <g id="line2d_52">
      <g>
       <use xlink:href="#m8b834a534a" x="451.996766" y="169.533489" style="stroke: #000000"/>
      </g>
     </g>
    </g>
    <g id="xtick_23">
     <g id="line2d_53">
      <g>
       <use xlink:href="#m8b834a534a" x="501.671913" y="169.533489" style="stroke: #000000"/>
      </g>
     </g>
    </g>
    <g id="xtick_24">
     <g id="line2d_54">
      <g>
       <use xlink:href="#m8b834a534a" x="551.347061" y="169.533489" style="stroke: #000000"/>
      </g>
     </g>
    </g>
   </g>
   <g id="matplotlib.axis_16">
    <g id="ytick_15">
     <g id="line2d_55">
      <g>
       <use xlink:href="#m31c93f3dd5" x="447.034219" y="166.297758" style="stroke: #000000"/>
      </g>
     </g>
    </g>
    <g id="ytick_16">
     <g id="line2d_56">
      <g>
       <use xlink:href="#m31c93f3dd5" x="447.034219" y="105.701076" style="stroke: #000000"/>
      </g>
     </g>
    </g>
   </g>
   <g id="line2d_57">
    <path d="M 451.996766 159.073422 
L 452.294817 148.574441 
L 452.692218 143.161944 
L 453.18897 139.346778 
L 453.785071 136.354513 
L 454.579874 133.577973 
L 455.474026 131.300749 
L 456.467529 129.355598 
L 457.659733 127.512246 
L 458.951287 125.899162 
L 460.540891 124.271535 
L 462.428547 122.680266 
L 464.713604 121.082938 
L 467.098011 119.673458 
L 470.475921 117.986447 
L 474.251232 116.398813 
L 479.020046 114.714226 
L 483.093408 113.486535 
L 488.358974 112.121899 
L 495.611545 110.554868 
L 502.665416 109.289613 
L 509.123185 108.299459 
L 516.872508 107.275377 
L 527.304289 106.114346 
L 535.053612 105.373854 
L 551.24771 104.078294 
L 551.24771 104.078294 
" clip-path="url(#p96f6ed5687)" style="fill: none; stroke: #aa4639; stroke-linecap: square"/>
   </g>
   <g id="line2d_58">
    <path d="M 451.996766 153.299823 
L 452.394167 143.475133 
L 452.791568 139.268248 
L 453.28832 136.447863 
L 454.083122 133.439559 
L 455.076625 130.606067 
L 456.070128 128.401768 
L 457.162981 126.477525 
L 458.454535 124.664992 
L 459.845439 123.096088 
L 461.435044 121.638501 
L 463.223349 120.295539 
L 465.409056 118.9454 
L 467.992163 117.625765 
L 471.072023 116.309165 
L 474.747983 114.981416 
L 479.119396 113.643508 
L 484.086911 112.358744 
L 489.749878 111.128538 
L 496.207647 109.959017 
L 503.658919 108.841403 
L 512.401745 107.763051 
L 522.535475 106.743211 
L 534.35816 105.781992 
L 548.167851 104.88655 
L 551.24771 104.713112 
L 551.24771 104.713112 
" clip-path="url(#p96f6ed5687)" style="fill: none; stroke-dasharray: 3.7,1.6; stroke-dashoffset: 0; stroke: #255c69"/>
   </g>
   <g id="patch_24">
    <path d="M 447.034219 169.533489 
L 447.034219 97.574193 
" style="fill: none; stroke: #000000; stroke-linejoin: miter; stroke-linecap: square"/>
   </g>
   <g id="patch_25">
    <path d="M 447.034219 169.533489 
L 556.210258 169.533489 
" style="fill: none; stroke: #000000; stroke-linejoin: miter; stroke-linecap: square"/>
   </g>
  </g>
  <g id="axes_9">
   <g id="patch_26">
    <path d="M 48.136875 256.307682 
L 157.312914 256.307682 
L 157.312914 184.348386 
L 48.136875 184.348386 
L 48.136875 256.307682 
z
" style="fill: none"/>
   </g>
   <g id="matplotlib.axis_17">
    <g id="xtick_25">
     <g id="line2d_59">
      <g>
       <use xlink:href="#m8b834a534a" x="53.099422" y="256.307682" style="stroke: #000000"/>
      </g>
     </g>
    </g>
    <g id="xtick_26">
     <g id="line2d_60">
      <g>
       <use xlink:href="#m8b834a534a" x="102.77457" y="256.307682" style="stroke: #000000"/>
      </g>
     </g>
    </g>
    <g id="xtick_27">
     <g id="line2d_61">
      <g>
       <use xlink:href="#m8b834a534a" x="152.449717" y="256.307682" style="stroke: #000000"/>
      </g>
     </g>
    </g>
   </g>
   <g id="matplotlib.axis_18">
    <g id="ytick_17">
     <g id="line2d_62">
      <g>
       <use xlink:href="#m31c93f3dd5" x="48.136875" y="253.071951" style="stroke: #000000"/>
      </g>
     </g>
     <g id="text_7">
      <!-- 0 -->
      <g transform="translate(33.980625 257.571951)scale(0.12 -0.12)">
       <use xlink:href="#Roboto-Light-30"/>
      </g>
     </g>
    </g>
    <g id="ytick_18">
     <g id="line2d_63">
      <g>
       <use xlink:href="#m31c93f3dd5" x="48.136875" y="192.475269" style="stroke: #000000"/>
      </g>
     </g>
     <g id="text_8">
      <!-- 5 -->
      <g transform="translate(33.980625 196.975269)scale(0.12 -0.12)">
       <use xlink:href="#Roboto-Light-35"/>
      </g>
     </g>
    </g>
   </g>
   <g id="line2d_64">
    <path d="M 53.099422 252.09392 
L 53.496823 242.111223 
L 53.894225 237.571319 
L 54.390976 234.117309 
L 55.086428 230.932347 
L 55.88123 228.392133 
L 56.775383 226.262766 
L 57.868236 224.258228 
L 59.06044 222.53001 
L 60.451344 220.899961 
L 62.140299 219.288088 
L 64.127305 217.735602 
L 66.313011 216.320063 
L 68.995469 214.871803 
L 72.174679 213.440507 
L 76.148691 211.953465 
L 81.414256 210.335535 
L 87.772675 208.741842 
L 93.236941 207.589294 
L 100.688213 206.247682 
L 111.914797 204.578852 
L 122.247227 203.302686 
L 137.944574 201.689602 
L 152.350367 200.453427 
L 152.350367 200.453427 
" clip-path="url(#p834ad2d77c)" style="fill: none; stroke: #aa4639; stroke-linecap: square"/>
   </g>
   <g id="line2d_65">
    <path d="M 53.099422 250.749138 
L 53.496823 240.391617 
L 53.894225 236.129751 
L 54.490326 232.482358 
L 55.285129 229.013846 
L 56.079931 226.528191 
L 56.974084 224.48934 
L 58.066937 222.59927 
L 59.358491 220.83526 
L 60.848745 219.184229 
L 62.5377 217.648221 
L 64.425356 216.229495 
L 66.611062 214.86581 
L 69.19417 213.522383 
L 72.274029 212.17553 
L 76.04934 210.772511 
L 80.619454 209.319304 
L 85.785669 207.912557 
L 91.547986 206.57632 
L 98.005755 205.311169 
L 105.357677 204.102169 
L 113.802452 202.941877 
L 123.638131 201.817739 
L 135.262116 200.718738 
L 148.972457 199.651361 
L 152.350367 199.417781 
L 152.350367 199.417781 
" clip-path="url(#p834ad2d77c)" style="fill: none; stroke-dasharray: 3.7,1.6; stroke-dashoffset: 0; stroke: #255c69"/>
   </g>
   <g id="patch_27">
    <path d="M 48.136875 256.307682 
L 48.136875 184.348386 
" style="fill: none; stroke: #000000; stroke-linejoin: miter; stroke-linecap: square"/>
   </g>
   <g id="patch_28">
    <path d="M 48.136875 256.307682 
L 157.312914 256.307682 
" style="fill: none; stroke: #000000; stroke-linejoin: miter; stroke-linecap: square"/>
   </g>
  </g>
  <g id="axes_10">
   <g id="patch_29">
    <path d="M 181.102656 256.307682 
L 290.278695 256.307682 
L 290.278695 184.348386 
L 181.102656 184.348386 
L 181.102656 256.307682 
z
" style="fill: none"/>
   </g>
   <g id="matplotlib.axis_19">
    <g id="xtick_28">
     <g id="line2d_66">
      <g>
       <use xlink:href="#m8b834a534a" x="186.065203" y="256.307682" style="stroke: #000000"/>
      </g>
     </g>
    </g>
    <g id="xtick_29">
     <g id="line2d_67">
      <g>
       <use xlink:href="#m8b834a534a" x="235.740351" y="256.307682" style="stroke: #000000"/>
      </g>
     </g>
    </g>
    <g id="xtick_30">
     <g id="line2d_68">
      <g>
       <use xlink:href="#m8b834a534a" x="285.415498" y="256.307682" style="stroke: #000000"/>
      </g>
     </g>
    </g>
   </g>
   <g id="matplotlib.axis_20">
    <g id="ytick_19">
     <g id="line2d_69">
      <g>
       <use xlink:href="#m31c93f3dd5" x="181.102656" y="253.071951" style="stroke: #000000"/>
      </g>
     </g>
    </g>
    <g id="ytick_20">
     <g id="line2d_70">
      <g>
       <use xlink:href="#m31c93f3dd5" x="181.102656" y="192.475269" style="stroke: #000000"/>
      </g>
     </g>
    </g>
   </g>
   <g id="line2d_71">
    <path d="M 186.065203 253.036805 
L 186.263904 249.907592 
L 186.661305 244.167874 
L 187.158057 240.193944 
L 187.754158 237.124116 
L 188.449611 234.603294 
L 189.343763 232.22548 
L 190.337266 230.222153 
L 191.430119 228.481817 
L 192.721673 226.82268 
L 194.311278 225.167179 
L 196.198934 223.567427 
L 198.38464 222.047661 
L 200.769047 220.666058 
L 203.749556 219.222644 
L 207.226816 217.816802 
L 211.399529 216.404898 
L 216.466394 214.973605 
L 222.228711 213.608967 
L 228.289079 212.389761 
L 236.833204 210.939077 
L 244.681877 209.805921 
L 255.213009 208.504302 
L 263.161032 207.645041 
L 281.838888 205.933793 
L 285.316148 205.652624 
L 285.316148 205.652624 
" clip-path="url(#pa10eb27f1a)" style="fill: none; stroke: #aa4639; stroke-linecap: square"/>
   </g>
   <g id="line2d_72">
    <path d="M 186.065203 253.022629 
L 186.561955 244.37842 
L 186.959356 241.029309 
L 187.555458 238.062747 
L 188.548961 234.45909 
L 189.542464 231.65559 
L 190.535967 229.509366 
L 191.62882 227.691797 
L 192.821024 226.133965 
L 194.211928 224.675115 
L 195.900883 223.238804 
L 197.887889 221.85734 
L 200.172945 220.54212 
L 202.954754 219.202496 
L 206.332664 217.82762 
L 210.505376 216.373642 
L 215.572241 214.846396 
L 221.433908 213.313454 
L 227.891678 211.855861 
L 234.945548 210.493604 
L 242.794222 209.208536 
L 251.636398 207.992015 
L 261.571427 206.851447 
L 273.096062 205.754721 
L 285.316148 204.78818 
L 285.316148 204.78818 
" clip-path="url(#pa10eb27f1a)" style="fill: none; stroke-dasharray: 3.7,1.6; stroke-dashoffset: 0; stroke: #255c69"/>
   </g>
   <g id="patch_30">
    <path d="M 181.102656 256.307682 
L 181.102656 184.348386 
" style="fill: none; stroke: #000000; stroke-linejoin: miter; stroke-linecap: square"/>
   </g>
   <g id="patch_31">
    <path d="M 181.102656 256.307682 
L 290.278695 256.307682 
" style="fill: none; stroke: #000000; stroke-linejoin: miter; stroke-linecap: square"/>
   </g>
  </g>
  <g id="axes_11">
   <g id="patch_32">
    <path d="M 314.068437 256.307682 
L 423.244476 256.307682 
L 423.244476 184.348386 
L 314.068437 184.348386 
L 314.068437 256.307682 
z
" style="fill: none"/>
   </g>
   <g id="matplotlib.axis_21">
    <g id="xtick_31">
     <g id="line2d_73">
      <g>
       <use xlink:href="#m8b834a534a" x="319.030985" y="256.307682" style="stroke: #000000"/>
      </g>
     </g>
    </g>
    <g id="xtick_32">
     <g id="line2d_74">
      <g>
       <use xlink:href="#m8b834a534a" x="368.706132" y="256.307682" style="stroke: #000000"/>
      </g>
     </g>
    </g>
    <g id="xtick_33">
     <g id="line2d_75">
      <g>
       <use xlink:href="#m8b834a534a" x="418.381279" y="256.307682" style="stroke: #000000"/>
      </g>
     </g>
    </g>
   </g>
   <g id="matplotlib.axis_22">
    <g id="ytick_21">
     <g id="line2d_76">
      <g>
       <use xlink:href="#m31c93f3dd5" x="314.068437" y="253.071951" style="stroke: #000000"/>
      </g>
     </g>
    </g>
    <g id="ytick_22">
     <g id="line2d_77">
      <g>
       <use xlink:href="#m31c93f3dd5" x="314.068437" y="192.475269" style="stroke: #000000"/>
      </g>
     </g>
    </g>
   </g>
   <g id="line2d_78">
    <path d="M 319.030985 241.221664 
L 319.329036 230.469388 
L 319.726437 225.005992 
L 320.223188 221.175068 
L 320.81929 218.177958 
L 321.614092 215.401418 
L 322.508245 213.127829 
L 323.501748 211.188737 
L 324.693952 209.355082 
L 325.985505 207.754116 
L 327.57511 206.144667 
L 329.363415 204.65399 
L 331.449772 203.20694 
L 334.13223 201.666573 
L 337.311439 200.162567 
L 340.788699 198.796712 
L 344.961412 197.43329 
L 349.928926 196.094105 
L 355.194492 194.919741 
L 362.844465 193.536925 
L 370.693138 192.401338 
L 382.913224 191.02095 
L 394.239158 190.02474 
L 413.016363 188.761906 
L 418.281929 188.468619 
L 418.281929 188.468619 
" clip-path="url(#p3a4a7d9887)" style="fill: none; stroke: #aa4639; stroke-linecap: square"/>
   </g>
   <g id="line2d_79">
    <path d="M 319.030985 238.31622 
L 319.329036 227.795844 
L 319.726437 222.581931 
L 320.322539 218.418868 
L 321.017991 214.965731 
L 321.812793 212.166627 
L 322.607595 210.140669 
L 323.601098 208.220258 
L 324.793302 206.431762 
L 326.084856 204.890083 
L 327.57511 203.455453 
L 329.264065 202.137754 
L 331.251071 200.871124 
L 333.734828 199.566838 
L 336.814687 198.21717 
L 340.490648 196.853615 
L 344.663361 195.541735 
L 349.233474 194.339142 
L 354.300339 193.241708 
L 359.963306 192.24496 
L 366.619776 191.30265 
L 374.567799 190.40615 
L 384.304128 189.538314 
L 396.126813 188.715062 
L 410.234555 187.963423 
L 418.281929 187.619263 
L 418.281929 187.619263 
" clip-path="url(#p3a4a7d9887)" style="fill: none; stroke-dasharray: 3.7,1.6; stroke-dashoffset: 0; stroke: #255c69"/>
   </g>
   <g id="patch_33">
    <path d="M 314.068437 256.307682 
L 314.068437 184.348386 
" style="fill: none; stroke: #000000; stroke-linejoin: miter; stroke-linecap: square"/>
   </g>
   <g id="patch_34">
    <path d="M 314.068437 256.307682 
L 423.244476 256.307682 
" style="fill: none; stroke: #000000; stroke-linejoin: miter; stroke-linecap: square"/>
   </g>
  </g>
  <g id="axes_12">
   <g id="patch_35">
    <path d="M 447.034219 256.307682 
L 556.210258 256.307682 
L 556.210258 184.348386 
L 447.034219 184.348386 
L 447.034219 256.307682 
z
" style="fill: none"/>
   </g>
   <g id="matplotlib.axis_23">
    <g id="xtick_34">
     <g id="line2d_80">
      <g>
       <use xlink:href="#m8b834a534a" x="451.996766" y="256.307682" style="stroke: #000000"/>
      </g>
     </g>
    </g>
    <g id="xtick_35">
     <g id="line2d_81">
      <g>
       <use xlink:href="#m8b834a534a" x="501.671913" y="256.307682" style="stroke: #000000"/>
      </g>
     </g>
    </g>
    <g id="xtick_36">
     <g id="line2d_82">
      <g>
       <use xlink:href="#m8b834a534a" x="551.347061" y="256.307682" style="stroke: #000000"/>
      </g>
     </g>
    </g>
   </g>
   <g id="matplotlib.axis_24">
    <g id="ytick_23">
     <g id="line2d_83">
      <g>
       <use xlink:href="#m31c93f3dd5" x="447.034219" y="253.071951" style="stroke: #000000"/>
      </g>
     </g>
    </g>
    <g id="ytick_24">
     <g id="line2d_84">
      <g>
       <use xlink:href="#m31c93f3dd5" x="447.034219" y="192.475269" style="stroke: #000000"/>
      </g>
     </g>
    </g>
   </g>
   <g id="line2d_85">
    <path d="M 451.996766 245.222257 
L 452.294817 234.842045 
L 452.692218 229.430761 
L 453.18897 225.620442 
L 453.785071 222.634239 
L 454.579874 219.86618 
L 455.474026 217.597442 
L 456.467529 215.663196 
L 457.659733 213.833175 
L 458.951287 212.234634 
L 460.540891 210.628823 
L 462.329197 209.140567 
L 464.415553 207.697156 
L 466.99866 206.211324 
L 469.780469 204.870926 
L 473.257729 203.460238 
L 477.529792 202.011975 
L 482.696007 200.551594 
L 488.458324 199.188166 
L 494.518692 197.970177 
L 502.764767 196.572816 
L 514.786152 194.923376 
L 525.416634 193.736894 
L 541.01463 192.324987 
L 551.24771 191.557837 
L 551.24771 191.557837 
" clip-path="url(#pe5b1b310ca)" style="fill: none; stroke: #aa4639; stroke-linecap: square"/>
   </g>
   <g id="line2d_86">
    <path d="M 451.996766 244.140586 
L 452.294817 233.674284 
L 452.692218 227.899195 
L 453.18897 224.448777 
L 453.983772 220.716096 
L 454.778574 217.944898 
L 455.672727 215.618888 
L 456.66623 213.65718 
L 457.858433 211.820298 
L 459.249337 210.116198 
L 460.838942 208.545277 
L 462.627247 207.104071 
L 464.713604 205.721457 
L 467.197361 204.358483 
L 470.17787 202.991513 
L 473.75448 201.608234 
L 477.927193 200.242125 
L 482.596657 198.950709 
L 487.862222 197.728259 
L 493.92259 196.55638 
L 500.976461 195.426879 
L 509.222536 194.338223 
L 518.859514 193.297307 
L 529.788047 192.34348 
L 542.306184 191.475805 
L 551.24771 190.969939 
L 551.24771 190.969939 
" clip-path="url(#pe5b1b310ca)" style="fill: none; stroke-dasharray: 3.7,1.6; stroke-dashoffset: 0; stroke: #255c69"/>
   </g>
   <g id="patch_36">
    <path d="M 447.034219 256.307682 
L 447.034219 184.348386 
" style="fill: none; stroke: #000000; stroke-linejoin: miter; stroke-linecap: square"/>
   </g>
   <g id="patch_37">
    <path d="M 447.034219 256.307682 
L 556.210258 256.307682 
" style="fill: none; stroke: #000000; stroke-linejoin: miter; stroke-linecap: square"/>
   </g>
  </g>
  <g id="axes_13">
   <g id="patch_38">
    <path d="M 48.136875 343.081875 
L 157.312914 343.081875 
L 157.312914 271.122579 
L 48.136875 271.122579 
L 48.136875 343.081875 
z
" style="fill: none"/>
   </g>
   <g id="matplotlib.axis_25">
    <g id="xtick_37">
     <g id="line2d_87">
      <g>
       <use xlink:href="#m8b834a534a" x="53.099422" y="343.081875" style="stroke: #000000"/>
      </g>
     </g>
     <g id="text_9">
      <!-- 0 -->
      <g transform="translate(49.771297 359.581875)scale(0.12 -0.12)">
       <use xlink:href="#Roboto-Light-30"/>
      </g>
     </g>
    </g>
    <g id="xtick_38">
     <g id="line2d_88">
      <g>
       <use xlink:href="#m8b834a534a" x="102.77457" y="343.081875" style="stroke: #000000"/>
      </g>
     </g>
     <g id="text_10">
      <!-- 500 -->
      <g transform="translate(92.790195 359.581875)scale(0.12 -0.12)">
       <use xlink:href="#Roboto-Light-35"/>
       <use xlink:href="#Roboto-Light-30" x="55.46875"/>
       <use xlink:href="#Roboto-Light-30" x="110.9375"/>
      </g>
     </g>
    </g>
    <g id="xtick_39">
     <g id="line2d_89">
      <g>
       <use xlink:href="#m8b834a534a" x="152.449717" y="343.081875" style="stroke: #000000"/>
      </g>
     </g>
     <g id="text_11">
      <!-- 1000 -->
      <g transform="translate(139.137217 359.581875)scale(0.12 -0.12)">
       <defs>
        <path id="Roboto-Light-31" d="M 2169 4569 
L 2169 0 
L 1794 0 
L 1794 4100 
L 559 3641 
L 559 3991 
L 2106 4569 
L 2169 4569 
z
" transform="scale(0.015625)"/>
       </defs>
       <use xlink:href="#Roboto-Light-31"/>
       <use xlink:href="#Roboto-Light-30" x="55.46875"/>
       <use xlink:href="#Roboto-Light-30" x="110.9375"/>
       <use xlink:href="#Roboto-Light-30" x="166.40625"/>
      </g>
     </g>
    </g>
   </g>
   <g id="matplotlib.axis_26">
    <g id="ytick_25">
     <g id="line2d_90">
      <g>
       <use xlink:href="#m31c93f3dd5" x="48.136875" y="339.846144" style="stroke: #000000"/>
      </g>
     </g>
     <g id="text_12">
      <!-- 0 -->
      <g transform="translate(33.980625 344.346144)scale(0.12 -0.12)">
       <use xlink:href="#Roboto-Light-30"/>
      </g>
     </g>
    </g>
    <g id="ytick_26">
     <g id="line2d_91">
      <g>
       <use xlink:href="#m31c93f3dd5" x="48.136875" y="279.249462" style="stroke: #000000"/>
      </g>
     </g>
     <g id="text_13">
      <!-- 5 -->
      <g transform="translate(33.980625 283.749462)scale(0.12 -0.12)">
       <use xlink:href="#Roboto-Light-35"/>
      </g>
     </g>
    </g>
   </g>
   <g id="line2d_92">
    <path d="M 53.099422 328.89996 
L 53.397473 317.641095 
L 53.794874 311.985003 
L 54.291626 308.058336 
L 54.887728 305.006687 
L 55.58318 302.490714 
L 56.477332 300.111688 
L 57.470835 298.099876 
L 58.663039 296.20805 
L 59.954593 294.562243 
L 61.444847 293.006119 
L 63.133802 291.544527 
L 65.220158 290.050215 
L 67.604565 288.6371 
L 70.287023 287.317303 
L 73.267532 286.090825 
L 77.440244 284.680137 
L 81.612957 283.522741 
L 87.673325 282.156892 
L 94.826546 280.873451 
L 102.575869 279.754837 
L 109.927791 278.878609 
L 119.962171 277.887247 
L 135.162766 276.700766 
L 146.190648 276.005113 
L 152.350367 275.660924 
L 152.350367 275.660924 
" clip-path="url(#paee356db90)" style="fill: none; stroke: #aa4639; stroke-linecap: square"/>
   </g>
   <g id="line2d_93">
    <path d="M 53.099422 327.645922 
L 53.397473 316.96422 
L 53.794874 311.363621 
L 54.291626 307.859468 
L 55.086428 303.993229 
L 55.88123 301.191615 
L 56.775383 298.872002 
L 57.768886 296.917757 
L 58.96109 295.08644 
L 60.252643 293.502976 
L 61.742898 292.023767 
L 63.431853 290.659975 
L 65.418859 289.347616 
L 67.803266 288.051502 
L 70.684424 286.74929 
L 74.161685 285.429083 
L 78.235047 284.126069 
L 82.80516 282.901533 
L 87.971376 281.755509 
L 93.833043 280.691032 
L 100.688213 279.679722 
L 108.834938 278.708852 
L 118.670617 277.768473 
L 130.195251 276.894337 
L 143.806241 276.091653 
L 152.350367 275.684433 
L 152.350367 275.684433 
" clip-path="url(#paee356db90)" style="fill: none; stroke-dasharray: 3.7,1.6; stroke-dashoffset: 0; stroke: #255c69"/>
   </g>
   <g id="patch_39">
    <path d="M 48.136875 343.081875 
L 48.136875 271.122579 
" style="fill: none; stroke: #000000; stroke-linejoin: miter; stroke-linecap: square"/>
   </g>
   <g id="patch_40">
    <path d="M 48.136875 343.081875 
L 157.312914 343.081875 
" style="fill: none; stroke: #000000; stroke-linejoin: miter; stroke-linecap: square"/>
   </g>
  </g>
  <g id="axes_14">
   <g id="patch_41">
    <path d="M 181.102656 343.081875 
L 290.278695 343.081875 
L 290.278695 271.122579 
L 181.102656 271.122579 
L 181.102656 343.081875 
z
" style="fill: none"/>
   </g>
   <g id="matplotlib.axis_27">
    <g id="xtick_40">
     <g id="line2d_94">
      <g>
       <use xlink:href="#m8b834a534a" x="186.065203" y="343.081875" style="stroke: #000000"/>
      </g>
     </g>
     <g id="text_14">
      <!-- 0 -->
      <g transform="translate(182.737078 359.581875)scale(0.12 -0.12)">
       <use xlink:href="#Roboto-Light-30"/>
      </g>
     </g>
    </g>
    <g id="xtick_41">
     <g id="line2d_95">
      <g>
       <use xlink:href="#m8b834a534a" x="235.740351" y="343.081875" style="stroke: #000000"/>
      </g>
     </g>
     <g id="text_15">
      <!-- 500 -->
      <g transform="translate(225.755976 359.581875)scale(0.12 -0.12)">
       <use xlink:href="#Roboto-Light-35"/>
       <use xlink:href="#Roboto-Light-30" x="55.46875"/>
       <use xlink:href="#Roboto-Light-30" x="110.9375"/>
      </g>
     </g>
    </g>
    <g id="xtick_42">
     <g id="line2d_96">
      <g>
       <use xlink:href="#m8b834a534a" x="285.415498" y="343.081875" style="stroke: #000000"/>
      </g>
     </g>
     <g id="text_16">
      <!-- 1000 -->
      <g transform="translate(272.102998 359.581875)scale(0.12 -0.12)">
       <use xlink:href="#Roboto-Light-31"/>
       <use xlink:href="#Roboto-Light-30" x="55.46875"/>
       <use xlink:href="#Roboto-Light-30" x="110.9375"/>
       <use xlink:href="#Roboto-Light-30" x="166.40625"/>
      </g>
     </g>
    </g>
   </g>
   <g id="matplotlib.axis_28">
    <g id="ytick_27">
     <g id="line2d_97">
      <g>
       <use xlink:href="#m31c93f3dd5" x="181.102656" y="339.846144" style="stroke: #000000"/>
      </g>
     </g>
    </g>
    <g id="ytick_28">
     <g id="line2d_98">
      <g>
       <use xlink:href="#m31c93f3dd5" x="181.102656" y="279.249462" style="stroke: #000000"/>
      </g>
     </g>
    </g>
   </g>
   <g id="line2d_99">
    <path d="M 186.065203 335.204438 
L 186.363254 325.186595 
L 186.760656 319.832272 
L 187.257407 316.043767 
L 187.853509 313.070893 
L 188.648311 310.311321 
L 189.542464 308.047428 
L 190.535967 306.118031 
L 191.72817 304.291646 
L 193.119074 302.586457 
L 194.708679 301.003671 
L 196.596335 299.46209 
L 198.682691 298.047765 
L 201.067098 296.690399 
L 204.246307 295.181541 
L 207.822918 293.77085 
L 211.498879 292.541951 
L 216.565744 291.110658 
L 222.328061 289.74723 
L 228.388429 288.526814 
L 236.932554 287.074917 
L 250.245494 285.237627 
L 262.266879 283.881469 
L 281.838888 282.082962 
L 285.316148 281.803006 
L 285.316148 281.803006 
" clip-path="url(#p954e809aa7)" style="fill: none; stroke: #aa4639; stroke-linecap: square"/>
   </g>
   <g id="line2d_100">
    <path d="M 186.065203 334.042899 
L 186.462605 322.386197 
L 186.860006 317.967461 
L 187.456108 314.428065 
L 188.25091 311.04178 
L 189.045712 308.512923 
L 189.939865 306.383859 
L 190.933368 304.566674 
L 192.125571 302.839095 
L 193.516476 301.213187 
L 195.10608 299.696534 
L 196.894386 298.292237 
L 198.980742 296.935435 
L 201.464499 295.590532 
L 204.445008 294.2349 
L 208.120969 292.818607 
L 212.393032 291.415295 
L 217.360546 290.024112 
L 222.924163 288.702373 
L 229.282582 287.426398 
L 236.535153 286.200377 
L 244.979928 285.002135 
L 254.716257 283.850829 
L 265.94284 282.756001 
L 278.858379 281.730475 
L 285.316148 281.291731 
L 285.316148 281.291731 
" clip-path="url(#p954e809aa7)" style="fill: none; stroke-dasharray: 3.7,1.6; stroke-dashoffset: 0; stroke: #255c69"/>
   </g>
   <g id="patch_42">
    <path d="M 181.102656 343.081875 
L 181.102656 271.122579 
" style="fill: none; stroke: #000000; stroke-linejoin: miter; stroke-linecap: square"/>
   </g>
   <g id="patch_43">
    <path d="M 181.102656 343.081875 
L 290.278695 343.081875 
" style="fill: none; stroke: #000000; stroke-linejoin: miter; stroke-linecap: square"/>
   </g>
  </g>
  <g id="axes_15">
   <g id="patch_44">
    <path d="M 314.068437 343.081875 
L 423.244476 343.081875 
L 423.244476 271.122579 
L 314.068437 271.122579 
L 314.068437 343.081875 
z
" style="fill: none"/>
   </g>
   <g id="matplotlib.axis_29">
    <g id="xtick_43">
     <g id="line2d_101">
      <g>
       <use xlink:href="#m8b834a534a" x="319.030985" y="343.081875" style="stroke: #000000"/>
      </g>
     </g>
     <g id="text_17">
      <!-- 0 -->
      <g transform="translate(315.70286 359.581875)scale(0.12 -0.12)">
       <use xlink:href="#Roboto-Light-30"/>
      </g>
     </g>
    </g>
    <g id="xtick_44">
     <g id="line2d_102">
      <g>
       <use xlink:href="#m8b834a534a" x="368.706132" y="343.081875" style="stroke: #000000"/>
      </g>
     </g>
     <g id="text_18">
      <!-- 500 -->
      <g transform="translate(358.721757 359.581875)scale(0.12 -0.12)">
       <use xlink:href="#Roboto-Light-35"/>
       <use xlink:href="#Roboto-Light-30" x="55.46875"/>
       <use xlink:href="#Roboto-Light-30" x="110.9375"/>
      </g>
     </g>
    </g>
    <g id="xtick_45">
     <g id="line2d_103">
      <g>
       <use xlink:href="#m8b834a534a" x="418.381279" y="343.081875" style="stroke: #000000"/>
      </g>
     </g>
     <g id="text_19">
      <!-- 1000 -->
      <g transform="translate(405.068779 359.581875)scale(0.12 -0.12)">
       <use xlink:href="#Roboto-Light-31"/>
       <use xlink:href="#Roboto-Light-30" x="55.46875"/>
       <use xlink:href="#Roboto-Light-30" x="110.9375"/>
       <use xlink:href="#Roboto-Light-30" x="166.40625"/>
      </g>
     </g>
    </g>
   </g>
   <g id="matplotlib.axis_30">
    <g id="ytick_29">
     <g id="line2d_104">
      <g>
       <use xlink:href="#m31c93f3dd5" x="314.068437" y="339.846144" style="stroke: #000000"/>
      </g>
     </g>
    </g>
    <g id="ytick_30">
     <g id="line2d_105">
      <g>
       <use xlink:href="#m31c93f3dd5" x="314.068437" y="279.249462" style="stroke: #000000"/>
      </g>
     </g>
    </g>
   </g>
   <g id="line2d_106">
    <path d="M 319.030985 339.66799 
L 319.627086 329.116896 
L 320.123838 325.076308 
L 320.71994 321.974971 
L 321.415392 319.437181 
L 322.309544 317.047249 
L 323.303047 315.036649 
L 324.495251 313.149669 
L 325.886155 311.400849 
L 327.376409 309.876238 
L 329.164715 308.36738 
L 331.151721 306.971232 
L 333.734828 305.462374 
L 336.715337 304.017749 
L 340.192597 302.610693 
L 344.36531 301.198792 
L 348.339322 300.053514 
L 353.604887 298.754322 
L 361.35421 297.163054 
L 369.798985 295.730547 
L 377.647659 294.597391 
L 388.17879 293.294561 
L 403.975487 291.671783 
L 414.804669 290.724052 
L 418.281929 290.442883 
L 418.281929 290.442883 
" clip-path="url(#p9a347b756f)" style="fill: none; stroke: #aa4639; stroke-linecap: square"/>
   </g>
   <g id="line2d_107">
    <path d="M 319.030985 339.039998 
L 319.428386 330.272364 
L 319.825787 326.181597 
L 320.421889 322.347707 
L 321.117341 319.093274 
L 321.812793 316.826584 
L 322.607595 314.972018 
L 323.601098 313.20378 
L 324.892652 311.376933 
L 326.382907 309.668597 
L 328.071862 308.073153 
L 329.959517 306.589616 
L 332.145224 305.160701 
L 334.628981 303.812576 
L 337.51014 302.506854 
L 341.08675 301.139783 
L 345.557513 299.677902 
L 351.02178 298.133273 
L 356.982797 296.682964 
L 363.341216 295.370987 
L 370.295737 294.171774 
L 378.04506 293.066073 
L 387.085937 292.008438 
L 397.617068 291.006175 
L 410.433256 290.019662 
L 418.281929 289.506439 
L 418.281929 289.506439 
" clip-path="url(#p9a347b756f)" style="fill: none; stroke-dasharray: 3.7,1.6; stroke-dashoffset: 0; stroke: #255c69"/>
   </g>
   <g id="patch_45">
    <path d="M 314.068437 343.081875 
L 314.068437 271.122579 
" style="fill: none; stroke: #000000; stroke-linejoin: miter; stroke-linecap: square"/>
   </g>
   <g id="patch_46">
    <path d="M 314.068437 343.081875 
L 423.244476 343.081875 
" style="fill: none; stroke: #000000; stroke-linejoin: miter; stroke-linecap: square"/>
   </g>
  </g>
  <g id="axes_16">
   <g id="patch_47">
    <path d="M 447.034219 343.081875 
L 556.210258 343.081875 
L 556.210258 271.122579 
L 447.034219 271.122579 
L 447.034219 343.081875 
z
" style="fill: none"/>
   </g>
   <g id="matplotlib.axis_31">
    <g id="xtick_46">
     <g id="line2d_108">
      <g>
       <use xlink:href="#m8b834a534a" x="451.996766" y="343.081875" style="stroke: #000000"/>
      </g>
     </g>
     <g id="text_20">
      <!-- 0 -->
      <g transform="translate(448.668641 359.581875)scale(0.12 -0.12)">
       <use xlink:href="#Roboto-Light-30"/>
      </g>
     </g>
    </g>
    <g id="xtick_47">
     <g id="line2d_109">
      <g>
       <use xlink:href="#m8b834a534a" x="501.671913" y="343.081875" style="stroke: #000000"/>
      </g>
     </g>
     <g id="text_21">
      <!-- 500 -->
      <g transform="translate(491.687538 359.581875)scale(0.12 -0.12)">
       <use xlink:href="#Roboto-Light-35"/>
       <use xlink:href="#Roboto-Light-30" x="55.46875"/>
       <use xlink:href="#Roboto-Light-30" x="110.9375"/>
      </g>
     </g>
    </g>
    <g id="xtick_48">
     <g id="line2d_110">
      <g>
       <use xlink:href="#m8b834a534a" x="551.347061" y="343.081875" style="stroke: #000000"/>
      </g>
     </g>
     <g id="text_22">
      <!-- 1000 -->
      <g transform="translate(538.034561 359.581875)scale(0.12 -0.12)">
       <use xlink:href="#Roboto-Light-31"/>
       <use xlink:href="#Roboto-Light-30" x="55.46875"/>
       <use xlink:href="#Roboto-Light-30" x="110.9375"/>
       <use xlink:href="#Roboto-Light-30" x="166.40625"/>
      </g>
     </g>
    </g>
   </g>
   <g id="matplotlib.axis_32">
    <g id="ytick_31">
     <g id="line2d_111">
      <g>
       <use xlink:href="#m31c93f3dd5" x="447.034219" y="339.846144" style="stroke: #000000"/>
      </g>
     </g>
    </g>
    <g id="ytick_32">
     <g id="line2d_112">
      <g>
       <use xlink:href="#m31c93f3dd5" x="447.034219" y="279.249462" style="stroke: #000000"/>
      </g>
     </g>
    </g>
   </g>
   <g id="line2d_113">
    <path d="M 451.996766 339.320165 
L 452.394167 329.964037 
L 452.791568 325.573201 
L 453.38767 321.664715 
L 454.083122 318.700326 
L 454.877925 316.286154 
L 455.772077 314.235563 
L 456.86493 312.289198 
L 458.156484 310.476145 
L 459.646739 308.798828 
L 461.236343 307.331177 
L 463.123999 305.881703 
L 465.409056 304.423747 
L 467.892813 303.093045 
L 471.072023 301.664174 
L 475.046034 300.179556 
L 479.119396 298.900966 
L 483.68951 297.675701 
L 490.047929 296.237136 
L 496.803749 294.948849 
L 506.540078 293.398787 
L 522.237424 291.403943 
L 536.841918 289.912052 
L 547.8698 288.946141 
L 551.24771 288.673455 
L 551.24771 288.673455 
" clip-path="url(#p23d473449e)" style="fill: none; stroke: #aa4639; stroke-linecap: square"/>
   </g>
   <g id="line2d_114">
    <path d="M 451.996766 337.968105 
L 452.294817 329.680369 
L 452.692218 324.7798 
L 453.28832 320.592249 
L 453.983772 317.098693 
L 454.679224 314.662382 
L 455.474026 312.690968 
L 456.467529 310.847922 
L 457.659733 309.097117 
L 459.149987 307.315961 
L 460.838942 305.66132 
L 462.726598 304.140523 
L 464.812954 302.755991 
L 467.197361 301.447821 
L 470.07852 300.134124 
L 473.55578 298.800733 
L 477.927193 297.371376 
L 483.093408 295.922486 
L 488.756375 294.565551 
L 495.015444 293.295251 
L 502.069314 292.092597 
L 510.116688 290.947692 
L 519.455616 289.846628 
L 530.384148 288.78403 
L 543.697088 287.720218 
L 551.24771 287.198812 
L 551.24771 287.198812 
" clip-path="url(#p23d473449e)" style="fill: none; stroke-dasharray: 3.7,1.6; stroke-dashoffset: 0; stroke: #255c69"/>
   </g>
   <g id="patch_48">
    <path d="M 447.034219 343.081875 
L 447.034219 271.122579 
" style="fill: none; stroke: #000000; stroke-linejoin: miter; stroke-linecap: square"/>
   </g>
   <g id="patch_49">
    <path d="M 447.034219 343.081875 
L 556.210258 343.081875 
" style="fill: none; stroke: #000000; stroke-linejoin: miter; stroke-linecap: square"/>
   </g>
  </g>
  <g id="text_23">
   <!-- Temperature (K) -->
   <g transform="translate(244.245 389.285625)scale(0.12 -0.12)">
    <defs>
     <path id="Roboto-Regular-54" d="M 156 4056 
L 156 4550 
L 3672 4550 
L 3672 4056 
L 2209 4056 
L 2209 0 
L 1616 0 
L 1616 4056 
L 156 4056 
z
" transform="scale(0.015625)"/>
     <path id="Roboto-Regular-65" d="M 3116 591 
Q 2950 341 2647 139 
Q 2344 -63 1844 -63 
Q 1138 -63 714 396 
Q 291 856 291 1572 
L 291 1703 
Q 291 2256 502 2645 
Q 713 3034 1050 3239 
Q 1388 3444 1769 3444 
Q 2494 3444 2826 2970 
Q 3159 2497 3159 1788 
L 3159 1528 
L 872 1528 
Q 884 1063 1148 736 
Q 1413 409 1875 409 
Q 2181 409 2393 534 
Q 2606 659 2766 869 
L 3116 591 
z
M 1769 2969 
Q 1425 2969 1187 2719 
Q 950 2469 891 2000 
L 2581 2000 
L 2581 2044 
Q 2559 2381 2386 2675 
Q 2213 2969 1769 2969 
z
" transform="scale(0.015625)"/>
     <path id="Roboto-Regular-6d" d="M 1794 2956 
Q 1484 2956 1296 2825 
Q 1109 2694 1016 2478 
L 1016 0 
L 434 0 
L 434 3381 
L 984 3381 
L 1000 3013 
Q 1366 3444 2000 3444 
Q 2325 3444 2579 3314 
Q 2834 3184 2969 2900 
Q 3138 3144 3408 3294 
Q 3678 3444 4044 3444 
Q 4588 3444 4883 3153 
Q 5178 2863 5178 2222 
L 5178 0 
L 4597 0 
L 4597 2228 
Q 4597 2653 4401 2804 
Q 4206 2956 3875 2956 
Q 3525 2956 3325 2748 
Q 3125 2541 3094 2244 
L 3094 0 
L 2516 0 
L 2516 2225 
Q 2516 2622 2319 2789 
Q 2122 2956 1794 2956 
z
" transform="scale(0.015625)"/>
     <path id="Roboto-Regular-70" d="M 1984 -63 
Q 1375 -63 1019 328 
L 1019 -1300 
L 438 -1300 
L 438 3381 
L 969 3381 
L 997 3009 
Q 1353 3444 1975 3444 
Q 2616 3444 2956 2969 
Q 3297 2494 3297 1719 
L 3297 1653 
Q 3297 913 2955 425 
Q 2613 -63 1984 -63 
z
M 1806 2956 
Q 1513 2956 1322 2823 
Q 1131 2691 1019 2491 
L 1019 872 
Q 1134 672 1323 542 
Q 1513 413 1813 413 
Q 2281 413 2498 781 
Q 2716 1150 2716 1653 
L 2716 1719 
Q 2716 2222 2498 2589 
Q 2281 2956 1806 2956 
z
" transform="scale(0.015625)"/>
     <path id="Roboto-Regular-72" d="M 1791 2888 
Q 1494 2888 1303 2755 
Q 1113 2622 1019 2400 
L 1019 0 
L 441 0 
L 441 3381 
L 1003 3381 
L 1016 2994 
Q 1144 3200 1342 3322 
Q 1541 3444 1819 3444 
Q 1981 3444 2075 3400 
L 2072 2863 
Q 1944 2888 1791 2888 
z
" transform="scale(0.015625)"/>
     <path id="Roboto-Regular-61" d="M 2528 0 
Q 2472 122 2447 356 
Q 2284 184 2040 60 
Q 1797 -63 1484 -63 
Q 966 -63 653 228 
Q 341 519 341 941 
Q 341 1484 753 1767 
Q 1166 2050 1863 2050 
L 2434 2050 
L 2434 2319 
Q 2434 2619 2254 2798 
Q 2075 2978 1722 2978 
Q 1394 2978 1192 2817 
Q 991 2656 991 2444 
L 413 2444 
Q 413 2806 778 3125 
Q 1144 3444 1756 3444 
Q 2306 3444 2659 3162 
Q 3013 2881 3013 2313 
L 3013 738 
Q 3013 569 3042 378 
Q 3072 188 3131 50 
L 3131 0 
L 2528 0 
z
M 1569 444 
Q 1881 444 2111 600 
Q 2341 756 2434 947 
L 2434 1644 
L 1956 1644 
Q 922 1644 922 1019 
Q 922 778 1084 611 
Q 1247 444 1569 444 
z
" transform="scale(0.015625)"/>
     <path id="Roboto-Regular-74" d="M 1872 0 
Q 1803 -22 1692 -42 
Q 1581 -63 1425 -63 
Q 1103 -63 875 134 
Q 647 331 647 841 
L 647 2938 
L 28 2938 
L 28 3381 
L 647 3381 
L 647 4203 
L 1225 4203 
L 1225 3381 
L 1856 3381 
L 1856 2938 
L 1225 2938 
L 1225 838 
Q 1225 578 1337 506 
Q 1450 434 1597 434 
Q 1669 434 1748 448 
Q 1828 463 1869 472 
L 1872 0 
z
" transform="scale(0.015625)"/>
     <path id="Roboto-Regular-75" d="M 2538 0 
L 2525 334 
Q 2369 147 2125 42 
Q 1881 -63 1538 -63 
Q 1041 -63 734 231 
Q 428 525 428 1200 
L 428 3381 
L 1006 3381 
L 1006 1194 
Q 1006 738 1198 583 
Q 1391 428 1628 428 
Q 1981 428 2193 562 
Q 2406 697 2509 919 
L 2509 3381 
L 3091 3381 
L 3091 0 
L 2538 0 
z
" transform="scale(0.015625)"/>
     <path id="Roboto-Regular-20" transform="scale(0.015625)"/>
     <path id="Roboto-Regular-28" d="M 419 1819 
L 419 1850 
Q 419 2756 678 3434 
Q 938 4113 1294 4541 
Q 1650 4969 1947 5134 
L 2069 4753 
Q 1700 4475 1348 3759 
Q 997 3044 997 1856 
L 997 1813 
Q 997 625 1348 -97 
Q 1700 -819 2069 -1119 
L 1947 -1469 
Q 1650 -1306 1294 -878 
Q 938 -450 678 228 
Q 419 906 419 1819 
z
" transform="scale(0.015625)"/>
     <path id="Roboto-Regular-4b" d="M 3297 0 
L 1688 2119 
L 1131 1541 
L 1131 0 
L 528 0 
L 528 4550 
L 1131 4550 
L 1131 2306 
L 1625 2850 
L 3153 4550 
L 3878 4550 
L 2091 2541 
L 4016 0 
L 3297 0 
z
" transform="scale(0.015625)"/>
     <path id="Roboto-Regular-29" d="M 1772 1850 
L 1772 1819 
Q 1772 906 1512 228 
Q 1253 -450 895 -878 
Q 538 -1306 244 -1469 
L 122 -1119 
Q 488 -841 841 -108 
Q 1194 625 1194 1813 
L 1194 1856 
Q 1194 2647 1019 3236 
Q 844 3825 594 4212 
Q 344 4600 122 4781 
L 244 5134 
Q 538 4969 895 4541 
Q 1253 4113 1512 3434 
Q 1772 2756 1772 1850 
z
" transform="scale(0.015625)"/>
    </defs>
    <use xlink:href="#Roboto-Regular-54"/>
    <use xlink:href="#Roboto-Regular-65" x="59.667969"/>
    <use xlink:href="#Roboto-Regular-6d" x="112.695312"/>
    <use xlink:href="#Roboto-Regular-70" x="200.390625"/>
    <use xlink:href="#Roboto-Regular-65" x="256.542969"/>
    <use xlink:href="#Roboto-Regular-72" x="309.570312"/>
    <use xlink:href="#Roboto-Regular-61" x="343.457031"/>
    <use xlink:href="#Roboto-Regular-74" x="397.851562"/>
    <use xlink:href="#Roboto-Regular-75" x="430.566406"/>
    <use xlink:href="#Roboto-Regular-72" x="485.693359"/>
    <use xlink:href="#Roboto-Regular-65" x="519.580078"/>
    <use xlink:href="#Roboto-Regular-20" x="572.607422"/>
    <use xlink:href="#Roboto-Regular-28" x="597.412109"/>
    <use xlink:href="#Roboto-Regular-4b" x="631.640625"/>
    <use xlink:href="#Roboto-Regular-29" x="694.384766"/>
   </g>
  </g>
  <g id="text_24">
   <!-- log Q(T) -->
   <g transform="translate(21.14625 219.589687)rotate(-90)scale(0.12 -0.12)">
    <defs>
     <path id="Roboto-Regular-6c" d="M 1069 4800 
L 1069 0 
L 488 0 
L 488 4800 
L 1069 4800 
z
" transform="scale(0.015625)"/>
     <path id="Roboto-Regular-6f" d="M 288 1653 
L 288 1725 
Q 288 2459 700 2951 
Q 1113 3444 1822 3444 
Q 2538 3444 2952 2951 
Q 3366 2459 3366 1725 
L 3366 1653 
Q 3366 919 2952 428 
Q 2538 -63 1828 -63 
Q 1116 -63 702 428 
Q 288 919 288 1653 
z
M 866 1725 
L 866 1653 
Q 866 1150 1105 781 
Q 1344 413 1828 413 
Q 2303 413 2543 781 
Q 2784 1150 2784 1653 
L 2784 1725 
Q 2784 2222 2543 2595 
Q 2303 2969 1822 2969 
Q 1344 2969 1105 2595 
Q 866 2222 866 1725 
z
" transform="scale(0.015625)"/>
     <path id="Roboto-Regular-67" d="M 3156 72 
Q 3156 -600 2756 -967 
Q 2356 -1334 1725 -1334 
Q 1463 -1334 1081 -1206 
Q 700 -1078 472 -747 
L 775 -403 
Q 988 -663 1219 -761 
Q 1450 -859 1681 -859 
Q 2091 -859 2334 -629 
Q 2578 -400 2578 44 
L 2578 341 
Q 2234 -63 1631 -63 
Q 1022 -63 662 425 
Q 303 913 303 1653 
L 303 1719 
Q 303 2494 661 2969 
Q 1019 3444 1638 3444 
Q 2259 3444 2603 3006 
L 2631 3381 
L 3156 3381 
L 3156 72 
z
M 881 1653 
Q 881 1150 1092 789 
Q 1303 428 1772 428 
Q 2081 428 2273 568 
Q 2466 709 2578 928 
L 2578 2469 
Q 2469 2678 2275 2817 
Q 2081 2956 1778 2956 
Q 1306 2956 1093 2589 
Q 881 2222 881 1719 
L 881 1653 
z
" transform="scale(0.015625)"/>
     <path id="Roboto-Regular-51" d="M 4019 -394 
L 3613 -769 
L 2653 -6 
Q 2428 -63 2178 -63 
Q 1369 -63 856 521 
Q 344 1106 344 2131 
L 344 2419 
Q 344 3441 853 4027 
Q 1363 4613 2172 4613 
Q 3003 4613 3503 4027 
Q 4003 3441 4003 2419 
L 4003 2131 
Q 4003 1475 3793 995 
Q 3584 516 3209 247 
L 4019 -394 
z
M 3406 2131 
L 3406 2425 
Q 3406 3238 3081 3669 
Q 2756 4100 2172 4100 
Q 1613 4100 1277 3669 
Q 941 3238 941 2425 
L 941 2131 
Q 941 1313 1280 880 
Q 1619 447 2178 447 
Q 2766 447 3086 880 
Q 3406 1313 3406 2131 
z
" transform="scale(0.015625)"/>
    </defs>
    <use xlink:href="#Roboto-Regular-6c"/>
    <use xlink:href="#Roboto-Regular-6f" x="24.316406"/>
    <use xlink:href="#Roboto-Regular-67" x="81.347656"/>
    <use xlink:href="#Roboto-Regular-20" x="137.5"/>
    <use xlink:href="#Roboto-Regular-51" x="162.304688"/>
    <use xlink:href="#Roboto-Regular-28" x="231.103516"/>
    <use xlink:href="#Roboto-Regular-54" x="265.332031"/>
    <use xlink:href="#Roboto-Regular-29" x="325"/>
   </g>
  </g>
 </g>
 <defs>
  <clipPath id="pa9025c4ca3">
   <rect x="48.136875" y="10.8" width="109.176039" height="71.959296"/>
  </clipPath>
  <clipPath id="p5186e4be76">
   <rect x="181.102656" y="10.8" width="109.176039" height="71.959296"/>
  </clipPath>
  <clipPath id="p2504e18fae">
   <rect x="314.068437" y="10.8" width="109.176039" height="71.959296"/>
  </clipPath>
  <clipPath id="pad784d1cf0">
   <rect x="447.034219" y="10.8" width="109.176039" height="71.959296"/>
  </clipPath>
  <clipPath id="pefa259199d">
   <rect x="48.136875" y="97.574193" width="109.176039" height="71.959296"/>
  </clipPath>
  <clipPath id="p8850452439">
   <rect x="181.102656" y="97.574193" width="109.176039" height="71.959296"/>
  </clipPath>
  <clipPath id="p6cbce3a0f5">
   <rect x="314.068437" y="97.574193" width="109.176039" height="71.959296"/>
  </clipPath>
  <clipPath id="p96f6ed5687">
   <rect x="447.034219" y="97.574193" width="109.176039" height="71.959296"/>
  </clipPath>
  <clipPath id="p834ad2d77c">
   <rect x="48.136875" y="184.348386" width="109.176039" height="71.959296"/>
  </clipPath>
  <clipPath id="pa10eb27f1a">
   <rect x="181.102656" y="184.348386" width="109.176039" height="71.959296"/>
  </clipPath>
  <clipPath id="p3a4a7d9887">
   <rect x="314.068437" y="184.348386" width="109.176039" height="71.959296"/>
  </clipPath>
  <clipPath id="pe5b1b310ca">
   <rect x="447.034219" y="184.348386" width="109.176039" height="71.959296"/>
  </clipPath>
  <clipPath id="paee356db90">
   <rect x="48.136875" y="271.122579" width="109.176039" height="71.959296"/>
  </clipPath>
  <clipPath id="p954e809aa7">
   <rect x="181.102656" y="271.122579" width="109.176039" height="71.959296"/>
  </clipPath>
  <clipPath id="p9a347b756f">
   <rect x="314.068437" y="271.122579" width="109.176039" height="71.959296"/>
  </clipPath>
  <clipPath id="p23d473449e">
   <rect x="447.034219" y="271.122579" width="109.176039" height="71.959296"/>
  </clipPath>
 </defs>
</svg>
