<?xml version="1.0" encoding="utf-8" standalone="no"?>
<!DOCTYPE svg PUBLIC "-//W3C//DTD SVG 1.1//EN"
  "http://www.w3.org/Graphics/SVG/1.1/DTD/svg11.dtd">
<svg xmlns:xlink="http://www.w3.org/1999/xlink" width="432pt" height="324pt" viewBox="0 0 432 324" xmlns="http://www.w3.org/2000/svg" version="1.1">
 <metadata>
  <rdf:RDF xmlns:dc="http://purl.org/dc/elements/1.1/" xmlns:cc="http://creativecommons.org/ns#" xmlns:rdf="http://www.w3.org/1999/02/22-rdf-syntax-ns#">
   <cc:Work>
    <dc:type rdf:resource="http://purl.org/dc/dcmitype/StillImage"/>
    <dc:date>2022-05-11T17:31:50.899895</dc:date>
    <dc:format>image/svg+xml</dc:format>
    <dc:creator>
     <cc:Agent>
      <dc:title>Matplotlib v3.5.1, https://matplotlib.org/</dc:title>
     </cc:Agent>
    </dc:creator>
   </cc:Work>
  </rdf:RDF>
 </metadata>
 <defs>
  <style type="text/css">*{stroke-linejoin: round; stroke-linecap: butt}</style>
 </defs>
 <g id="figure_1">
  <g id="patch_1">
   <path d="M 0 324 
L 432 324 
L 432 0 
L 0 0 
L 0 324 
z
" style="fill: none"/>
  </g>
  <g id="axes_1">
   <g id="patch_2">
    <path d="M 67.01875 277.881875 
L 421.2 277.881875 
L 421.2 10.8 
L 67.01875 10.8 
L 67.01875 277.881875 
z
" style="fill: none"/>
   </g>
   <g id="patch_3">
    <path d="M 83.117898 277.881875 
L 83.117898 10.8 
L 115.348424 10.8 
L 115.348424 277.881875 
z
" clip-path="url(#p6c1ea7354c)" style="fill: #aa4639; opacity: 0.3"/>
   </g>
   <g id="matplotlib.axis_1">
    <g id="xtick_1">
     <g id="line2d_1">
      <defs>
       <path id="m18cce87193" d="M 0 0 
L 0 4 
" style="stroke: #000000"/>
      </defs>
      <g>
       <use xlink:href="#m18cce87193" x="83.117898" y="277.881875" style="stroke: #000000"/>
      </g>
     </g>
     <g id="text_1">
      <!-- 0 -->
      <g transform="translate(79.789773 294.381875)scale(0.12 -0.12)">
       <defs>
        <path id="Roboto-Light-30" d="M 3172 2666 
L 3172 1900 
Q 3172 897 2805 417 
Q 2438 -63 1778 -63 
Q 1125 -63 750 417 
Q 375 897 375 1900 
L 375 2666 
Q 375 3666 747 4141 
Q 1119 4616 1772 4616 
Q 2431 4616 2801 4141 
Q 3172 3666 3172 2666 
z
M 2800 1856 
L 2800 2713 
Q 2800 4297 1772 4297 
Q 750 4297 750 2713 
L 750 1856 
Q 750 1091 1009 673 
Q 1269 256 1778 256 
Q 2294 256 2547 673 
Q 2800 1091 2800 1856 
z
" transform="scale(0.015625)"/>
       </defs>
       <use xlink:href="#Roboto-Light-30"/>
      </g>
     </g>
    </g>
    <g id="xtick_2">
     <g id="line2d_2">
      <g>
       <use xlink:href="#m18cce87193" x="147.57895" y="277.881875" style="stroke: #000000"/>
      </g>
     </g>
     <g id="text_2">
      <!-- 200 -->
      <g transform="translate(137.594575 294.381875)scale(0.12 -0.12)">
       <defs>
        <path id="Roboto-Light-32" d="M 3281 319 
L 3281 0 
L 428 0 
L 428 291 
L 1919 1978 
Q 2338 2453 2508 2764 
Q 2678 3075 2678 3359 
Q 2678 3772 2434 4033 
Q 2191 4294 1728 4294 
Q 1253 4294 978 3995 
Q 703 3697 703 3238 
L 328 3238 
Q 328 3803 700 4208 
Q 1072 4613 1728 4613 
Q 2344 4613 2698 4289 
Q 3053 3966 3053 3394 
Q 3053 2981 2779 2562 
Q 2506 2144 2159 1750 
L 888 319 
L 3281 319 
z
" transform="scale(0.015625)"/>
       </defs>
       <use xlink:href="#Roboto-Light-32"/>
       <use xlink:href="#Roboto-Light-30" x="55.46875"/>
       <use xlink:href="#Roboto-Light-30" x="110.9375"/>
      </g>
     </g>
    </g>
    <g id="xtick_3">
     <g id="line2d_3">
      <g>
       <use xlink:href="#m18cce87193" x="212.040002" y="277.881875" style="stroke: #000000"/>
      </g>
     </g>
     <g id="text_3">
      <!-- 400 -->
      <g transform="translate(202.055627 294.381875)scale(0.12 -0.12)">
       <defs>
        <path id="Roboto-Light-34" d="M 213 1366 
L 2316 4550 
L 2725 4550 
L 2725 1469 
L 3434 1469 
L 3434 1150 
L 2725 1150 
L 2725 0 
L 2350 0 
L 2350 1150 
L 213 1150 
L 213 1366 
z
M 672 1469 
L 2350 1469 
L 2350 4066 
L 2184 3778 
L 672 1469 
z
" transform="scale(0.015625)"/>
       </defs>
       <use xlink:href="#Roboto-Light-34"/>
       <use xlink:href="#Roboto-Light-30" x="55.46875"/>
       <use xlink:href="#Roboto-Light-30" x="110.9375"/>
      </g>
     </g>
    </g>
    <g id="xtick_4">
     <g id="line2d_4">
      <g>
       <use xlink:href="#m18cce87193" x="276.501054" y="277.881875" style="stroke: #000000"/>
      </g>
     </g>
     <g id="text_4">
      <!-- 600 -->
      <g transform="translate(266.516679 294.381875)scale(0.12 -0.12)">
       <defs>
        <path id="Roboto-Light-36" d="M 3228 1494 
Q 3228 838 2868 387 
Q 2509 -63 1881 -63 
Q 1194 -63 800 429 
Q 406 922 406 1609 
L 406 2009 
Q 406 3175 943 3879 
Q 1481 4584 2581 4584 
L 2638 4584 
L 2638 4259 
L 2581 4259 
Q 1766 4259 1303 3773 
Q 841 3288 788 2441 
Q 1178 2988 1919 2988 
Q 2572 2988 2900 2542 
Q 3228 2097 3228 1494 
z
M 781 1603 
Q 781 972 1101 614 
Q 1422 256 1881 256 
Q 2338 256 2597 615 
Q 2856 975 2856 1478 
Q 2856 1963 2609 2316 
Q 2363 2669 1859 2669 
Q 1488 2669 1183 2451 
Q 878 2234 781 1913 
L 781 1603 
z
" transform="scale(0.015625)"/>
       </defs>
       <use xlink:href="#Roboto-Light-36"/>
       <use xlink:href="#Roboto-Light-30" x="55.46875"/>
       <use xlink:href="#Roboto-Light-30" x="110.9375"/>
      </g>
     </g>
    </g>
    <g id="xtick_5">
     <g id="line2d_5">
      <g>
       <use xlink:href="#m18cce87193" x="340.962106" y="277.881875" style="stroke: #000000"/>
      </g>
     </g>
     <g id="text_5">
      <!-- 800 -->
      <g transform="translate(330.977731 294.381875)scale(0.12 -0.12)">
       <defs>
        <path id="Roboto-Light-38" d="M 3225 1206 
Q 3225 584 2806 260 
Q 2388 -63 1778 -63 
Q 1166 -63 747 260 
Q 328 584 328 1206 
Q 328 1606 561 1904 
Q 794 2203 1181 2338 
Q 847 2472 647 2747 
Q 447 3022 447 3381 
Q 447 3975 825 4294 
Q 1203 4613 1772 4613 
Q 2341 4613 2723 4294 
Q 3106 3975 3106 3381 
Q 3106 3019 2901 2745 
Q 2697 2472 2363 2338 
Q 2750 2203 2987 1904 
Q 3225 1606 3225 1206 
z
M 2734 3381 
Q 2734 3781 2457 4037 
Q 2181 4294 1772 4294 
Q 1356 4294 1087 4050 
Q 819 3806 819 3381 
Q 819 2975 1089 2734 
Q 1359 2494 1775 2494 
Q 2188 2494 2461 2734 
Q 2734 2975 2734 3381 
z
M 2850 1206 
Q 2850 1644 2542 1909 
Q 2234 2175 1772 2175 
Q 1303 2175 1003 1909 
Q 703 1644 703 1206 
Q 703 750 1003 503 
Q 1303 256 1778 256 
Q 2247 256 2548 503 
Q 2850 750 2850 1206 
z
" transform="scale(0.015625)"/>
       </defs>
       <use xlink:href="#Roboto-Light-38"/>
       <use xlink:href="#Roboto-Light-30" x="55.46875"/>
       <use xlink:href="#Roboto-Light-30" x="110.9375"/>
      </g>
     </g>
    </g>
    <g id="xtick_6">
     <g id="line2d_6">
      <g>
       <use xlink:href="#m18cce87193" x="405.423158" y="277.881875" style="stroke: #000000"/>
      </g>
     </g>
     <g id="text_6">
      <!-- 1000 -->
      <g transform="translate(392.110658 294.381875)scale(0.12 -0.12)">
       <defs>
        <path id="Roboto-Light-31" d="M 2169 4569 
L 2169 0 
L 1794 0 
L 1794 4100 
L 559 3641 
L 559 3991 
L 2106 4569 
L 2169 4569 
z
" transform="scale(0.015625)"/>
       </defs>
       <use xlink:href="#Roboto-Light-31"/>
       <use xlink:href="#Roboto-Light-30" x="55.46875"/>
       <use xlink:href="#Roboto-Light-30" x="110.9375"/>
       <use xlink:href="#Roboto-Light-30" x="166.40625"/>
      </g>
     </g>
    </g>
    <g id="text_7">
     <!-- Temperature (K) -->
     <g transform="translate(200.354375 310.445625)scale(0.12 -0.12)">
      <defs>
       <path id="Roboto-Regular-54" d="M 156 4056 
L 156 4550 
L 3672 4550 
L 3672 4056 
L 2209 4056 
L 2209 0 
L 1616 0 
L 1616 4056 
L 156 4056 
z
" transform="scale(0.015625)"/>
       <path id="Roboto-Regular-65" d="M 3116 591 
Q 2950 341 2647 139 
Q 2344 -63 1844 -63 
Q 1138 -63 714 396 
Q 291 856 291 1572 
L 291 1703 
Q 291 2256 502 2645 
Q 713 3034 1050 3239 
Q 1388 3444 1769 3444 
Q 2494 3444 2826 2970 
Q 3159 2497 3159 1788 
L 3159 1528 
L 872 1528 
Q 884 1063 1148 736 
Q 1413 409 1875 409 
Q 2181 409 2393 534 
Q 2606 659 2766 869 
L 3116 591 
z
M 1769 2969 
Q 1425 2969 1187 2719 
Q 950 2469 891 2000 
L 2581 2000 
L 2581 2044 
Q 2559 2381 2386 2675 
Q 2213 2969 1769 2969 
z
" transform="scale(0.015625)"/>
       <path id="Roboto-Regular-6d" d="M 1794 2956 
Q 1484 2956 1296 2825 
Q 1109 2694 1016 2478 
L 1016 0 
L 434 0 
L 434 3381 
L 984 3381 
L 1000 3013 
Q 1366 3444 2000 3444 
Q 2325 3444 2579 3314 
Q 2834 3184 2969 2900 
Q 3138 3144 3408 3294 
Q 3678 3444 4044 3444 
Q 4588 3444 4883 3153 
Q 5178 2863 5178 2222 
L 5178 0 
L 4597 0 
L 4597 2228 
Q 4597 2653 4401 2804 
Q 4206 2956 3875 2956 
Q 3525 2956 3325 2748 
Q 3125 2541 3094 2244 
L 3094 0 
L 2516 0 
L 2516 2225 
Q 2516 2622 2319 2789 
Q 2122 2956 1794 2956 
z
" transform="scale(0.015625)"/>
       <path id="Roboto-Regular-70" d="M 1984 -63 
Q 1375 -63 1019 328 
L 1019 -1300 
L 438 -1300 
L 438 3381 
L 969 3381 
L 997 3009 
Q 1353 3444 1975 3444 
Q 2616 3444 2956 2969 
Q 3297 2494 3297 1719 
L 3297 1653 
Q 3297 913 2955 425 
Q 2613 -63 1984 -63 
z
M 1806 2956 
Q 1513 2956 1322 2823 
Q 1131 2691 1019 2491 
L 1019 872 
Q 1134 672 1323 542 
Q 1513 413 1813 413 
Q 2281 413 2498 781 
Q 2716 1150 2716 1653 
L 2716 1719 
Q 2716 2222 2498 2589 
Q 2281 2956 1806 2956 
z
" transform="scale(0.015625)"/>
       <path id="Roboto-Regular-72" d="M 1791 2888 
Q 1494 2888 1303 2755 
Q 1113 2622 1019 2400 
L 1019 0 
L 441 0 
L 441 3381 
L 1003 3381 
L 1016 2994 
Q 1144 3200 1342 3322 
Q 1541 3444 1819 3444 
Q 1981 3444 2075 3400 
L 2072 2863 
Q 1944 2888 1791 2888 
z
" transform="scale(0.015625)"/>
       <path id="Roboto-Regular-61" d="M 2528 0 
Q 2472 122 2447 356 
Q 2284 184 2040 60 
Q 1797 -63 1484 -63 
Q 966 -63 653 228 
Q 341 519 341 941 
Q 341 1484 753 1767 
Q 1166 2050 1863 2050 
L 2434 2050 
L 2434 2319 
Q 2434 2619 2254 2798 
Q 2075 2978 1722 2978 
Q 1394 2978 1192 2817 
Q 991 2656 991 2444 
L 413 2444 
Q 413 2806 778 3125 
Q 1144 3444 1756 3444 
Q 2306 3444 2659 3162 
Q 3013 2881 3013 2313 
L 3013 738 
Q 3013 569 3042 378 
Q 3072 188 3131 50 
L 3131 0 
L 2528 0 
z
M 1569 444 
Q 1881 444 2111 600 
Q 2341 756 2434 947 
L 2434 1644 
L 1956 1644 
Q 922 1644 922 1019 
Q 922 778 1084 611 
Q 1247 444 1569 444 
z
" transform="scale(0.015625)"/>
       <path id="Roboto-Regular-74" d="M 1872 0 
Q 1803 -22 1692 -42 
Q 1581 -63 1425 -63 
Q 1103 -63 875 134 
Q 647 331 647 841 
L 647 2938 
L 28 2938 
L 28 3381 
L 647 3381 
L 647 4203 
L 1225 4203 
L 1225 3381 
L 1856 3381 
L 1856 2938 
L 1225 2938 
L 1225 838 
Q 1225 578 1337 506 
Q 1450 434 1597 434 
Q 1669 434 1748 448 
Q 1828 463 1869 472 
L 1872 0 
z
" transform="scale(0.015625)"/>
       <path id="Roboto-Regular-75" d="M 2538 0 
L 2525 334 
Q 2369 147 2125 42 
Q 1881 -63 1538 -63 
Q 1041 -63 734 231 
Q 428 525 428 1200 
L 428 3381 
L 1006 3381 
L 1006 1194 
Q 1006 738 1198 583 
Q 1391 428 1628 428 
Q 1981 428 2193 562 
Q 2406 697 2509 919 
L 2509 3381 
L 3091 3381 
L 3091 0 
L 2538 0 
z
" transform="scale(0.015625)"/>
       <path id="Roboto-Regular-20" transform="scale(0.015625)"/>
       <path id="Roboto-Regular-28" d="M 419 1819 
L 419 1850 
Q 419 2756 678 3434 
Q 938 4113 1294 4541 
Q 1650 4969 1947 5134 
L 2069 4753 
Q 1700 4475 1348 3759 
Q 997 3044 997 1856 
L 997 1813 
Q 997 625 1348 -97 
Q 1700 -819 2069 -1119 
L 1947 -1469 
Q 1650 -1306 1294 -878 
Q 938 -450 678 228 
Q 419 906 419 1819 
z
" transform="scale(0.015625)"/>
       <path id="Roboto-Regular-4b" d="M 3297 0 
L 1688 2119 
L 1131 1541 
L 1131 0 
L 528 0 
L 528 4550 
L 1131 4550 
L 1131 2306 
L 1625 2850 
L 3153 4550 
L 3878 4550 
L 2091 2541 
L 4016 0 
L 3297 0 
z
" transform="scale(0.015625)"/>
       <path id="Roboto-Regular-29" d="M 1772 1850 
L 1772 1819 
Q 1772 906 1512 228 
Q 1253 -450 895 -878 
Q 538 -1306 244 -1469 
L 122 -1119 
Q 488 -841 841 -108 
Q 1194 625 1194 1813 
L 1194 1856 
Q 1194 2647 1019 3236 
Q 844 3825 594 4212 
Q 344 4600 122 4781 
L 244 5134 
Q 538 4969 895 4541 
Q 1253 4113 1512 3434 
Q 1772 2756 1772 1850 
z
" transform="scale(0.015625)"/>
      </defs>
      <use xlink:href="#Roboto-Regular-54"/>
      <use xlink:href="#Roboto-Regular-65" x="59.667969"/>
      <use xlink:href="#Roboto-Regular-6d" x="112.695312"/>
      <use xlink:href="#Roboto-Regular-70" x="200.390625"/>
      <use xlink:href="#Roboto-Regular-65" x="256.542969"/>
      <use xlink:href="#Roboto-Regular-72" x="309.570312"/>
      <use xlink:href="#Roboto-Regular-61" x="343.457031"/>
      <use xlink:href="#Roboto-Regular-74" x="397.851562"/>
      <use xlink:href="#Roboto-Regular-75" x="430.566406"/>
      <use xlink:href="#Roboto-Regular-72" x="485.693359"/>
      <use xlink:href="#Roboto-Regular-65" x="519.580078"/>
      <use xlink:href="#Roboto-Regular-20" x="572.607422"/>
      <use xlink:href="#Roboto-Regular-28" x="597.412109"/>
      <use xlink:href="#Roboto-Regular-4b" x="631.640625"/>
      <use xlink:href="#Roboto-Regular-29" x="694.384766"/>
     </g>
    </g>
   </g>
   <g id="matplotlib.axis_2">
    <g id="ytick_1">
     <g id="line2d_7">
      <defs>
       <path id="mb40f56dd93" d="M 0 0 
L -4 0 
" style="stroke: #000000"/>
      </defs>
      <g>
       <use xlink:href="#mb40f56dd93" x="67.01875" y="265.748762" style="stroke: #000000"/>
      </g>
     </g>
     <g id="text_8">
      <!-- 0 -->
      <g transform="translate(52.8625 270.248762)scale(0.12 -0.12)">
       <use xlink:href="#Roboto-Light-30"/>
      </g>
     </g>
    </g>
    <g id="ytick_2">
     <g id="line2d_8">
      <g>
       <use xlink:href="#mb40f56dd93" x="67.01875" y="218.185342" style="stroke: #000000"/>
      </g>
     </g>
     <g id="text_9">
      <!-- 10000 -->
      <g transform="translate(26.2375 222.685342)scale(0.12 -0.12)">
       <use xlink:href="#Roboto-Light-31"/>
       <use xlink:href="#Roboto-Light-30" x="55.46875"/>
       <use xlink:href="#Roboto-Light-30" x="110.9375"/>
       <use xlink:href="#Roboto-Light-30" x="166.40625"/>
       <use xlink:href="#Roboto-Light-30" x="221.875"/>
      </g>
     </g>
    </g>
    <g id="ytick_3">
     <g id="line2d_9">
      <g>
       <use xlink:href="#mb40f56dd93" x="67.01875" y="170.621922" style="stroke: #000000"/>
      </g>
     </g>
     <g id="text_10">
      <!-- 20000 -->
      <g transform="translate(26.2375 175.121922)scale(0.12 -0.12)">
       <use xlink:href="#Roboto-Light-32"/>
       <use xlink:href="#Roboto-Light-30" x="55.46875"/>
       <use xlink:href="#Roboto-Light-30" x="110.9375"/>
       <use xlink:href="#Roboto-Light-30" x="166.40625"/>
       <use xlink:href="#Roboto-Light-30" x="221.875"/>
      </g>
     </g>
    </g>
    <g id="ytick_4">
     <g id="line2d_10">
      <g>
       <use xlink:href="#mb40f56dd93" x="67.01875" y="123.058502" style="stroke: #000000"/>
      </g>
     </g>
     <g id="text_11">
      <!-- 30000 -->
      <g transform="translate(26.2375 127.558502)scale(0.12 -0.12)">
       <defs>
        <path id="Roboto-Light-33" d="M 1641 2159 
L 1263 2159 
L 1263 2481 
L 1641 2481 
Q 2166 2481 2436 2740 
Q 2706 3000 2706 3366 
Q 2706 3775 2473 4034 
Q 2241 4294 1750 4294 
Q 1322 4294 1036 4042 
Q 750 3791 750 3356 
L 378 3356 
Q 378 3909 768 4261 
Q 1159 4613 1750 4613 
Q 2350 4613 2714 4284 
Q 3078 3956 3078 3353 
Q 3078 3047 2881 2761 
Q 2684 2475 2300 2331 
Q 2750 2209 2956 1914 
Q 3163 1619 3163 1238 
Q 3163 616 2766 276 
Q 2369 -63 1766 -63 
Q 1397 -63 1064 81 
Q 731 225 520 512 
Q 309 800 309 1234 
L 684 1234 
Q 684 800 986 528 
Q 1288 256 1766 256 
Q 2250 256 2520 506 
Q 2791 756 2791 1225 
Q 2791 1719 2472 1939 
Q 2153 2159 1641 2159 
z
" transform="scale(0.015625)"/>
       </defs>
       <use xlink:href="#Roboto-Light-33"/>
       <use xlink:href="#Roboto-Light-30" x="55.46875"/>
       <use xlink:href="#Roboto-Light-30" x="110.9375"/>
       <use xlink:href="#Roboto-Light-30" x="166.40625"/>
       <use xlink:href="#Roboto-Light-30" x="221.875"/>
      </g>
     </g>
    </g>
    <g id="ytick_5">
     <g id="line2d_11">
      <g>
       <use xlink:href="#mb40f56dd93" x="67.01875" y="75.495082" style="stroke: #000000"/>
      </g>
     </g>
     <g id="text_12">
      <!-- 40000 -->
      <g transform="translate(26.2375 79.995082)scale(0.12 -0.12)">
       <use xlink:href="#Roboto-Light-34"/>
       <use xlink:href="#Roboto-Light-30" x="55.46875"/>
       <use xlink:href="#Roboto-Light-30" x="110.9375"/>
       <use xlink:href="#Roboto-Light-30" x="166.40625"/>
       <use xlink:href="#Roboto-Light-30" x="221.875"/>
      </g>
     </g>
    </g>
    <g id="ytick_6">
     <g id="line2d_12">
      <g>
       <use xlink:href="#mb40f56dd93" x="67.01875" y="27.931662" style="stroke: #000000"/>
      </g>
     </g>
     <g id="text_13">
      <!-- 50000 -->
      <g transform="translate(26.2375 32.431662)scale(0.12 -0.12)">
       <defs>
        <path id="Roboto-Light-35" d="M 978 2250 
L 684 2334 
L 906 4550 
L 3181 4550 
L 3181 4203 
L 1228 4203 
L 1066 2666 
Q 1181 2750 1409 2834 
Q 1638 2919 1922 2919 
Q 2531 2919 2901 2525 
Q 3272 2131 3272 1450 
Q 3272 797 2945 367 
Q 2619 -63 1909 -63 
Q 1369 -63 975 246 
Q 581 556 525 1197 
L 884 1197 
Q 991 256 1909 256 
Q 2394 256 2645 565 
Q 2897 875 2897 1444 
Q 2897 1925 2626 2251 
Q 2356 2578 1856 2578 
Q 1531 2578 1337 2489 
Q 1144 2400 978 2250 
z
" transform="scale(0.015625)"/>
       </defs>
       <use xlink:href="#Roboto-Light-35"/>
       <use xlink:href="#Roboto-Light-30" x="55.46875"/>
       <use xlink:href="#Roboto-Light-30" x="110.9375"/>
       <use xlink:href="#Roboto-Light-30" x="166.40625"/>
       <use xlink:href="#Roboto-Light-30" x="221.875"/>
      </g>
     </g>
    </g>
    <g id="text_14">
     <!-- Q -->
     <g transform="translate(19.8 148.46875)rotate(-90)scale(0.12 -0.12)">
      <defs>
       <path id="Roboto-Regular-51" d="M 4019 -394 
L 3613 -769 
L 2653 -6 
Q 2428 -63 2178 -63 
Q 1369 -63 856 521 
Q 344 1106 344 2131 
L 344 2419 
Q 344 3441 853 4027 
Q 1363 4613 2172 4613 
Q 3003 4613 3503 4027 
Q 4003 3441 4003 2419 
L 4003 2131 
Q 4003 1475 3793 995 
Q 3584 516 3209 247 
L 4019 -394 
z
M 3406 2131 
L 3406 2425 
Q 3406 3238 3081 3669 
Q 2756 4100 2172 4100 
Q 1613 4100 1277 3669 
Q 941 3238 941 2425 
L 941 2131 
Q 941 1313 1280 880 
Q 1619 447 2178 447 
Q 2766 447 3086 880 
Q 3406 1313 3406 2131 
z
" transform="scale(0.015625)"/>
      </defs>
      <use xlink:href="#Roboto-Regular-51"/>
     </g>
    </g>
   </g>
   <g id="line2d_13">
    <path d="M 83.117898 265.74179 
L 86.018645 265.56342 
L 90.208613 265.068818 
L 95.043192 264.275184 
L 100.522382 263.155341 
L 106.968487 261.589914 
L 113.414592 259.795251 
L 120.505308 257.585323 
L 127.918329 255.039167 
L 136.298266 251.894831 
L 143.388981 249.031191 
L 152.413529 245.129499 
L 160.148855 241.578955 
L 167.561876 237.998115 
L 177.875644 232.751858 
L 186.255581 228.27104 
L 193.346297 224.341828 
L 203.015454 218.773075 
L 222.99838 206.555422 
L 235.24598 198.640966 
L 255.551212 184.862837 
L 266.831896 176.895565 
L 270.054948 174.57434 
L 279.724106 167.512203 
L 283.914075 164.410632 
L 289.715569 160.073517 
L 305.186222 148.266241 
L 307.442359 146.494736 
L 317.111516 138.933053 
L 322.913011 134.325236 
L 325.813758 132.005181 
L 330.003727 128.669053 
L 331.615253 127.368853 
L 338.383663 121.877814 
L 366.101916 98.919137 
L 378.02721 88.830378 
L 382.539484 84.959404 
L 384.473316 83.328573 
L 387.051758 81.088707 
L 389.307895 79.165417 
L 391.241726 77.482322 
L 393.820168 75.258324 
L 396.39861 73.052496 
L 398.010137 71.6276 
L 402.200105 68.018447 
L 403.489326 66.876925 
L 405.100852 65.452326 
L 405.100852 65.452326 
" clip-path="url(#p6c1ea7354c)" style="fill: none; stroke: #aa4639; stroke-linecap: square"/>
   </g>
   <g id="line2d_14">
    <path d="M 83.117898 265.741079 
L 86.34095 265.580642 
L 91.497834 265.117472 
L 97.299329 264.362224 
L 104.390045 263.194273 
L 113.736897 261.408463 
L 127.918329 258.450851 
L 146.289729 254.397647 
L 160.47116 251.057875 
L 172.396455 248.025066 
L 182.710223 245.179559 
L 192.379381 242.281846 
L 201.403928 239.342875 
L 209.783865 236.384038 
L 217.841496 233.30688 
L 225.576823 230.117787 
L 232.989844 226.826477 
L 240.080559 223.44548 
L 247.171275 219.819759 
L 253.939685 216.114289 
L 260.708096 212.153283 
L 267.154201 208.127695 
L 273.600306 203.839522 
L 279.724106 199.507345 
L 285.847906 194.908436 
L 291.971706 190.027156 
L 298.095506 184.846942 
L 303.897001 179.647926 
L 309.698495 174.149409 
L 315.49999 168.33505 
L 321.301485 162.18745 
L 326.780674 156.059099 
L 332.259864 149.601519 
L 337.739053 142.797117 
L 343.218242 135.628947 
L 348.697432 128.077938 
L 354.176621 120.125037 
L 359.333505 112.254322 
L 364.49039 103.99159 
L 369.647274 95.318698 
L 374.804158 86.215877 
L 379.961042 76.663637 
L 385.117926 66.640297 
L 390.27481 56.124768 
L 395.431694 45.094104 
L 400.588579 33.524061 
L 405.100852 22.940085 
L 405.100852 22.940085 
" clip-path="url(#p6c1ea7354c)" style="fill: none; stroke-dasharray: 3.7,1.6; stroke-dashoffset: 0; stroke: #255c69"/>
   </g>
   <g id="patch_4">
    <path d="M 67.01875 277.881875 
L 67.01875 10.8 
" style="fill: none; stroke: #000000; stroke-linejoin: miter; stroke-linecap: square"/>
   </g>
   <g id="patch_5">
    <path d="M 67.01875 277.881875 
L 421.2 277.881875 
" style="fill: none; stroke: #000000; stroke-linejoin: miter; stroke-linecap: square"/>
   </g>
   <g id="legend_1">
    <g id="line2d_15">
     <path d="M 328.609375 248.819375 
L 338.609375 248.819375 
L 348.609375 248.819375 
" style="fill: none; stroke: #aa4639; stroke-linecap: square"/>
    </g>
    <g id="text_15">
     <!-- Ground truth -->
     <g transform="translate(356.609375 252.319375)scale(0.1 -0.1)">
      <defs>
       <path id="Roboto-Light-47" d="M 3859 2163 
L 3859 544 
Q 3741 372 3367 154 
Q 2994 -63 2278 -63 
Q 1475 -63 964 500 
Q 453 1063 453 2016 
L 453 2569 
Q 453 3506 926 4059 
Q 1400 4613 2219 4613 
Q 2978 4613 3379 4228 
Q 3781 3844 3856 3269 
L 3472 3269 
Q 3403 3675 3118 3979 
Q 2834 4284 2219 4284 
Q 1553 4284 1197 3814 
Q 841 3344 841 2575 
L 841 2016 
Q 841 1222 1236 742 
Q 1631 263 2281 263 
Q 2800 263 3090 402 
Q 3381 541 3478 659 
L 3478 1834 
L 2256 1834 
L 2256 2163 
L 3859 2163 
z
" transform="scale(0.015625)"/>
       <path id="Roboto-Light-72" d="M 1800 3088 
Q 1422 3088 1189 2877 
Q 956 2666 863 2331 
L 863 0 
L 488 0 
L 488 3381 
L 853 3381 
L 863 2853 
Q 1000 3125 1236 3284 
Q 1472 3444 1813 3444 
Q 1963 3444 2063 3406 
L 2050 3066 
Q 1988 3075 1928 3081 
Q 1869 3088 1800 3088 
z
" transform="scale(0.015625)"/>
       <path id="Roboto-Light-6f" d="M 284 1641 
L 284 1741 
Q 284 2478 696 2961 
Q 1109 3444 1791 3444 
Q 2481 3444 2892 2961 
Q 3303 2478 3303 1741 
L 3303 1641 
Q 3303 900 2892 418 
Q 2481 -63 1797 -63 
Q 1109 -63 696 418 
Q 284 900 284 1641 
z
M 659 1741 
L 659 1641 
Q 659 1081 951 668 
Q 1244 256 1797 256 
Q 2344 256 2636 668 
Q 2928 1081 2928 1641 
L 2928 1741 
Q 2928 2288 2634 2706 
Q 2341 3125 1791 3125 
Q 1244 3125 951 2706 
Q 659 2288 659 1741 
z
" transform="scale(0.015625)"/>
       <path id="Roboto-Light-75" d="M 2672 0 
L 2663 428 
Q 2506 200 2240 68 
Q 1975 -63 1588 -63 
Q 1091 -63 783 231 
Q 475 525 475 1219 
L 475 3381 
L 850 3381 
L 850 1213 
Q 850 672 1079 467 
Q 1309 263 1631 263 
Q 2078 263 2320 452 
Q 2563 641 2656 928 
L 2656 3381 
L 3031 3381 
L 3031 0 
L 2672 0 
z
" transform="scale(0.015625)"/>
       <path id="Roboto-Light-6e" d="M 1869 3122 
Q 1475 3122 1223 2876 
Q 972 2631 863 2325 
L 863 0 
L 488 0 
L 488 3381 
L 847 3381 
L 859 2809 
Q 1034 3097 1317 3270 
Q 1600 3444 1963 3444 
Q 2466 3444 2753 3158 
Q 3041 2872 3041 2203 
L 3041 0 
L 2666 0 
L 2666 2203 
Q 2666 2728 2452 2925 
Q 2238 3122 1869 3122 
z
" transform="scale(0.015625)"/>
       <path id="Roboto-Light-64" d="M 2713 0 
L 2694 453 
Q 2528 213 2265 75 
Q 2003 -63 1638 -63 
Q 1041 -63 691 418 
Q 341 900 341 1656 
L 341 1722 
Q 341 2509 691 2976 
Q 1041 3444 1644 3444 
Q 2003 3444 2261 3303 
Q 2519 3163 2688 2909 
L 2688 4800 
L 3063 4800 
L 3063 0 
L 2713 0 
z
M 716 1656 
Q 716 1066 958 664 
Q 1200 263 1709 263 
Q 2091 263 2327 436 
Q 2563 609 2688 872 
L 2688 2469 
Q 2578 2725 2350 2922 
Q 2122 3119 1716 3119 
Q 1200 3119 958 2716 
Q 716 2313 716 1722 
L 716 1656 
z
" transform="scale(0.015625)"/>
       <path id="Roboto-Light-20" transform="scale(0.015625)"/>
       <path id="Roboto-Light-74" d="M 1831 -13 
Q 1688 -63 1431 -63 
Q 1106 -63 900 126 
Q 694 316 694 825 
L 694 3075 
L 75 3075 
L 75 3381 
L 694 3381 
L 694 4250 
L 1072 4250 
L 1072 3381 
L 1769 3381 
L 1769 3075 
L 1072 3075 
L 1072 825 
Q 1072 469 1205 367 
Q 1338 266 1509 266 
Q 1597 266 1673 277 
Q 1750 288 1816 300 
L 1831 -13 
z
" transform="scale(0.015625)"/>
       <path id="Roboto-Light-68" d="M 1869 3122 
Q 1475 3122 1223 2876 
Q 972 2631 863 2325 
L 863 0 
L 488 0 
L 488 4800 
L 863 4800 
L 863 2816 
Q 1038 3100 1319 3272 
Q 1600 3444 1963 3444 
Q 2466 3444 2753 3158 
Q 3041 2872 3041 2203 
L 3041 0 
L 2666 0 
L 2666 2203 
Q 2666 2728 2452 2925 
Q 2238 3122 1869 3122 
z
" transform="scale(0.015625)"/>
      </defs>
      <use xlink:href="#Roboto-Light-47"/>
      <use xlink:href="#Roboto-Light-72" x="68.408203"/>
      <use xlink:href="#Roboto-Light-6f" x="102.099609"/>
      <use xlink:href="#Roboto-Light-75" x="158.154297"/>
      <use xlink:href="#Roboto-Light-6e" x="213.085938"/>
      <use xlink:href="#Roboto-Light-64" x="268.066406"/>
      <use xlink:href="#Roboto-Light-20" x="323.632812"/>
      <use xlink:href="#Roboto-Light-74" x="347.998047"/>
      <use xlink:href="#Roboto-Light-72" x="380.175781"/>
      <use xlink:href="#Roboto-Light-75" x="413.867188"/>
      <use xlink:href="#Roboto-Light-74" x="468.798828"/>
      <use xlink:href="#Roboto-Light-68" x="500.976562"/>
     </g>
    </g>
    <g id="line2d_16">
     <path d="M 328.609375 263.350625 
L 338.609375 263.350625 
L 348.609375 263.350625 
" style="fill: none; stroke-dasharray: 3.7,1.6; stroke-dashoffset: 0; stroke: #255c69"/>
    </g>
    <g id="text_16">
     <!-- Prediction -->
     <g transform="translate(356.609375 266.850625)scale(0.1 -0.1)">
      <defs>
       <path id="Roboto-Light-50" d="M 2128 1853 
L 963 1853 
L 963 0 
L 578 0 
L 578 4550 
L 2128 4550 
Q 2878 4550 3268 4173 
Q 3659 3797 3659 3194 
Q 3659 2563 3268 2208 
Q 2878 1853 2128 1853 
z
M 963 4222 
L 963 2181 
L 2128 2181 
Q 2734 2181 3004 2472 
Q 3275 2763 3275 3188 
Q 3275 3606 3004 3914 
Q 2734 4222 2128 4222 
L 963 4222 
z
" transform="scale(0.015625)"/>
       <path id="Roboto-Light-65" d="M 2997 538 
Q 2831 291 2540 114 
Q 2250 -63 1797 -63 
Q 1138 -63 709 403 
Q 281 869 281 1597 
L 281 1731 
Q 281 2513 717 2978 
Q 1153 3444 1731 3444 
Q 2375 3444 2722 3008 
Q 3069 2572 3069 1897 
L 3069 1669 
L 656 1669 
L 656 1597 
Q 656 1038 976 645 
Q 1297 253 1813 253 
Q 2409 253 2759 716 
L 2997 538 
z
M 1731 3125 
Q 1303 3125 1017 2812 
Q 731 2500 672 1988 
L 2694 1988 
L 2694 2028 
Q 2684 2453 2445 2789 
Q 2206 3125 1731 3125 
z
" transform="scale(0.015625)"/>
       <path id="Roboto-Light-69" d="M 466 4359 
Q 466 4613 722 4613 
Q 981 4613 981 4359 
Q 981 4113 722 4113 
Q 466 4113 466 4359 
z
M 906 3381 
L 906 0 
L 534 0 
L 534 3381 
L 906 3381 
z
" transform="scale(0.015625)"/>
       <path id="Roboto-Light-63" d="M 1741 256 
Q 2094 256 2373 457 
Q 2653 659 2681 1047 
L 3038 1047 
Q 3013 563 2634 250 
Q 2256 -63 1741 -63 
Q 1028 -63 662 425 
Q 297 913 297 1625 
L 297 1756 
Q 297 2469 662 2956 
Q 1028 3444 1734 3444 
Q 2278 3444 2645 3119 
Q 3013 2794 3038 2244 
L 2681 2244 
Q 2656 2653 2387 2889 
Q 2119 3125 1734 3125 
Q 1156 3125 912 2709 
Q 669 2294 669 1756 
L 669 1625 
Q 669 1084 912 670 
Q 1156 256 1741 256 
z
" transform="scale(0.015625)"/>
      </defs>
      <use xlink:href="#Roboto-Light-50"/>
      <use xlink:href="#Roboto-Light-72" x="61.572266"/>
      <use xlink:href="#Roboto-Light-65" x="95.263672"/>
      <use xlink:href="#Roboto-Light-64" x="146.972656"/>
      <use xlink:href="#Roboto-Light-69" x="202.539062"/>
      <use xlink:href="#Roboto-Light-63" x="225"/>
      <use xlink:href="#Roboto-Light-74" x="276.5625"/>
      <use xlink:href="#Roboto-Light-69" x="308.740234"/>
      <use xlink:href="#Roboto-Light-6f" x="331.201172"/>
      <use xlink:href="#Roboto-Light-6e" x="387.255859"/>
     </g>
    </g>
   </g>
  </g>
 </g>
 <defs>
  <clipPath id="p6c1ea7354c">
   <rect x="67.01875" y="10.8" width="354.18125" height="267.081875"/>
  </clipPath>
 </defs>
</svg>
