<?xml version="1.0" encoding="utf-8" standalone="no"?>
<!DOCTYPE svg PUBLIC "-//W3C//DTD SVG 1.1//EN"
  "http://www.w3.org/Graphics/SVG/1.1/DTD/svg11.dtd">
<svg xmlns:xlink="http://www.w3.org/1999/xlink" width="252pt" height="216pt" viewBox="0 0 252 216" xmlns="http://www.w3.org/2000/svg" version="1.1">
 <metadata>
  <rdf:RDF xmlns:dc="http://purl.org/dc/elements/1.1/" xmlns:cc="http://creativecommons.org/ns#" xmlns:rdf="http://www.w3.org/1999/02/22-rdf-syntax-ns#">
   <cc:Work>
    <dc:type rdf:resource="http://purl.org/dc/dcmitype/StillImage"/>
    <dc:date>2022-06-08T09:22:42.238608</dc:date>
    <dc:format>image/svg+xml</dc:format>
    <dc:creator>
     <cc:Agent>
      <dc:title>Matplotlib v3.5.1, https://matplotlib.org/</dc:title>
     </cc:Agent>
    </dc:creator>
   </cc:Work>
  </rdf:RDF>
 </metadata>
 <defs>
  <style type="text/css">*{stroke-linejoin: round; stroke-linecap: butt}</style>
 </defs>
 <g id="figure_1">
  <g id="patch_1">
   <path d="M 0 216 
L 252 216 
L 252 0 
L 0 0 
L 0 216 
z
" style="fill: none"/>
  </g>
  <g id="axes_1">
   <g id="patch_2">
    <path d="M 40.4575 169.881875 
L 231.215625 169.881875 
L 231.215625 25.8 
L 40.4575 25.8 
L 40.4575 169.881875 
z
" style="fill: none"/>
   </g>
   <g id="patch_3">
    <path d="M 43.584682 169.881875 
L 43.584682 25.8 
L 49.839047 25.8 
L 49.839047 169.881875 
z
" clip-path="url(#p96d39cbb31)" style="fill: #aa4639; opacity: 0.3"/>
   </g>
   <g id="matplotlib.axis_1">
    <g id="xtick_1">
     <g id="line2d_1">
      <defs>
       <path id="m6529010079" d="M 0 0 
L 0 4 
" style="stroke: #000000"/>
      </defs>
      <g>
       <use xlink:href="#m6529010079" x="43.584682" y="169.881875" style="stroke: #000000"/>
      </g>
     </g>
     <g id="text_1">
      <!-- 0 -->
      <g transform="translate(40.256557 186.381875)scale(0.12 -0.12)">
       <defs>
        <path id="Roboto-Light-30" d="M 3172 2666 
L 3172 1900 
Q 3172 897 2805 417 
Q 2438 -63 1778 -63 
Q 1125 -63 750 417 
Q 375 897 375 1900 
L 375 2666 
Q 375 3666 747 4141 
Q 1119 4616 1772 4616 
Q 2431 4616 2801 4141 
Q 3172 3666 3172 2666 
z
M 2800 1856 
L 2800 2713 
Q 2800 4297 1772 4297 
Q 750 4297 750 2713 
L 750 1856 
Q 750 1091 1009 673 
Q 1269 256 1778 256 
Q 2294 256 2547 673 
Q 2800 1091 2800 1856 
z
" transform="scale(0.015625)"/>
       </defs>
       <use xlink:href="#Roboto-Light-30"/>
      </g>
     </g>
    </g>
    <g id="xtick_2">
     <g id="line2d_2">
      <g>
       <use xlink:href="#m6529010079" x="106.12833" y="169.881875" style="stroke: #000000"/>
      </g>
     </g>
     <g id="text_2">
      <!-- 100 -->
      <g transform="translate(96.143955 186.381875)scale(0.12 -0.12)">
       <defs>
        <path id="Roboto-Light-31" d="M 2169 4569 
L 2169 0 
L 1794 0 
L 1794 4100 
L 559 3641 
L 559 3991 
L 2106 4569 
L 2169 4569 
z
" transform="scale(0.015625)"/>
       </defs>
       <use xlink:href="#Roboto-Light-31"/>
       <use xlink:href="#Roboto-Light-30" x="55.46875"/>
       <use xlink:href="#Roboto-Light-30" x="110.9375"/>
      </g>
     </g>
    </g>
    <g id="xtick_3">
     <g id="line2d_3">
      <g>
       <use xlink:href="#m6529010079" x="168.671977" y="169.881875" style="stroke: #000000"/>
      </g>
     </g>
     <g id="text_3">
      <!-- 200 -->
      <g transform="translate(158.687602 186.381875)scale(0.12 -0.12)">
       <defs>
        <path id="Roboto-Light-32" d="M 3281 319 
L 3281 0 
L 428 0 
L 428 291 
L 1919 1978 
Q 2338 2453 2508 2764 
Q 2678 3075 2678 3359 
Q 2678 3772 2434 4033 
Q 2191 4294 1728 4294 
Q 1253 4294 978 3995 
Q 703 3697 703 3238 
L 328 3238 
Q 328 3803 700 4208 
Q 1072 4613 1728 4613 
Q 2344 4613 2698 4289 
Q 3053 3966 3053 3394 
Q 3053 2981 2779 2562 
Q 2506 2144 2159 1750 
L 888 319 
L 3281 319 
z
" transform="scale(0.015625)"/>
       </defs>
       <use xlink:href="#Roboto-Light-32"/>
       <use xlink:href="#Roboto-Light-30" x="55.46875"/>
       <use xlink:href="#Roboto-Light-30" x="110.9375"/>
      </g>
     </g>
    </g>
    <g id="xtick_4">
     <g id="line2d_4">
      <g>
       <use xlink:href="#m6529010079" x="231.215625" y="169.881875" style="stroke: #000000"/>
      </g>
     </g>
     <g id="text_4">
      <!-- 300 -->
      <g transform="translate(221.23125 186.381875)scale(0.12 -0.12)">
       <defs>
        <path id="Roboto-Light-33" d="M 1641 2159 
L 1263 2159 
L 1263 2481 
L 1641 2481 
Q 2166 2481 2436 2740 
Q 2706 3000 2706 3366 
Q 2706 3775 2473 4034 
Q 2241 4294 1750 4294 
Q 1322 4294 1036 4042 
Q 750 3791 750 3356 
L 378 3356 
Q 378 3909 768 4261 
Q 1159 4613 1750 4613 
Q 2350 4613 2714 4284 
Q 3078 3956 3078 3353 
Q 3078 3047 2881 2761 
Q 2684 2475 2300 2331 
Q 2750 2209 2956 1914 
Q 3163 1619 3163 1238 
Q 3163 616 2766 276 
Q 2369 -63 1766 -63 
Q 1397 -63 1064 81 
Q 731 225 520 512 
Q 309 800 309 1234 
L 684 1234 
Q 684 800 986 528 
Q 1288 256 1766 256 
Q 2250 256 2520 506 
Q 2791 756 2791 1225 
Q 2791 1719 2472 1939 
Q 2153 2159 1641 2159 
z
" transform="scale(0.015625)"/>
       </defs>
       <use xlink:href="#Roboto-Light-33"/>
       <use xlink:href="#Roboto-Light-30" x="55.46875"/>
       <use xlink:href="#Roboto-Light-30" x="110.9375"/>
      </g>
     </g>
    </g>
    <g id="text_5">
     <!-- Temperature (K) -->
     <g transform="translate(92.081563 202.445625)scale(0.12 -0.12)">
      <defs>
       <path id="Roboto-Regular-54" d="M 156 4056 
L 156 4550 
L 3672 4550 
L 3672 4056 
L 2209 4056 
L 2209 0 
L 1616 0 
L 1616 4056 
L 156 4056 
z
" transform="scale(0.015625)"/>
       <path id="Roboto-Regular-65" d="M 3116 591 
Q 2950 341 2647 139 
Q 2344 -63 1844 -63 
Q 1138 -63 714 396 
Q 291 856 291 1572 
L 291 1703 
Q 291 2256 502 2645 
Q 713 3034 1050 3239 
Q 1388 3444 1769 3444 
Q 2494 3444 2826 2970 
Q 3159 2497 3159 1788 
L 3159 1528 
L 872 1528 
Q 884 1063 1148 736 
Q 1413 409 1875 409 
Q 2181 409 2393 534 
Q 2606 659 2766 869 
L 3116 591 
z
M 1769 2969 
Q 1425 2969 1187 2719 
Q 950 2469 891 2000 
L 2581 2000 
L 2581 2044 
Q 2559 2381 2386 2675 
Q 2213 2969 1769 2969 
z
" transform="scale(0.015625)"/>
       <path id="Roboto-Regular-6d" d="M 1794 2956 
Q 1484 2956 1296 2825 
Q 1109 2694 1016 2478 
L 1016 0 
L 434 0 
L 434 3381 
L 984 3381 
L 1000 3013 
Q 1366 3444 2000 3444 
Q 2325 3444 2579 3314 
Q 2834 3184 2969 2900 
Q 3138 3144 3408 3294 
Q 3678 3444 4044 3444 
Q 4588 3444 4883 3153 
Q 5178 2863 5178 2222 
L 5178 0 
L 4597 0 
L 4597 2228 
Q 4597 2653 4401 2804 
Q 4206 2956 3875 2956 
Q 3525 2956 3325 2748 
Q 3125 2541 3094 2244 
L 3094 0 
L 2516 0 
L 2516 2225 
Q 2516 2622 2319 2789 
Q 2122 2956 1794 2956 
z
" transform="scale(0.015625)"/>
       <path id="Roboto-Regular-70" d="M 1984 -63 
Q 1375 -63 1019 328 
L 1019 -1300 
L 438 -1300 
L 438 3381 
L 969 3381 
L 997 3009 
Q 1353 3444 1975 3444 
Q 2616 3444 2956 2969 
Q 3297 2494 3297 1719 
L 3297 1653 
Q 3297 913 2955 425 
Q 2613 -63 1984 -63 
z
M 1806 2956 
Q 1513 2956 1322 2823 
Q 1131 2691 1019 2491 
L 1019 872 
Q 1134 672 1323 542 
Q 1513 413 1813 413 
Q 2281 413 2498 781 
Q 2716 1150 2716 1653 
L 2716 1719 
Q 2716 2222 2498 2589 
Q 2281 2956 1806 2956 
z
" transform="scale(0.015625)"/>
       <path id="Roboto-Regular-72" d="M 1791 2888 
Q 1494 2888 1303 2755 
Q 1113 2622 1019 2400 
L 1019 0 
L 441 0 
L 441 3381 
L 1003 3381 
L 1016 2994 
Q 1144 3200 1342 3322 
Q 1541 3444 1819 3444 
Q 1981 3444 2075 3400 
L 2072 2863 
Q 1944 2888 1791 2888 
z
" transform="scale(0.015625)"/>
       <path id="Roboto-Regular-61" d="M 2528 0 
Q 2472 122 2447 356 
Q 2284 184 2040 60 
Q 1797 -63 1484 -63 
Q 966 -63 653 228 
Q 341 519 341 941 
Q 341 1484 753 1767 
Q 1166 2050 1863 2050 
L 2434 2050 
L 2434 2319 
Q 2434 2619 2254 2798 
Q 2075 2978 1722 2978 
Q 1394 2978 1192 2817 
Q 991 2656 991 2444 
L 413 2444 
Q 413 2806 778 3125 
Q 1144 3444 1756 3444 
Q 2306 3444 2659 3162 
Q 3013 2881 3013 2313 
L 3013 738 
Q 3013 569 3042 378 
Q 3072 188 3131 50 
L 3131 0 
L 2528 0 
z
M 1569 444 
Q 1881 444 2111 600 
Q 2341 756 2434 947 
L 2434 1644 
L 1956 1644 
Q 922 1644 922 1019 
Q 922 778 1084 611 
Q 1247 444 1569 444 
z
" transform="scale(0.015625)"/>
       <path id="Roboto-Regular-74" d="M 1872 0 
Q 1803 -22 1692 -42 
Q 1581 -63 1425 -63 
Q 1103 -63 875 134 
Q 647 331 647 841 
L 647 2938 
L 28 2938 
L 28 3381 
L 647 3381 
L 647 4203 
L 1225 4203 
L 1225 3381 
L 1856 3381 
L 1856 2938 
L 1225 2938 
L 1225 838 
Q 1225 578 1337 506 
Q 1450 434 1597 434 
Q 1669 434 1748 448 
Q 1828 463 1869 472 
L 1872 0 
z
" transform="scale(0.015625)"/>
       <path id="Roboto-Regular-75" d="M 2538 0 
L 2525 334 
Q 2369 147 2125 42 
Q 1881 -63 1538 -63 
Q 1041 -63 734 231 
Q 428 525 428 1200 
L 428 3381 
L 1006 3381 
L 1006 1194 
Q 1006 738 1198 583 
Q 1391 428 1628 428 
Q 1981 428 2193 562 
Q 2406 697 2509 919 
L 2509 3381 
L 3091 3381 
L 3091 0 
L 2538 0 
z
" transform="scale(0.015625)"/>
       <path id="Roboto-Regular-20" transform="scale(0.015625)"/>
       <path id="Roboto-Regular-28" d="M 419 1819 
L 419 1850 
Q 419 2756 678 3434 
Q 938 4113 1294 4541 
Q 1650 4969 1947 5134 
L 2069 4753 
Q 1700 4475 1348 3759 
Q 997 3044 997 1856 
L 997 1813 
Q 997 625 1348 -97 
Q 1700 -819 2069 -1119 
L 1947 -1469 
Q 1650 -1306 1294 -878 
Q 938 -450 678 228 
Q 419 906 419 1819 
z
" transform="scale(0.015625)"/>
       <path id="Roboto-Regular-4b" d="M 3297 0 
L 1688 2119 
L 1131 1541 
L 1131 0 
L 528 0 
L 528 4550 
L 1131 4550 
L 1131 2306 
L 1625 2850 
L 3153 4550 
L 3878 4550 
L 2091 2541 
L 4016 0 
L 3297 0 
z
" transform="scale(0.015625)"/>
       <path id="Roboto-Regular-29" d="M 1772 1850 
L 1772 1819 
Q 1772 906 1512 228 
Q 1253 -450 895 -878 
Q 538 -1306 244 -1469 
L 122 -1119 
Q 488 -841 841 -108 
Q 1194 625 1194 1813 
L 1194 1856 
Q 1194 2647 1019 3236 
Q 844 3825 594 4212 
Q 344 4600 122 4781 
L 244 5134 
Q 538 4969 895 4541 
Q 1253 4113 1512 3434 
Q 1772 2756 1772 1850 
z
" transform="scale(0.015625)"/>
      </defs>
      <use xlink:href="#Roboto-Regular-54"/>
      <use xlink:href="#Roboto-Regular-65" x="59.667969"/>
      <use xlink:href="#Roboto-Regular-6d" x="112.695312"/>
      <use xlink:href="#Roboto-Regular-70" x="200.390625"/>
      <use xlink:href="#Roboto-Regular-65" x="256.542969"/>
      <use xlink:href="#Roboto-Regular-72" x="309.570312"/>
      <use xlink:href="#Roboto-Regular-61" x="343.457031"/>
      <use xlink:href="#Roboto-Regular-74" x="397.851562"/>
      <use xlink:href="#Roboto-Regular-75" x="430.566406"/>
      <use xlink:href="#Roboto-Regular-72" x="485.693359"/>
      <use xlink:href="#Roboto-Regular-65" x="519.580078"/>
      <use xlink:href="#Roboto-Regular-20" x="572.607422"/>
      <use xlink:href="#Roboto-Regular-28" x="597.412109"/>
      <use xlink:href="#Roboto-Regular-4b" x="631.640625"/>
      <use xlink:href="#Roboto-Regular-29" x="694.384766"/>
     </g>
    </g>
   </g>
   <g id="matplotlib.axis_2">
    <g id="ytick_1">
     <g id="line2d_5">
      <defs>
       <path id="m815d9b5480" d="M 0 0 
L -4 0 
" style="stroke: #000000"/>
      </defs>
      <g>
       <use xlink:href="#m815d9b5480" x="40.4575" y="165.307814" style="stroke: #000000"/>
      </g>
     </g>
     <g id="text_6">
      <!-- 0 -->
      <g transform="translate(26.30125 169.807814)scale(0.12 -0.12)">
       <use xlink:href="#Roboto-Light-30"/>
      </g>
     </g>
    </g>
    <g id="ytick_2">
     <g id="line2d_6">
      <g>
       <use xlink:href="#m815d9b5480" x="40.4575" y="140.833025" style="stroke: #000000"/>
      </g>
     </g>
     <g id="text_7">
      <!-- 1 -->
      <g transform="translate(26.30125 145.333025)scale(0.12 -0.12)">
       <use xlink:href="#Roboto-Light-31"/>
      </g>
     </g>
    </g>
    <g id="ytick_3">
     <g id="line2d_7">
      <g>
       <use xlink:href="#m815d9b5480" x="40.4575" y="116.358235" style="stroke: #000000"/>
      </g>
     </g>
     <g id="text_8">
      <!-- 2 -->
      <g transform="translate(26.30125 120.858235)scale(0.12 -0.12)">
       <use xlink:href="#Roboto-Light-32"/>
      </g>
     </g>
    </g>
    <g id="ytick_4">
     <g id="line2d_8">
      <g>
       <use xlink:href="#m815d9b5480" x="40.4575" y="91.883446" style="stroke: #000000"/>
      </g>
     </g>
     <g id="text_9">
      <!-- 3 -->
      <g transform="translate(26.30125 96.383446)scale(0.12 -0.12)">
       <use xlink:href="#Roboto-Light-33"/>
      </g>
     </g>
    </g>
    <g id="ytick_5">
     <g id="line2d_9">
      <g>
       <use xlink:href="#m815d9b5480" x="40.4575" y="67.408656" style="stroke: #000000"/>
      </g>
     </g>
     <g id="text_10">
      <!-- 4 -->
      <g transform="translate(26.30125 71.908656)scale(0.12 -0.12)">
       <defs>
        <path id="Roboto-Light-34" d="M 213 1366 
L 2316 4550 
L 2725 4550 
L 2725 1469 
L 3434 1469 
L 3434 1150 
L 2725 1150 
L 2725 0 
L 2350 0 
L 2350 1150 
L 213 1150 
L 213 1366 
z
M 672 1469 
L 2350 1469 
L 2350 4066 
L 2184 3778 
L 672 1469 
z
" transform="scale(0.015625)"/>
       </defs>
       <use xlink:href="#Roboto-Light-34"/>
      </g>
     </g>
    </g>
    <g id="ytick_6">
     <g id="line2d_10">
      <g>
       <use xlink:href="#m815d9b5480" x="40.4575" y="42.933866" style="stroke: #000000"/>
      </g>
     </g>
     <g id="text_11">
      <!-- 5 -->
      <g transform="translate(26.30125 47.433866)scale(0.12 -0.12)">
       <defs>
        <path id="Roboto-Light-35" d="M 978 2250 
L 684 2334 
L 906 4550 
L 3181 4550 
L 3181 4203 
L 1228 4203 
L 1066 2666 
Q 1181 2750 1409 2834 
Q 1638 2919 1922 2919 
Q 2531 2919 2901 2525 
Q 3272 2131 3272 1450 
Q 3272 797 2945 367 
Q 2619 -63 1909 -63 
Q 1369 -63 975 246 
Q 581 556 525 1197 
L 884 1197 
Q 991 256 1909 256 
Q 2394 256 2645 565 
Q 2897 875 2897 1444 
Q 2897 1925 2626 2251 
Q 2356 2578 1856 2578 
Q 1531 2578 1337 2489 
Q 1144 2400 978 2250 
z
" transform="scale(0.015625)"/>
       </defs>
       <use xlink:href="#Roboto-Light-35"/>
      </g>
     </g>
    </g>
    <g id="text_12">
     <!-- log Q -->
     <g transform="translate(19.8 111.7075)rotate(-90)scale(0.12 -0.12)">
      <defs>
       <path id="Roboto-Regular-6c" d="M 1069 4800 
L 1069 0 
L 488 0 
L 488 4800 
L 1069 4800 
z
" transform="scale(0.015625)"/>
       <path id="Roboto-Regular-6f" d="M 288 1653 
L 288 1725 
Q 288 2459 700 2951 
Q 1113 3444 1822 3444 
Q 2538 3444 2952 2951 
Q 3366 2459 3366 1725 
L 3366 1653 
Q 3366 919 2952 428 
Q 2538 -63 1828 -63 
Q 1116 -63 702 428 
Q 288 919 288 1653 
z
M 866 1725 
L 866 1653 
Q 866 1150 1105 781 
Q 1344 413 1828 413 
Q 2303 413 2543 781 
Q 2784 1150 2784 1653 
L 2784 1725 
Q 2784 2222 2543 2595 
Q 2303 2969 1822 2969 
Q 1344 2969 1105 2595 
Q 866 2222 866 1725 
z
" transform="scale(0.015625)"/>
       <path id="Roboto-Regular-67" d="M 3156 72 
Q 3156 -600 2756 -967 
Q 2356 -1334 1725 -1334 
Q 1463 -1334 1081 -1206 
Q 700 -1078 472 -747 
L 775 -403 
Q 988 -663 1219 -761 
Q 1450 -859 1681 -859 
Q 2091 -859 2334 -629 
Q 2578 -400 2578 44 
L 2578 341 
Q 2234 -63 1631 -63 
Q 1022 -63 662 425 
Q 303 913 303 1653 
L 303 1719 
Q 303 2494 661 2969 
Q 1019 3444 1638 3444 
Q 2259 3444 2603 3006 
L 2631 3381 
L 3156 3381 
L 3156 72 
z
M 881 1653 
Q 881 1150 1092 789 
Q 1303 428 1772 428 
Q 2081 428 2273 568 
Q 2466 709 2578 928 
L 2578 2469 
Q 2469 2678 2275 2817 
Q 2081 2956 1778 2956 
Q 1306 2956 1093 2589 
Q 881 2222 881 1719 
L 881 1653 
z
" transform="scale(0.015625)"/>
       <path id="Roboto-Regular-51" d="M 4019 -394 
L 3613 -769 
L 2653 -6 
Q 2428 -63 2178 -63 
Q 1369 -63 856 521 
Q 344 1106 344 2131 
L 344 2419 
Q 344 3441 853 4027 
Q 1363 4613 2172 4613 
Q 3003 4613 3503 4027 
Q 4003 3441 4003 2419 
L 4003 2131 
Q 4003 1475 3793 995 
Q 3584 516 3209 247 
L 4019 -394 
z
M 3406 2131 
L 3406 2425 
Q 3406 3238 3081 3669 
Q 2756 4100 2172 4100 
Q 1613 4100 1277 3669 
Q 941 3238 941 2425 
L 941 2131 
Q 941 1313 1280 880 
Q 1619 447 2178 447 
Q 2766 447 3086 880 
Q 3406 1313 3406 2131 
z
" transform="scale(0.015625)"/>
      </defs>
      <use xlink:href="#Roboto-Regular-6c"/>
      <use xlink:href="#Roboto-Regular-6f" x="24.316406"/>
      <use xlink:href="#Roboto-Regular-67" x="81.347656"/>
      <use xlink:href="#Roboto-Regular-20" x="137.5"/>
      <use xlink:href="#Roboto-Regular-51" x="162.304688"/>
     </g>
    </g>
   </g>
   <g id="line2d_11">
    <path d="M 43.584682 163.332699 
L 44.835555 150.906848 
L 45.460992 146.591943 
L 46.711865 140.348425 
L 47.962738 135.854852 
L 49.213611 132.345169 
L 50.464484 129.466931 
L 51.715357 127.029243 
L 53.591666 123.950314 
L 55.467975 121.37312 
L 57.344285 119.150808 
L 59.846031 116.602983 
L 62.347777 114.40515 
L 65.474959 112.026196 
L 68.602141 109.95563 
L 72.35476 107.78227 
L 76.107379 105.868339 
L 80.485434 103.893225 
L 85.488926 101.898528 
L 91.117855 99.918519 
L 97.372219 97.972774 
L 104.877457 95.914444 
L 111.757258 94.235475 
L 120.513369 92.323989 
L 130.520352 90.390481 
L 142.403645 88.361525 
L 157.414121 86.122081 
L 169.92285 84.467585 
L 185.558762 82.617293 
L 200.569238 81.021535 
L 218.706895 79.283822 
L 241.222609 77.36255 
L 253 76.44283 
L 253 76.44283 
" clip-path="url(#p96d39cbb31)" style="fill: none; stroke: #aa4639; stroke-linecap: square"/>
   </g>
   <g id="line2d_12">
    <path d="M 43.584682 160.917754 
L 44.210119 154.08036 
L 45.460992 144.877141 
L 46.086428 141.602599 
L 47.337301 136.751992 
L 47.962738 134.422078 
L 48.588174 132.583815 
L 49.213611 132.429491 
L 49.839047 123.062817 
L 50.464484 117.601271 
L 51.08992 114.045774 
L 51.715357 111.926373 
L 52.340793 110.572071 
L 52.96623 109.623108 
L 54.217102 108.271567 
L 56.093412 106.727993 
L 64.224086 100.52186 
L 69.853014 95.728603 
L 77.983689 88.822165 
L 84.86349 83.286491 
L 90.492418 79.024329 
L 95.49591 75.523812 
L 101.124838 71.855848 
L 105.502893 69.25201 
L 109.255512 67.264024 
L 114.259004 64.889172 
L 119.262496 62.752656 
L 125.516861 60.356401 
L 131.145789 58.417349 
L 136.774717 56.719188 
L 141.778209 55.429681 
L 151.785193 53.146163 
L 163.043049 50.928887 
L 172.424596 49.291447 
L 182.43158 47.772463 
L 193.064 46.381375 
L 204.947293 45.051138 
L 218.706895 43.744125 
L 234.342807 42.489302 
L 252.480465 41.263271 
L 253 41.231241 
L 253 41.231241 
" clip-path="url(#p96d39cbb31)" style="fill: none; stroke-dasharray: 3.7,1.6; stroke-dashoffset: 0; stroke: #255c69"/>
   </g>
   <g id="patch_4">
    <path d="M 40.4575 169.881875 
L 40.4575 25.8 
" style="fill: none; stroke: #000000; stroke-linejoin: miter; stroke-linecap: square"/>
   </g>
   <g id="patch_5">
    <path d="M 40.4575 169.881875 
L 231.215625 169.881875 
" style="fill: none; stroke: #000000; stroke-linejoin: miter; stroke-linecap: square"/>
   </g>
   <g id="text_13">
    <!-- GRU -->
    <g transform="translate(124.161875 19.8)scale(0.12 -0.12)">
     <defs>
      <path id="Roboto-Regular-47" d="M 3891 2266 
L 3891 600 
Q 3763 413 3403 175 
Q 3044 -63 2281 -63 
Q 1450 -63 915 507 
Q 381 1078 381 2100 
L 381 2453 
Q 381 3469 856 4041 
Q 1331 4613 2213 4613 
Q 2994 4613 3398 4219 
Q 3803 3825 3891 3219 
L 3288 3219 
Q 3225 3588 2979 3853 
Q 2734 4119 2213 4119 
Q 1581 4119 1284 3672 
Q 988 3225 988 2459 
L 988 2100 
Q 988 1313 1344 870 
Q 1700 428 2284 428 
Q 2769 428 2984 542 
Q 3200 656 3291 759 
L 3291 1778 
L 2238 1778 
L 2238 2266 
L 3891 2266 
z
" transform="scale(0.015625)"/>
      <path id="Roboto-Regular-52" d="M 3188 0 
L 2200 1844 
L 1131 1844 
L 1131 0 
L 528 0 
L 528 4550 
L 2034 4550 
Q 2800 4550 3214 4200 
Q 3628 3850 3628 3184 
Q 3628 2759 3398 2442 
Q 3169 2125 2763 1969 
L 3831 38 
L 3831 0 
L 3188 0 
z
M 1131 4056 
L 1131 2334 
L 2053 2334 
Q 2538 2334 2783 2582 
Q 3028 2831 3028 3184 
Q 3028 3578 2792 3817 
Q 2556 4056 2034 4056 
L 1131 4056 
z
" transform="scale(0.015625)"/>
      <path id="Roboto-Regular-55" d="M 3131 4550 
L 3731 4550 
L 3731 1472 
Q 3731 703 3237 320 
Q 2744 -63 2081 -63 
Q 1384 -63 911 320 
Q 438 703 438 1472 
L 438 4550 
L 1034 4550 
L 1034 1472 
Q 1034 938 1323 683 
Q 1613 428 2081 428 
Q 2556 428 2843 683 
Q 3131 938 3131 1472 
L 3131 4550 
z
" transform="scale(0.015625)"/>
     </defs>
     <use xlink:href="#Roboto-Regular-47"/>
     <use xlink:href="#Roboto-Regular-52" x="68.115234"/>
     <use xlink:href="#Roboto-Regular-55" x="129.736328"/>
    </g>
   </g>
   <g id="legend_1">
    <g id="line2d_13">
     <path d="M 138.625 140.819375 
L 148.625 140.819375 
L 158.625 140.819375 
" style="fill: none; stroke: #aa4639; stroke-linecap: square"/>
    </g>
    <g id="text_14">
     <!-- Ground truth -->
     <g transform="translate(166.625 144.319375)scale(0.1 -0.1)">
      <defs>
       <path id="Roboto-Light-47" d="M 3859 2163 
L 3859 544 
Q 3741 372 3367 154 
Q 2994 -63 2278 -63 
Q 1475 -63 964 500 
Q 453 1063 453 2016 
L 453 2569 
Q 453 3506 926 4059 
Q 1400 4613 2219 4613 
Q 2978 4613 3379 4228 
Q 3781 3844 3856 3269 
L 3472 3269 
Q 3403 3675 3118 3979 
Q 2834 4284 2219 4284 
Q 1553 4284 1197 3814 
Q 841 3344 841 2575 
L 841 2016 
Q 841 1222 1236 742 
Q 1631 263 2281 263 
Q 2800 263 3090 402 
Q 3381 541 3478 659 
L 3478 1834 
L 2256 1834 
L 2256 2163 
L 3859 2163 
z
" transform="scale(0.015625)"/>
       <path id="Roboto-Light-72" d="M 1800 3088 
Q 1422 3088 1189 2877 
Q 956 2666 863 2331 
L 863 0 
L 488 0 
L 488 3381 
L 853 3381 
L 863 2853 
Q 1000 3125 1236 3284 
Q 1472 3444 1813 3444 
Q 1963 3444 2063 3406 
L 2050 3066 
Q 1988 3075 1928 3081 
Q 1869 3088 1800 3088 
z
" transform="scale(0.015625)"/>
       <path id="Roboto-Light-6f" d="M 284 1641 
L 284 1741 
Q 284 2478 696 2961 
Q 1109 3444 1791 3444 
Q 2481 3444 2892 2961 
Q 3303 2478 3303 1741 
L 3303 1641 
Q 3303 900 2892 418 
Q 2481 -63 1797 -63 
Q 1109 -63 696 418 
Q 284 900 284 1641 
z
M 659 1741 
L 659 1641 
Q 659 1081 951 668 
Q 1244 256 1797 256 
Q 2344 256 2636 668 
Q 2928 1081 2928 1641 
L 2928 1741 
Q 2928 2288 2634 2706 
Q 2341 3125 1791 3125 
Q 1244 3125 951 2706 
Q 659 2288 659 1741 
z
" transform="scale(0.015625)"/>
       <path id="Roboto-Light-75" d="M 2672 0 
L 2663 428 
Q 2506 200 2240 68 
Q 1975 -63 1588 -63 
Q 1091 -63 783 231 
Q 475 525 475 1219 
L 475 3381 
L 850 3381 
L 850 1213 
Q 850 672 1079 467 
Q 1309 263 1631 263 
Q 2078 263 2320 452 
Q 2563 641 2656 928 
L 2656 3381 
L 3031 3381 
L 3031 0 
L 2672 0 
z
" transform="scale(0.015625)"/>
       <path id="Roboto-Light-6e" d="M 1869 3122 
Q 1475 3122 1223 2876 
Q 972 2631 863 2325 
L 863 0 
L 488 0 
L 488 3381 
L 847 3381 
L 859 2809 
Q 1034 3097 1317 3270 
Q 1600 3444 1963 3444 
Q 2466 3444 2753 3158 
Q 3041 2872 3041 2203 
L 3041 0 
L 2666 0 
L 2666 2203 
Q 2666 2728 2452 2925 
Q 2238 3122 1869 3122 
z
" transform="scale(0.015625)"/>
       <path id="Roboto-Light-64" d="M 2713 0 
L 2694 453 
Q 2528 213 2265 75 
Q 2003 -63 1638 -63 
Q 1041 -63 691 418 
Q 341 900 341 1656 
L 341 1722 
Q 341 2509 691 2976 
Q 1041 3444 1644 3444 
Q 2003 3444 2261 3303 
Q 2519 3163 2688 2909 
L 2688 4800 
L 3063 4800 
L 3063 0 
L 2713 0 
z
M 716 1656 
Q 716 1066 958 664 
Q 1200 263 1709 263 
Q 2091 263 2327 436 
Q 2563 609 2688 872 
L 2688 2469 
Q 2578 2725 2350 2922 
Q 2122 3119 1716 3119 
Q 1200 3119 958 2716 
Q 716 2313 716 1722 
L 716 1656 
z
" transform="scale(0.015625)"/>
       <path id="Roboto-Light-20" transform="scale(0.015625)"/>
       <path id="Roboto-Light-74" d="M 1831 -13 
Q 1688 -63 1431 -63 
Q 1106 -63 900 126 
Q 694 316 694 825 
L 694 3075 
L 75 3075 
L 75 3381 
L 694 3381 
L 694 4250 
L 1072 4250 
L 1072 3381 
L 1769 3381 
L 1769 3075 
L 1072 3075 
L 1072 825 
Q 1072 469 1205 367 
Q 1338 266 1509 266 
Q 1597 266 1673 277 
Q 1750 288 1816 300 
L 1831 -13 
z
" transform="scale(0.015625)"/>
       <path id="Roboto-Light-68" d="M 1869 3122 
Q 1475 3122 1223 2876 
Q 972 2631 863 2325 
L 863 0 
L 488 0 
L 488 4800 
L 863 4800 
L 863 2816 
Q 1038 3100 1319 3272 
Q 1600 3444 1963 3444 
Q 2466 3444 2753 3158 
Q 3041 2872 3041 2203 
L 3041 0 
L 2666 0 
L 2666 2203 
Q 2666 2728 2452 2925 
Q 2238 3122 1869 3122 
z
" transform="scale(0.015625)"/>
      </defs>
      <use xlink:href="#Roboto-Light-47"/>
      <use xlink:href="#Roboto-Light-72" x="68.408203"/>
      <use xlink:href="#Roboto-Light-6f" x="102.099609"/>
      <use xlink:href="#Roboto-Light-75" x="158.154297"/>
      <use xlink:href="#Roboto-Light-6e" x="213.085938"/>
      <use xlink:href="#Roboto-Light-64" x="268.066406"/>
      <use xlink:href="#Roboto-Light-20" x="323.632812"/>
      <use xlink:href="#Roboto-Light-74" x="347.998047"/>
      <use xlink:href="#Roboto-Light-72" x="380.175781"/>
      <use xlink:href="#Roboto-Light-75" x="413.867188"/>
      <use xlink:href="#Roboto-Light-74" x="468.798828"/>
      <use xlink:href="#Roboto-Light-68" x="500.976562"/>
     </g>
    </g>
    <g id="line2d_14">
     <path d="M 138.625 155.350625 
L 148.625 155.350625 
L 158.625 155.350625 
" style="fill: none; stroke-dasharray: 3.7,1.6; stroke-dashoffset: 0; stroke: #255c69"/>
    </g>
    <g id="text_15">
     <!-- Prediction -->
     <g transform="translate(166.625 158.850625)scale(0.1 -0.1)">
      <defs>
       <path id="Roboto-Light-50" d="M 2128 1853 
L 963 1853 
L 963 0 
L 578 0 
L 578 4550 
L 2128 4550 
Q 2878 4550 3268 4173 
Q 3659 3797 3659 3194 
Q 3659 2563 3268 2208 
Q 2878 1853 2128 1853 
z
M 963 4222 
L 963 2181 
L 2128 2181 
Q 2734 2181 3004 2472 
Q 3275 2763 3275 3188 
Q 3275 3606 3004 3914 
Q 2734 4222 2128 4222 
L 963 4222 
z
" transform="scale(0.015625)"/>
       <path id="Roboto-Light-65" d="M 2997 538 
Q 2831 291 2540 114 
Q 2250 -63 1797 -63 
Q 1138 -63 709 403 
Q 281 869 281 1597 
L 281 1731 
Q 281 2513 717 2978 
Q 1153 3444 1731 3444 
Q 2375 3444 2722 3008 
Q 3069 2572 3069 1897 
L 3069 1669 
L 656 1669 
L 656 1597 
Q 656 1038 976 645 
Q 1297 253 1813 253 
Q 2409 253 2759 716 
L 2997 538 
z
M 1731 3125 
Q 1303 3125 1017 2812 
Q 731 2500 672 1988 
L 2694 1988 
L 2694 2028 
Q 2684 2453 2445 2789 
Q 2206 3125 1731 3125 
z
" transform="scale(0.015625)"/>
       <path id="Roboto-Light-69" d="M 466 4359 
Q 466 4613 722 4613 
Q 981 4613 981 4359 
Q 981 4113 722 4113 
Q 466 4113 466 4359 
z
M 906 3381 
L 906 0 
L 534 0 
L 534 3381 
L 906 3381 
z
" transform="scale(0.015625)"/>
       <path id="Roboto-Light-63" d="M 1741 256 
Q 2094 256 2373 457 
Q 2653 659 2681 1047 
L 3038 1047 
Q 3013 563 2634 250 
Q 2256 -63 1741 -63 
Q 1028 -63 662 425 
Q 297 913 297 1625 
L 297 1756 
Q 297 2469 662 2956 
Q 1028 3444 1734 3444 
Q 2278 3444 2645 3119 
Q 3013 2794 3038 2244 
L 2681 2244 
Q 2656 2653 2387 2889 
Q 2119 3125 1734 3125 
Q 1156 3125 912 2709 
Q 669 2294 669 1756 
L 669 1625 
Q 669 1084 912 670 
Q 1156 256 1741 256 
z
" transform="scale(0.015625)"/>
      </defs>
      <use xlink:href="#Roboto-Light-50"/>
      <use xlink:href="#Roboto-Light-72" x="61.572266"/>
      <use xlink:href="#Roboto-Light-65" x="95.263672"/>
      <use xlink:href="#Roboto-Light-64" x="146.972656"/>
      <use xlink:href="#Roboto-Light-69" x="202.539062"/>
      <use xlink:href="#Roboto-Light-63" x="225"/>
      <use xlink:href="#Roboto-Light-74" x="276.5625"/>
      <use xlink:href="#Roboto-Light-69" x="308.740234"/>
      <use xlink:href="#Roboto-Light-6f" x="331.201172"/>
      <use xlink:href="#Roboto-Light-6e" x="387.255859"/>
     </g>
    </g>
   </g>
  </g>
 </g>
 <defs>
  <clipPath id="p96d39cbb31">
   <rect x="40.4575" y="25.8" width="190.758125" height="144.081875"/>
  </clipPath>
 </defs>
</svg>
