<?xml version="1.0" encoding="utf-8" standalone="no"?>
<!DOCTYPE svg PUBLIC "-//W3C//DTD SVG 1.1//EN"
  "http://www.w3.org/Graphics/SVG/1.1/DTD/svg11.dtd">
<svg xmlns:xlink="http://www.w3.org/1999/xlink" width="576pt" height="432pt" viewBox="0 0 576 432" xmlns="http://www.w3.org/2000/svg" version="1.1">
 <metadata>
  <rdf:RDF xmlns:dc="http://purl.org/dc/elements/1.1/" xmlns:cc="http://creativecommons.org/ns#" xmlns:rdf="http://www.w3.org/1999/02/22-rdf-syntax-ns#">
   <cc:Work>
    <dc:type rdf:resource="http://purl.org/dc/dcmitype/StillImage"/>
    <dc:date>2022-06-07T17:44:35.091327</dc:date>
    <dc:format>image/svg+xml</dc:format>
    <dc:creator>
     <cc:Agent>
      <dc:title>Matplotlib v3.5.1, https://matplotlib.org/</dc:title>
     </cc:Agent>
    </dc:creator>
   </cc:Work>
  </rdf:RDF>
 </metadata>
 <defs>
  <style type="text/css">*{stroke-linejoin: round; stroke-linecap: butt}</style>
 </defs>
 <g id="figure_1">
  <g id="patch_1">
   <path d="M 0 432 
L 576 432 
L 576 0 
L 0 0 
L 0 432 
z
" style="fill: none"/>
  </g>
  <g id="axes_1">
   <g id="patch_2">
    <path d="M 48.136875 91.770469 
L 157.312914 91.770469 
L 157.312914 10.8 
L 48.136875 10.8 
L 48.136875 91.770469 
z
" style="fill: none"/>
   </g>
   <g id="matplotlib.axis_1">
    <g id="xtick_1">
     <g id="line2d_1">
      <defs>
       <path id="m19ec02dd02" d="M 0 0 
L 0 4 
" style="stroke: #000000"/>
      </defs>
      <g>
       <use xlink:href="#m19ec02dd02" x="53.099422" y="91.770469" style="stroke: #000000"/>
      </g>
     </g>
    </g>
    <g id="xtick_2">
     <g id="line2d_2">
      <g>
       <use xlink:href="#m19ec02dd02" x="102.77457" y="91.770469" style="stroke: #000000"/>
      </g>
     </g>
    </g>
    <g id="xtick_3">
     <g id="line2d_3">
      <g>
       <use xlink:href="#m19ec02dd02" x="152.449717" y="91.770469" style="stroke: #000000"/>
      </g>
     </g>
    </g>
   </g>
   <g id="matplotlib.axis_2">
    <g id="ytick_1">
     <g id="line2d_4">
      <defs>
       <path id="md66a502778" d="M 0 0 
L -4 0 
" style="stroke: #000000"/>
      </defs>
      <g>
       <use xlink:href="#md66a502778" x="48.136875" y="88.129309" style="stroke: #000000"/>
      </g>
     </g>
     <g id="text_1">
      <!-- 0 -->
      <g transform="translate(33.980625 92.629309)scale(0.12 -0.12)">
       <defs>
        <path id="Roboto-Light-30" d="M 3172 2666 
L 3172 1900 
Q 3172 897 2805 417 
Q 2438 -63 1778 -63 
Q 1125 -63 750 417 
Q 375 897 375 1900 
L 375 2666 
Q 375 3666 747 4141 
Q 1119 4616 1772 4616 
Q 2431 4616 2801 4141 
Q 3172 3666 3172 2666 
z
M 2800 1856 
L 2800 2713 
Q 2800 4297 1772 4297 
Q 750 4297 750 2713 
L 750 1856 
Q 750 1091 1009 673 
Q 1269 256 1778 256 
Q 2294 256 2547 673 
Q 2800 1091 2800 1856 
z
" transform="scale(0.015625)"/>
       </defs>
       <use xlink:href="#Roboto-Light-30"/>
      </g>
     </g>
    </g>
    <g id="ytick_2">
     <g id="line2d_5">
      <g>
       <use xlink:href="#md66a502778" x="48.136875" y="61.015083" style="stroke: #000000"/>
      </g>
     </g>
     <g id="text_2">
      <!-- 2 -->
      <g transform="translate(33.980625 65.515083)scale(0.12 -0.12)">
       <defs>
        <path id="Roboto-Light-32" d="M 3281 319 
L 3281 0 
L 428 0 
L 428 291 
L 1919 1978 
Q 2338 2453 2508 2764 
Q 2678 3075 2678 3359 
Q 2678 3772 2434 4033 
Q 2191 4294 1728 4294 
Q 1253 4294 978 3995 
Q 703 3697 703 3238 
L 328 3238 
Q 328 3803 700 4208 
Q 1072 4613 1728 4613 
Q 2344 4613 2698 4289 
Q 3053 3966 3053 3394 
Q 3053 2981 2779 2562 
Q 2506 2144 2159 1750 
L 888 319 
L 3281 319 
z
" transform="scale(0.015625)"/>
       </defs>
       <use xlink:href="#Roboto-Light-32"/>
      </g>
     </g>
    </g>
    <g id="ytick_3">
     <g id="line2d_6">
      <g>
       <use xlink:href="#md66a502778" x="48.136875" y="33.900857" style="stroke: #000000"/>
      </g>
     </g>
     <g id="text_3">
      <!-- 4 -->
      <g transform="translate(33.980625 38.400857)scale(0.12 -0.12)">
       <defs>
        <path id="Roboto-Light-34" d="M 213 1366 
L 2316 4550 
L 2725 4550 
L 2725 1469 
L 3434 1469 
L 3434 1150 
L 2725 1150 
L 2725 0 
L 2350 0 
L 2350 1150 
L 213 1150 
L 213 1366 
z
M 672 1469 
L 2350 1469 
L 2350 4066 
L 2184 3778 
L 672 1469 
z
" transform="scale(0.015625)"/>
       </defs>
       <use xlink:href="#Roboto-Light-34"/>
      </g>
     </g>
    </g>
   </g>
   <g id="line2d_7">
    <path d="M 53.099422 79.85947 
L 53.397473 68.193574 
L 53.794874 62.16337 
L 54.291626 57.909149 
L 54.887728 54.574098 
L 55.68253 51.48172 
L 56.576683 48.945185 
L 57.570185 46.782827 
L 58.762389 44.737057 
L 60.053943 42.95023 
L 61.544197 41.255591 
L 63.332503 39.575866 
L 65.220158 38.09136 
L 67.505215 36.572963 
L 70.386373 34.967803 
L 73.664933 33.43585 
L 77.638945 31.87407 
L 82.308409 30.332628 
L 87.673325 28.837277 
L 93.137591 27.533083 
L 100.688213 25.997058 
L 107.543384 24.799968 
L 116.28621 23.479503 
L 128.506296 21.921789 
L 146.389349 20.082093 
L 152.350367 19.557431 
L 152.350367 19.557431 
" clip-path="url(#p2c5e4e7e1d)" style="fill: none; stroke: #aa4639; stroke-linecap: square"/>
   </g>
   <g id="line2d_8">
    <path d="M 53.099422 77.176917 
L 53.397473 66.134453 
L 53.794874 60.263206 
L 53.993575 59.164371 
L 54.291626 49.382747 
L 54.490326 48.310772 
L 56.278632 44.331647 
L 59.25914 38.056002 
L 60.948095 34.979746 
L 62.5377 32.561509 
L 64.127305 30.531677 
L 65.81626 28.724749 
L 67.604565 27.137577 
L 69.492221 25.753901 
L 71.677927 24.433313 
L 74.161685 23.198154 
L 77.042843 22.020277 
L 80.321403 20.925585 
L 84.096714 19.907569 
L 88.468127 18.970723 
L 93.534992 18.122013 
L 99.59536 17.344161 
L 106.748581 16.653613 
L 115.690108 16.017225 
L 127.512793 15.406844 
L 148.177654 14.623297 
L 152.350367 14.480618 
L 152.350367 14.480618 
" clip-path="url(#p2c5e4e7e1d)" style="fill: none; stroke-dasharray: 3.7,1.6; stroke-dashoffset: 0; stroke: #255c69"/>
   </g>
   <g id="patch_3">
    <path d="M 48.136875 91.770469 
L 48.136875 10.8 
" style="fill: none; stroke: #000000; stroke-linejoin: miter; stroke-linecap: square"/>
   </g>
   <g id="patch_4">
    <path d="M 48.136875 91.770469 
L 157.312914 91.770469 
" style="fill: none; stroke: #000000; stroke-linejoin: miter; stroke-linecap: square"/>
   </g>
   <g id="legend_1">
    <g id="line2d_9">
     <path d="M 64.722289 62.707969 
L 74.722289 62.707969 
L 84.722289 62.707969 
" style="fill: none; stroke: #aa4639; stroke-linecap: square"/>
    </g>
    <g id="text_4">
     <!-- Ground truth -->
     <g transform="translate(92.722289 66.207969)scale(0.1 -0.1)">
      <defs>
       <path id="Roboto-Light-47" d="M 3859 2163 
L 3859 544 
Q 3741 372 3367 154 
Q 2994 -63 2278 -63 
Q 1475 -63 964 500 
Q 453 1063 453 2016 
L 453 2569 
Q 453 3506 926 4059 
Q 1400 4613 2219 4613 
Q 2978 4613 3379 4228 
Q 3781 3844 3856 3269 
L 3472 3269 
Q 3403 3675 3118 3979 
Q 2834 4284 2219 4284 
Q 1553 4284 1197 3814 
Q 841 3344 841 2575 
L 841 2016 
Q 841 1222 1236 742 
Q 1631 263 2281 263 
Q 2800 263 3090 402 
Q 3381 541 3478 659 
L 3478 1834 
L 2256 1834 
L 2256 2163 
L 3859 2163 
z
" transform="scale(0.015625)"/>
       <path id="Roboto-Light-72" d="M 1800 3088 
Q 1422 3088 1189 2877 
Q 956 2666 863 2331 
L 863 0 
L 488 0 
L 488 3381 
L 853 3381 
L 863 2853 
Q 1000 3125 1236 3284 
Q 1472 3444 1813 3444 
Q 1963 3444 2063 3406 
L 2050 3066 
Q 1988 3075 1928 3081 
Q 1869 3088 1800 3088 
z
" transform="scale(0.015625)"/>
       <path id="Roboto-Light-6f" d="M 284 1641 
L 284 1741 
Q 284 2478 696 2961 
Q 1109 3444 1791 3444 
Q 2481 3444 2892 2961 
Q 3303 2478 3303 1741 
L 3303 1641 
Q 3303 900 2892 418 
Q 2481 -63 1797 -63 
Q 1109 -63 696 418 
Q 284 900 284 1641 
z
M 659 1741 
L 659 1641 
Q 659 1081 951 668 
Q 1244 256 1797 256 
Q 2344 256 2636 668 
Q 2928 1081 2928 1641 
L 2928 1741 
Q 2928 2288 2634 2706 
Q 2341 3125 1791 3125 
Q 1244 3125 951 2706 
Q 659 2288 659 1741 
z
" transform="scale(0.015625)"/>
       <path id="Roboto-Light-75" d="M 2672 0 
L 2663 428 
Q 2506 200 2240 68 
Q 1975 -63 1588 -63 
Q 1091 -63 783 231 
Q 475 525 475 1219 
L 475 3381 
L 850 3381 
L 850 1213 
Q 850 672 1079 467 
Q 1309 263 1631 263 
Q 2078 263 2320 452 
Q 2563 641 2656 928 
L 2656 3381 
L 3031 3381 
L 3031 0 
L 2672 0 
z
" transform="scale(0.015625)"/>
       <path id="Roboto-Light-6e" d="M 1869 3122 
Q 1475 3122 1223 2876 
Q 972 2631 863 2325 
L 863 0 
L 488 0 
L 488 3381 
L 847 3381 
L 859 2809 
Q 1034 3097 1317 3270 
Q 1600 3444 1963 3444 
Q 2466 3444 2753 3158 
Q 3041 2872 3041 2203 
L 3041 0 
L 2666 0 
L 2666 2203 
Q 2666 2728 2452 2925 
Q 2238 3122 1869 3122 
z
" transform="scale(0.015625)"/>
       <path id="Roboto-Light-64" d="M 2713 0 
L 2694 453 
Q 2528 213 2265 75 
Q 2003 -63 1638 -63 
Q 1041 -63 691 418 
Q 341 900 341 1656 
L 341 1722 
Q 341 2509 691 2976 
Q 1041 3444 1644 3444 
Q 2003 3444 2261 3303 
Q 2519 3163 2688 2909 
L 2688 4800 
L 3063 4800 
L 3063 0 
L 2713 0 
z
M 716 1656 
Q 716 1066 958 664 
Q 1200 263 1709 263 
Q 2091 263 2327 436 
Q 2563 609 2688 872 
L 2688 2469 
Q 2578 2725 2350 2922 
Q 2122 3119 1716 3119 
Q 1200 3119 958 2716 
Q 716 2313 716 1722 
L 716 1656 
z
" transform="scale(0.015625)"/>
       <path id="Roboto-Light-20" transform="scale(0.015625)"/>
       <path id="Roboto-Light-74" d="M 1831 -13 
Q 1688 -63 1431 -63 
Q 1106 -63 900 126 
Q 694 316 694 825 
L 694 3075 
L 75 3075 
L 75 3381 
L 694 3381 
L 694 4250 
L 1072 4250 
L 1072 3381 
L 1769 3381 
L 1769 3075 
L 1072 3075 
L 1072 825 
Q 1072 469 1205 367 
Q 1338 266 1509 266 
Q 1597 266 1673 277 
Q 1750 288 1816 300 
L 1831 -13 
z
" transform="scale(0.015625)"/>
       <path id="Roboto-Light-68" d="M 1869 3122 
Q 1475 3122 1223 2876 
Q 972 2631 863 2325 
L 863 0 
L 488 0 
L 488 4800 
L 863 4800 
L 863 2816 
Q 1038 3100 1319 3272 
Q 1600 3444 1963 3444 
Q 2466 3444 2753 3158 
Q 3041 2872 3041 2203 
L 3041 0 
L 2666 0 
L 2666 2203 
Q 2666 2728 2452 2925 
Q 2238 3122 1869 3122 
z
" transform="scale(0.015625)"/>
      </defs>
      <use xlink:href="#Roboto-Light-47"/>
      <use xlink:href="#Roboto-Light-72" x="68.408203"/>
      <use xlink:href="#Roboto-Light-6f" x="102.099609"/>
      <use xlink:href="#Roboto-Light-75" x="158.154297"/>
      <use xlink:href="#Roboto-Light-6e" x="213.085938"/>
      <use xlink:href="#Roboto-Light-64" x="268.066406"/>
      <use xlink:href="#Roboto-Light-20" x="323.632812"/>
      <use xlink:href="#Roboto-Light-74" x="347.998047"/>
      <use xlink:href="#Roboto-Light-72" x="380.175781"/>
      <use xlink:href="#Roboto-Light-75" x="413.867188"/>
      <use xlink:href="#Roboto-Light-74" x="468.798828"/>
      <use xlink:href="#Roboto-Light-68" x="500.976562"/>
     </g>
    </g>
    <g id="line2d_10">
     <path d="M 64.722289 77.239219 
L 74.722289 77.239219 
L 84.722289 77.239219 
" style="fill: none; stroke-dasharray: 3.7,1.6; stroke-dashoffset: 0; stroke: #255c69"/>
    </g>
    <g id="text_5">
     <!-- Prediction -->
     <g transform="translate(92.722289 80.739219)scale(0.1 -0.1)">
      <defs>
       <path id="Roboto-Light-50" d="M 2128 1853 
L 963 1853 
L 963 0 
L 578 0 
L 578 4550 
L 2128 4550 
Q 2878 4550 3268 4173 
Q 3659 3797 3659 3194 
Q 3659 2563 3268 2208 
Q 2878 1853 2128 1853 
z
M 963 4222 
L 963 2181 
L 2128 2181 
Q 2734 2181 3004 2472 
Q 3275 2763 3275 3188 
Q 3275 3606 3004 3914 
Q 2734 4222 2128 4222 
L 963 4222 
z
" transform="scale(0.015625)"/>
       <path id="Roboto-Light-65" d="M 2997 538 
Q 2831 291 2540 114 
Q 2250 -63 1797 -63 
Q 1138 -63 709 403 
Q 281 869 281 1597 
L 281 1731 
Q 281 2513 717 2978 
Q 1153 3444 1731 3444 
Q 2375 3444 2722 3008 
Q 3069 2572 3069 1897 
L 3069 1669 
L 656 1669 
L 656 1597 
Q 656 1038 976 645 
Q 1297 253 1813 253 
Q 2409 253 2759 716 
L 2997 538 
z
M 1731 3125 
Q 1303 3125 1017 2812 
Q 731 2500 672 1988 
L 2694 1988 
L 2694 2028 
Q 2684 2453 2445 2789 
Q 2206 3125 1731 3125 
z
" transform="scale(0.015625)"/>
       <path id="Roboto-Light-69" d="M 466 4359 
Q 466 4613 722 4613 
Q 981 4613 981 4359 
Q 981 4113 722 4113 
Q 466 4113 466 4359 
z
M 906 3381 
L 906 0 
L 534 0 
L 534 3381 
L 906 3381 
z
" transform="scale(0.015625)"/>
       <path id="Roboto-Light-63" d="M 1741 256 
Q 2094 256 2373 457 
Q 2653 659 2681 1047 
L 3038 1047 
Q 3013 563 2634 250 
Q 2256 -63 1741 -63 
Q 1028 -63 662 425 
Q 297 913 297 1625 
L 297 1756 
Q 297 2469 662 2956 
Q 1028 3444 1734 3444 
Q 2278 3444 2645 3119 
Q 3013 2794 3038 2244 
L 2681 2244 
Q 2656 2653 2387 2889 
Q 2119 3125 1734 3125 
Q 1156 3125 912 2709 
Q 669 2294 669 1756 
L 669 1625 
Q 669 1084 912 670 
Q 1156 256 1741 256 
z
" transform="scale(0.015625)"/>
      </defs>
      <use xlink:href="#Roboto-Light-50"/>
      <use xlink:href="#Roboto-Light-72" x="61.572266"/>
      <use xlink:href="#Roboto-Light-65" x="95.263672"/>
      <use xlink:href="#Roboto-Light-64" x="146.972656"/>
      <use xlink:href="#Roboto-Light-69" x="202.539062"/>
      <use xlink:href="#Roboto-Light-63" x="225"/>
      <use xlink:href="#Roboto-Light-74" x="276.5625"/>
      <use xlink:href="#Roboto-Light-69" x="308.740234"/>
      <use xlink:href="#Roboto-Light-6f" x="331.201172"/>
      <use xlink:href="#Roboto-Light-6e" x="387.255859"/>
     </g>
    </g>
   </g>
  </g>
  <g id="axes_2">
   <g id="patch_5">
    <path d="M 181.102656 91.770469 
L 290.278695 91.770469 
L 290.278695 10.8 
L 181.102656 10.8 
L 181.102656 91.770469 
z
" style="fill: none"/>
   </g>
   <g id="matplotlib.axis_3">
    <g id="xtick_4">
     <g id="line2d_11">
      <g>
       <use xlink:href="#m19ec02dd02" x="186.065203" y="91.770469" style="stroke: #000000"/>
      </g>
     </g>
    </g>
    <g id="xtick_5">
     <g id="line2d_12">
      <g>
       <use xlink:href="#m19ec02dd02" x="235.740351" y="91.770469" style="stroke: #000000"/>
      </g>
     </g>
    </g>
    <g id="xtick_6">
     <g id="line2d_13">
      <g>
       <use xlink:href="#m19ec02dd02" x="285.415498" y="91.770469" style="stroke: #000000"/>
      </g>
     </g>
    </g>
   </g>
   <g id="matplotlib.axis_4">
    <g id="ytick_4">
     <g id="line2d_14">
      <g>
       <use xlink:href="#md66a502778" x="181.102656" y="88.129309" style="stroke: #000000"/>
      </g>
     </g>
    </g>
    <g id="ytick_5">
     <g id="line2d_15">
      <g>
       <use xlink:href="#md66a502778" x="181.102656" y="61.015083" style="stroke: #000000"/>
      </g>
     </g>
    </g>
    <g id="ytick_6">
     <g id="line2d_16">
      <g>
       <use xlink:href="#md66a502778" x="181.102656" y="33.900857" style="stroke: #000000"/>
      </g>
     </g>
    </g>
   </g>
   <g id="line2d_17">
    <path d="M 186.065203 82.351267 
L 186.363254 71.276461 
L 186.760656 65.234057 
L 187.257407 60.974411 
L 187.853509 57.635295 
L 188.648311 54.540205 
L 189.542464 52.00367 
L 190.535967 49.841312 
L 191.72817 47.795542 
L 193.119074 45.8867 
L 194.609329 44.215107 
L 196.397634 42.554362 
L 198.583341 40.874636 
L 200.967748 39.345392 
L 203.749556 37.841909 
L 206.531364 36.556695 
L 209.710574 35.285037 
L 214.081987 33.791044 
L 218.950151 32.378395 
L 223.917666 31.136564 
L 230.574135 29.706286 
L 236.634503 28.578334 
L 249.649392 26.55968 
L 261.074676 25.111779 
L 279.553831 23.205652 
L 285.316148 22.695904 
L 285.316148 22.695904 
" clip-path="url(#peb06abbba1)" style="fill: none; stroke: #aa4639; stroke-linecap: square"/>
   </g>
   <g id="line2d_18">
    <path d="M 186.065203 81.508395 
L 186.363254 70.459678 
L 186.860006 62.612854 
L 186.959356 62.775007 
L 187.158057 54.831926 
L 187.456108 52.556979 
L 190.237916 44.360314 
L 191.827521 40.124084 
L 192.721673 38.279171 
L 196.099583 32.507569 
L 197.589838 30.52233 
L 199.179442 28.761526 
L 200.967748 27.110775 
L 202.855403 25.669448 
L 204.941759 24.364285 
L 207.326167 23.150232 
L 210.107975 21.999196 
L 213.287184 20.930718 
L 216.963145 19.933046 
L 221.235208 19.008993 
L 226.202723 18.16634 
L 232.16374 17.38889 
L 239.316961 16.687074 
L 248.258488 16.041474 
L 260.776625 15.393785 
L 280.249283 14.654223 
L 285.316148 14.480592 
L 285.316148 14.480592 
" clip-path="url(#peb06abbba1)" style="fill: none; stroke-dasharray: 3.7,1.6; stroke-dashoffset: 0; stroke: #255c69"/>
   </g>
   <g id="patch_6">
    <path d="M 181.102656 91.770469 
L 181.102656 10.8 
" style="fill: none; stroke: #000000; stroke-linejoin: miter; stroke-linecap: square"/>
   </g>
   <g id="patch_7">
    <path d="M 181.102656 91.770469 
L 290.278695 91.770469 
" style="fill: none; stroke: #000000; stroke-linejoin: miter; stroke-linecap: square"/>
   </g>
  </g>
  <g id="axes_3">
   <g id="patch_8">
    <path d="M 314.068437 91.770469 
L 423.244476 91.770469 
L 423.244476 10.8 
L 314.068437 10.8 
L 314.068437 91.770469 
z
" style="fill: none"/>
   </g>
   <g id="matplotlib.axis_5">
    <g id="xtick_7">
     <g id="line2d_19">
      <g>
       <use xlink:href="#m19ec02dd02" x="319.030985" y="91.770469" style="stroke: #000000"/>
      </g>
     </g>
    </g>
    <g id="xtick_8">
     <g id="line2d_20">
      <g>
       <use xlink:href="#m19ec02dd02" x="368.706132" y="91.770469" style="stroke: #000000"/>
      </g>
     </g>
    </g>
    <g id="xtick_9">
     <g id="line2d_21">
      <g>
       <use xlink:href="#m19ec02dd02" x="418.381279" y="91.770469" style="stroke: #000000"/>
      </g>
     </g>
    </g>
   </g>
   <g id="matplotlib.axis_6">
    <g id="ytick_7">
     <g id="line2d_22">
      <g>
       <use xlink:href="#md66a502778" x="314.068437" y="88.129309" style="stroke: #000000"/>
      </g>
     </g>
    </g>
    <g id="ytick_8">
     <g id="line2d_23">
      <g>
       <use xlink:href="#md66a502778" x="314.068437" y="61.015083" style="stroke: #000000"/>
      </g>
     </g>
    </g>
    <g id="ytick_9">
     <g id="line2d_24">
      <g>
       <use xlink:href="#md66a502778" x="314.068437" y="33.900857" style="stroke: #000000"/>
      </g>
     </g>
    </g>
   </g>
   <g id="line2d_25">
    <path d="M 319.030985 81.186711 
L 319.329036 68.188151 
L 319.726437 61.543811 
L 320.223188 56.964218 
L 320.81929 53.43259 
L 321.514742 50.538147 
L 322.408895 47.813167 
L 323.402398 45.516593 
L 324.495251 43.522342 
L 325.786805 41.620278 
L 327.277059 39.825316 
L 328.966014 38.142879 
L 330.95302 36.495689 
L 333.039376 35.041011 
L 335.523134 33.579551 
L 338.602993 32.063869 
L 342.378304 30.530559 
L 346.153615 29.253477 
L 351.518531 27.754061 
L 357.678249 26.354967 
L 364.136018 25.144321 
L 370.196386 24.181765 
L 377.846359 23.143289 
L 388.874242 21.898743 
L 406.459244 20.330188 
L 418.281929 19.470664 
L 418.281929 19.470664 
" clip-path="url(#p1c27355917)" style="fill: none; stroke: #aa4639; stroke-linecap: square"/>
   </g>
   <g id="line2d_26">
    <path d="M 319.030985 78.541751 
L 319.329036 67.57188 
L 319.825787 59.963781 
L 319.925137 59.566597 
L 320.223188 50.149912 
L 320.521239 48.851821 
L 321.216691 47.174019 
L 322.011494 45.443301 
L 328.171212 34.155857 
L 329.860167 31.641877 
L 331.549122 29.530217 
L 333.238077 27.776758 
L 334.927032 26.332852 
L 336.814687 25.01346 
L 339.000394 23.772993 
L 341.484151 22.62526 
L 344.46466 21.503198 
L 347.84257 20.471969 
L 351.816582 19.497802 
L 356.386696 18.61196 
L 361.850962 17.78993 
L 368.308731 17.051299 
L 376.256754 16.374682 
L 386.390484 15.747027 
L 400.200175 15.126845 
L 418.281929 14.480579 
L 418.281929 14.480579 
" clip-path="url(#p1c27355917)" style="fill: none; stroke-dasharray: 3.7,1.6; stroke-dashoffset: 0; stroke: #255c69"/>
   </g>
   <g id="patch_9">
    <path d="M 314.068437 91.770469 
L 314.068437 10.8 
" style="fill: none; stroke: #000000; stroke-linejoin: miter; stroke-linecap: square"/>
   </g>
   <g id="patch_10">
    <path d="M 314.068437 91.770469 
L 423.244476 91.770469 
" style="fill: none; stroke: #000000; stroke-linejoin: miter; stroke-linecap: square"/>
   </g>
  </g>
  <g id="axes_4">
   <g id="patch_11">
    <path d="M 447.034219 91.770469 
L 556.210258 91.770469 
L 556.210258 10.8 
L 447.034219 10.8 
L 447.034219 91.770469 
z
" style="fill: none"/>
   </g>
   <g id="matplotlib.axis_7">
    <g id="xtick_10">
     <g id="line2d_27">
      <g>
       <use xlink:href="#m19ec02dd02" x="451.996766" y="91.770469" style="stroke: #000000"/>
      </g>
     </g>
    </g>
    <g id="xtick_11">
     <g id="line2d_28">
      <g>
       <use xlink:href="#m19ec02dd02" x="501.671913" y="91.770469" style="stroke: #000000"/>
      </g>
     </g>
    </g>
    <g id="xtick_12">
     <g id="line2d_29">
      <g>
       <use xlink:href="#m19ec02dd02" x="551.347061" y="91.770469" style="stroke: #000000"/>
      </g>
     </g>
    </g>
   </g>
   <g id="matplotlib.axis_8">
    <g id="ytick_10">
     <g id="line2d_30">
      <g>
       <use xlink:href="#md66a502778" x="447.034219" y="88.129309" style="stroke: #000000"/>
      </g>
     </g>
    </g>
    <g id="ytick_11">
     <g id="line2d_31">
      <g>
       <use xlink:href="#md66a502778" x="447.034219" y="61.015083" style="stroke: #000000"/>
      </g>
     </g>
    </g>
    <g id="ytick_12">
     <g id="line2d_32">
      <g>
       <use xlink:href="#md66a502778" x="447.034219" y="33.900857" style="stroke: #000000"/>
      </g>
     </g>
    </g>
   </g>
   <g id="line2d_33">
    <path d="M 451.996766 87.196579 
L 452.394167 74.893499 
L 452.791568 69.204935 
L 453.28832 64.934445 
L 453.884422 61.519407 
L 454.679224 58.333487 
L 455.573377 55.719675 
L 456.56688 53.493596 
L 457.759083 51.389532 
L 459.149987 49.430529 
L 460.640242 47.715556 
L 462.428547 46.012781 
L 464.514903 44.360171 
L 467.098011 42.658751 
L 469.780469 41.172894 
L 472.562277 39.84972 
L 475.741486 38.53739 
L 479.914199 37.06102 
L 484.484312 35.680906 
L 490.743381 34.087944 
L 497.002449 32.74986 
L 502.665416 31.703252 
L 513.99135 29.958448 
L 524.22443 28.671876 
L 540.219828 27.036892 
L 550.850309 26.132632 
L 551.24771 26.100096 
L 551.24771 26.100096 
" clip-path="url(#p72781ca5bc)" style="fill: none; stroke: #aa4639; stroke-linecap: square"/>
   </g>
   <g id="line2d_34">
    <path d="M 451.996766 67.661233 
L 452.294817 62.318065 
L 452.493517 61.505636 
L 452.592868 61.317507 
L 452.791568 59.682303 
L 452.890919 60.159579 
L 453.18897 56.171999 
L 453.48702 55.098155 
L 456.56688 48.851055 
L 459.149987 42.508008 
L 461.236343 37.404907 
L 462.925298 33.888045 
L 464.415553 31.296749 
L 465.806457 29.296525 
L 467.296711 27.547855 
L 468.786966 26.137649 
L 470.475921 24.855964 
L 472.363576 23.712188 
L 474.648633 22.604974 
L 477.331091 21.561023 
L 480.609651 20.534513 
L 484.384962 19.587698 
L 488.855725 18.698747 
L 494.121291 17.883084 
L 500.47971 17.13153 
L 508.229033 16.448513 
L 518.164062 15.811078 
L 531.079601 15.209695 
L 551.24771 14.480566 
L 551.24771 14.480566 
" clip-path="url(#p72781ca5bc)" style="fill: none; stroke-dasharray: 3.7,1.6; stroke-dashoffset: 0; stroke: #255c69"/>
   </g>
   <g id="patch_12">
    <path d="M 447.034219 91.770469 
L 447.034219 10.8 
" style="fill: none; stroke: #000000; stroke-linejoin: miter; stroke-linecap: square"/>
   </g>
   <g id="patch_13">
    <path d="M 447.034219 91.770469 
L 556.210258 91.770469 
" style="fill: none; stroke: #000000; stroke-linejoin: miter; stroke-linecap: square"/>
   </g>
  </g>
  <g id="axes_5">
   <g id="patch_14">
    <path d="M 48.136875 187.540937 
L 157.312914 187.540937 
L 157.312914 106.570469 
L 48.136875 106.570469 
L 48.136875 187.540937 
z
" style="fill: none"/>
   </g>
   <g id="matplotlib.axis_9">
    <g id="xtick_13">
     <g id="line2d_35">
      <g>
       <use xlink:href="#m19ec02dd02" x="53.099422" y="187.540937" style="stroke: #000000"/>
      </g>
     </g>
    </g>
    <g id="xtick_14">
     <g id="line2d_36">
      <g>
       <use xlink:href="#m19ec02dd02" x="102.77457" y="187.540937" style="stroke: #000000"/>
      </g>
     </g>
    </g>
    <g id="xtick_15">
     <g id="line2d_37">
      <g>
       <use xlink:href="#m19ec02dd02" x="152.449717" y="187.540937" style="stroke: #000000"/>
      </g>
     </g>
    </g>
   </g>
   <g id="matplotlib.axis_10">
    <g id="ytick_13">
     <g id="line2d_38">
      <g>
       <use xlink:href="#md66a502778" x="48.136875" y="183.899777" style="stroke: #000000"/>
      </g>
     </g>
     <g id="text_6">
      <!-- 0 -->
      <g transform="translate(33.980625 188.399777)scale(0.12 -0.12)">
       <use xlink:href="#Roboto-Light-30"/>
      </g>
     </g>
    </g>
    <g id="ytick_14">
     <g id="line2d_39">
      <g>
       <use xlink:href="#md66a502778" x="48.136875" y="156.785552" style="stroke: #000000"/>
      </g>
     </g>
     <g id="text_7">
      <!-- 2 -->
      <g transform="translate(33.980625 161.285552)scale(0.12 -0.12)">
       <use xlink:href="#Roboto-Light-32"/>
      </g>
     </g>
    </g>
    <g id="ytick_15">
     <g id="line2d_40">
      <g>
       <use xlink:href="#md66a502778" x="48.136875" y="129.671326" style="stroke: #000000"/>
      </g>
     </g>
     <g id="text_8">
      <!-- 4 -->
      <g transform="translate(33.980625 134.171326)scale(0.12 -0.12)">
       <use xlink:href="#Roboto-Light-34"/>
      </g>
     </g>
    </g>
   </g>
   <g id="line2d_41">
    <path d="M 53.099422 181.390356 
L 53.397473 170.486369 
L 53.794874 164.300259 
L 54.291626 159.953849 
L 54.887728 156.563214 
L 55.58318 153.766381 
L 56.477332 151.120033 
L 57.470835 148.885822 
L 58.563688 146.943087 
L 59.855242 145.089831 
L 61.345497 143.34503 
L 62.935101 141.798164 
L 64.922107 140.180798 
L 67.207164 138.627154 
L 69.690921 137.198236 
L 72.57208 135.785584 
L 76.04934 134.334974 
L 80.222053 132.858604 
L 84.692816 131.508314 
L 91.150585 129.861125 
L 97.707705 128.452541 
L 103.768072 127.321881 
L 116.981662 125.267976 
L 128.605646 123.791605 
L 147.680903 121.819049 
L 152.350367 121.401486 
L 152.350367 121.401486 
" clip-path="url(#p11d40d7b4d)" style="fill: none; stroke: #aa4639; stroke-linecap: square"/>
   </g>
   <g id="line2d_42">
    <path d="M 53.099422 180.426017 
L 53.397473 171.312047 
L 53.894225 163.529618 
L 53.993575 163.33431 
L 54.192275 154.985757 
L 54.490326 151.451105 
L 54.887728 149.902186 
L 55.88123 147.255954 
L 57.172784 143.509252 
L 58.166287 140.823738 
L 61.246146 134.270914 
L 62.5377 131.963948 
L 64.425356 128.592104 
L 66.014961 126.222684 
L 67.604565 124.236566 
L 69.19417 122.59213 
L 70.883125 121.173255 
L 72.67143 119.968305 
L 74.757786 118.84482 
L 77.241544 117.775767 
L 80.222053 116.746425 
L 83.699313 115.781141 
L 87.872025 114.857727 
L 92.83954 113.996962 
L 98.701207 113.216434 
L 105.854429 112.500002 
L 114.597255 111.855332 
L 126.121889 111.239883 
L 144.501693 110.521408 
L 152.350367 110.251093 
L 152.350367 110.251093 
" clip-path="url(#p11d40d7b4d)" style="fill: none; stroke-dasharray: 3.7,1.6; stroke-dashoffset: 0; stroke: #255c69"/>
   </g>
   <g id="patch_15">
    <path d="M 48.136875 187.540937 
L 48.136875 106.570469 
" style="fill: none; stroke: #000000; stroke-linejoin: miter; stroke-linecap: square"/>
   </g>
   <g id="patch_16">
    <path d="M 48.136875 187.540937 
L 157.312914 187.540937 
" style="fill: none; stroke: #000000; stroke-linejoin: miter; stroke-linecap: square"/>
   </g>
  </g>
  <g id="axes_6">
   <g id="patch_17">
    <path d="M 181.102656 187.540937 
L 290.278695 187.540937 
L 290.278695 106.570469 
L 181.102656 106.570469 
L 181.102656 187.540937 
z
" style="fill: none"/>
   </g>
   <g id="matplotlib.axis_11">
    <g id="xtick_16">
     <g id="line2d_43">
      <g>
       <use xlink:href="#m19ec02dd02" x="186.065203" y="187.540937" style="stroke: #000000"/>
      </g>
     </g>
    </g>
    <g id="xtick_17">
     <g id="line2d_44">
      <g>
       <use xlink:href="#m19ec02dd02" x="235.740351" y="187.540937" style="stroke: #000000"/>
      </g>
     </g>
    </g>
    <g id="xtick_18">
     <g id="line2d_45">
      <g>
       <use xlink:href="#m19ec02dd02" x="285.415498" y="187.540937" style="stroke: #000000"/>
      </g>
     </g>
    </g>
   </g>
   <g id="matplotlib.axis_12">
    <g id="ytick_16">
     <g id="line2d_46">
      <g>
       <use xlink:href="#md66a502778" x="181.102656" y="183.899777" style="stroke: #000000"/>
      </g>
     </g>
    </g>
    <g id="ytick_17">
     <g id="line2d_47">
      <g>
       <use xlink:href="#md66a502778" x="181.102656" y="156.785552" style="stroke: #000000"/>
      </g>
     </g>
    </g>
    <g id="ytick_18">
     <g id="line2d_48">
      <g>
       <use xlink:href="#md66a502778" x="181.102656" y="129.671326" style="stroke: #000000"/>
      </g>
     </g>
    </g>
   </g>
   <g id="line2d_49">
    <path d="M 186.065203 173.763124 
L 186.363254 159.999943 
L 186.760656 153.110218 
L 187.257407 148.373362 
L 187.853509 144.706164 
L 188.648311 141.304684 
L 189.542464 138.491583 
L 190.535967 136.085195 
L 191.62882 134.004181 
L 192.821024 132.192951 
L 194.211928 130.498311 
L 195.801532 128.940601 
L 197.589838 127.52117 
L 199.676194 126.172235 
L 201.961251 124.956165 
L 204.842409 123.695348 
L 208.120969 122.514523 
L 211.89628 121.390644 
L 216.367043 120.284382 
L 221.036507 119.31505 
L 227.494276 118.193874 
L 233.653995 117.296396 
L 241.999419 116.268767 
L 254.517556 115.013374 
L 275.97722 113.367542 
L 285.316148 112.784583 
L 285.316148 112.784583 
" clip-path="url(#pdf042550ed)" style="fill: none; stroke: #aa4639; stroke-linecap: square"/>
   </g>
   <g id="line2d_50">
    <path d="M 186.065203 171.170716 
L 186.363254 159.698024 
L 186.860006 151.79101 
L 186.959356 151.363607 
L 187.158057 143.50388 
L 187.356757 141.849621 
L 187.654808 141.224533 
L 188.15156 140.209103 
L 188.946362 138.544741 
L 190.337266 136.347914 
L 192.721673 132.425221 
L 194.708679 129.376595 
L 196.496984 127.019076 
L 198.28529 125.014837 
L 200.073595 123.338648 
L 201.961251 121.875782 
L 204.047607 120.545264 
L 206.432014 119.293646 
L 209.213822 118.093809 
L 212.393032 116.972988 
L 215.969642 115.950143 
L 220.142355 114.995357 
L 224.911169 114.136059 
L 230.574135 113.346455 
L 237.429306 112.623287 
L 245.973431 111.958312 
L 256.802613 111.347091 
L 272.102559 110.713353 
L 285.316148 110.251139 
L 285.316148 110.251139 
" clip-path="url(#pdf042550ed)" style="fill: none; stroke-dasharray: 3.7,1.6; stroke-dashoffset: 0; stroke: #255c69"/>
   </g>
   <g id="patch_18">
    <path d="M 181.102656 187.540937 
L 181.102656 106.570469 
" style="fill: none; stroke: #000000; stroke-linejoin: miter; stroke-linecap: square"/>
   </g>
   <g id="patch_19">
    <path d="M 181.102656 187.540937 
L 290.278695 187.540937 
" style="fill: none; stroke: #000000; stroke-linejoin: miter; stroke-linecap: square"/>
   </g>
  </g>
  <g id="axes_7">
   <g id="patch_20">
    <path d="M 314.068437 187.540937 
L 423.244476 187.540937 
L 423.244476 106.570469 
L 314.068437 106.570469 
L 314.068437 187.540937 
z
" style="fill: none"/>
   </g>
   <g id="matplotlib.axis_13">
    <g id="xtick_19">
     <g id="line2d_51">
      <g>
       <use xlink:href="#m19ec02dd02" x="319.030985" y="187.540937" style="stroke: #000000"/>
      </g>
     </g>
    </g>
    <g id="xtick_20">
     <g id="line2d_52">
      <g>
       <use xlink:href="#m19ec02dd02" x="368.706132" y="187.540937" style="stroke: #000000"/>
      </g>
     </g>
    </g>
    <g id="xtick_21">
     <g id="line2d_53">
      <g>
       <use xlink:href="#m19ec02dd02" x="418.381279" y="187.540937" style="stroke: #000000"/>
      </g>
     </g>
    </g>
   </g>
   <g id="matplotlib.axis_14">
    <g id="ytick_19">
     <g id="line2d_54">
      <g>
       <use xlink:href="#md66a502778" x="314.068437" y="183.899777" style="stroke: #000000"/>
      </g>
     </g>
    </g>
    <g id="ytick_20">
     <g id="line2d_55">
      <g>
       <use xlink:href="#md66a502778" x="314.068437" y="156.785552" style="stroke: #000000"/>
      </g>
     </g>
    </g>
    <g id="ytick_21">
     <g id="line2d_56">
      <g>
       <use xlink:href="#md66a502778" x="314.068437" y="129.671326" style="stroke: #000000"/>
      </g>
     </g>
    </g>
   </g>
   <g id="line2d_57">
    <path d="M 319.030985 182.03703 
L 319.329036 171.626523 
L 319.726437 165.608521 
L 320.223188 161.346165 
L 320.81929 158.00298 
L 321.514742 155.235974 
L 322.408895 152.611317 
L 323.402398 150.392017 
L 324.594601 148.304221 
L 325.886155 146.488924 
L 327.376409 144.772593 
L 329.164715 143.075242 
L 331.151721 141.50533 
L 333.436777 139.989645 
L 335.920535 138.590552 
L 339.000394 137.116893 
L 342.676355 135.628321 
L 346.153615 134.417672 
L 350.624378 133.070094 
L 355.194492 131.875713 
L 361.15551 130.525424 
L 369.699635 128.889079 
L 377.448958 127.62691 
L 388.17879 126.128851 
L 403.876136 124.312201 
L 414.506618 123.262877 
L 418.281929 122.919882 
L 418.281929 122.919882 
" clip-path="url(#pab12c64e39)" style="fill: none; stroke: #aa4639; stroke-linecap: square"/>
   </g>
   <g id="line2d_58">
    <path d="M 319.030985 180.123118 
L 319.329036 170.097566 
L 319.726437 163.98562 
L 319.825787 163.04145 
L 319.925137 163.216888 
L 320.123838 155.169014 
L 320.421889 151.905235 
L 320.81929 150.60268 
L 324.29655 141.529562 
L 326.979008 134.379615 
L 328.469263 131.058893 
L 329.860167 128.454927 
L 331.251071 126.295669 
L 332.641975 124.522938 
L 334.13223 122.976977 
L 335.721834 121.642632 
L 337.51014 120.427351 
L 339.596496 119.277569 
L 342.080253 118.164706 
L 345.060762 117.079698 
L 348.538022 116.056757 
L 352.512034 115.119399 
L 357.181498 114.24891 
L 362.745114 113.445162 
L 369.302234 112.725142 
L 377.747009 112.0391 
L 389.370993 111.366394 
L 404.571588 110.731576 
L 418.281929 110.251016 
L 418.281929 110.251016 
" clip-path="url(#pab12c64e39)" style="fill: none; stroke-dasharray: 3.7,1.6; stroke-dashoffset: 0; stroke: #255c69"/>
   </g>
   <g id="patch_21">
    <path d="M 314.068437 187.540937 
L 314.068437 106.570469 
" style="fill: none; stroke: #000000; stroke-linejoin: miter; stroke-linecap: square"/>
   </g>
   <g id="patch_22">
    <path d="M 314.068437 187.540937 
L 423.244476 187.540937 
" style="fill: none; stroke: #000000; stroke-linejoin: miter; stroke-linecap: square"/>
   </g>
  </g>
  <g id="axes_8">
   <g id="patch_23">
    <path d="M 447.034219 187.540937 
L 556.210258 187.540937 
L 556.210258 106.570469 
L 447.034219 106.570469 
L 447.034219 187.540937 
z
" style="fill: none"/>
   </g>
   <g id="matplotlib.axis_15">
    <g id="xtick_22">
     <g id="line2d_59">
      <g>
       <use xlink:href="#m19ec02dd02" x="451.996766" y="187.540937" style="stroke: #000000"/>
      </g>
     </g>
    </g>
    <g id="xtick_23">
     <g id="line2d_60">
      <g>
       <use xlink:href="#m19ec02dd02" x="501.671913" y="187.540937" style="stroke: #000000"/>
      </g>
     </g>
    </g>
    <g id="xtick_24">
     <g id="line2d_61">
      <g>
       <use xlink:href="#m19ec02dd02" x="551.347061" y="187.540937" style="stroke: #000000"/>
      </g>
     </g>
    </g>
   </g>
   <g id="matplotlib.axis_16">
    <g id="ytick_22">
     <g id="line2d_62">
      <g>
       <use xlink:href="#md66a502778" x="447.034219" y="183.899777" style="stroke: #000000"/>
      </g>
     </g>
    </g>
    <g id="ytick_23">
     <g id="line2d_63">
      <g>
       <use xlink:href="#md66a502778" x="447.034219" y="156.785552" style="stroke: #000000"/>
      </g>
     </g>
    </g>
    <g id="ytick_24">
     <g id="line2d_64">
      <g>
       <use xlink:href="#md66a502778" x="447.034219" y="129.671326" style="stroke: #000000"/>
      </g>
     </g>
    </g>
   </g>
   <g id="line2d_65">
    <path d="M 451.996766 175.818383 
L 452.294817 164.073856 
L 452.692218 158.019248 
L 453.18897 153.751471 
L 453.785071 150.404218 
L 454.579874 147.298284 
L 455.474026 144.750902 
L 456.467529 142.574988 
L 457.659733 140.51295 
L 458.951287 138.708497 
L 460.540891 136.887777 
L 462.428547 135.107729 
L 464.614253 133.391398 
L 467.296711 131.623551 
L 470.27722 129.958736 
L 474.151882 128.12446 
L 477.827843 126.635891 
L 482.894708 124.887021 
L 486.769369 123.731957 
L 493.227138 122.082052 
L 499.684907 120.696515 
L 505.347874 119.648556 
L 512.203045 118.545001 
L 521.144571 117.314018 
L 533.563358 115.900011 
L 542.206834 115.066248 
L 551.24771 114.298914 
L 551.24771 114.298914 
" clip-path="url(#p07d9829b85)" style="fill: none; stroke: #aa4639; stroke-linecap: square"/>
   </g>
   <g id="line2d_66">
    <path d="M 451.996766 172.25011 
L 452.294817 160.344235 
L 452.791568 153.295317 
L 452.890919 153.476666 
L 453.089619 146.70429 
L 453.28832 145.066966 
L 453.685721 144.026082 
L 454.381173 141.957809 
L 455.474026 139.05755 
L 457.361682 134.765745 
L 459.050637 131.441539 
L 460.540891 128.986564 
L 462.031146 126.955349 
L 463.62075 125.177718 
L 465.309705 123.625745 
L 467.197361 122.189008 
L 469.383068 120.805042 
L 471.866825 119.495514 
L 474.747983 118.237102 
L 477.927193 117.096448 
L 481.503803 116.052147 
L 485.577166 115.097452 
L 490.34598 114.216006 
L 495.909596 113.420008 
L 502.665416 112.687615 
L 511.010841 112.018639 
L 521.641323 111.400559 
L 537.040618 110.749974 
L 551.24771 110.251042 
L 551.24771 110.251042 
" clip-path="url(#p07d9829b85)" style="fill: none; stroke-dasharray: 3.7,1.6; stroke-dashoffset: 0; stroke: #255c69"/>
   </g>
   <g id="patch_24">
    <path d="M 447.034219 187.540937 
L 447.034219 106.570469 
" style="fill: none; stroke: #000000; stroke-linejoin: miter; stroke-linecap: square"/>
   </g>
   <g id="patch_25">
    <path d="M 447.034219 187.540937 
L 556.210258 187.540937 
" style="fill: none; stroke: #000000; stroke-linejoin: miter; stroke-linecap: square"/>
   </g>
  </g>
  <g id="axes_9">
   <g id="patch_26">
    <path d="M 48.136875 283.311406 
L 157.312914 283.311406 
L 157.312914 202.340938 
L 48.136875 202.340938 
L 48.136875 283.311406 
z
" style="fill: none"/>
   </g>
   <g id="matplotlib.axis_17">
    <g id="xtick_25">
     <g id="line2d_67">
      <g>
       <use xlink:href="#m19ec02dd02" x="53.099422" y="283.311406" style="stroke: #000000"/>
      </g>
     </g>
    </g>
    <g id="xtick_26">
     <g id="line2d_68">
      <g>
       <use xlink:href="#m19ec02dd02" x="102.77457" y="283.311406" style="stroke: #000000"/>
      </g>
     </g>
    </g>
    <g id="xtick_27">
     <g id="line2d_69">
      <g>
       <use xlink:href="#m19ec02dd02" x="152.449717" y="283.311406" style="stroke: #000000"/>
      </g>
     </g>
    </g>
   </g>
   <g id="matplotlib.axis_18">
    <g id="ytick_25">
     <g id="line2d_70">
      <g>
       <use xlink:href="#md66a502778" x="48.136875" y="279.670246" style="stroke: #000000"/>
      </g>
     </g>
     <g id="text_9">
      <!-- 0 -->
      <g transform="translate(33.980625 284.170246)scale(0.12 -0.12)">
       <use xlink:href="#Roboto-Light-30"/>
      </g>
     </g>
    </g>
    <g id="ytick_26">
     <g id="line2d_71">
      <g>
       <use xlink:href="#md66a502778" x="48.136875" y="252.55602" style="stroke: #000000"/>
      </g>
     </g>
     <g id="text_10">
      <!-- 2 -->
      <g transform="translate(33.980625 257.05602)scale(0.12 -0.12)">
       <use xlink:href="#Roboto-Light-32"/>
      </g>
     </g>
    </g>
    <g id="ytick_27">
     <g id="line2d_72">
      <g>
       <use xlink:href="#md66a502778" x="48.136875" y="225.441795" style="stroke: #000000"/>
      </g>
     </g>
     <g id="text_11">
      <!-- 4 -->
      <g transform="translate(33.980625 229.941795)scale(0.12 -0.12)">
       <use xlink:href="#Roboto-Light-34"/>
      </g>
     </g>
    </g>
   </g>
   <g id="line2d_73">
    <path d="M 53.099422 278.576187 
L 53.496823 267.409193 
L 53.894225 262.330698 
L 54.390976 258.466921 
L 55.086428 254.904113 
L 55.88123 252.06254 
L 56.775383 249.680556 
L 57.868236 247.43821 
L 59.06044 245.504965 
L 60.451344 243.681536 
L 62.040949 241.974695 
L 63.829254 240.381733 
L 66.014961 238.758947 
L 68.300017 237.330026 
L 71.081826 235.855014 
L 74.757786 234.22138 
L 78.235047 232.911766 
L 83.301912 231.295755 
L 89.064229 229.758378 
L 95.025247 228.408092 
L 100.390162 227.34657 
L 111.517395 225.483821 
L 121.750476 224.060324 
L 137.447822 222.243673 
L 152.350367 220.809328 
L 152.350367 220.809328 
" clip-path="url(#p10d4e495a8)" style="fill: none; stroke: #aa4639; stroke-linecap: square"/>
   </g>
   <g id="line2d_74">
    <path d="M 53.099422 277.238497 
L 53.397473 268.353256 
L 53.794874 262.561972 
L 53.993575 261.458235 
L 54.291626 251.275099 
L 54.589677 248.825289 
L 55.086428 247.221622 
L 57.073434 241.728053 
L 59.755892 233.966464 
L 61.444847 229.703698 
L 63.034452 226.270503 
L 64.326006 224.046199 
L 65.71691 222.052568 
L 67.306514 220.134502 
L 68.697418 218.806383 
L 70.883125 217.120322 
L 73.366882 215.520324 
L 75.651939 214.325994 
L 78.235047 213.240166 
L 81.215556 212.243677 
L 84.792166 211.295789 
L 89.064229 210.402901 
L 94.131094 209.576985 
L 100.191462 208.819426 
L 107.742084 208.113395 
L 116.981662 207.481034 
L 129.599149 206.857459 
L 150.462711 206.085949 
L 152.350367 206.021594 
L 152.350367 206.021594 
" clip-path="url(#p10d4e495a8)" style="fill: none; stroke-dasharray: 3.7,1.6; stroke-dashoffset: 0; stroke: #255c69"/>
   </g>
   <g id="patch_27">
    <path d="M 48.136875 283.311406 
L 48.136875 202.340938 
" style="fill: none; stroke: #000000; stroke-linejoin: miter; stroke-linecap: square"/>
   </g>
   <g id="patch_28">
    <path d="M 48.136875 283.311406 
L 157.312914 283.311406 
" style="fill: none; stroke: #000000; stroke-linejoin: miter; stroke-linecap: square"/>
   </g>
  </g>
  <g id="axes_10">
   <g id="patch_29">
    <path d="M 181.102656 283.311406 
L 290.278695 283.311406 
L 290.278695 202.340938 
L 181.102656 202.340938 
L 181.102656 283.311406 
z
" style="fill: none"/>
   </g>
   <g id="matplotlib.axis_19">
    <g id="xtick_28">
     <g id="line2d_75">
      <g>
       <use xlink:href="#m19ec02dd02" x="186.065203" y="283.311406" style="stroke: #000000"/>
      </g>
     </g>
    </g>
    <g id="xtick_29">
     <g id="line2d_76">
      <g>
       <use xlink:href="#m19ec02dd02" x="235.740351" y="283.311406" style="stroke: #000000"/>
      </g>
     </g>
    </g>
    <g id="xtick_30">
     <g id="line2d_77">
      <g>
       <use xlink:href="#m19ec02dd02" x="285.415498" y="283.311406" style="stroke: #000000"/>
      </g>
     </g>
    </g>
   </g>
   <g id="matplotlib.axis_20">
    <g id="ytick_28">
     <g id="line2d_78">
      <g>
       <use xlink:href="#md66a502778" x="181.102656" y="279.670246" style="stroke: #000000"/>
      </g>
     </g>
    </g>
    <g id="ytick_29">
     <g id="line2d_79">
      <g>
       <use xlink:href="#md66a502778" x="181.102656" y="252.55602" style="stroke: #000000"/>
      </g>
     </g>
    </g>
    <g id="ytick_30">
     <g id="line2d_80">
      <g>
       <use xlink:href="#md66a502778" x="181.102656" y="225.441795" style="stroke: #000000"/>
      </g>
     </g>
    </g>
   </g>
   <g id="line2d_81">
    <path d="M 186.065203 279.63093 
L 186.263904 276.130484 
L 186.661305 269.709835 
L 187.158057 265.264458 
L 187.754158 261.830442 
L 188.449611 259.010561 
L 189.343763 256.350656 
L 190.337266 254.109665 
L 191.430119 252.162864 
L 192.721673 250.306896 
L 194.211928 248.560741 
L 195.801532 247.013874 
L 197.788538 245.396509 
L 200.073595 243.842865 
L 202.855403 242.259393 
L 205.935262 240.78438 
L 209.611223 239.295808 
L 213.982636 237.80046 
L 218.850801 236.387808 
L 223.718965 235.17038 
L 230.474785 233.717056 
L 240.111764 231.987169 
L 248.95394 230.651793 
L 255.61041 229.763802 
L 270.115553 228.092209 
L 285.316148 226.625332 
L 285.316148 226.625332 
" clip-path="url(#paef7922afb)" style="fill: none; stroke: #aa4639; stroke-linecap: square"/>
   </g>
   <g id="line2d_82">
    <path d="M 186.065203 279.446089 
L 186.462605 270.598336 
L 186.959356 264.867539 
L 187.257407 254.727543 
L 187.555458 252.520433 
L 188.548961 249.26746 
L 192.522973 236.956703 
L 193.615826 234.475737 
L 194.90738 232.190511 
L 196.000233 230.026779 
L 198.583341 224.706629 
L 200.073595 222.225385 
L 201.563849 220.153191 
L 203.153454 218.328615 
L 204.743059 216.85399 
L 206.432014 215.607866 
L 208.220319 214.564135 
L 210.406026 213.556695 
L 213.088484 212.581811 
L 216.367043 211.637394 
L 220.341055 210.730084 
L 225.109869 209.875918 
L 230.872186 209.080903 
L 237.826707 208.357897 
L 246.470183 207.696032 
L 257.299365 207.093744 
L 273.791514 206.422486 
L 285.316148 206.02151 
L 285.316148 206.02151 
" clip-path="url(#paef7922afb)" style="fill: none; stroke-dasharray: 3.7,1.6; stroke-dashoffset: 0; stroke: #255c69"/>
   </g>
   <g id="patch_30">
    <path d="M 181.102656 283.311406 
L 181.102656 202.340938 
" style="fill: none; stroke: #000000; stroke-linejoin: miter; stroke-linecap: square"/>
   </g>
   <g id="patch_31">
    <path d="M 181.102656 283.311406 
L 290.278695 283.311406 
" style="fill: none; stroke: #000000; stroke-linejoin: miter; stroke-linecap: square"/>
   </g>
  </g>
  <g id="axes_11">
   <g id="patch_32">
    <path d="M 314.068437 283.311406 
L 423.244476 283.311406 
L 423.244476 202.340938 
L 314.068437 202.340938 
L 314.068437 283.311406 
z
" style="fill: none"/>
   </g>
   <g id="matplotlib.axis_21">
    <g id="xtick_31">
     <g id="line2d_83">
      <g>
       <use xlink:href="#m19ec02dd02" x="319.030985" y="283.311406" style="stroke: #000000"/>
      </g>
     </g>
    </g>
    <g id="xtick_32">
     <g id="line2d_84">
      <g>
       <use xlink:href="#m19ec02dd02" x="368.706132" y="283.311406" style="stroke: #000000"/>
      </g>
     </g>
    </g>
    <g id="xtick_33">
     <g id="line2d_85">
      <g>
       <use xlink:href="#m19ec02dd02" x="418.381279" y="283.311406" style="stroke: #000000"/>
      </g>
     </g>
    </g>
   </g>
   <g id="matplotlib.axis_22">
    <g id="ytick_31">
     <g id="line2d_86">
      <g>
       <use xlink:href="#md66a502778" x="314.068437" y="279.670246" style="stroke: #000000"/>
      </g>
     </g>
    </g>
    <g id="ytick_32">
     <g id="line2d_87">
      <g>
       <use xlink:href="#md66a502778" x="314.068437" y="252.55602" style="stroke: #000000"/>
      </g>
     </g>
    </g>
    <g id="ytick_33">
     <g id="line2d_88">
      <g>
       <use xlink:href="#md66a502778" x="314.068437" y="225.441795" style="stroke: #000000"/>
      </g>
     </g>
    </g>
   </g>
   <g id="line2d_89">
    <path d="M 319.030985 266.414101 
L 319.329036 254.386231 
L 319.726437 248.274685 
L 320.223188 243.98928 
L 320.81929 240.636607 
L 321.614092 237.530673 
L 322.508245 234.987357 
L 323.501748 232.818221 
L 324.693952 230.76703 
L 325.985505 228.976134 
L 327.57511 227.175748 
L 329.264065 225.59228 
L 331.350421 223.961358 
L 333.436777 222.582602 
L 335.920535 221.180793 
L 339.000394 219.708489 
L 341.881552 218.529022 
L 345.656864 217.203139 
L 349.630875 216.015533 
L 353.604887 214.99062 
L 360.360707 213.535938 
L 367.414578 212.300888 
L 373.772997 211.370868 
L 382.019072 210.356796 
L 393.742406 209.188169 
L 402.187181 208.491338 
L 418.281929 207.402704 
L 418.281929 207.402704 
" clip-path="url(#pf3a4ee12de)" style="fill: none; stroke: #aa4639; stroke-linecap: square"/>
   </g>
   <g id="line2d_90">
    <path d="M 319.030985 264.471513 
L 319.329036 253.041179 
L 319.726437 246.26981 
L 319.825787 246.155129 
L 319.925137 244.678354 
L 320.123838 236.646224 
L 320.322539 234.588889 
L 320.521239 234.180188 
L 321.017991 233.847439 
L 321.812793 233.065188 
L 322.309544 232.981398 
L 322.905646 232.892139 
L 323.402398 232.569698 
L 324.09785 231.790185 
L 325.190703 230.185532 
L 329.860167 222.905719 
L 331.549122 220.871407 
L 333.238077 219.184797 
L 335.026382 217.718182 
L 337.013388 216.389086 
L 339.199095 215.193839 
L 341.782202 214.035271 
L 344.762711 212.941375 
L 348.239971 211.904289 
L 352.313333 210.931344 
L 356.982797 210.052226 
L 362.447063 209.2535 
L 369.103533 208.514688 
L 377.150907 207.851316 
L 387.781389 207.215943 
L 402.187181 206.59123 
L 418.281929 206.021491 
L 418.281929 206.021491 
" clip-path="url(#pf3a4ee12de)" style="fill: none; stroke-dasharray: 3.7,1.6; stroke-dashoffset: 0; stroke: #255c69"/>
   </g>
   <g id="patch_33">
    <path d="M 314.068437 283.311406 
L 314.068437 202.340938 
" style="fill: none; stroke: #000000; stroke-linejoin: miter; stroke-linecap: square"/>
   </g>
   <g id="patch_34">
    <path d="M 314.068437 283.311406 
L 423.244476 283.311406 
" style="fill: none; stroke: #000000; stroke-linejoin: miter; stroke-linecap: square"/>
   </g>
  </g>
  <g id="axes_12">
   <g id="patch_35">
    <path d="M 447.034219 283.311406 
L 556.210258 283.311406 
L 556.210258 202.340938 
L 447.034219 202.340938 
L 447.034219 283.311406 
z
" style="fill: none"/>
   </g>
   <g id="matplotlib.axis_23">
    <g id="xtick_34">
     <g id="line2d_91">
      <g>
       <use xlink:href="#m19ec02dd02" x="451.996766" y="283.311406" style="stroke: #000000"/>
      </g>
     </g>
    </g>
    <g id="xtick_35">
     <g id="line2d_92">
      <g>
       <use xlink:href="#m19ec02dd02" x="501.671913" y="283.311406" style="stroke: #000000"/>
      </g>
     </g>
    </g>
    <g id="xtick_36">
     <g id="line2d_93">
      <g>
       <use xlink:href="#m19ec02dd02" x="551.347061" y="283.311406" style="stroke: #000000"/>
      </g>
     </g>
    </g>
   </g>
   <g id="matplotlib.axis_24">
    <g id="ytick_34">
     <g id="line2d_94">
      <g>
       <use xlink:href="#md66a502778" x="447.034219" y="279.670246" style="stroke: #000000"/>
      </g>
     </g>
    </g>
    <g id="ytick_35">
     <g id="line2d_95">
      <g>
       <use xlink:href="#md66a502778" x="447.034219" y="252.55602" style="stroke: #000000"/>
      </g>
     </g>
    </g>
    <g id="ytick_36">
     <g id="line2d_96">
      <g>
       <use xlink:href="#md66a502778" x="447.034219" y="225.441795" style="stroke: #000000"/>
      </g>
     </g>
    </g>
   </g>
   <g id="line2d_97">
    <path d="M 451.996766 270.889304 
L 452.294817 259.277637 
L 452.692218 253.224386 
L 453.18897 248.96203 
L 453.785071 245.621559 
L 454.579874 242.525111 
L 455.474026 239.987222 
L 456.467529 237.823506 
L 457.659733 235.776382 
L 458.951287 233.988198 
L 460.441541 232.293559 
L 462.229846 230.612479 
L 464.117502 229.126619 
L 466.402559 227.606865 
L 469.283717 226.000347 
L 472.562277 224.46704 
L 476.536289 222.90526 
L 480.21225 221.667495 
L 484.981064 220.283316 
L 489.948579 219.03877 
L 496.605048 217.60714 
L 505.844626 215.95317 
L 513.99135 214.731676 
L 524.820532 213.363761 
L 540.517879 211.761313 
L 551.24771 210.858411 
L 551.24771 210.858411 
" clip-path="url(#p3061f17477)" style="fill: none; stroke: #aa4639; stroke-linecap: square"/>
   </g>
   <g id="line2d_98">
    <path d="M 451.996766 268.815825 
L 452.294817 257.279142 
L 452.692218 250.479887 
L 452.890919 249.276678 
L 453.18897 239.343626 
L 453.38767 238.275963 
L 456.368179 232.935048 
L 458.156484 230.140122 
L 463.123999 222.755386 
L 464.912304 220.681596 
L 466.70061 218.938932 
L 468.588265 217.417736 
L 470.575271 216.111589 
L 472.760978 214.940778 
L 475.344085 213.812756 
L 478.423944 212.720559 
L 482.000555 211.697741 
L 486.173267 210.746226 
L 491.041432 209.875136 
L 496.704399 209.092837 
L 503.758269 208.357832 
L 512.799146 207.670232 
L 524.12508 207.051621 
L 541.908783 206.344459 
L 551.24771 206.021536 
L 551.24771 206.021536 
" clip-path="url(#p3061f17477)" style="fill: none; stroke-dasharray: 3.7,1.6; stroke-dashoffset: 0; stroke: #255c69"/>
   </g>
   <g id="patch_36">
    <path d="M 447.034219 283.311406 
L 447.034219 202.340938 
" style="fill: none; stroke: #000000; stroke-linejoin: miter; stroke-linecap: square"/>
   </g>
   <g id="patch_37">
    <path d="M 447.034219 283.311406 
L 556.210258 283.311406 
" style="fill: none; stroke: #000000; stroke-linejoin: miter; stroke-linecap: square"/>
   </g>
  </g>
  <g id="axes_13">
   <g id="patch_38">
    <path d="M 48.136875 379.081875 
L 157.312914 379.081875 
L 157.312914 298.111406 
L 48.136875 298.111406 
L 48.136875 379.081875 
z
" style="fill: none"/>
   </g>
   <g id="matplotlib.axis_25">
    <g id="xtick_37">
     <g id="line2d_99">
      <g>
       <use xlink:href="#m19ec02dd02" x="53.099422" y="379.081875" style="stroke: #000000"/>
      </g>
     </g>
     <g id="text_12">
      <!-- 0 -->
      <g transform="translate(49.771297 395.581875)scale(0.12 -0.12)">
       <use xlink:href="#Roboto-Light-30"/>
      </g>
     </g>
    </g>
    <g id="xtick_38">
     <g id="line2d_100">
      <g>
       <use xlink:href="#m19ec02dd02" x="102.77457" y="379.081875" style="stroke: #000000"/>
      </g>
     </g>
     <g id="text_13">
      <!-- 500 -->
      <g transform="translate(92.790195 395.581875)scale(0.12 -0.12)">
       <defs>
        <path id="Roboto-Light-35" d="M 978 2250 
L 684 2334 
L 906 4550 
L 3181 4550 
L 3181 4203 
L 1228 4203 
L 1066 2666 
Q 1181 2750 1409 2834 
Q 1638 2919 1922 2919 
Q 2531 2919 2901 2525 
Q 3272 2131 3272 1450 
Q 3272 797 2945 367 
Q 2619 -63 1909 -63 
Q 1369 -63 975 246 
Q 581 556 525 1197 
L 884 1197 
Q 991 256 1909 256 
Q 2394 256 2645 565 
Q 2897 875 2897 1444 
Q 2897 1925 2626 2251 
Q 2356 2578 1856 2578 
Q 1531 2578 1337 2489 
Q 1144 2400 978 2250 
z
" transform="scale(0.015625)"/>
       </defs>
       <use xlink:href="#Roboto-Light-35"/>
       <use xlink:href="#Roboto-Light-30" x="55.46875"/>
       <use xlink:href="#Roboto-Light-30" x="110.9375"/>
      </g>
     </g>
    </g>
    <g id="xtick_39">
     <g id="line2d_101">
      <g>
       <use xlink:href="#m19ec02dd02" x="152.449717" y="379.081875" style="stroke: #000000"/>
      </g>
     </g>
     <g id="text_14">
      <!-- 1000 -->
      <g transform="translate(139.137217 395.581875)scale(0.12 -0.12)">
       <defs>
        <path id="Roboto-Light-31" d="M 2169 4569 
L 2169 0 
L 1794 0 
L 1794 4100 
L 559 3641 
L 559 3991 
L 2106 4569 
L 2169 4569 
z
" transform="scale(0.015625)"/>
       </defs>
       <use xlink:href="#Roboto-Light-31"/>
       <use xlink:href="#Roboto-Light-30" x="55.46875"/>
       <use xlink:href="#Roboto-Light-30" x="110.9375"/>
       <use xlink:href="#Roboto-Light-30" x="166.40625"/>
      </g>
     </g>
    </g>
   </g>
   <g id="matplotlib.axis_26">
    <g id="ytick_37">
     <g id="line2d_102">
      <g>
       <use xlink:href="#md66a502778" x="48.136875" y="375.440715" style="stroke: #000000"/>
      </g>
     </g>
     <g id="text_15">
      <!-- 0 -->
      <g transform="translate(33.980625 379.940715)scale(0.12 -0.12)">
       <use xlink:href="#Roboto-Light-30"/>
      </g>
     </g>
    </g>
    <g id="ytick_38">
     <g id="line2d_103">
      <g>
       <use xlink:href="#md66a502778" x="48.136875" y="348.326489" style="stroke: #000000"/>
      </g>
     </g>
     <g id="text_16">
      <!-- 2 -->
      <g transform="translate(33.980625 352.826489)scale(0.12 -0.12)">
       <use xlink:href="#Roboto-Light-32"/>
      </g>
     </g>
    </g>
    <g id="ytick_39">
     <g id="line2d_104">
      <g>
       <use xlink:href="#md66a502778" x="48.136875" y="321.212264" style="stroke: #000000"/>
      </g>
     </g>
     <g id="text_17">
      <!-- 4 -->
      <g transform="translate(33.980625 325.712264)scale(0.12 -0.12)">
       <use xlink:href="#Roboto-Light-34"/>
      </g>
     </g>
    </g>
   </g>
   <g id="line2d_105">
    <path d="M 53.099422 363.195931 
L 53.397473 350.601372 
L 53.794874 344.27427 
L 54.291626 339.881764 
L 54.887728 336.468082 
L 55.58318 333.653627 
L 56.477332 330.992365 
L 57.470835 328.741883 
L 58.663039 326.62562 
L 59.954593 324.784562 
L 61.444847 323.043828 
L 63.034452 321.496962 
L 64.922107 319.956877 
L 67.207164 318.400521 
L 69.889622 316.882124 
L 72.67143 315.564367 
L 75.85064 314.292716 
L 79.526601 313.053594 
L 83.500612 311.921576 
L 88.865528 310.644494 
L 94.429145 309.543655 
L 99.49601 308.686845 
L 105.655728 307.789368 
L 114.001153 306.761739 
L 126.022538 305.559219 
L 145.793247 304.05167 
L 152.350367 303.640888 
L 152.350367 303.640888 
" clip-path="url(#p5b6703f2d1)" style="fill: none; stroke: #aa4639; stroke-linecap: square"/>
   </g>
   <g id="line2d_106">
    <path d="M 53.099422 360.106254 
L 53.397473 348.617813 
L 53.695524 342.050011 
L 53.794874 342.140815 
L 53.894225 341.574677 
L 54.192275 332.792858 
L 54.390976 331.177668 
L 54.689027 330.682381 
L 55.185778 330.131428 
L 55.58318 329.743624 
L 55.88123 329.786073 
L 56.775383 330.475251 
L 57.073434 330.346177 
L 57.470835 329.922197 
L 58.265638 328.639459 
L 60.749395 323.95908 
L 62.637051 320.657949 
L 64.226655 318.31685 
L 65.71691 316.499908 
L 67.306514 314.908204 
L 68.995469 313.524968 
L 70.982475 312.197314 
L 73.267532 310.953473 
L 75.94999 309.761245 
L 79.029849 308.644852 
L 82.60646 307.595218 
L 86.679822 306.638926 
L 91.448636 305.757021 
L 97.012252 304.960998 
L 103.768072 304.228559 
L 112.014147 303.566416 
L 122.743979 302.941516 
L 138.043924 302.294623 
L 152.350367 301.791992 
L 152.350367 301.791992 
" clip-path="url(#p5b6703f2d1)" style="fill: none; stroke-dasharray: 3.7,1.6; stroke-dashoffset: 0; stroke: #255c69"/>
   </g>
   <g id="patch_39">
    <path d="M 48.136875 379.081875 
L 48.136875 298.111406 
" style="fill: none; stroke: #000000; stroke-linejoin: miter; stroke-linecap: square"/>
   </g>
   <g id="patch_40">
    <path d="M 48.136875 379.081875 
L 157.312914 379.081875 
" style="fill: none; stroke: #000000; stroke-linejoin: miter; stroke-linecap: square"/>
   </g>
  </g>
  <g id="axes_14">
   <g id="patch_41">
    <path d="M 181.102656 379.081875 
L 290.278695 379.081875 
L 290.278695 298.111406 
L 181.102656 298.111406 
L 181.102656 379.081875 
z
" style="fill: none"/>
   </g>
   <g id="matplotlib.axis_27">
    <g id="xtick_40">
     <g id="line2d_107">
      <g>
       <use xlink:href="#m19ec02dd02" x="186.065203" y="379.081875" style="stroke: #000000"/>
      </g>
     </g>
     <g id="text_18">
      <!-- 0 -->
      <g transform="translate(182.737078 395.581875)scale(0.12 -0.12)">
       <use xlink:href="#Roboto-Light-30"/>
      </g>
     </g>
    </g>
    <g id="xtick_41">
     <g id="line2d_108">
      <g>
       <use xlink:href="#m19ec02dd02" x="235.740351" y="379.081875" style="stroke: #000000"/>
      </g>
     </g>
     <g id="text_19">
      <!-- 500 -->
      <g transform="translate(225.755976 395.581875)scale(0.12 -0.12)">
       <use xlink:href="#Roboto-Light-35"/>
       <use xlink:href="#Roboto-Light-30" x="55.46875"/>
       <use xlink:href="#Roboto-Light-30" x="110.9375"/>
      </g>
     </g>
    </g>
    <g id="xtick_42">
     <g id="line2d_109">
      <g>
       <use xlink:href="#m19ec02dd02" x="285.415498" y="379.081875" style="stroke: #000000"/>
      </g>
     </g>
     <g id="text_20">
      <!-- 1000 -->
      <g transform="translate(272.102998 395.581875)scale(0.12 -0.12)">
       <use xlink:href="#Roboto-Light-31"/>
       <use xlink:href="#Roboto-Light-30" x="55.46875"/>
       <use xlink:href="#Roboto-Light-30" x="110.9375"/>
       <use xlink:href="#Roboto-Light-30" x="166.40625"/>
      </g>
     </g>
    </g>
   </g>
   <g id="matplotlib.axis_28">
    <g id="ytick_40">
     <g id="line2d_110">
      <g>
       <use xlink:href="#md66a502778" x="181.102656" y="375.440715" style="stroke: #000000"/>
      </g>
     </g>
    </g>
    <g id="ytick_41">
     <g id="line2d_111">
      <g>
       <use xlink:href="#md66a502778" x="181.102656" y="348.326489" style="stroke: #000000"/>
      </g>
     </g>
    </g>
    <g id="ytick_42">
     <g id="line2d_112">
      <g>
       <use xlink:href="#md66a502778" x="181.102656" y="321.212264" style="stroke: #000000"/>
      </g>
     </g>
    </g>
   </g>
   <g id="line2d_113">
    <path d="M 186.065203 370.248341 
L 186.363254 359.042032 
L 186.760656 353.052499 
L 187.257407 348.814545 
L 187.853509 345.488985 
L 188.648311 342.40203 
L 189.542464 339.869562 
L 190.535967 337.71127 
L 191.72817 335.668212 
L 193.119074 333.760728 
L 194.609329 332.091847 
L 196.298284 330.516511 
L 198.38464 328.892367 
L 200.669697 327.401086 
L 203.252804 325.970811 
L 206.531364 324.437501 
L 209.710574 323.1672 
L 213.088484 321.990442 
L 217.559247 320.64151 
L 222.12936 319.445771 
L 230.872186 317.530155 
L 240.211114 315.857204 
L 249.05329 314.520474 
L 255.70976 313.63248 
L 262.763631 312.779737 
L 281.044085 310.896656 
L 285.316148 310.511635 
L 285.316148 310.511635 
" clip-path="url(#pd89127efa1)" style="fill: none; stroke: #aa4639; stroke-linecap: square"/>
   </g>
   <g id="line2d_114">
    <path d="M 186.065203 368.842466 
L 186.363254 357.76676 
L 186.860006 350.273019 
L 186.959356 350.202885 
L 187.158057 341.97126 
L 187.456108 339.595391 
L 188.25091 337.506221 
L 191.926871 328.111148 
L 193.913877 323.859258 
L 195.404131 321.145097 
L 196.894386 318.8856 
L 198.48399 316.890541 
L 200.172945 315.142828 
L 201.961251 313.626073 
L 203.848906 312.31769 
L 206.034613 311.081943 
L 208.51837 309.935845 
L 211.498879 308.814345 
L 214.976139 307.756133 
L 218.950151 306.787513 
L 223.520265 305.906352 
L 228.88518 305.10131 
L 235.34295 304.362698 
L 243.290973 303.686088 
L 253.424703 303.058433 
L 267.433095 302.430468 
L 285.316148 301.791986 
L 285.316148 301.791986 
" clip-path="url(#pd89127efa1)" style="fill: none; stroke-dasharray: 3.7,1.6; stroke-dashoffset: 0; stroke: #255c69"/>
   </g>
   <g id="patch_42">
    <path d="M 181.102656 379.081875 
L 181.102656 298.111406 
" style="fill: none; stroke: #000000; stroke-linejoin: miter; stroke-linecap: square"/>
   </g>
   <g id="patch_43">
    <path d="M 181.102656 379.081875 
L 290.278695 379.081875 
" style="fill: none; stroke: #000000; stroke-linejoin: miter; stroke-linecap: square"/>
   </g>
  </g>
  <g id="axes_15">
   <g id="patch_44">
    <path d="M 314.068437 379.081875 
L 423.244476 379.081875 
L 423.244476 298.111406 
L 314.068437 298.111406 
L 314.068437 379.081875 
z
" style="fill: none"/>
   </g>
   <g id="matplotlib.axis_29">
    <g id="xtick_43">
     <g id="line2d_115">
      <g>
       <use xlink:href="#m19ec02dd02" x="319.030985" y="379.081875" style="stroke: #000000"/>
      </g>
     </g>
     <g id="text_21">
      <!-- 0 -->
      <g transform="translate(315.70286 395.581875)scale(0.12 -0.12)">
       <use xlink:href="#Roboto-Light-30"/>
      </g>
     </g>
    </g>
    <g id="xtick_44">
     <g id="line2d_116">
      <g>
       <use xlink:href="#m19ec02dd02" x="368.706132" y="379.081875" style="stroke: #000000"/>
      </g>
     </g>
     <g id="text_22">
      <!-- 500 -->
      <g transform="translate(358.721757 395.581875)scale(0.12 -0.12)">
       <use xlink:href="#Roboto-Light-35"/>
       <use xlink:href="#Roboto-Light-30" x="55.46875"/>
       <use xlink:href="#Roboto-Light-30" x="110.9375"/>
      </g>
     </g>
    </g>
    <g id="xtick_45">
     <g id="line2d_117">
      <g>
       <use xlink:href="#m19ec02dd02" x="418.381279" y="379.081875" style="stroke: #000000"/>
      </g>
     </g>
     <g id="text_23">
      <!-- 1000 -->
      <g transform="translate(405.068779 395.581875)scale(0.12 -0.12)">
       <use xlink:href="#Roboto-Light-31"/>
       <use xlink:href="#Roboto-Light-30" x="55.46875"/>
       <use xlink:href="#Roboto-Light-30" x="110.9375"/>
       <use xlink:href="#Roboto-Light-30" x="166.40625"/>
      </g>
     </g>
    </g>
   </g>
   <g id="matplotlib.axis_30">
    <g id="ytick_43">
     <g id="line2d_118">
      <g>
       <use xlink:href="#md66a502778" x="314.068437" y="375.440715" style="stroke: #000000"/>
      </g>
     </g>
    </g>
    <g id="ytick_44">
     <g id="line2d_119">
      <g>
       <use xlink:href="#md66a502778" x="314.068437" y="348.326489" style="stroke: #000000"/>
      </g>
     </g>
    </g>
    <g id="ytick_45">
     <g id="line2d_120">
      <g>
       <use xlink:href="#md66a502778" x="314.068437" y="321.212264" style="stroke: #000000"/>
      </g>
     </g>
    </g>
   </g>
   <g id="line2d_121">
    <path d="M 319.030985 375.241425 
L 319.627086 363.438603 
L 320.123838 358.918661 
L 320.71994 355.449397 
L 321.415392 352.610537 
L 322.309544 349.937075 
L 323.303047 347.687948 
L 324.395901 345.734369 
L 325.687454 343.874335 
L 327.177709 342.125465 
L 328.866664 340.487765 
L 330.754319 338.95717 
L 333.039376 337.402168 
L 335.523134 335.973247 
L 338.404292 334.561952 
L 341.881552 333.114051 
L 345.954915 331.672932 
L 350.425678 330.322642 
L 356.784097 328.699857 
L 363.440566 327.269582 
L 373.077545 325.539695 
L 381.919721 324.202961 
L 394.636559 322.578821 
L 403.578085 321.591864 
L 418.281929 320.176503 
L 418.281929 320.176503 
" clip-path="url(#p497907bb4c)" style="fill: none; stroke: #aa4639; stroke-linecap: square"/>
   </g>
   <g id="line2d_122">
    <path d="M 319.030985 374.491463 
L 319.428386 364.991307 
L 319.825787 359.749488 
L 319.925137 359.504737 
L 320.223188 348.968516 
L 320.521239 346.55926 
L 320.91864 345.419065 
L 322.210194 342.241581 
L 324.09785 336.644201 
L 326.084856 331.005071 
L 328.270562 325.542326 
L 329.760817 322.398509 
L 331.350421 319.554918 
L 332.940026 317.184302 
L 334.43028 315.342698 
L 336.019885 313.737852 
L 337.70884 312.354829 
L 339.497145 311.172265 
L 341.583502 310.068084 
L 343.967909 309.063275 
L 346.849067 308.093201 
L 350.326328 307.157511 
L 354.59839 306.246852 
L 359.565905 305.419346 
L 365.526923 304.655594 
L 372.878844 303.948613 
L 382.317122 303.286677 
L 394.139807 302.687757 
L 414.705318 301.914327 
L 418.281929 301.791973 
L 418.281929 301.791973 
" clip-path="url(#p497907bb4c)" style="fill: none; stroke-dasharray: 3.7,1.6; stroke-dashoffset: 0; stroke: #255c69"/>
   </g>
   <g id="patch_45">
    <path d="M 314.068437 379.081875 
L 314.068437 298.111406 
" style="fill: none; stroke: #000000; stroke-linejoin: miter; stroke-linecap: square"/>
   </g>
   <g id="patch_46">
    <path d="M 314.068437 379.081875 
L 423.244476 379.081875 
" style="fill: none; stroke: #000000; stroke-linejoin: miter; stroke-linecap: square"/>
   </g>
  </g>
  <g id="axes_16">
   <g id="patch_47">
    <path d="M 447.034219 379.081875 
L 556.210258 379.081875 
L 556.210258 298.111406 
L 447.034219 298.111406 
L 447.034219 379.081875 
z
" style="fill: none"/>
   </g>
   <g id="matplotlib.axis_31">
    <g id="xtick_46">
     <g id="line2d_123">
      <g>
       <use xlink:href="#m19ec02dd02" x="451.996766" y="379.081875" style="stroke: #000000"/>
      </g>
     </g>
     <g id="text_24">
      <!-- 0 -->
      <g transform="translate(448.668641 395.581875)scale(0.12 -0.12)">
       <use xlink:href="#Roboto-Light-30"/>
      </g>
     </g>
    </g>
    <g id="xtick_47">
     <g id="line2d_124">
      <g>
       <use xlink:href="#m19ec02dd02" x="501.671913" y="379.081875" style="stroke: #000000"/>
      </g>
     </g>
     <g id="text_25">
      <!-- 500 -->
      <g transform="translate(491.687538 395.581875)scale(0.12 -0.12)">
       <use xlink:href="#Roboto-Light-35"/>
       <use xlink:href="#Roboto-Light-30" x="55.46875"/>
       <use xlink:href="#Roboto-Light-30" x="110.9375"/>
      </g>
     </g>
    </g>
    <g id="xtick_48">
     <g id="line2d_125">
      <g>
       <use xlink:href="#m19ec02dd02" x="551.347061" y="379.081875" style="stroke: #000000"/>
      </g>
     </g>
     <g id="text_26">
      <!-- 1000 -->
      <g transform="translate(538.034561 395.581875)scale(0.12 -0.12)">
       <use xlink:href="#Roboto-Light-31"/>
       <use xlink:href="#Roboto-Light-30" x="55.46875"/>
       <use xlink:href="#Roboto-Light-30" x="110.9375"/>
       <use xlink:href="#Roboto-Light-30" x="166.40625"/>
      </g>
     </g>
    </g>
   </g>
   <g id="matplotlib.axis_32">
    <g id="ytick_46">
     <g id="line2d_126">
      <g>
       <use xlink:href="#md66a502778" x="447.034219" y="375.440715" style="stroke: #000000"/>
      </g>
     </g>
    </g>
    <g id="ytick_47">
     <g id="line2d_127">
      <g>
       <use xlink:href="#md66a502778" x="447.034219" y="348.326489" style="stroke: #000000"/>
      </g>
     </g>
    </g>
    <g id="ytick_48">
     <g id="line2d_128">
      <g>
       <use xlink:href="#md66a502778" x="447.034219" y="321.212264" style="stroke: #000000"/>
      </g>
     </g>
    </g>
   </g>
   <g id="line2d_129">
    <path d="M 451.996766 374.852336 
L 452.394167 364.386245 
L 452.791568 359.474502 
L 453.38767 355.102334 
L 454.083122 351.786265 
L 454.877925 349.085687 
L 455.772077 346.791825 
L 456.86493 344.614553 
L 458.057134 342.7274 
L 459.448038 340.937862 
L 461.037643 339.256782 
L 462.925298 337.604169 
L 465.111005 336.012565 
L 467.495412 334.54975 
L 470.475921 333.008308 
L 473.55578 331.655306 
L 477.132391 330.306374 
L 482.199256 328.691724 
L 487.961573 327.154345 
L 493.92259 325.802701 
L 502.367365 324.185339 
L 510.116688 322.923171 
L 520.64782 321.453581 
L 528.297792 320.520849 
L 536.841918 319.582697 
L 547.074998 318.576763 
L 551.24771 318.197159 
L 551.24771 318.197159 
" clip-path="url(#p79011a28a4)" style="fill: none; stroke: #aa4639; stroke-linecap: square"/>
   </g>
   <g id="line2d_130">
    <path d="M 451.996766 374.003239 
L 452.394167 363.487973 
L 452.791568 358.33219 
L 452.890919 358.22605 
L 453.18897 347.917879 
L 453.48702 345.447754 
L 453.884422 344.254456 
L 454.977275 341.510729 
L 459.547388 328.615372 
L 461.236343 324.979248 
L 463.5214 320.45826 
L 464.912304 318.205996 
L 466.402559 316.210918 
L 467.992163 314.463644 
L 469.581768 313.035635 
L 471.370073 311.738313 
L 473.357079 310.590851 
L 475.642136 309.540332 
L 478.423944 308.518774 
L 481.801854 307.527896 
L 485.875216 306.579711 
L 490.644031 305.709397 
L 496.306997 304.91177 
L 503.162168 304.182487 
L 511.606943 303.519115 
L 522.932876 302.878435 
L 538.828923 302.225303 
L 551.24771 301.791882 
L 551.24771 301.791882 
" clip-path="url(#p79011a28a4)" style="fill: none; stroke-dasharray: 3.7,1.6; stroke-dashoffset: 0; stroke: #255c69"/>
   </g>
   <g id="patch_48">
    <path d="M 447.034219 379.081875 
L 447.034219 298.111406 
" style="fill: none; stroke: #000000; stroke-linejoin: miter; stroke-linecap: square"/>
   </g>
   <g id="patch_49">
    <path d="M 447.034219 379.081875 
L 556.210258 379.081875 
" style="fill: none; stroke: #000000; stroke-linejoin: miter; stroke-linecap: square"/>
   </g>
  </g>
  <g id="text_27">
   <!-- Temperature (K) -->
   <g transform="translate(244.245 424.925625)scale(0.12 -0.12)">
    <defs>
     <path id="Roboto-Regular-54" d="M 156 4056 
L 156 4550 
L 3672 4550 
L 3672 4056 
L 2209 4056 
L 2209 0 
L 1616 0 
L 1616 4056 
L 156 4056 
z
" transform="scale(0.015625)"/>
     <path id="Roboto-Regular-65" d="M 3116 591 
Q 2950 341 2647 139 
Q 2344 -63 1844 -63 
Q 1138 -63 714 396 
Q 291 856 291 1572 
L 291 1703 
Q 291 2256 502 2645 
Q 713 3034 1050 3239 
Q 1388 3444 1769 3444 
Q 2494 3444 2826 2970 
Q 3159 2497 3159 1788 
L 3159 1528 
L 872 1528 
Q 884 1063 1148 736 
Q 1413 409 1875 409 
Q 2181 409 2393 534 
Q 2606 659 2766 869 
L 3116 591 
z
M 1769 2969 
Q 1425 2969 1187 2719 
Q 950 2469 891 2000 
L 2581 2000 
L 2581 2044 
Q 2559 2381 2386 2675 
Q 2213 2969 1769 2969 
z
" transform="scale(0.015625)"/>
     <path id="Roboto-Regular-6d" d="M 1794 2956 
Q 1484 2956 1296 2825 
Q 1109 2694 1016 2478 
L 1016 0 
L 434 0 
L 434 3381 
L 984 3381 
L 1000 3013 
Q 1366 3444 2000 3444 
Q 2325 3444 2579 3314 
Q 2834 3184 2969 2900 
Q 3138 3144 3408 3294 
Q 3678 3444 4044 3444 
Q 4588 3444 4883 3153 
Q 5178 2863 5178 2222 
L 5178 0 
L 4597 0 
L 4597 2228 
Q 4597 2653 4401 2804 
Q 4206 2956 3875 2956 
Q 3525 2956 3325 2748 
Q 3125 2541 3094 2244 
L 3094 0 
L 2516 0 
L 2516 2225 
Q 2516 2622 2319 2789 
Q 2122 2956 1794 2956 
z
" transform="scale(0.015625)"/>
     <path id="Roboto-Regular-70" d="M 1984 -63 
Q 1375 -63 1019 328 
L 1019 -1300 
L 438 -1300 
L 438 3381 
L 969 3381 
L 997 3009 
Q 1353 3444 1975 3444 
Q 2616 3444 2956 2969 
Q 3297 2494 3297 1719 
L 3297 1653 
Q 3297 913 2955 425 
Q 2613 -63 1984 -63 
z
M 1806 2956 
Q 1513 2956 1322 2823 
Q 1131 2691 1019 2491 
L 1019 872 
Q 1134 672 1323 542 
Q 1513 413 1813 413 
Q 2281 413 2498 781 
Q 2716 1150 2716 1653 
L 2716 1719 
Q 2716 2222 2498 2589 
Q 2281 2956 1806 2956 
z
" transform="scale(0.015625)"/>
     <path id="Roboto-Regular-72" d="M 1791 2888 
Q 1494 2888 1303 2755 
Q 1113 2622 1019 2400 
L 1019 0 
L 441 0 
L 441 3381 
L 1003 3381 
L 1016 2994 
Q 1144 3200 1342 3322 
Q 1541 3444 1819 3444 
Q 1981 3444 2075 3400 
L 2072 2863 
Q 1944 2888 1791 2888 
z
" transform="scale(0.015625)"/>
     <path id="Roboto-Regular-61" d="M 2528 0 
Q 2472 122 2447 356 
Q 2284 184 2040 60 
Q 1797 -63 1484 -63 
Q 966 -63 653 228 
Q 341 519 341 941 
Q 341 1484 753 1767 
Q 1166 2050 1863 2050 
L 2434 2050 
L 2434 2319 
Q 2434 2619 2254 2798 
Q 2075 2978 1722 2978 
Q 1394 2978 1192 2817 
Q 991 2656 991 2444 
L 413 2444 
Q 413 2806 778 3125 
Q 1144 3444 1756 3444 
Q 2306 3444 2659 3162 
Q 3013 2881 3013 2313 
L 3013 738 
Q 3013 569 3042 378 
Q 3072 188 3131 50 
L 3131 0 
L 2528 0 
z
M 1569 444 
Q 1881 444 2111 600 
Q 2341 756 2434 947 
L 2434 1644 
L 1956 1644 
Q 922 1644 922 1019 
Q 922 778 1084 611 
Q 1247 444 1569 444 
z
" transform="scale(0.015625)"/>
     <path id="Roboto-Regular-74" d="M 1872 0 
Q 1803 -22 1692 -42 
Q 1581 -63 1425 -63 
Q 1103 -63 875 134 
Q 647 331 647 841 
L 647 2938 
L 28 2938 
L 28 3381 
L 647 3381 
L 647 4203 
L 1225 4203 
L 1225 3381 
L 1856 3381 
L 1856 2938 
L 1225 2938 
L 1225 838 
Q 1225 578 1337 506 
Q 1450 434 1597 434 
Q 1669 434 1748 448 
Q 1828 463 1869 472 
L 1872 0 
z
" transform="scale(0.015625)"/>
     <path id="Roboto-Regular-75" d="M 2538 0 
L 2525 334 
Q 2369 147 2125 42 
Q 1881 -63 1538 -63 
Q 1041 -63 734 231 
Q 428 525 428 1200 
L 428 3381 
L 1006 3381 
L 1006 1194 
Q 1006 738 1198 583 
Q 1391 428 1628 428 
Q 1981 428 2193 562 
Q 2406 697 2509 919 
L 2509 3381 
L 3091 3381 
L 3091 0 
L 2538 0 
z
" transform="scale(0.015625)"/>
     <path id="Roboto-Regular-20" transform="scale(0.015625)"/>
     <path id="Roboto-Regular-28" d="M 419 1819 
L 419 1850 
Q 419 2756 678 3434 
Q 938 4113 1294 4541 
Q 1650 4969 1947 5134 
L 2069 4753 
Q 1700 4475 1348 3759 
Q 997 3044 997 1856 
L 997 1813 
Q 997 625 1348 -97 
Q 1700 -819 2069 -1119 
L 1947 -1469 
Q 1650 -1306 1294 -878 
Q 938 -450 678 228 
Q 419 906 419 1819 
z
" transform="scale(0.015625)"/>
     <path id="Roboto-Regular-4b" d="M 3297 0 
L 1688 2119 
L 1131 1541 
L 1131 0 
L 528 0 
L 528 4550 
L 1131 4550 
L 1131 2306 
L 1625 2850 
L 3153 4550 
L 3878 4550 
L 2091 2541 
L 4016 0 
L 3297 0 
z
" transform="scale(0.015625)"/>
     <path id="Roboto-Regular-29" d="M 1772 1850 
L 1772 1819 
Q 1772 906 1512 228 
Q 1253 -450 895 -878 
Q 538 -1306 244 -1469 
L 122 -1119 
Q 488 -841 841 -108 
Q 1194 625 1194 1813 
L 1194 1856 
Q 1194 2647 1019 3236 
Q 844 3825 594 4212 
Q 344 4600 122 4781 
L 244 5134 
Q 538 4969 895 4541 
Q 1253 4113 1512 3434 
Q 1772 2756 1772 1850 
z
" transform="scale(0.015625)"/>
    </defs>
    <use xlink:href="#Roboto-Regular-54"/>
    <use xlink:href="#Roboto-Regular-65" x="59.667969"/>
    <use xlink:href="#Roboto-Regular-6d" x="112.695312"/>
    <use xlink:href="#Roboto-Regular-70" x="200.390625"/>
    <use xlink:href="#Roboto-Regular-65" x="256.542969"/>
    <use xlink:href="#Roboto-Regular-72" x="309.570312"/>
    <use xlink:href="#Roboto-Regular-61" x="343.457031"/>
    <use xlink:href="#Roboto-Regular-74" x="397.851562"/>
    <use xlink:href="#Roboto-Regular-75" x="430.566406"/>
    <use xlink:href="#Roboto-Regular-72" x="485.693359"/>
    <use xlink:href="#Roboto-Regular-65" x="519.580078"/>
    <use xlink:href="#Roboto-Regular-20" x="572.607422"/>
    <use xlink:href="#Roboto-Regular-28" x="597.412109"/>
    <use xlink:href="#Roboto-Regular-4b" x="631.640625"/>
    <use xlink:href="#Roboto-Regular-29" x="694.384766"/>
   </g>
  </g>
  <g id="text_28">
   <!-- log Q(T) -->
   <g transform="translate(21.14625 237.589687)rotate(-90)scale(0.12 -0.12)">
    <defs>
     <path id="Roboto-Regular-6c" d="M 1069 4800 
L 1069 0 
L 488 0 
L 488 4800 
L 1069 4800 
z
" transform="scale(0.015625)"/>
     <path id="Roboto-Regular-6f" d="M 288 1653 
L 288 1725 
Q 288 2459 700 2951 
Q 1113 3444 1822 3444 
Q 2538 3444 2952 2951 
Q 3366 2459 3366 1725 
L 3366 1653 
Q 3366 919 2952 428 
Q 2538 -63 1828 -63 
Q 1116 -63 702 428 
Q 288 919 288 1653 
z
M 866 1725 
L 866 1653 
Q 866 1150 1105 781 
Q 1344 413 1828 413 
Q 2303 413 2543 781 
Q 2784 1150 2784 1653 
L 2784 1725 
Q 2784 2222 2543 2595 
Q 2303 2969 1822 2969 
Q 1344 2969 1105 2595 
Q 866 2222 866 1725 
z
" transform="scale(0.015625)"/>
     <path id="Roboto-Regular-67" d="M 3156 72 
Q 3156 -600 2756 -967 
Q 2356 -1334 1725 -1334 
Q 1463 -1334 1081 -1206 
Q 700 -1078 472 -747 
L 775 -403 
Q 988 -663 1219 -761 
Q 1450 -859 1681 -859 
Q 2091 -859 2334 -629 
Q 2578 -400 2578 44 
L 2578 341 
Q 2234 -63 1631 -63 
Q 1022 -63 662 425 
Q 303 913 303 1653 
L 303 1719 
Q 303 2494 661 2969 
Q 1019 3444 1638 3444 
Q 2259 3444 2603 3006 
L 2631 3381 
L 3156 3381 
L 3156 72 
z
M 881 1653 
Q 881 1150 1092 789 
Q 1303 428 1772 428 
Q 2081 428 2273 568 
Q 2466 709 2578 928 
L 2578 2469 
Q 2469 2678 2275 2817 
Q 2081 2956 1778 2956 
Q 1306 2956 1093 2589 
Q 881 2222 881 1719 
L 881 1653 
z
" transform="scale(0.015625)"/>
     <path id="Roboto-Regular-51" d="M 4019 -394 
L 3613 -769 
L 2653 -6 
Q 2428 -63 2178 -63 
Q 1369 -63 856 521 
Q 344 1106 344 2131 
L 344 2419 
Q 344 3441 853 4027 
Q 1363 4613 2172 4613 
Q 3003 4613 3503 4027 
Q 4003 3441 4003 2419 
L 4003 2131 
Q 4003 1475 3793 995 
Q 3584 516 3209 247 
L 4019 -394 
z
M 3406 2131 
L 3406 2425 
Q 3406 3238 3081 3669 
Q 2756 4100 2172 4100 
Q 1613 4100 1277 3669 
Q 941 3238 941 2425 
L 941 2131 
Q 941 1313 1280 880 
Q 1619 447 2178 447 
Q 2766 447 3086 880 
Q 3406 1313 3406 2131 
z
" transform="scale(0.015625)"/>
    </defs>
    <use xlink:href="#Roboto-Regular-6c"/>
    <use xlink:href="#Roboto-Regular-6f" x="24.316406"/>
    <use xlink:href="#Roboto-Regular-67" x="81.347656"/>
    <use xlink:href="#Roboto-Regular-20" x="137.5"/>
    <use xlink:href="#Roboto-Regular-51" x="162.304688"/>
    <use xlink:href="#Roboto-Regular-28" x="231.103516"/>
    <use xlink:href="#Roboto-Regular-54" x="265.332031"/>
    <use xlink:href="#Roboto-Regular-29" x="325"/>
   </g>
  </g>
 </g>
 <defs>
  <clipPath id="p2c5e4e7e1d">
   <rect x="48.136875" y="10.8" width="109.176039" height="80.970469"/>
  </clipPath>
  <clipPath id="peb06abbba1">
   <rect x="181.102656" y="10.8" width="109.176039" height="80.970469"/>
  </clipPath>
  <clipPath id="p1c27355917">
   <rect x="314.068437" y="10.8" width="109.176039" height="80.970469"/>
  </clipPath>
  <clipPath id="p72781ca5bc">
   <rect x="447.034219" y="10.8" width="109.176039" height="80.970469"/>
  </clipPath>
  <clipPath id="p11d40d7b4d">
   <rect x="48.136875" y="106.570469" width="109.176039" height="80.970469"/>
  </clipPath>
  <clipPath id="pdf042550ed">
   <rect x="181.102656" y="106.570469" width="109.176039" height="80.970469"/>
  </clipPath>
  <clipPath id="pab12c64e39">
   <rect x="314.068437" y="106.570469" width="109.176039" height="80.970469"/>
  </clipPath>
  <clipPath id="p07d9829b85">
   <rect x="447.034219" y="106.570469" width="109.176039" height="80.970469"/>
  </clipPath>
  <clipPath id="p10d4e495a8">
   <rect x="48.136875" y="202.340938" width="109.176039" height="80.970469"/>
  </clipPath>
  <clipPath id="paef7922afb">
   <rect x="181.102656" y="202.340938" width="109.176039" height="80.970469"/>
  </clipPath>
  <clipPath id="pf3a4ee12de">
   <rect x="314.068437" y="202.340938" width="109.176039" height="80.970469"/>
  </clipPath>
  <clipPath id="p3061f17477">
   <rect x="447.034219" y="202.340938" width="109.176039" height="80.970469"/>
  </clipPath>
  <clipPath id="p5b6703f2d1">
   <rect x="48.136875" y="298.111406" width="109.176039" height="80.970469"/>
  </clipPath>
  <clipPath id="pd89127efa1">
   <rect x="181.102656" y="298.111406" width="109.176039" height="80.970469"/>
  </clipPath>
  <clipPath id="p497907bb4c">
   <rect x="314.068437" y="298.111406" width="109.176039" height="80.970469"/>
  </clipPath>
  <clipPath id="p79011a28a4">
   <rect x="447.034219" y="298.111406" width="109.176039" height="80.970469"/>
  </clipPath>
 </defs>
</svg>
